<?xml version="1.0" encoding="utf-8"?>
<!-- Generator: Adobe Illustrator 21.0.0, SVG Export Plug-In . SVG Version: 6.00 Build 0)  -->
<svg version="1.1" id="Layer_1" xmlns="http://www.w3.org/2000/svg" xmlns:xlink="http://www.w3.org/1999/xlink" x="0px" y="0px"
	 viewBox="0 0 780 606.7" style="enable-background:new 0 0 780 606.7;" xml:space="preserve">
<style type="text/css">
	.st0{clip-path:url(#SVGID_2_);}
	.st1{fill:#E2AF8D;}
	.st2{fill:#F9C5A2;}
	.st3{fill:#FFD2B3;}
	.st4{fill:#CE947A;}
	.st5{fill:#4D4A57;stroke:#000000;stroke-miterlimit:10;}
	.st6{fill:#B8B29A;stroke:#000000;stroke-miterlimit:10;}
	.st7{fill:#85E22B;stroke:#000000;stroke-miterlimit:10;}
	.st8{fill:#686559;stroke:#000000;stroke-miterlimit:10;}
	.st9{fill:#E0D9BA;stroke:#665E3A;stroke-miterlimit:10;}
	.st10{fill:#E5DFC3;stroke:#000000;stroke-miterlimit:10;}
	.st11{fill:#E5E13C;stroke:#000000;stroke-miterlimit:10;}
	.st12{fill:none;stroke:#5B5A59;stroke-miterlimit:10;}
	.st13{fill:none;stroke:#5B5A59;stroke-miterlimit:10;stroke-dasharray:11.3036,11.3036;}
	.st14{fill:none;stroke:#5B5A59;stroke-miterlimit:10;stroke-dasharray:12.2223,12.2223;}
	.st15{fill:none;stroke:#5B5A59;stroke-miterlimit:10;stroke-dasharray:11.6943,11.6943;}
	.st16{fill:none;stroke:#5B5A59;stroke-miterlimit:10;stroke-dasharray:12.7024,12.7024;}
	.st17{fill:none;stroke:#5B5A59;stroke-miterlimit:10;stroke-dasharray:13.5569,13.5569;}
	.st18{fill:none;stroke:#5B5A59;stroke-miterlimit:10;stroke-dasharray:11.8369,11.8369;}
	.st19{fill:none;stroke:#5B5A59;stroke-miterlimit:10;stroke-dasharray:12.4386,12.4386;}
	.st20{fill:none;stroke:#5B5A59;stroke-miterlimit:10;stroke-dasharray:12.7019,12.7019;}
	.st21{fill:none;stroke:#5B5A59;stroke-miterlimit:10;stroke-dasharray:11.6033,11.6033;}
</style>
<title>hand</title>
<g>
	<defs>
		
			<rect id="SVGID_1_" x="-103.5" y="-202" transform="matrix(0.6227 -0.7825 0.7825 0.6227 -84.3308 423.1099)" width="1000" height="1002"/>
	</defs>
	<clipPath id="SVGID_2_">
		<use xlink:href="#SVGID_1_"  style="overflow:visible;"/>
	</clipPath>
	<g class="st0">
		<path class="st1" d="M765.5,1.6c-37,17.9-69.8,54.6-103.8,73.3c-40.8,22.6-123.4,83.2-177,107s-121.9,62.4-155.4,88.7
			s-89.5,67.4-120.6,83.1s-52.9,23.3-78.6,30.9S83,406,75.6,411.3c-15.8,11.3-15.7,23.1-15.7,23.1S38.3,454,48.3,465.3
			c0,0-21.6,22.1-9.4,34.6c-8.2,9-17.8,23.1-18.6,41.8C4.9,554.1-7.5,565.9,5.3,576.1s53-17.7,82.8-40.1
			c26.3-19.7,48.3-22.8,62.7-22.7s28.7,3.1,18.7,27.4s-6.4,45.8,7.4,59.9s29.2,2.5,23.7-15.4s8.2-54.7,13.8-61.7
			s25.4-35.8,31.1-52.1s16.9-42.1,33.4-57s102.5-55,149.1-66.7s119.7-79.2,133.1-90.3c13.5-11.1,65.8-25.7,100.5-44.2
			c39.5-21,79.9-53.2,79.9-53.2c5.9-12.8,11.1-25.9,15.6-39.3C777.7,57.2,792.1-11.3,765.5,1.6"/>
		<path class="st2" d="M777.7,4.4c-33.5,13.3-64.2,50.1-116.2,81.5c-45.4,27.4-86.3,74.2-155.9,98.1
			c-62.9,21.6-129.2,61.2-162.7,87.6s-80.9,70.6-120.7,87.5c-32.2,13.6-61.8,20.6-87.6,28.2s-39.9,13.3-47.4,18.6
			c-15.8,11.3-7.1,12.7-7.1,12.7s-29.2,20.6-7.3,24.3c-16.9,11.7-19.7,22.4-4.9,28.3c-11.8,9.1-25.6,31.3-8.2,37.3
			c-13.2,14,7,25,28,13c33-18.9,53.8-20.1,68.2-22.1c15.2-2,29-7.5,28.4,18.7c-0.6,21.8,11.1,41.6,17.7,24.2
			c3.6-9.5,5.6-20.1,11.2-27.1c5.6-7,26.2-41.4,31.9-57.7s13.7-45.2,30.2-60.1s96.9-53.9,142.4-69.4c76.8-26.1,137.7-92.9,151.2-104
			s62-33.4,96.7-51.8c17.8-9.4,56.2-29.6,91-49.7c0,0,16.9-43.9,22.8-92.1C781.5,11.5,777.7,4.4,777.7,4.4"/>
		<path class="st3" d="M441.2,286.2c-57.7,25.8-112.7,50.5-121,34.9s64-70.4,119.9-100.2s74.2-23.4,82.5-7.8S517,252.3,441.2,286.2"
			/>
		<path class="st3" d="M665.8,92.3c-28.1,22-55.6,42.2-51,49.1s50.7-20,80.5-40s31.9-25.4,27.3-32.4S700.4,65.2,665.8,92.3"/>
		<path class="st3" d="M215.1,420c-1.4,17.6-15.1,39.3-46,47s-76.3,4.6-71.1-16.4c7.5-30,27.1-50.6,56.2-63.8
			C189.9,370.8,217.7,388.3,215.1,420"/>
		<path class="st4" d="M102.2,476.6c0,0-39,30.9-45.6,36.3c-6.6,5.4-26.8,21.3-36.2,28.7l1.6-10.8c0,0,21-16,32.2-24.4
			C64.5,498.5,86.9,483.4,102.2,476.6"/>
		<path class="st4" d="M90.3,453.4c-18.8,13.5-36,29.1-51.4,46.4l-3-6.5c0,0,18.5-17.1,29.9-25.3C83.3,455.4,90.4,453.4,90.3,453.4"
			/>
		<path class="st4" d="M94.5,428.2c0,0-27.2,16.8-46.2,37.1l-2.6-6.3c0,0,15.1-12.5,26-19.8C85.3,430,94.5,428.1,94.5,428.2"/>
		<path class="st4" d="M94.8,410.8c0,0-20.2,10.4-34.9,23.7l1.6-6.6c0,0,9.6-7.6,18-11.6C84.4,414,89.5,412.1,94.8,410.8"/>
		<path class="st2" d="M19,553.4c0,0-3.5-2-10.4,2.8s-6.4,8.6-4.3,11.3s6.7,7,11,3.1S28,558.1,19,553.4"/>
	</g>
</g>
<path class="st5" d="M703.5,46.6c0,0-18.4,36.7-8.2,55.1s46.2,51.7,46.2,58.4c0,6.7-136.8,92.1-180.3,97.4
	c-49.9,41.7-110.9,89-110.9,89l-171.4,68l-20.6-27.1l-49.6-33.4L440,187.2L703.5,46.6z"/>
<g>
	<circle class="st6" cx="280.7" cy="367.6" r="12.1"/>
	<circle class="st7" cx="280.7" cy="367.6" r="8.4"/>
</g>
<circle class="st6" cx="497" cy="250" r="29.1"/>
<circle class="st8" cx="497" cy="250" r="17.9"/>
<circle class="st9" cx="493.2" cy="226.8" r="3.8"/>
<circle class="st9" cx="482.3" cy="232.1" r="3.8"/>
<circle class="st9" cx="475" cy="242.8" r="3.8"/>
<circle class="st9" cx="474" cy="253.8" r="3.8"/>
<circle class="st9" cx="478.8" cy="264.9" r="3.8"/>
<circle class="st9" cx="488.8" cy="271.9" r="3.8"/>
<circle class="st9" cx="499.8" cy="272.9" r="3.8"/>
<circle class="st9" cx="509.8" cy="269.9" r="3.8"/>
<circle class="st9" cx="517.8" cy="260.9" r="3.8"/>
<circle class="st9" cx="520.8" cy="248.9" r="3.8"/>
<circle class="st9" cx="505.8" cy="227.9" r="3.8"/>
<circle class="st9" cx="515.8" cy="236.9" r="3.8"/>
<rect x="490.9" y="236.5" transform="matrix(0.6316 0.7753 -0.7753 0.6316 377.0924 -293.4685)" class="st10" width="13" height="27.1"/>
<rect x="502.6" y="237" transform="matrix(0.7753 -0.6316 0.6316 0.7753 -40.2239 373.9169)" class="st11" width="5.5" height="12.9"/>
<g>
	
		<rect x="367.4" y="346.5" transform="matrix(-0.8932 0.4497 -0.4497 -0.8932 866.4271 493.0056)" class="st10" width="14.5" height="5.9"/>
	
		<rect x="371.4" y="346.4" transform="matrix(-0.8932 0.4497 -0.4497 -0.8932 866.5792 492.8776)" class="st8" width="6.7" height="5.9"/>
</g>
<g>
	
		<rect x="554.5" y="200.9" transform="matrix(-0.4497 -0.8932 0.8932 -0.4497 632.2502 797.2831)" class="st10" width="14.5" height="5.9"/>
	
		<rect x="558.4" y="201" transform="matrix(-0.4497 -0.8932 0.8932 -0.4497 632.2353 797.4565)" class="st8" width="6.7" height="5.9"/>
</g>
<g>
	<circle class="st6" cx="669" cy="135.3" r="12.1"/>
	<circle class="st7" cx="669" cy="135.3" r="8.4"/>
</g>
<g>
	<circle class="st6" cx="598.1" cy="147.4" r="12.1"/>
	<circle class="st9" cx="598.1" cy="147.4" r="8.4"/>
</g>
<g>
	<g>
		<path class="st12" d="M526.9,248.9c1.8-0.2,3.8-0.6,5.9-1.2"/>
		<path class="st13" d="M543.4,243.8c15.9-7.2,36.4-20.9,59.2-35.4c27.2-17.3,55.6-35.9,66.2-50.4"/>
		<path class="st12" d="M671.8,153.1c1-2,1.5-4,1.5-5.8"/>
	</g>
</g>
<g>
	<g>
		<path class="st12" d="M523.9,237.3c1.8-0.2,3.8-0.5,5.9-1"/>
		<path class="st14" d="M541.5,232.8c37.5-13.1,99.3-51.2,115.3-77.5"/>
		<path class="st12" d="M659.5,149.8c0.8-2.1,1.2-4,1.2-5.9"/>
	</g>
</g>
<g>
	<g>
		<path class="st12" d="M521.2,232.6c0,0,2.3-0.7,5.7-1.8"/>
		<path class="st15" d="M537.9,226.8c5.5-2.1,11.3-4.6,16-7.3"/>
		<path class="st12" d="M558.7,216.3c2-1.6,3.3-3.2,3.6-4.7"/>
	</g>
</g>
<g>
	<g>
		<path class="st12" d="M513.1,224.7c0,0,2-1,5.4-2.7"/>
		<path class="st16" d="M529.7,216c5.1-2.9,10.8-6.3,16.2-10"/>
		<path class="st12" d="M551.1,202.4c1.6-1.2,3.2-2.4,4.7-3.7"/>
	</g>
</g>
<g>
	<g>
		<path class="st12" d="M508.4,222.4c0,0,1.4-1.7,4-4.5"/>
		<path class="st17" d="M521.9,208.2c13.5-13.2,35.8-32.5,60.3-43.3"/>
		<path class="st12" d="M588.4,162.4c1.9-0.7,3.8-1.3,5.7-1.9"/>
	</g>
</g>
<g>
	<g>
		<path class="st12" d="M496.4,220.1c0,0,1.5-1.6,4.1-4.4"/>
		<path class="st18" d="M508.7,207.2c15.1-15.3,41.7-40.8,67.2-57.9"/>
		<path class="st12" d="M580.9,146.1c1.7-1.1,3.4-2.1,5.1-3.1"/>
	</g>
</g>
<g>
	<g>
		<path class="st12" d="M372,355.3c0,0,2.1-0.3,5.9-1.2"/>
		<path class="st19" d="M389.8,350.8c21.8-7,60.5-23.8,98.8-62.8"/>
		<path class="st12" d="M493,283.5c1.4-1.4,2.7-2.9,4.1-4.4"/>
	</g>
</g>
<g>
	<g>
		<path class="st12" d="M379.8,343.5c0,0,2.1,0.1,6-0.4"/>
		<path class="st20" d="M398.2,340.5c17.1-5,45-18.1,78.4-52.4"/>
		<path class="st12" d="M481,283.5c1.3-1.4,2.7-2.9,4.1-4.4"/>
	</g>
</g>
<g>
	<g>
		<path class="st12" d="M292.8,367.8c0,0,2.1-0.5,5.8-1.5"/>
		<path class="st21" d="M309.7,363.1c33.8-10,110.2-36.4,157.9-82.7"/>
		<path class="st12" d="M471.8,276.3c1.4-1.4,2.8-2.9,4.1-4.4"/>
	</g>
</g>
<g>
	<g>
		<path class="st12" d="M284.9,355.5c0,0,2.1-0.5,5.8-1.5"/>
		<path class="st21" d="M301.8,350.9c33.8-10,110.2-36.4,157.9-82.7"/>
		<path class="st12" d="M463.9,264c1.4-1.4,2.8-2.9,4.1-4.4"/>
	</g>
</g>
</svg>
