<svg id="Layer_1" data-name="Layer 1" xmlns="http://www.w3.org/2000/svg" xmlns:xlink="http://www.w3.org/1999/xlink" viewBox="0 0 779.97 606.72"><defs><style>.cls-1{fill:none;}.cls-2{clip-path:url(#clip-path);}.cls-3{fill:#e2af8d;}.cls-4{fill:#f9c5a2;}.cls-5{fill:#ffd2b3;}.cls-6{fill:#ce947a;}</style><clipPath id="clip-path" transform="translate(-259.02 -200.94)"><rect class="cls-1" x="155.57" y="-1" width="1000" height="1002" transform="translate(-143.89 701.59) rotate(-51.49)"/></clipPath></defs><title>hand</title><g class="cls-2"><path class="cls-3" d="M1024.5,202.52c-37,17.93-69.84,54.55-103.82,73.35-40.8,22.56-123.38,83.18-177,107s-121.92,62.36-155.35,88.72S498.87,539,467.69,554.66,414.84,578,389.1,585.57s-47.05,21.36-54.52,26.69c-15.82,11.28-15.73,23.09-15.73,23.09s-21.5,19.57-11.48,30.84c0,0-21.63,22.08-9.37,34.56-8.22,9-17.8,23.08-18.59,41.79C263.93,755,251.57,766.86,264.29,777s52.95-17.71,82.75-40.06c26.29-19.71,48.29-22.83,62.75-22.74s28.69,3.1,18.72,27.36-6.35,45.82,7.39,59.87,29.19,2.46,23.69-15.41,8.24-54.71,13.8-61.7,25.41-35.85,31.08-52.1,16.9-42.11,33.42-57,102.45-55,149.11-66.68,119.65-79.23,133.13-90.3,65.77-25.74,100.46-44.15c39.53-21,79.86-53.25,79.86-53.25a391.27,391.27,0,0,0,15.62-39.32c20.6-63.43,35.07-131.87,8.42-119" transform="translate(-259.02 -200.94)"/><path class="cls-4" d="M1036.72,205.37c-33.52,13.32-64.21,50.14-116.16,81.46-45.44,27.39-86.33,74.24-155.91,98.14-62.88,21.6-129.23,61.22-162.66,87.57S521.13,543.18,481.27,560c-32.16,13.57-61.84,20.62-87.58,28.17s-39.92,13.29-47.39,18.62c-15.82,11.28-7.15,12.74-7.15,12.74s-29.21,20.64-7.28,24.26c-16.9,11.66-19.7,22.4-4.94,28.31-11.84,9.14-25.59,31.3-8.24,37.27-13.24,14,7,25,27.95,13,33-18.93,53.84-20.14,68.17-22.07,15.16-2,29-7.54,28.36,18.68-.56,21.75,11.07,41.63,17.72,24.15,3.61-9.48,5.65-20.08,11.22-27.08s26.22-41.43,31.89-57.69,13.65-45.21,30.17-60.09,96.9-53.93,142.44-69.39c76.83-26.08,137.69-92.9,151.18-104s62-33.41,96.68-51.82c17.8-9.44,56.24-29.58,91-49.72,0,0,16.9-43.91,22.78-92.11,2.29-18.79-1.54-25.84-1.54-25.84" transform="translate(-259.02 -200.94)"/><path class="cls-5" d="M700.23,487.18c-57.68,25.84-112.73,50.45-121,34.88s64-70.35,119.9-100.18,74.2-23.39,82.5-7.83-5.58,39.18-81.37,73.13" transform="translate(-259.02 -200.94)"/><path class="cls-5" d="M924.78,293.27c-28.13,22-55.61,42.22-51,49.13s50.73-20,80.48-39.95S986.2,277,981.56,270s-22.11-3.91-56.78,23.23" transform="translate(-259.02 -200.94)"/><path class="cls-5" d="M474.14,620.91c-1.42,17.56-15.1,39.27-46,47s-76.35,4.61-71.07-16.38c7.55-30,27.12-50.64,56.19-63.75,35.63-16.07,63.48,1.46,60.93,33.14" transform="translate(-259.02 -200.94)"/><path class="cls-6" d="M361.21,677.58s-39,30.91-45.64,36.27-26.78,21.27-36.17,28.68L281,731.74s21-16,32.16-24.41c10.36-7.86,32.77-23,48.08-29.75" transform="translate(-259.02 -200.94)"/><path class="cls-6" d="M349.36,654.31A310.05,310.05,0,0,0,298,700.74l-3-6.49s18.55-17.09,29.89-25.29c17.43-12.61,24.48-14.65,24.48-14.65" transform="translate(-259.02 -200.94)"/><path class="cls-6" d="M353.57,629.09s-27.16,16.84-46.2,37.1l-2.63-6.29s15.14-12.54,26-19.83c13.62-9.11,22.78-11,22.78-11" transform="translate(-259.02 -200.94)"/><path class="cls-6" d="M353.78,611.7s-20.24,10.4-34.93,23.65l1.64-6.61s9.6-7.56,18-11.57a91.55,91.55,0,0,1,15.26-5.47" transform="translate(-259.02 -200.94)"/><path class="cls-4" d="M278,754.33s-3.45-2-10.37,2.79-6.37,8.6-4.32,11.28,6.66,7,11,3.08S287,759.07,278,754.33" transform="translate(-259.02 -200.94)"/></g></svg>