<?xml version="1.0" encoding="utf-8"?>
<!-- Generator: Adobe Illustrator 21.0.0, SVG Export Plug-In . SVG Version: 6.00 Build 0)  -->
<svg version="1.1" id="Layer_1" xmlns="http://www.w3.org/2000/svg" xmlns:xlink="http://www.w3.org/1999/xlink" x="0px" y="0px"
	 viewBox="0 0 780 606.7" style="enable-background:new 0 0 780 606.7;" xml:space="preserve">
<style type="text/css">
	.st0{opacity:0.57;}
	.st1{clip-path:url(#SVGID_2_);}
	.st2{fill:#E2AF8D;}
	.st3{fill:#F9C5A2;}
	.st4{fill:#FFD2B3;}
	.st5{fill:#CE947A;}
</style>
<title>hand</title>
<g class="st0">
	<defs>
		
			<rect id="SVGID_1_" x="-103.5" y="-202" transform="matrix(0.6227 -0.7825 0.7825 0.6227 -84.3308 423.1099)" class="st0" width="1000" height="1002"/>
	</defs>
	<clipPath id="SVGID_2_">
		<use xlink:href="#SVGID_1_"  style="overflow:visible;"/>
	</clipPath>
	<g class="st1">
		<path class="st2" d="M765.5,1.6c-37,17.9-69.8,54.6-103.8,73.3c-40.8,22.6-123.4,83.2-177,107s-121.9,62.4-155.4,88.7
			s-89.5,67.4-120.6,83.1s-52.9,23.3-78.6,30.9S83,406,75.6,411.3c-15.8,11.3-15.7,23.1-15.7,23.1S38.3,454,48.3,465.3
			c0,0-21.6,22.1-9.4,34.6c-8.2,9-17.8,23.1-18.6,41.8C4.9,554.1-7.5,565.9,5.3,576.1s53-17.7,82.8-40.1
			c26.3-19.7,48.3-22.8,62.7-22.7s28.7,3.1,18.7,27.4s-6.4,45.8,7.4,59.9s29.2,2.5,23.7-15.4s8.2-54.7,13.8-61.7
			s25.4-35.8,31.1-52.1s16.9-42.1,33.4-57s102.5-55,149.1-66.7s119.7-79.2,133.1-90.3c13.5-11.1,65.8-25.7,100.5-44.2
			c39.5-21,79.9-53.2,79.9-53.2c5.9-12.8,11.1-25.9,15.6-39.3C777.7,57.2,792.1-11.3,765.5,1.6"/>
		<path class="st3" d="M777.7,4.4c-33.5,13.3-64.2,50.1-116.2,81.5c-45.4,27.4-86.3,74.2-155.9,98.1
			c-62.9,21.6-129.2,61.2-162.7,87.6s-80.9,70.6-120.7,87.5c-32.2,13.6-61.8,20.6-87.6,28.2s-39.9,13.3-47.4,18.6
			c-15.8,11.3-7.1,12.7-7.1,12.7s-29.2,20.6-7.3,24.3c-16.9,11.7-19.7,22.4-4.9,28.3c-11.8,9.1-25.6,31.3-8.2,37.3
			c-13.2,14,7,25,28,13c33-18.9,53.8-20.1,68.2-22.1c15.2-2,29-7.5,28.4,18.7c-0.6,21.8,11.1,41.6,17.7,24.2
			c3.6-9.5,5.6-20.1,11.2-27.1c5.6-7,26.2-41.4,31.9-57.7s13.7-45.2,30.2-60.1s96.9-53.9,142.4-69.4c76.8-26.1,137.7-92.9,151.2-104
			s62-33.4,96.7-51.8c17.8-9.4,56.2-29.6,91-49.7c0,0,16.9-43.9,22.8-92.1C781.5,11.5,777.7,4.4,777.7,4.4"/>
		<path class="st4" d="M441.2,286.2c-57.7,25.8-112.7,50.5-121,34.9s64-70.4,119.9-100.2s74.2-23.4,82.5-7.8S517,252.3,441.2,286.2"
			/>
		<path class="st4" d="M665.8,92.3c-28.1,22-55.6,42.2-51,49.1s50.7-20,80.5-40s31.9-25.4,27.3-32.4S700.4,65.2,665.8,92.3"/>
		<path class="st4" d="M215.1,420c-1.4,17.6-15.1,39.3-46,47s-76.3,4.6-71.1-16.4c7.5-30,27.1-50.6,56.2-63.8
			C189.9,370.8,217.7,388.3,215.1,420"/>
		<path class="st5" d="M102.2,476.6c0,0-39,30.9-45.6,36.3c-6.6,5.4-26.8,21.3-36.2,28.7l1.6-10.8c0,0,21-16,32.2-24.4
			C64.5,498.5,86.9,483.4,102.2,476.6"/>
		<path class="st5" d="M90.3,453.4c-18.8,13.5-36,29.1-51.4,46.4l-3-6.5c0,0,18.5-17.1,29.9-25.3C83.3,455.4,90.4,453.4,90.3,453.4"
			/>
		<path class="st5" d="M94.5,428.2c0,0-27.2,16.8-46.2,37.1l-2.6-6.3c0,0,15.1-12.5,26-19.8C85.3,430,94.5,428.1,94.5,428.2"/>
		<path class="st5" d="M94.8,410.8c0,0-20.2,10.4-34.9,23.7l1.6-6.6c0,0,9.6-7.6,18-11.6C84.4,414,89.5,412.1,94.8,410.8"/>
		<path class="st3" d="M19,553.4c0,0-3.5-2-10.4,2.8s-6.4,8.6-4.3,11.3s6.7,7,11,3.1S28,558.1,19,553.4"/>
	</g>
</g>
</svg>
