<svg width="268" height="48" viewBox="0 0 268 48" fill="none" xmlns="http://www.w3.org/2000/svg">
<g clip-path="url(#clip0_4620_1557)">
<path d="M76.8541 5.63757C77.7683 5.63757 78.5953 5.78355 79.3316 6.07552C80.0643 6.36748 80.6959 6.76719 81.2193 7.27465C81.7427 7.78211 82.144 8.36951 82.4197 9.03685C82.6953 9.70419 82.8349 10.4237 82.8349 11.1953C82.8349 12.3805 82.5802 13.4059 82.0777 14.2713C81.5717 15.1368 80.7482 15.7937 79.6002 16.2455V16.3012C80.155 16.4506 80.6122 16.68 80.9751 16.9928C81.338 17.3056 81.6346 17.6706 81.8614 18.0912C82.0917 18.5152 82.2557 18.9809 82.3638 19.4884C82.4685 19.9959 82.5418 20.5033 82.5767 21.0108C82.5941 21.3306 82.6151 21.7059 82.6325 22.1404C82.65 22.5749 82.6849 23.0163 82.7337 23.4647C82.7826 23.9165 82.8558 24.344 82.964 24.7472C83.0687 25.1539 83.2257 25.4945 83.4351 25.776H78.9407C78.693 25.1365 78.5395 24.3753 78.4836 23.4925C78.4278 22.6096 78.3406 21.7615 78.2254 20.9552C78.0719 19.902 77.7474 19.1304 77.2519 18.6403C76.7564 18.1502 75.9433 17.9069 74.8198 17.9069H70.3254V25.7795H65.8311V5.63757H76.8506H76.8541ZM75.2524 14.751C76.2818 14.751 77.0565 14.525 77.5694 14.0732C78.0858 13.6214 78.3406 12.888 78.3406 11.8731C78.3406 10.8581 78.0823 10.1838 77.5694 9.74242C77.053 9.30101 76.2818 9.07856 75.2524 9.07856H70.3289V14.7475H75.2524V14.751Z" fill="white"/>
<path d="M101.779 5.63757V9.36009H90.9896V13.677H100.893V17.1179H90.9896V22.0535H102.009V25.776H86.4988V5.63757H101.782H101.779Z" fill="white"/>
<path d="M114.257 5.63757C115.534 5.63757 116.623 5.82179 117.52 6.18674C118.416 6.55517 119.146 7.0383 119.711 7.6396C120.273 8.2409 120.684 8.9291 120.943 9.69724C121.201 10.4689 121.33 11.2683 121.33 12.0955C121.33 12.9227 121.201 13.6978 120.943 14.4799C120.684 15.2619 120.273 15.9536 119.711 16.5549C119.149 17.1562 118.416 17.6393 117.52 18.0077C116.623 18.3762 115.534 18.5569 114.257 18.5569H109.536V25.7795H105.042V5.63757H114.257ZM113.025 15.1159C113.542 15.1159 114.037 15.0777 114.515 15.0047C114.993 14.9282 115.412 14.7823 115.775 14.5668C116.138 14.3513 116.427 14.0454 116.647 13.6492C116.867 13.2529 116.975 12.7385 116.975 12.099C116.975 11.4594 116.864 10.9416 116.647 10.5488C116.427 10.1526 116.138 9.85017 115.775 9.6312C115.412 9.4157 114.993 9.26972 114.515 9.19326C114.037 9.11679 113.542 9.08203 113.025 9.08203H109.532V15.1194H113.025V15.1159Z" fill="white"/>
<path d="M132.203 5.63757L139.845 25.7795H135.179L133.634 21.2923H125.992L124.39 25.7795H119.868L127.597 5.63757H132.203ZM132.461 17.9938L129.886 10.6009H129.83L127.168 17.9938H132.461Z" fill="white"/>
<path d="M137.385 9.36009V5.63757H154.127V9.36009H148.003V25.7795H143.509V9.36009H137.385Z" fill="white"/>
<path d="M167.491 5.63757C168.406 5.63757 169.232 5.78355 169.969 6.07552C170.702 6.36748 171.333 6.76719 171.857 7.27465C172.38 7.78211 172.781 8.36951 173.057 9.03685C173.333 9.70419 173.472 10.4237 173.472 11.1953C173.472 12.3805 173.217 13.4059 172.715 14.2713C172.209 15.1368 171.385 15.7937 170.237 16.2455V16.3012C170.792 16.4506 171.249 16.68 171.612 16.9928C171.975 17.3056 172.272 17.6706 172.499 18.0912C172.729 18.5152 172.893 18.9809 173.001 19.4884C173.106 19.9959 173.179 20.5033 173.214 21.0108C173.231 21.3306 173.252 21.7059 173.27 22.1404C173.287 22.5749 173.322 23.0163 173.371 23.4647C173.42 23.9165 173.493 24.344 173.601 24.7472C173.706 25.1539 173.863 25.4945 174.072 25.776H169.578C169.33 25.1365 169.177 24.3753 169.121 23.4925C169.065 22.6096 168.978 21.7615 168.863 20.9552C168.709 19.902 168.385 19.1304 167.889 18.6403C167.394 18.1502 166.581 17.9069 165.457 17.9069H160.963V25.7795H156.468V5.63757H167.488H167.491ZM165.89 14.751C166.919 14.751 167.694 14.525 168.207 14.0732C168.723 13.6214 168.978 12.888 168.978 11.8731C168.978 10.8581 168.72 10.1838 168.207 9.74242C167.69 9.30101 166.919 9.07856 165.89 9.07856H160.966V14.7475H165.89V14.751Z" fill="white"/>
<path d="M181.627 5.63757V25.7795H177.132V5.63757H181.627Z" fill="white"/>
<path d="M195.766 5.63757L203.408 25.7795H198.742L197.197 21.2923H189.555L187.953 25.7795H183.431L191.16 5.63757H195.766ZM196.024 17.9938L193.449 10.6009H193.393L190.731 17.9938H196.024Z" fill="white"/>
<path d="M200.944 9.36009V5.63757H217.686V9.36009H211.562V25.7795H207.068V9.36009H200.944Z" fill="white"/>
<path d="M224.529 5.63757V25.7795H220.035V5.63757H224.529Z" fill="white"/>
<path d="M228.277 11.602C228.734 10.3125 229.393 9.18982 230.252 8.23052C231.11 7.27121 232.164 6.52045 233.413 5.97476C234.662 5.42907 236.068 5.15796 237.635 5.15796C239.202 5.15796 240.629 5.43254 241.871 5.97476C243.11 6.52045 244.16 7.27121 245.019 8.23052C245.877 9.18982 246.537 10.3125 246.994 11.602C247.451 12.8915 247.681 14.2887 247.681 15.7903C247.681 17.2918 247.451 18.6265 246.994 19.8951C246.537 21.1638 245.877 22.269 245.019 23.211C244.16 24.1529 243.11 24.8897 241.871 25.425C240.633 25.9603 239.219 26.2279 237.635 26.2279C236.051 26.2279 234.662 25.9603 233.413 25.425C232.164 24.8897 231.11 24.1529 230.252 23.211C229.393 22.269 228.734 21.1672 228.277 19.8951C227.82 18.6265 227.589 17.257 227.589 15.7903C227.589 14.3235 227.82 12.888 228.277 11.602ZM232.384 18.258C232.583 19.0575 232.904 19.7769 233.343 20.4165C233.783 21.056 234.355 21.5669 235.06 21.9527C235.765 22.3386 236.623 22.5297 237.635 22.5297C238.647 22.5297 239.506 22.3386 240.21 21.9527C240.915 21.5669 241.488 21.056 241.927 20.4165C242.367 19.7769 242.684 19.0575 242.887 18.258C243.086 17.4586 243.187 16.6349 243.187 15.7903C243.187 14.9456 243.086 14.0524 242.887 13.2217C242.688 12.3945 242.367 11.6576 241.927 11.0076C241.488 10.3577 240.915 9.84326 240.21 9.45745C239.506 9.07164 238.647 8.88048 237.635 8.88048C236.623 8.88048 235.765 9.07512 235.06 9.45745C234.355 9.84326 233.783 10.3611 233.343 11.0076C232.904 11.6576 232.586 12.3945 232.384 13.2217C232.185 14.0489 232.084 14.9039 232.084 15.7903C232.084 16.6766 232.185 17.4586 232.384 18.258Z" fill="white"/>
<path d="M255.208 5.63757L263.736 19.1513H263.792V5.63757H268V25.7795H263.506L255.005 12.2936H254.95V25.7795H250.741V5.63757H255.208Z" fill="white"/>
<path d="M65.7507 34.0692H72.74V35.3691H69.9938V42.6682H68.4829V35.3691H65.7507V34.0692Z" fill="white"/>
<path d="M73.9404 34.0691H80.1585V35.3691H75.4548V37.6214H79.8096V38.8483H75.4548V41.3682H80.2458V42.6681H73.9439V34.0657L73.9404 34.0691Z" fill="white"/>
<path d="M87.584 36.8046C87.5212 36.5543 87.4305 36.3284 87.3188 36.1198C87.2072 35.9113 87.0606 35.7306 86.8827 35.5776C86.7047 35.4247 86.4988 35.3065 86.2615 35.2231C86.0243 35.1397 85.7486 35.098 85.4346 35.098C84.974 35.098 84.5762 35.1918 84.2447 35.376C83.9097 35.5602 83.6375 35.807 83.4281 36.1164C83.2188 36.4257 83.0618 36.7768 82.9641 37.1695C82.8629 37.5623 82.814 37.9655 82.814 38.3756C82.814 38.7857 82.8629 39.1854 82.9641 39.5817C83.0652 39.9744 83.2188 40.3255 83.4281 40.6348C83.6375 40.9442 83.9097 41.1909 84.2447 41.3752C84.5796 41.5594 84.9774 41.6532 85.4346 41.6532C85.773 41.6532 86.0731 41.5941 86.3278 41.4794C86.5826 41.3647 86.8059 41.2014 86.9943 40.9963C87.1793 40.7912 87.3258 40.5514 87.4305 40.2803C87.5352 40.0092 87.605 39.7138 87.6364 39.4009H89.1124C89.081 39.9154 88.9693 40.3846 88.7809 40.8121C88.5925 41.2396 88.3342 41.6046 88.0132 41.9139C87.6922 42.2232 87.3119 42.4631 86.8757 42.6299C86.4395 42.7967 85.9615 42.8836 85.438 42.8836C84.7925 42.8836 84.2133 42.7655 83.7038 42.5291C83.1909 42.2928 82.7582 41.9695 82.4023 41.5594C82.0463 41.1492 81.7742 40.6731 81.5857 40.1274C81.3973 39.5817 81.3031 38.9978 81.3031 38.3791C81.3031 37.7604 81.3973 37.1904 81.5857 36.6447C81.7742 36.099 82.0463 35.6193 82.4023 35.2127C82.7582 34.806 83.1909 34.4793 83.7038 34.236C84.2168 33.9962 84.7925 33.8745 85.438 33.8745C85.9231 33.8745 86.3767 33.9406 86.8059 34.0726C87.2316 34.2047 87.6084 34.3993 87.9365 34.6496C88.2645 34.8999 88.5262 35.2092 88.7285 35.5707C88.9309 35.9322 89.0566 36.3458 89.1019 36.8115H87.591L87.584 36.8046Z" fill="white"/>
<path d="M90.6442 34.0692H92.1551V37.4893H96.0841V34.0692H97.5951V42.6717H96.0841V38.7927H92.1551V42.6717H90.6442V34.0692Z" fill="white"/>
<path d="M99.5457 34.0692H101.144L105.087 40.4055H105.111V34.0692H106.552V42.6717H104.954L101.022 36.3458H100.987V42.6717H99.5457V34.0692Z" fill="white"/>
<path d="M108.531 34.0692H110.042V42.6717H108.531V34.0692Z" fill="white"/>
<path d="M117.917 36.8046C117.855 36.5543 117.764 36.3284 117.652 36.1198C117.541 35.9113 117.394 35.7306 117.216 35.5776C117.038 35.4247 116.832 35.3065 116.595 35.2231C116.358 35.1397 116.082 35.098 115.768 35.098C115.307 35.098 114.91 35.1918 114.578 35.376C114.243 35.5602 113.971 35.807 113.762 36.1164C113.552 36.4257 113.395 36.7768 113.297 37.1695C113.196 37.5623 113.147 37.9655 113.147 38.3756C113.147 38.7857 113.196 39.1854 113.297 39.5817C113.399 39.9744 113.552 40.3255 113.762 40.6348C113.971 40.9442 114.243 41.1909 114.578 41.3752C114.913 41.5594 115.311 41.6532 115.768 41.6532C116.106 41.6532 116.406 41.5941 116.661 41.4794C116.916 41.3647 117.139 41.2014 117.328 40.9963C117.513 40.7912 117.659 40.5514 117.764 40.2803C117.869 40.0092 117.938 39.7138 117.97 39.4009H119.446C119.414 39.9154 119.303 40.3846 119.114 40.8121C118.926 41.2396 118.668 41.6046 118.347 41.9139C118.026 42.2232 117.645 42.4631 117.209 42.6299C116.773 42.7967 116.295 42.8836 115.771 42.8836C115.126 42.8836 114.547 42.7655 114.037 42.5291C113.524 42.2928 113.092 41.9695 112.736 41.5594C112.38 41.1492 112.108 40.6731 111.919 40.1274C111.731 39.5817 111.636 38.9978 111.636 38.3791C111.636 37.7604 111.731 37.1904 111.919 36.6447C112.108 36.099 112.38 35.6193 112.736 35.2127C113.092 34.806 113.524 34.4793 114.037 34.236C114.55 33.9962 115.126 33.8745 115.771 33.8745C116.256 33.8745 116.71 33.9406 117.139 34.0726C117.565 34.2047 117.942 34.3993 118.27 34.6496C118.598 34.8999 118.86 35.2092 119.062 35.5707C119.264 35.9322 119.39 36.3458 119.435 36.8115H117.924L117.917 36.8046Z" fill="white"/>
<path d="M123.322 34.0692H124.931L128.256 42.6717H126.637L125.828 40.3951H122.38L121.571 42.6717H120.011L123.326 34.0692H123.322ZM122.789 39.2515H125.427L124.132 35.5534H124.097L122.792 39.2515H122.789Z" fill="white"/>
<path d="M129.272 34.0692H130.783V41.3717H135.172V42.6717H129.268V34.0692H129.272Z" fill="white"/>
<path d="M142.277 34.0692H143.886L147.211 42.6717H145.592L144.782 40.3951H141.335L140.525 42.6717H138.965L142.28 34.0692H142.277ZM141.743 39.2515H144.381L143.086 35.5534H143.052L141.747 39.2515H141.743Z" fill="white"/>
<path d="M149.217 39.8042C149.217 40.1344 149.273 40.4159 149.385 40.6488C149.496 40.8817 149.653 41.0728 149.856 41.2223C150.058 41.3717 150.289 41.4795 150.55 41.549C150.812 41.6185 151.095 41.6498 151.402 41.6498C151.733 41.6498 152.012 41.6116 152.25 41.5351C152.483 41.4586 152.672 41.3613 152.818 41.2397C152.965 41.118 153.066 40.979 153.132 40.8226C153.195 40.6662 153.23 40.5063 153.23 40.3464C153.23 40.0162 153.157 39.7729 153.007 39.6165C152.857 39.4601 152.693 39.3489 152.518 39.2863C152.211 39.1751 151.855 39.0673 151.447 38.9665C151.039 38.8657 150.536 38.7371 149.94 38.5738C149.57 38.4764 149.259 38.3513 149.015 38.1949C148.771 38.0385 148.575 37.8647 148.429 37.6701C148.282 37.4789 148.181 37.2738 148.122 37.0549C148.062 36.8359 148.031 36.6169 148.031 36.391C148.031 35.9565 148.122 35.5812 148.303 35.2649C148.485 34.9486 148.725 34.6844 149.022 34.4759C149.319 34.2673 149.66 34.1109 150.037 34.0136C150.414 33.9163 150.798 33.8641 151.185 33.8641C151.635 33.8641 152.061 33.9232 152.462 34.0379C152.86 34.1526 153.213 34.3299 153.516 34.5628C153.82 34.7956 154.057 35.0841 154.235 35.4247C154.413 35.7654 154.5 36.1616 154.5 36.61H152.989C152.947 36.0573 152.759 35.6646 152.421 35.4352C152.082 35.2058 151.649 35.0911 151.126 35.0911C150.948 35.0911 150.767 35.1085 150.582 35.1432C150.397 35.178 150.226 35.2405 150.072 35.3239C149.919 35.4074 149.793 35.5221 149.692 35.668C149.591 35.814 149.542 35.9948 149.542 36.2103C149.542 36.5161 149.636 36.7525 149.824 36.9263C150.013 37.1001 150.261 37.2287 150.568 37.319C150.599 37.326 150.728 37.3607 150.948 37.4198C151.168 37.4789 151.419 37.5449 151.691 37.6179C151.967 37.6909 152.232 37.7604 152.494 37.83C152.756 37.8995 152.944 37.9481 153.056 37.9794C153.338 38.0698 153.583 38.188 153.792 38.3409C154.001 38.4938 154.176 38.6676 154.319 38.8657C154.462 39.0638 154.563 39.2724 154.633 39.4983C154.703 39.7242 154.738 39.9467 154.738 40.1726C154.738 40.6557 154.64 41.0659 154.441 41.4065C154.242 41.7471 153.984 42.0252 153.659 42.2442C153.335 42.4631 152.972 42.6195 152.56 42.7203C152.148 42.8211 151.73 42.8698 151.304 42.8698C150.812 42.8698 150.348 42.8107 149.912 42.689C149.476 42.5674 149.099 42.3832 148.774 42.1364C148.45 41.8896 148.195 41.5664 148 41.1771C147.804 40.7878 147.706 40.329 147.696 39.7972H149.207L149.217 39.8042Z" fill="white"/>
<path d="M157.25 39.8042C157.25 40.1344 157.306 40.4159 157.417 40.6488C157.529 40.8817 157.686 41.0728 157.888 41.2223C158.091 41.3717 158.321 41.4795 158.583 41.549C158.845 41.6185 159.127 41.6498 159.434 41.6498C159.766 41.6498 160.045 41.6116 160.282 41.5351C160.516 41.4586 160.704 41.3613 160.851 41.2397C160.998 41.118 161.099 40.979 161.165 40.8226C161.228 40.6662 161.263 40.5063 161.263 40.3464C161.263 40.0162 161.189 39.7729 161.039 39.6165C160.889 39.4601 160.725 39.3489 160.551 39.2863C160.244 39.1751 159.888 39.0673 159.48 38.9665C159.071 38.8657 158.569 38.7371 157.972 38.5738C157.602 38.4764 157.292 38.3513 157.048 38.1949C156.803 38.0385 156.608 37.8647 156.461 37.6701C156.315 37.4789 156.214 37.2738 156.154 37.0549C156.095 36.8359 156.063 36.6169 156.063 36.391C156.063 35.9565 156.154 35.5812 156.336 35.2649C156.517 34.9486 156.758 34.6844 157.054 34.4759C157.351 34.2673 157.693 34.1109 158.07 34.0136C158.447 33.9163 158.831 33.8641 159.218 33.8641C159.668 33.8641 160.094 33.9232 160.495 34.0379C160.893 34.1526 161.245 34.3299 161.549 34.5628C161.852 34.7956 162.09 35.0841 162.268 35.4247C162.446 35.7654 162.533 36.1616 162.533 36.61H161.022C160.98 36.0573 160.792 35.6646 160.453 35.4352C160.115 35.2058 159.682 35.0911 159.159 35.0911C158.981 35.0911 158.799 35.1085 158.614 35.1432C158.429 35.178 158.258 35.2405 158.105 35.3239C157.951 35.4074 157.826 35.5221 157.724 35.668C157.623 35.814 157.574 35.9948 157.574 36.2103C157.574 36.5161 157.669 36.7525 157.857 36.9263C158.045 37.1001 158.293 37.2287 158.6 37.319C158.632 37.326 158.761 37.3607 158.981 37.4198C159.2 37.4789 159.452 37.5449 159.724 37.6179C160 37.6909 160.265 37.7604 160.526 37.83C160.788 37.8995 160.977 37.9481 161.088 37.9794C161.371 38.0698 161.615 38.188 161.825 38.3409C162.034 38.4938 162.208 38.6676 162.351 38.8657C162.494 39.0638 162.596 39.2724 162.665 39.4983C162.735 39.7242 162.77 39.9467 162.77 40.1726C162.77 40.6557 162.672 41.0659 162.474 41.4065C162.275 41.7471 162.016 42.0252 161.692 42.2442C161.367 42.4631 161.004 42.6195 160.593 42.7203C160.181 42.8211 159.762 42.8698 159.337 42.8698C158.845 42.8698 158.38 42.8107 157.944 42.689C157.508 42.5674 157.131 42.3832 156.807 42.1364C156.482 41.8896 156.227 41.5664 156.032 41.1771C155.837 40.7878 155.739 40.329 155.729 39.7972H157.239L157.25 39.8042Z" fill="white"/>
<path d="M164.288 34.0692H165.799V42.6717H164.288V34.0692Z" fill="white"/>
<path d="M168.835 39.8042C168.835 40.1344 168.891 40.4159 169.002 40.6488C169.114 40.8817 169.271 41.0728 169.473 41.2223C169.676 41.3717 169.906 41.4795 170.168 41.549C170.429 41.6185 170.712 41.6498 171.019 41.6498C171.351 41.6498 171.63 41.6116 171.867 41.5351C172.101 41.4586 172.289 41.3613 172.436 41.2397C172.582 41.118 172.684 40.979 172.75 40.8226C172.813 40.6662 172.848 40.5063 172.848 40.3464C172.848 40.0162 172.774 39.7729 172.624 39.6165C172.474 39.4601 172.31 39.3489 172.136 39.2863C171.829 39.1751 171.473 39.0673 171.064 38.9665C170.656 38.8657 170.154 38.7371 169.557 38.5738C169.187 38.4764 168.877 38.3513 168.632 38.1949C168.388 38.0385 168.193 37.8647 168.046 37.6701C167.9 37.4789 167.798 37.2738 167.739 37.0549C167.68 36.8359 167.648 36.6169 167.648 36.391C167.648 35.9565 167.739 35.5812 167.921 35.2649C168.102 34.9486 168.343 34.6844 168.639 34.4759C168.936 34.2673 169.278 34.1109 169.655 34.0136C170.032 33.9163 170.415 33.8641 170.803 33.8641C171.253 33.8641 171.679 33.9232 172.08 34.0379C172.478 34.1526 172.83 34.3299 173.134 34.5628C173.437 34.7956 173.675 35.0841 173.852 35.4247C174.03 35.7654 174.118 36.1616 174.118 36.61H172.607C172.565 36.0573 172.376 35.6646 172.038 35.4352C171.7 35.2058 171.267 35.0911 170.743 35.0911C170.565 35.0911 170.384 35.1085 170.199 35.1432C170.014 35.178 169.843 35.2405 169.69 35.3239C169.536 35.4074 169.41 35.5221 169.309 35.668C169.208 35.814 169.159 35.9948 169.159 36.2103C169.159 36.5161 169.253 36.7525 169.442 36.9263C169.63 37.1001 169.878 37.2287 170.185 37.319C170.217 37.326 170.346 37.3607 170.565 37.4198C170.785 37.4789 171.037 37.5449 171.309 37.6179C171.584 37.6909 171.85 37.7604 172.111 37.83C172.373 37.8995 172.561 37.9481 172.673 37.9794C172.956 38.0698 173.2 38.188 173.409 38.3409C173.619 38.4938 173.793 38.6676 173.936 38.8657C174.079 39.0638 174.18 39.2724 174.25 39.4983C174.32 39.7242 174.355 39.9467 174.355 40.1726C174.355 40.6557 174.257 41.0659 174.058 41.4065C173.859 41.7471 173.601 42.0252 173.277 42.2442C172.952 42.4631 172.589 42.6195 172.178 42.7203C171.766 42.8211 171.347 42.8698 170.921 42.8698C170.429 42.8698 169.965 42.8107 169.529 42.689C169.093 42.5674 168.716 42.3832 168.392 42.1364C168.067 41.8896 167.812 41.5664 167.617 41.1771C167.422 40.7878 167.324 40.329 167.313 39.7972H168.824L168.835 39.8042Z" fill="white"/>
<path d="M175.053 34.0692H182.042V35.3691H179.296V42.6682H177.785V35.3691H175.053V34.0692Z" fill="white"/>
<path d="M184.439 34.0692H186.048L189.373 42.6717H187.754L186.945 40.3951H183.497L182.688 42.6717H181.128L184.443 34.0692H184.439ZM183.905 39.2515H186.543L185.249 35.5534H185.214L183.909 39.2515H183.905Z" fill="white"/>
<path d="M190.326 34.0692H191.924L195.867 40.4055H195.892V34.0692H197.333V42.6717H195.735L191.802 36.3458H191.767V42.6717H190.326V34.0692Z" fill="white"/>
<path d="M205.142 36.8046C205.079 36.5543 204.988 36.3284 204.877 36.1198C204.765 35.9113 204.619 35.7306 204.441 35.5776C204.263 35.4247 204.057 35.3065 203.82 35.2231C203.582 35.1397 203.307 35.098 202.993 35.098C202.532 35.098 202.134 35.1918 201.803 35.376C201.468 35.5602 201.195 35.807 200.986 36.1164C200.777 36.4257 200.62 36.7768 200.522 37.1695C200.421 37.5623 200.372 37.9655 200.372 38.3756C200.372 38.7857 200.421 39.1854 200.522 39.5817C200.623 39.9744 200.777 40.3255 200.986 40.6348C201.195 40.9442 201.468 41.1909 201.803 41.3752C202.138 41.5594 202.535 41.6532 202.993 41.6532C203.331 41.6532 203.631 41.5941 203.886 41.4794C204.141 41.3647 204.364 41.2014 204.552 40.9963C204.737 40.7912 204.884 40.5514 204.988 40.2803C205.093 40.0092 205.163 39.7138 205.194 39.4009H206.67C206.639 39.9154 206.527 40.3846 206.339 40.8121C206.15 41.2396 205.892 41.6046 205.571 41.9139C205.25 42.2232 204.87 42.4631 204.434 42.6299C203.997 42.7967 203.519 42.8836 202.996 42.8836C202.35 42.8836 201.771 42.7655 201.262 42.5291C200.749 42.2928 200.316 41.9695 199.96 41.5594C199.604 41.1492 199.332 40.6731 199.144 40.1274C198.955 39.5817 198.861 38.9978 198.861 38.3791C198.861 37.7604 198.955 37.1904 199.144 36.6447C199.332 36.099 199.604 35.6193 199.96 35.2127C200.316 34.806 200.749 34.4793 201.262 34.236C201.775 33.9962 202.35 33.8745 202.996 33.8745C203.481 33.8745 203.935 33.9406 204.364 34.0726C204.79 34.2047 205.166 34.3993 205.494 34.6496C205.822 34.8999 206.084 35.2092 206.287 35.5707C206.489 35.9322 206.615 36.3458 206.66 36.8115H205.149L205.142 36.8046Z" fill="white"/>
<path d="M208.24 34.0691H214.459V35.3691H209.755V37.6214H214.11V38.8483H209.755V41.3682H214.546V42.6681H208.244V34.0657L208.24 34.0691Z" fill="white"/>
<path d="M225.44 36.8046C225.377 36.5543 225.286 36.3284 225.175 36.1198C225.063 35.9113 224.916 35.7306 224.738 35.5776C224.56 35.4247 224.355 35.3065 224.117 35.2231C223.88 35.1397 223.604 35.098 223.29 35.098C222.83 35.098 222.432 35.1918 222.1 35.376C221.765 35.5602 221.493 35.807 221.284 36.1164C221.074 36.4257 220.917 36.7768 220.82 37.1695C220.719 37.5623 220.67 37.9655 220.67 38.3756C220.67 38.7857 220.719 39.1854 220.82 39.5817C220.921 39.9744 221.074 40.3255 221.284 40.6348C221.493 40.9442 221.765 41.1909 222.1 41.3752C222.435 41.5594 222.833 41.6532 223.29 41.6532C223.629 41.6532 223.929 41.5941 224.184 41.4794C224.438 41.3647 224.662 41.2014 224.85 40.9963C225.035 40.7912 225.182 40.5514 225.286 40.2803C225.391 40.0092 225.461 39.7138 225.492 39.4009H226.968C226.937 39.9154 226.825 40.3846 226.637 40.8121C226.448 41.2396 226.19 41.6046 225.869 41.9139C225.548 42.2232 225.168 42.4631 224.731 42.6299C224.295 42.7967 223.817 42.8836 223.294 42.8836C222.648 42.8836 222.069 42.7655 221.56 42.5291C221.047 42.2928 220.614 41.9695 220.258 41.5594C219.902 41.1492 219.63 40.6731 219.441 40.1274C219.253 39.5817 219.159 38.9978 219.159 38.3791C219.159 37.7604 219.253 37.1904 219.441 36.6447C219.63 36.099 219.902 35.6193 220.258 35.2127C220.614 34.806 221.047 34.4793 221.56 34.236C222.072 33.9962 222.648 33.8745 223.294 33.8745C223.779 33.8745 224.232 33.9406 224.662 34.0726C225.087 34.2047 225.464 34.3993 225.792 34.6496C226.12 34.8999 226.382 35.2092 226.584 35.5707C226.787 35.9322 226.912 36.3458 226.958 36.8115H225.447L225.44 36.8046Z" fill="white"/>
<path d="M228.535 34.0691H234.753V35.3691H230.049V37.6214H234.404V38.8483H230.049V41.3682H234.84V42.6681H228.538V34.0657L228.535 34.0691Z" fill="white"/>
<path d="M236.288 34.0692H237.886L241.83 40.4055H241.854V34.0692H243.295V42.6717H241.697L237.764 36.3458H237.729V42.6717H236.288V34.0692Z" fill="white"/>
<path d="M244.45 34.0692H251.439V35.3691H248.693V42.6682H247.182V35.3691H244.45V34.0692Z" fill="white"/>
<path d="M252.64 34.0691H258.858V35.3691H254.154V37.6214H258.509V38.8483H254.154V41.3682H258.945V42.6681H252.643V34.0657L252.64 34.0691Z" fill="white"/>
<path d="M260.452 34.0692H264.577C265.529 34.0692 266.241 34.2743 266.719 34.6844C267.194 35.0946 267.431 35.6646 267.431 36.3945C267.431 36.8046 267.372 37.1418 267.25 37.4129C267.128 37.684 266.988 37.8995 266.828 38.0628C266.667 38.2262 266.507 38.3444 266.349 38.4174C266.192 38.4904 266.077 38.539 266.004 38.5633V38.5877C266.133 38.6051 266.273 38.6433 266.423 38.7093C266.573 38.7719 266.712 38.8762 266.841 39.0152C266.971 39.1542 267.079 39.3384 267.163 39.5644C267.246 39.7903 267.288 40.0718 267.288 40.409C267.288 40.9164 267.327 41.3752 267.403 41.7888C267.48 42.2025 267.599 42.4979 267.759 42.6752H266.14C266.028 42.4909 265.962 42.2859 265.941 42.0599C265.92 41.834 265.91 41.6185 265.91 41.41C265.91 41.0172 265.885 40.6766 265.837 40.3916C265.788 40.1066 265.7 39.8702 265.571 39.6791C265.442 39.4879 265.268 39.3523 265.044 39.262C264.821 39.1751 264.538 39.1299 264.193 39.1299H261.967V42.6717H260.456V34.0692H260.452ZM261.963 37.9864H264.444C264.929 37.9864 265.296 37.8717 265.543 37.6423C265.795 37.4129 265.917 37.0688 265.917 36.6135C265.917 36.3389 265.875 36.1164 265.795 35.9461C265.714 35.7723 265.603 35.6403 265.463 35.5429C265.324 35.4456 265.16 35.383 264.978 35.3518C264.797 35.3205 264.608 35.3031 264.416 35.3031H261.96V37.9899L261.963 37.9864Z" fill="white"/>
<path d="M27.9291 44.4338C27.9291 45.5703 27.9152 46.408 27.9326 47.2457C27.9466 47.8956 27.7896 48.1354 27.0428 47.9234C23.0265 46.7799 18.9509 45.8241 14.98 44.5415C10.025 42.9427 6.56703 39.5643 4.38266 34.8651C3.04622 31.9871 1.7028 29.1092 0.307039 26.2591C-0.0977312 25.4319 -0.216371 24.7298 0.642022 24.198C1.44109 23.7045 2.17038 23.9234 2.74962 24.6325C4.33032 26.5685 5.90055 28.5149 7.48125 30.4543C8.58739 31.8099 9.59583 33.2454 10.8485 34.4827C12.0593 35.6784 13.504 36.3283 15.1754 36.5438C15.7127 36.6134 16.2396 36.7524 16.7665 36.8879C17.2969 37.0235 17.9843 37.2946 18.1937 36.6446C18.3926 36.0155 17.6215 35.9703 17.1888 35.7792C15.6953 35.1257 14.1425 34.594 12.8549 33.5478C11.5813 32.5155 10.7299 31.1947 10.3705 29.6097C10.1123 28.4836 11.1312 27.8823 12.4048 28.4454C14.7043 29.4533 16.9794 30.5204 19.251 31.5909C20.8806 32.3591 22.552 33.0924 23.8465 34.3785C26.7183 37.2251 28.2467 40.6278 27.9291 44.4373V44.4338Z" fill="#DCE2EA"/>
<path d="M30.4381 44.844C30.1868 39.1333 32.4863 35.0841 37.204 32.5051C39.9537 31.0035 42.8603 29.787 45.7042 28.4523C46.2974 28.1743 46.936 28.0631 47.4698 28.5427C48.0561 29.071 47.9653 29.8079 47.7176 30.4127C47.0511 32.0324 45.9868 33.3809 44.4131 34.2186C43.307 34.806 42.1276 35.2579 41.004 35.8174C40.6376 35.9982 39.9397 36.0607 40.1735 36.6899C40.3689 37.2182 40.9447 37.0096 41.4018 36.9679C45.3587 36.6342 48.0561 34.4515 50.223 31.292C51.8002 28.9946 53.6426 26.8813 55.3489 24.6742C55.963 23.8817 56.797 23.7323 57.5856 24.1355C58.4649 24.5873 58.3114 25.5014 58.0078 26.2487C57.5228 27.4479 56.954 28.6122 56.3643 29.7662C54.5324 33.3566 53.2797 37.2877 50.3067 40.2177C48.0037 42.4874 45.289 44.0967 42.1729 44.9795C38.7184 45.9597 35.229 46.8182 31.7745 47.8018C30.6125 48.132 30.2845 47.8122 30.4171 46.6757C30.5009 45.9736 30.4311 45.2576 30.4311 44.844H30.4381Z" fill="#DCE2EA"/>
<path d="M29.8762 18.5604C29.9111 18.2406 30.0542 17.9591 30.1833 17.6741C30.602 16.7495 31.0487 15.8424 31.443 14.9039C32.2351 13.0166 32.1688 11.1501 31.4883 9.24542C30.8881 7.57359 30.2949 5.89828 30.0716 4.12217C29.9355 3.02731 29.9041 1.94288 30.1379 0.858451C30.1728 0.691616 30.2286 0.528256 30.2915 0.368372C30.3543 0.211963 30.4275 0.0416518 30.6369 0.0312246C30.8533 0.0242731 30.944 0.184157 30.9928 0.347517C31.1394 0.809791 31.2755 1.27902 31.4046 1.74824C31.6035 2.4851 31.7884 3.22543 32.1129 3.92058C32.7794 5.34911 33.8925 5.75925 35.3371 5.12319C36.363 4.67134 37.2319 3.97967 38.1147 3.31233C39.1999 2.49205 40.2781 1.66135 41.5378 1.11566C42.0473 0.893209 42.5742 0.719422 43.1359 0.684664C43.3872 0.667285 43.6559 0.649907 43.8024 0.917539C43.9455 1.1817 43.8548 1.4389 43.7082 1.66482C43.2999 2.29741 42.8463 2.89524 42.3718 3.47916C41.0912 5.04324 39.8734 6.64209 38.9836 8.4738C37.9926 10.5141 37.5459 12.6725 37.5215 14.9283C37.4971 17.1701 37.6785 19.4085 37.5983 21.6469C37.5564 22.78 37.4971 23.9096 37.0644 24.9801C36.9248 25.3242 36.7434 25.6405 36.5061 25.9255C36.1781 26.3148 35.8675 26.3044 35.5919 25.8699C35.208 25.2721 35.051 24.5873 34.8905 23.9096C34.402 21.8624 34.0565 19.7839 33.5331 17.7436C33.4633 17.476 33.397 17.2014 33.2854 16.9511C33.0481 16.4228 32.6712 16.3464 32.2595 16.76C31.757 17.264 31.2824 17.7957 30.7904 18.3102C30.6369 18.4735 30.4694 18.623 30.3019 18.7724C30.2182 18.8454 30.11 18.8732 30.0053 18.828C29.8902 18.7794 29.8762 18.6716 29.8867 18.5569L29.8762 18.5604Z" fill="#A32A56" stroke="white" stroke-width="0.2" stroke-miterlimit="10"/>
<path d="M43.2581 12.4014C43.2336 12.8984 43.1708 13.3989 43.2999 13.8925C43.5093 14.678 44.113 15.0707 44.9365 14.9804C45.9449 14.8691 46.8591 14.4451 47.8117 14.1497C48.7085 13.8716 49.6053 13.6005 50.5649 13.743C50.7742 13.7743 51.008 13.7778 51.0813 14.028C51.1581 14.2748 50.9731 14.4208 50.8126 14.5563C50.0589 15.1785 49.204 15.6547 48.4119 16.2247C47.2465 17.0693 46.2101 18.0321 45.432 19.2521C44.8109 20.2253 44.42 21.2958 44.0955 22.3941C43.6419 23.9165 43.2651 25.4632 42.5672 26.9022C42.3404 27.3714 42.0263 27.7746 41.5936 28.077C41.2691 28.3064 41.0528 28.2299 40.969 27.8406C40.805 27.0655 40.9341 26.2904 41.0249 25.5223C41.1575 24.4101 41.2517 23.2943 41.3424 22.1821C41.3598 21.9631 41.3703 21.7025 41.1644 21.5634C40.9481 21.4174 40.7352 21.5808 40.5398 21.6885C40.1211 21.9145 39.7094 22.1508 39.2871 22.3698C39.179 22.4254 39.0394 22.5332 38.9242 22.408C38.7951 22.2655 38.9312 22.123 39.0115 22.0257C39.2557 21.7303 39.5174 21.4522 39.7826 21.1741C40.2991 20.6284 40.7771 20.0619 41.1714 19.4154C41.6006 18.7098 41.7402 17.9556 41.7646 17.1597C41.7995 16.0161 41.6844 14.8657 41.8518 13.7256C41.974 12.8775 42.1624 12.0468 42.6125 11.2996C42.6753 11.1988 42.7416 11.1014 42.8184 11.0111C42.8882 10.9311 42.9719 10.8616 43.0941 10.8894C43.2476 10.9277 43.2476 11.0632 43.2476 11.1744C43.2546 11.5811 43.2476 11.9912 43.2476 12.3979L43.2581 12.4014Z" fill="#92877C" stroke="white" stroke-width="0.2" stroke-miterlimit="10"/>
<path d="M36.1886 2.24873C36.1746 3.18022 35.8536 3.79891 35.2115 4.2438C34.1961 4.94243 32.912 4.52534 32.4968 3.37139C32.092 2.24525 32.6957 0.931419 33.8123 0.51433C35.0092 0.0659593 36.22 1.03222 36.1921 2.24873H36.1886Z" fill="#A32A56" stroke="white" stroke-width="0.2" stroke-miterlimit="10"/>
<path d="M46.1717 13.0131C46.1648 13.7777 45.4878 14.4764 44.7481 14.4798C44.0711 14.4833 43.5931 13.9724 43.6001 13.2529C43.607 12.4743 44.2735 11.7966 45.0237 11.8035C45.6658 11.8105 46.1752 12.3457 46.1717 13.0096V13.0131Z" fill="#92877C" stroke="white" stroke-width="0.2" stroke-miterlimit="10"/>
<path d="M28.3758 18.5604C28.3409 18.2406 28.1979 17.9591 28.0688 17.6741C27.65 16.7495 27.2034 15.8424 26.8091 14.9039C26.017 13.0166 26.0833 11.1501 26.7637 9.24542C27.3639 7.57359 27.9571 5.89828 28.1804 4.12217C28.3165 3.02731 28.3479 1.94288 28.1141 0.858451C28.0792 0.691616 28.0234 0.528256 27.9606 0.368372C27.8978 0.211963 27.8245 0.0416518 27.6151 0.0312246C27.3988 0.0242731 27.3081 0.184157 27.2592 0.347517C27.1127 0.809791 26.9766 1.27902 26.8475 1.74824C26.6486 2.4851 26.4636 3.22543 26.1391 3.92058C25.4726 5.34911 24.3595 5.75925 22.9149 5.12319C21.889 4.67134 21.0202 3.97967 20.1373 3.31233C19.0521 2.49205 17.9739 1.66135 16.7142 1.11566C16.2048 0.893209 15.6779 0.719422 15.1161 0.684664C14.8649 0.667285 14.5962 0.649907 14.4496 0.917539C14.3066 1.1817 14.3973 1.4389 14.5438 1.66482C14.9521 2.29741 15.4057 2.89524 15.8803 3.47916C17.1609 5.04324 18.3787 6.64209 19.2685 8.4738C20.2595 10.5141 20.7061 12.6725 20.7305 14.9283C20.755 17.1701 20.5735 19.4085 20.6538 21.6469C20.6957 22.78 20.755 23.9096 21.1877 24.9801C21.3272 25.3242 21.5087 25.6405 21.746 25.9255C22.074 26.3148 22.3845 26.3044 22.6602 25.8699C23.044 25.2721 23.201 24.5873 23.3616 23.9096C23.8501 21.8624 24.1955 19.7839 24.7189 17.7436C24.7887 17.476 24.855 17.2014 24.9667 16.9511C25.204 16.4228 25.5808 16.3464 25.9926 16.76C26.495 17.264 26.9696 17.7957 27.4616 18.3102C27.6151 18.4735 27.7826 18.623 27.9501 18.7724C28.0339 18.8454 28.142 18.8732 28.2467 18.828C28.3619 18.7794 28.3758 18.6716 28.3654 18.5569L28.3758 18.5604Z" fill="#346E93" stroke="white" stroke-width="0.2" stroke-miterlimit="10"/>
<path d="M14.9905 12.4014C15.0149 12.8984 15.0777 13.3989 14.9486 13.8925C14.7392 14.678 14.1355 15.0707 13.312 14.9804C12.3036 14.8691 11.3894 14.4451 10.4368 14.1497C9.54001 13.8716 8.64323 13.6005 7.68364 13.743C7.47428 13.7743 7.24049 13.7778 7.16721 14.028C7.09045 14.2748 7.27538 14.4208 7.4359 14.5563C8.18961 15.1785 9.04451 15.6547 9.83661 16.2247C11.0021 17.0693 12.0384 18.0321 12.8166 19.2521C13.4377 20.2253 13.8285 21.2958 14.153 22.3941C14.6066 23.9165 14.9835 25.4632 15.6814 26.9022C15.9082 27.3714 16.2222 27.7746 16.6549 28.077C16.9794 28.3064 17.1958 28.2299 17.2795 27.8406C17.4435 27.0655 17.3144 26.2904 17.2237 25.5223C17.0911 24.4101 16.9969 23.2943 16.9061 22.1821C16.8887 21.9631 16.8782 21.7025 17.0841 21.5634C17.3004 21.4174 17.5133 21.5808 17.7087 21.6885C18.1274 21.9145 18.5392 22.1508 18.9614 22.3698C19.0696 22.4254 19.2091 22.5332 19.3243 22.408C19.4534 22.2655 19.3173 22.123 19.2371 22.0257C18.9928 21.7303 18.7311 21.4522 18.4659 21.1741C17.9495 20.6284 17.4714 20.0619 17.0771 19.4154C16.6479 18.7098 16.5083 17.9556 16.4839 17.1597C16.449 16.0161 16.5642 14.8657 16.3967 13.7256C16.2746 12.8775 16.0861 12.0468 15.636 11.2996C15.5732 11.1988 15.5069 11.1014 15.4301 11.0111C15.3603 10.9311 15.2766 10.8616 15.1545 10.8894C15.0009 10.9277 15.0009 11.0632 15.0009 11.1744C14.9939 11.5811 15.0009 11.9912 15.0009 12.3979L14.9905 12.4014Z" fill="#E4A24E" stroke="white" stroke-width="0.2" stroke-miterlimit="10"/>
<path d="M22.06 2.24873C22.074 3.18022 22.395 3.79891 23.037 4.2438C24.0524 4.94243 25.3365 4.52534 25.7518 3.37139C26.1566 2.24525 25.5529 0.931419 24.4363 0.51433C23.2394 0.0659593 22.0286 1.03222 22.0565 2.24873H22.06Z" fill="#346E93" stroke="white" stroke-width="0.2" stroke-miterlimit="10"/>
<path d="M12.0768 13.0131C12.0838 13.7777 12.7607 14.4764 13.5005 14.4798C14.1774 14.4833 14.6555 13.9724 14.6485 13.2529C14.6415 12.4743 13.975 11.7966 13.2248 11.8035C12.5828 11.8105 12.0733 12.3457 12.0768 13.0096V13.0131Z" fill="#E4A24E" stroke="white" stroke-width="0.2" stroke-miterlimit="10"/>
</g>
<defs>
<clipPath id="clip0_4620_1557">
<rect width="268" height="48" fill="white"/>
</clipPath>
</defs>
</svg>
