<?xml version="1.0" encoding="utf-8"?>
<!-- Generator: Adobe Illustrator 21.0.0, SVG Export Plug-In . SVG Version: 6.00 Build 0)  -->
<svg version="1.1" id="Layer_1" xmlns="http://www.w3.org/2000/svg" xmlns:xlink="http://www.w3.org/1999/xlink" x="0px" y="0px"
	 viewBox="0 0 780 606.7" style="enable-background:new 0 0 780 606.7;" xml:space="preserve">
<style type="text/css">
	.st0{clip-path:url(#SVGID_2_);}
	.st1{fill:#E2AF8D;}
	.st2{fill:#F9C5A2;}
	.st3{fill:#FFD2B3;}
	.st4{fill:#CE947A;}
	.st5{fill:#4D4A57;stroke:#000000;stroke-miterlimit:10;}
	.st6{fill:#B8B29A;stroke:#000000;stroke-miterlimit:10;}
	.st7{fill:#85E22B;stroke:#000000;stroke-miterlimit:10;}
	.st8{fill:#686559;stroke:#000000;stroke-miterlimit:10;}
	.st9{fill:#E0D9BA;stroke:#665E3A;stroke-miterlimit:10;}
	.st10{fill:#E5DFC3;stroke:#000000;stroke-miterlimit:10;}
	.st11{fill:#E5E13C;stroke:#000000;stroke-miterlimit:10;}
	.st12{fill:none;stroke:#5B5A59;stroke-miterlimit:10;}
	.st13{fill:none;stroke:#5B5A59;stroke-miterlimit:10;stroke-dasharray:11.3036,11.3036;}
	.st14{fill:none;stroke:#5B5A59;stroke-miterlimit:10;stroke-dasharray:12.2223,12.2223;}
	.st15{fill:none;stroke:#5B5A59;stroke-miterlimit:10;stroke-dasharray:11.6943,11.6943;}
	.st16{fill:none;stroke:#5B5A59;stroke-miterlimit:10;stroke-dasharray:12.7024,12.7024;}
	.st17{fill:none;stroke:#5B5A59;stroke-miterlimit:10;stroke-dasharray:13.5569,13.5569;}
	.st18{fill:none;stroke:#5B5A59;stroke-miterlimit:10;stroke-dasharray:11.8369,11.8369;}
	.st19{fill:none;stroke:#5B5A59;stroke-miterlimit:10;stroke-dasharray:12.4386,12.4386;}
	.st20{fill:none;stroke:#5B5A59;stroke-miterlimit:10;stroke-dasharray:12.7019,12.7019;}
	.st21{fill:none;stroke:#5B5A59;stroke-miterlimit:10;stroke-dasharray:11.6033,11.6033;}
</style>
<title>hand</title>
<g>
	<g>
		<defs>
			
				<rect id="SVGID_1_" x="92.4" y="-20.8" transform="matrix(0.6227 -0.7825 0.7825 0.6227 -69.9646 409.863)" width="595.3" height="596.5"/>
		</defs>
		<clipPath id="SVGID_2_">
			<use xlink:href="#SVGID_1_"  style="overflow:visible;"/>
		</clipPath>
		<g class="st0">
			<path class="st1" d="M609.6,100.4c-22,10.7-41.5,32.5-61.8,43.6c-24.3,13.5-73.5,49.5-105.4,63.7s-72.6,37.1-92.5,52.8
				c-19.9,15.7-53.3,40.1-71.8,49.5c-18.5,9.3-31.5,13.9-46.8,18.4c-15.3,4.5-28,12.7-32.4,15.9c-9.4,6.7-9.3,13.8-9.3,13.8
				s-12.9,11.7-6.9,18.4c0,0-12.9,13.2-5.6,20.6c-4.9,5.4-10.6,13.8-11.1,24.9c-9.2,7.4-16.5,14.4-8.9,20.5
				c7.6,6.1,31.5-10.5,49.3-23.9c15.7-11.7,28.8-13.6,37.3-13.5s17.1,1.8,11.1,16.3s-3.8,27.3,4.4,35.7c8.2,8.4,17.4,1.5,14.1-9.2
				s4.9-32.6,8.2-36.7c3.3-4.2,15.1-21.3,18.5-31s10.1-25.1,19.9-33.9c9.8-8.9,61-32.7,88.8-39.7c27.7-7,71.3-47.1,79.2-53.8
				c8-6.6,39.2-15.3,59.8-26.3c23.5-12.5,47.6-31.7,47.6-31.7c3.5-7.6,6.6-15.4,9.3-23.4C616.9,133.5,625.5,92.8,609.6,100.4"/>
			<path class="st2" d="M616.9,102.1c-19.9,7.9-38.2,29.8-69.2,48.5c-27,16.3-51.4,44.2-92.8,58.4c-37.4,12.9-76.9,36.4-96.8,52.1
				s-48.2,42-71.8,52.1c-19.2,8.1-36.8,12.3-52.1,16.8c-15.4,4.5-23.8,7.9-28.2,11.1c-9.4,6.7-4.2,7.6-4.2,7.6s-17.4,12.3-4.3,14.5
				c-10.1,7-11.7,13.3-2.9,16.8c-7,5.4-15.2,18.6-4.9,22.2c-7.9,8.3,4.2,14.9,16.7,7.7c19.6-11.3,32-12,40.6-13.2
				c9-1.2,17.3-4.5,16.9,11.1c-0.4,13,6.6,24.8,10.5,14.4c2.1-5.7,3.3-12,6.7-16.1c3.3-4.2,15.6-24.6,19-34.3
				c3.4-9.7,8.2-26.9,18-35.8s57.7-32.1,84.8-41.3c45.7-15.5,82-55.3,90-61.9c8-6.6,36.9-19.9,57.6-30.8
				c10.6-5.6,33.5-17.6,54.2-29.6c0,0,10.1-26.1,13.6-54.8C619.1,106.3,616.9,102.1,616.9,102.1"/>
			<path class="st3" d="M416.6,269.8c-34.3,15.4-67.1,30.1-72,20.8c-4.9-9.3,38.1-41.9,71.4-59.6s44.2-13.9,49.1-4.6
				C470,235.6,461.7,249.7,416.6,269.8"/>
			<path class="st3" d="M550.3,154.4c-16.7,13.1-33.1,25.1-30.4,29.2c2.7,4.1,30.2-11.9,47.9-23.8s19-15.1,16.3-19.3
				S570.9,138.3,550.3,154.4"/>
			<path class="st3" d="M282,349.5c-0.8,10.5-9,23.4-27.4,28s-45.4,2.7-42.3-9.8c4.5-17.9,16.1-30.1,33.5-38
				C267,320.2,283.5,330.6,282,349.5"/>
			<path class="st4" d="M214.8,383.2c0,0-23.2,18.4-27.1,21.6c-3.9,3.2-16,12.7-21.5,17.1l1-6.4c0,0,12.5-9.5,19.2-14.5
				C192.4,396.2,205.7,387.2,214.8,383.2"/>
			<path class="st4" d="M207.7,369.4c-11.2,8-21.4,17.3-30.6,27.6l-1.8-3.9c0,0,11-10.2,17.8-15.1
				C203.5,370.6,207.8,369.4,207.7,369.4"/>
			<path class="st4" d="M210.2,354.4c0,0-16.2,10-27.5,22.1l-1.5-3.8c0,0,9-7.4,15.5-11.8C204.7,355.4,210.2,354.3,210.2,354.4"/>
			<path class="st4" d="M210.4,344c0,0-12,6.2-20.8,14.1l1-3.9c0,0,5.7-4.5,10.7-6.9C204.2,345.9,207.2,344.8,210.4,344"/>
			<path class="st2" d="M165.3,428.9c0,0-2.1-1.2-6.2,1.7c-4.1,2.9-3.8,5.1-2.6,6.7s4,4.2,6.5,1.8
				C165.6,436.8,170.6,431.7,165.3,428.9"/>
		</g>
	</g>
</g>
<path class="st5" d="M572.7,127.2c0,0-11,21.8-4.9,32.8c6.1,11,27.5,30.8,27.5,34.8c0,4-81.4,54.8-107.3,58c-29.7,24.8-66,53-66,53
	l-102,40.5l-12.3-16.1l-29.5-19.9l137.7-99.3L572.7,127.2z"/>
<g>
	<circle class="st6" cx="321" cy="318.3" r="7.2"/>
	<circle class="st7" cx="321" cy="318.3" r="5"/>
</g>
<circle class="st6" cx="449.8" cy="248.3" r="17.3"/>
<circle class="st8" cx="449.8" cy="248.3" r="10.7"/>
<circle class="st9" cx="447.5" cy="234.5" r="2.3"/>
<circle class="st9" cx="441.1" cy="237.6" r="2.3"/>
<circle class="st9" cx="436.7" cy="244" r="2.3"/>
<circle class="st9" cx="436.1" cy="250.6" r="2.3"/>
<circle class="st9" cx="439" cy="257.2" r="2.3"/>
<circle class="st9" cx="444.9" cy="261.3" r="2.3"/>
<circle class="st9" cx="451.5" cy="261.9" r="2.3"/>
<circle class="st9" cx="457.4" cy="260.1" r="2.3"/>
<circle class="st9" cx="462.2" cy="254.8" r="2.3"/>
<circle class="st9" cx="464" cy="247.6" r="2.3"/>
<circle class="st9" cx="455" cy="235.1" r="2.3"/>
<circle class="st9" cx="461" cy="240.5" r="2.3"/>
<rect x="442" y="244.5" transform="matrix(0.7753 -0.6316 0.6316 0.7753 -55.7316 340.0421)" class="st10" width="16.1" height="7.7"/>
<rect x="453.1" y="240.6" transform="matrix(0.7753 -0.6316 0.6316 0.7753 -52.1821 342.1467)" class="st11" width="3.3" height="7.7"/>
<g>
	
		<rect x="372.7" y="305.7" transform="matrix(0.8932 -0.4497 0.4497 0.8932 -97.9828 202.3575)" class="st10" width="8.6" height="3.5"/>
	<rect x="375" y="305.7" transform="matrix(0.8932 -0.4497 0.4497 0.8932 -97.9776 202.3868)" class="st8" width="4" height="3.5"/>
</g>
<g>
	
		<rect x="486.6" y="216.5" transform="matrix(0.8932 -0.4497 0.4497 0.8932 -47.1414 243.1802)" class="st10" width="3.5" height="8.6"/>
	
		<rect x="486.6" y="218.9" transform="matrix(0.8932 -0.4497 0.4497 0.8932 -47.1711 243.2083)" class="st8" width="3.5" height="4"/>
</g>
<g>
	<circle class="st6" cx="552.2" cy="180" r="7.2"/>
	<circle class="st7" cx="552.2" cy="180" r="5"/>
</g>
<g>
	<circle class="st6" cx="510" cy="187.2" r="7.2"/>
	<circle class="st9" cx="510" cy="187.2" r="5"/>
</g>
<g>
	<g>
		<path class="st12" d="M467.6,247.6c1.1-0.1,2.3-0.4,3.5-0.7"/>
		<path class="st13" d="M477.4,244.6c9.5-4.3,21.7-12.4,35.2-21.1c16.2-10.3,33.1-21.4,39.4-30"/>
		<path class="st12" d="M553.8,190.6c0.6-1.2,0.9-2.4,0.9-3.5"/>
	</g>
</g>
<g>
	<g>
		<path class="st12" d="M465.8,240.7c1.1-0.1,2.3-0.3,3.5-0.6"/>
		<path class="st14" d="M476.3,238.1c22.3-7.8,59.1-30.5,68.6-46.1"/>
		<path class="st12" d="M546.5,188.6c0.5-1.3,0.7-2.4,0.7-3.5"/>
	</g>
</g>
<g>
	<g>
		<path class="st12" d="M464.2,237.9c0,0,1.4-0.4,3.4-1.1"/>
		<path class="st15" d="M474.1,234.5c3.3-1.3,6.7-2.7,9.5-4.3"/>
		<path class="st12" d="M486.5,228.2c1.2-1,2-1.9,2.1-2.8"/>
	</g>
</g>
<g>
	<g>
		<path class="st12" d="M459.4,233.2c0,0,1.2-0.6,3.2-1.6"/>
		<path class="st16" d="M469.3,228.1c3-1.7,6.4-3.8,9.6-6"/>
		<path class="st12" d="M482,220c1-0.7,1.9-1.4,2.8-2.2"/>
	</g>
</g>
<g>
	<g>
		<path class="st12" d="M456.6,231.9c0,0,0.8-1,2.4-2.7"/>
		<path class="st17" d="M464.6,223.4c8-7.9,21.3-19.3,35.9-25.8"/>
		<path class="st12" d="M504.2,196.1c1.1-0.4,2.3-0.8,3.4-1.1"/>
	</g>
</g>
<g>
	<g>
		<path class="st12" d="M449.4,230.5c0,0,0.9-1,2.4-2.6"/>
		<path class="st18" d="M456.8,222.8c9-9.1,24.8-24.3,40-34.5"/>
		<path class="st12" d="M499.7,186.4c1-0.7,2-1.3,3-1.8"/>
	</g>
</g>
<g>
	<g>
		<path class="st12" d="M375.4,311c0,0,1.3-0.2,3.5-0.7"/>
		<path class="st19" d="M386,308.3c13-4.2,36-14.2,58.8-37.4"/>
		<path class="st12" d="M447.4,268.2c0.8-0.8,1.6-1.7,2.4-2.6"/>
	</g>
</g>
<g>
	<g>
		<path class="st12" d="M380,303.9c0,0,1.3,0.1,3.6-0.2"/>
		<path class="st20" d="M391,302.2c10.2-3,26.8-10.8,46.7-31.2"/>
		<path class="st12" d="M440.3,268.2c0.8-0.8,1.6-1.7,2.4-2.6"/>
	</g>
</g>
<g>
	<g>
		<path class="st12" d="M328.3,318.4c0,0,1.2-0.3,3.5-0.9"/>
		<path class="st21" d="M338.3,315.6c20.1-6,65.6-21.7,94-49.2"/>
		<path class="st12" d="M434.8,263.9c0.8-0.8,1.7-1.7,2.4-2.6"/>
	</g>
</g>
<g>
	<g>
		<path class="st12" d="M323.5,311.1c0,0,1.3-0.3,3.5-0.9"/>
		<path class="st21" d="M333.6,308.3c20.1-6,65.6-21.7,94-49.2"/>
		<path class="st12" d="M430.1,256.6c0.8-0.8,1.7-1.7,2.4-2.6"/>
	</g>
</g>
</svg>
