<?xml version="1.0" standalone="no"?>
<!DOCTYPE svg PUBLIC "-//W3C//DTD SVG 1.1//EN" "http://www.w3.org/Graphics/SVG/1.1/DTD/svg11.dtd" >
<svg xmlns="http://www.w3.org/2000/svg" xmlns:xlink="http://www.w3.org/1999/xlink" version="1.1">
<metadata>
Created by FontForge 20170731 at Wed Aug 22 16:54:11 2012
 By Aleksey,,,
Copyright (c) 2012 by Just Another Foundry. All rights reserved.
</metadata>
<defs>
<font id="BerninaSans-Regular" horiz-adv-x="600" >
  <font-face 
    font-family="Bernina Sans"
    font-weight="400"
    font-stretch="normal"
    units-per-em="1000"
    panose-1="0 0 0 0 0 0 0 0 0 0"
    ascent="806"
    descent="-194"
    x-height="535"
    cap-height="752"
    bbox="-279 -329 1338 1017"
    underline-thickness="56"
    underline-position="-198"
    unicode-range="U+0020-2265"
  />
<missing-glyph horiz-adv-x="284" 
 />
    <glyph glyph-name=".notdef" horiz-adv-x="284" 
 />
    <glyph glyph-name=".null" horiz-adv-x="0" 
 />
    <glyph glyph-name="nonmarkingreturn" horiz-adv-x="333" 
 />
    <glyph glyph-name="space" unicode=" " horiz-adv-x="284" 
 />
    <glyph glyph-name="exclam.round" unicode="!" horiz-adv-x="319" 
d="M115 752h103l-11 -548h-81zM166 111q28 0 44 -16.5t16 -41.5q0 -26 -16 -42t-44 -16t-43.5 16t-15.5 42q0 25 15.5 41.5t43.5 16.5z" />
    <glyph glyph-name="quotedbl" unicode="&#x22;" horiz-adv-x="413" 
d="M150 523h-55v257h88zM294 523h-55v257h88z" />
    <glyph glyph-name="numbersign" unicode="#" horiz-adv-x="750" 
d="M680 536l-6 -68h-120l-25 -248h120l-6 -68h-121l-15 -152h-81l15 152h-171l-15 -152h-81l15 152h-119l6 68h120l25 248h-120l6 68h121l15 152h81l-15 -152h171l15 152h81l-15 -152h119zM302 468l-25 -248h171l25 248h-171z" />
    <glyph glyph-name="dollar" unicode="$" horiz-adv-x="582" 
d="M294 -64h-75l9 84q-40 3 -79 10t-58 12l-19 6v78h8q66 -26 156 -34l21 227q-46 17 -73 29t-59.5 34t-48 52t-15.5 70q0 77 60.5 119.5t166.5 45.5l6 83h75l-10 -84q36 -3 71 -9.5t52 -11.5l17 -5v-76h-8q-58 22 -139 30l-21 -216q44 -15 72 -28t59.5 -35t47 -54t15.5 -74
q0 -81 -60.5 -123.5t-165.5 -47.5zM437 179q0 41 -30 67.5t-85 49.5l-18 -206q133 5 133 89zM149 511q0 -40 30.5 -64.5t87.5 -45.5l16 196q-134 -6 -134 -86z" />
    <glyph glyph-name="percent" unicode="%" horiz-adv-x="863" 
d="M755 682l-300 -358l-252 -324h-95v6l300 358l252 324h95v-6zM61 527q0 77 48.5 125t122.5 48t121.5 -48t47.5 -124q0 -77 -48.5 -125t-122.5 -48t-121.5 47.5t-47.5 124.5zM136 527q0 -48 26.5 -78t68.5 -30t68.5 30t26.5 79q0 48 -26.5 78t-68.5 30t-68.5 -30t-26.5 -79
zM462 160q0 77 48.5 125t122.5 48q73 0 121 -47.5t48 -124.5t-48.5 -125t-122.5 -48q-73 0 -121 48t-48 124zM537 160q0 -48 26.5 -78t68.5 -30t68.5 30t26.5 79q0 48 -26.5 78t-68.5 30t-68.5 -30t-26.5 -79z" />
    <glyph glyph-name="ampersand" unicode="&#x26;" horiz-adv-x="755" 
d="M743 0h-118l-105 98q-88 -110 -234 -110q-105 0 -170.5 52t-65.5 137q0 66 41 114.5t118 93.5q-55 55 -80 101.5t-25 98.5q0 80 54.5 130t146.5 50q88 0 141 -46t53 -118q0 -65 -43 -113t-125 -103l189 -175q40 84 53 199h87q-18 -150 -81 -248l164 -153v-8zM301 59
q99 0 168 87l-208 192q-54 -38 -82 -74.5t-28 -80.5q0 -56 42.5 -90t107.5 -34zM198 591q0 -74 89 -164q61 44 93 81.5t32 85.5q0 46 -30.5 74.5t-76.5 28.5q-47 0 -77 -29t-30 -77z" />
    <glyph glyph-name="quotesingle" unicode="'" horiz-adv-x="275" 
d="M159 523h-64v257h94z" />
    <glyph glyph-name="parenleft" unicode="(" horiz-adv-x="351" 
d="M223 780h73q-6 -7 -15 -20t-32.5 -57.5t-41.5 -95t-32.5 -131t-14.5 -165.5t14 -164.5t34 -132.5t40 -93.5t34 -58.5l14 -19h-73q-6 7 -17 20.5t-38 59.5t-48 96.5t-38 130t-17 161.5t16.5 160.5t39.5 132t46 95t39 61.5z" />
    <glyph glyph-name="parenright" unicode=")" horiz-adv-x="351" 
d="M128 -157h-73q6 7 15 20t32.5 57.5t41.5 95t32.5 131t14.5 165.5t-14 164.5t-34 132.5t-40 93.5t-34 59.5l-14 18h73q6 -7 17 -20.5t38 -59.5t48 -96.5t38 -130t17 -161.5t-16.5 -160.5t-39.5 -132t-46 -95t-40 -61.5z" />
    <glyph glyph-name="asterisk" unicode="*" horiz-adv-x="554" 
d="M425 469l-56 -42l-92 129l-92 -129l-56 42l94 126l-150 46l21 68l150 -51l-3 158h72l-3 -158l150 51l21 -68l-150 -46z" />
    <glyph glyph-name="plus" unicode="+" horiz-adv-x="680" 
d="M382 22h-84v223h-214v75h214v223h84v-223h214v-75h-214v-223z" />
    <glyph glyph-name="comma" unicode="," horiz-adv-x="253" 
d="M86 102h98l-75 -259h-69z" />
    <glyph glyph-name="hyphen" unicode="-" horiz-adv-x="441" 
d="M379 273h-317v77h317v-77z" />
    <glyph glyph-name="period.round" unicode="." horiz-adv-x="254" 
d="M129 117q28 0 44.5 -17.5t16.5 -43.5t-16.5 -43.5t-44.5 -17.5t-44.5 17.5t-16.5 43.5t16.5 43.5t44.5 17.5z" />
    <glyph glyph-name="slash" unicode="/" horiz-adv-x="432" 
d="M411 780l-308 -808h-82l308 808h82z" />
    <glyph glyph-name="zero" unicode="0" horiz-adv-x="646" 
d="M569 347q0 -77 -10.5 -136.5t-36.5 -112.5t-76.5 -81.5t-124.5 -28.5q-73 0 -123 28.5t-75.5 80.5t-35.5 110.5t-10 133.5q0 77 10.5 136.5t36.5 112.5t76.5 81.5t124.5 28.5q73 0 123 -28.5t75.5 -80.5t35.5 -110.5t10 -133.5zM468 344q0 150 -34.5 216.5t-110.5 66.5
t-110.5 -66.5t-34.5 -216.5t34.5 -216.5t110.5 -66.5t110.5 66.5t34.5 216.5z" />
    <glyph glyph-name="one" unicode="1" horiz-adv-x="390" 
d="M292 0h-95v604l-151 -51h-7v74l184 61h69v-688z" />
    <glyph glyph-name="two" unicode="2" horiz-adv-x="546" 
d="M482 76v-76h-423v66q30 32 83.5 87.5t78 81.5t59.5 67.5t50 68.5t27 61t12 66q0 59 -35.5 92t-105.5 33q-33 0 -70 -7t-58 -14l-21 -7h-7v76q76 24 165 24q115 0 174 -50t59 -137q0 -38 -12.5 -76t-30.5 -69t-50.5 -70t-60 -66.5t-72 -73t-73.5 -77.5h311z" />
    <glyph glyph-name="three" unicode="3" horiz-adv-x="533" 
d="M120 323v73h60q74 0 115 23q53 30 53 96q0 52 -33.5 80t-101.5 28q-32 0 -66 -6t-53 -12l-18 -6h-8v75q69 21 153 21q112 0 170 -46t58 -122q0 -62 -36.5 -105t-102.5 -56q67 -10 110 -56t43 -118q0 -90 -69 -144.5t-190 -54.5q-37 0 -72.5 5t-53.5 10l-17 6v73h7
q66 -22 135 -22q74 0 117 33.5t43 94.5q0 71 -59 105q-43 25 -125 25h-59z" />
    <glyph glyph-name="four" unicode="4" horiz-adv-x="602" 
d="M553 151h-110v-151h-89v151h-312v64l290 473h111v-463h110v-74zM129 225h225v363z" />
    <glyph glyph-name="five" unicode="5" horiz-adv-x="539" 
d="M443 612h-261l-13 -197q33 4 68 4q119 0 180.5 -58.5t61.5 -151.5q0 -100 -69.5 -158t-187.5 -58q-37 0 -74.5 6t-56.5 11l-19 6v76h7q72 -27 144 -27q78 0 118 38.5t40 101.5q0 64 -44 102.5t-134 38.5q-20 0 -47.5 -2t-44.5 -4l-17 -2h-8l19 350h338v-76z" />
    <glyph glyph-name="six" unicode="6" horiz-adv-x="606" 
d="M546 217q0 -101 -63.5 -165t-172.5 -64q-125 0 -184 83q-49 69 -49 232q0 210 70 301t225 91q33 0 65.5 -3.5t48.5 -7.5l16 -4v-77h-8q-57 20 -125 20q-109 0 -152.5 -69.5t-43.5 -224.5q16 47 58 73.5t106 26.5q96 0 152.5 -58.5t56.5 -153.5zM315 359q-62 0 -100 -38.5
t-38 -108.5q0 -67 35 -110t100 -43q62 0 98.5 40.5t36.5 111.5q0 68 -34.5 108t-97.5 40z" />
    <glyph glyph-name="seven" unicode="7" horiz-adv-x="500" 
d="M356 612h-323v76h425v-53l-235 -635h-103z" />
    <glyph glyph-name="eight" unicode="8" horiz-adv-x="609" 
d="M87 527q0 81 60.5 126.5t157.5 45.5t157 -44.5t60 -123.5q0 -59 -35 -102.5t-95 -67.5q71 -26 111.5 -73t40.5 -112q0 -87 -68 -137t-176 -50q-105 0 -170 48t-65 132q0 128 151 185q-129 53 -129 173zM185 526q0 -49 36.5 -82t106.5 -58q41 20 68.5 55.5t27.5 82.5
q0 49 -31.5 77.5t-87.5 28.5t-88 -28.5t-32 -75.5zM164 177q0 -56 37.5 -87.5t102.5 -31.5t103.5 31.5t38.5 84.5t-42 89t-125 64q-115 -53 -115 -150z" />
    <glyph glyph-name="nine" unicode="9" horiz-adv-x="606" 
d="M60 471q0 101 63.5 165t172.5 64q125 0 184 -83q49 -69 49 -232q0 -210 -70 -301t-225 -91q-33 0 -65.5 3.5t-48.5 7.5l-16 4v77h8q57 -20 125 -20q109 0 152.5 69.5t43.5 224.5q-16 -47 -58 -73.5t-106 -26.5q-96 0 -152.5 58.5t-56.5 153.5zM291 329q62 0 100 38.5
t38 108.5q0 67 -35 110t-100 43q-62 0 -98.5 -40.5t-36.5 -111.5q0 -68 34.5 -108t97.5 -40z" />
    <glyph glyph-name="colon.round" unicode=":" horiz-adv-x="268" 
d="M133 115q28 0 44 -17t16 -43t-16 -43t-44 -17t-44 17t-16 43t16 43t44 17zM133 543q28 0 44 -17t16 -43t-16 -43t-44 -17t-44 17t-16 43t16 43t44 17z" />
    <glyph glyph-name="semicolon.round" unicode=";" horiz-adv-x="267" 
d="M133 543q28 0 44 -17t16 -43t-16 -43t-44 -17t-44 17t-16 43t16 43t44 17zM88 102h98l-75 -259h-69z" />
    <glyph glyph-name="less" unicode="&#x3c;" horiz-adv-x="680" 
d="M538 518v-80l-357 -154l357 -158v-80l-435 195v82z" />
    <glyph glyph-name="equal" unicode="=" horiz-adv-x="680" 
d="M573 152h-466v70h466v-70zM573 342h-466v70h466v-70z" />
    <glyph glyph-name="greater" unicode="&#x3e;" horiz-adv-x="680" 
d="M142 46v80l357 154l-357 158v80l435 -195v-82z" />
    <glyph glyph-name="question.round" unicode="?" horiz-adv-x="526" 
d="M239 111q28 0 44 -16.5t16 -41.5q0 -26 -16 -42t-44 -16t-43.5 16t-15.5 42q0 25 15.5 41.5t43.5 16.5zM62 655v77q72 28 174 28q122 0 183 -50t61 -135q0 -33 -8.5 -61t-26 -51t-32 -37.5t-39.5 -35.5t-35 -30q-26 -25 -38.5 -52t-14.5 -46t-2 -58h-89q0 46 2.5 70
t20 60.5t53.5 69.5q4 4 28 24.5t32.5 30t24 29t21.5 39t6 42.5q0 56 -40.5 86.5t-115.5 30.5q-38 0 -77.5 -8t-59.5 -16l-20 -7h-8z" />
    <glyph glyph-name="at" unicode="@" horiz-adv-x="1026" 
d="M684 495v-255q0 -25 1 -37.5t5 -27.5t15 -21.5t29 -6.5q47 0 76.5 46t29.5 128q0 139 -84 226.5t-230 87.5q-151 0 -245.5 -92.5t-94.5 -242.5q0 -152 99.5 -243.5t277.5 -91.5q65 0 133.5 12.5t104.5 25.5l36 13h8v-70q-136 -46 -285 -46q-208 0 -329 109t-121 286
q0 178 118 291.5t299 113.5q175 0 282 -106t107 -265q0 -110 -52.5 -176.5t-135.5 -66.5q-47 0 -73.5 22.5t-31.5 64.5q-1 -4 -3 -9.5t-11.5 -20.5t-22.5 -26.5t-37.5 -21t-55.5 -9.5q-78 0 -124.5 55.5t-46.5 153.5q0 99 48 155t130 56q86 0 115 -71l22 60h47zM506 441
q-105 0 -105 -146q0 -144 105 -144t105 144q0 146 -105 146z" />
    <glyph glyph-name="A" unicode="A" horiz-adv-x="664" 
d="M651 0h-104l-71 210h-300l-74 -210h-89l274 752h98zM329 646l-127 -362h249z" />
    <glyph glyph-name="B" unicode="B" horiz-adv-x="656" 
d="M98 752h213q39 0 60 -1t52 -8t56 -21q83 -47 83 -154q0 -43 -13 -75.5t-32 -49t-38 -27t-32 -12.5l-13 -3q7 -1 18.5 -2.5t41 -13t52.5 -29.5t41.5 -55.5t18.5 -86.5q0 -112 -89 -171q-42 -28 -87 -35.5t-107 -7.5h-225v752zM194 356v-284h126q85 0 128 29q57 38 57 114
q0 79 -67 116q-46 25 -128 25h-116zM194 680v-249h110q68 0 101 18q56 31 56 106q0 77 -54 107q-33 18 -105 18h-108z" />
    <glyph glyph-name="C" unicode="C" horiz-adv-x="630" 
d="M573 96v-78q-68 -26 -163 -26q-91 0 -160 30.5t-110.5 84.5t-62 121.5t-20.5 147.5t20.5 147.5t62 121.5t110.5 84.5t160 30.5q42 0 83 -6.5t61 -13.5l19 -6v-78h-8q-69 30 -150 30q-127 0 -191 -86.5t-64 -222.5q0 -137 64 -224t191 -87q36 0 73.5 7.5t57.5 14.5l19 8h8
z" />
    <glyph glyph-name="D" unicode="D" horiz-adv-x="754" 
d="M98 752h191q52 0 82.5 -1.5t80.5 -12.5t89 -33q156 -88 156 -328q0 -243 -162 -331q-84 -46 -246 -46h-191v752zM195 678v-604h100q122 0 182 35q117 67 117 267t-118 267q-61 35 -181 35h-100z" />
    <glyph glyph-name="E" unicode="E" horiz-adv-x="589" 
d="M98 752h421v-75h-325v-246h277v-75h-277v-281h341v-75h-437v752z" />
    <glyph glyph-name="F" unicode="F" horiz-adv-x="546" 
d="M98 752h410v-76h-313v-283h278v-76h-278v-317h-97v752z" />
    <glyph glyph-name="G" unicode="G" horiz-adv-x="731" 
d="M410 393h243v-362q-91 -40 -219 -40q-173 0 -275 95.5t-102 284.5q0 193 106 291t284 98q47 0 93 -7t68 -13l23 -7v-81h-8q-73 34 -175 34q-133 0 -210.5 -76t-77.5 -231q0 -154 75 -234t198 -80q32 0 63 5.5t46 10.5l15 5v231h-147v76z" />
    <glyph glyph-name="H" unicode="H" horiz-adv-x="764" 
d="M98 752h97v-321h374v321h97v-752h-97v356h-374v-356h-97v752z" />
    <glyph glyph-name="I" unicode="I" horiz-adv-x="293" 
d="M98 752h97v-752h-97v752z" />
    <glyph glyph-name="J" unicode="J" horiz-adv-x="425" 
d="M14 7v76h8q43 -15 85 -15q69 0 101 46q22 33 22 114v524h97v-518q0 -36 -1 -56.5t-10 -52.5t-26 -56q-54 -75 -178 -75q-25 0 -49.5 3t-36.5 7z" />
    <glyph glyph-name="K.alt" unicode="K" horiz-adv-x="677" 
d="M98 752h97v-343l334 343h108l-338 -340l365 -412h-123l-346 394v-394h-97v752z" />
    <glyph glyph-name="L" unicode="L" horiz-adv-x="523" 
d="M98 752h97v-676h313v-76h-410v752z" />
    <glyph glyph-name="M" unicode="M" horiz-adv-x="971" 
d="M98 752h125l265 -615l261 615h124v-752h-96v632l-253 -597h-87l-252 597v-632h-87v752z" />
    <glyph glyph-name="N" unicode="N" horiz-adv-x="776" 
d="M98 752h97l396 -595v595h87v-752h-89l-404 602v-602h-87v752z" />
    <glyph glyph-name="O" unicode="O" horiz-adv-x="788" 
d="M731 379q0 -185 -88.5 -288.5t-250.5 -103.5q-161 0 -248 101.5t-87 284.5q0 185 88.5 288.5t250.5 103.5q161 0 248 -101.5t87 -284.5zM394 61q113 0 173.5 79.5t60.5 235.5t-60.5 235.5t-173.5 79.5t-173.5 -79.5t-60.5 -235.5t60.5 -235.5t173.5 -79.5z" />
    <glyph glyph-name="P" unicode="P" horiz-adv-x="625" 
d="M98 752h178q148 0 213 -41q93 -59 93 -191q0 -137 -102 -200q-41 -25 -88.5 -32.5t-116.5 -7.5h-80v-280h-97v752zM195 678v-324h95q94 0 134 29q56 41 56 133q0 93 -56 133q-40 29 -134 29h-95z" />
    <glyph glyph-name="Q" unicode="Q" horiz-adv-x="788" 
d="M731 379q0 -262 -169 -353l109 -147h-114l-80 117q-47 -9 -85 -9q-161 0 -248 101.5t-87 284.5q0 185 88.5 288.5t250.5 103.5q161 0 248 -101.5t87 -284.5zM394 61q113 0 173.5 79.5t60.5 235.5t-60.5 235.5t-173.5 79.5t-173.5 -79.5t-60.5 -235.5t60.5 -235.5
t173.5 -79.5z" />
    <glyph glyph-name="R" unicode="R" horiz-adv-x="659" 
d="M337 317h-142v-317h-97v752h227q122 0 182 -40q82 -55 82 -174q0 -167 -154 -209l195 -329h-111zM195 678v-285h129q77 0 113 25q51 35 51 118q0 82 -51 117q-37 25 -113 25h-129z" />
    <glyph glyph-name="S" unicode="S" horiz-adv-x="569" 
d="M479 732v-77h-8q-81 33 -163 33q-69 0 -106 -29.5t-37 -79.5q0 -35 19 -62t49.5 -45t67.5 -35t74.5 -36.5t68 -44.5t49.5 -64t19 -90q0 -105 -74.5 -157.5t-191.5 -52.5q-48 0 -93.5 8.5t-67.5 17.5l-22 9v81h8q91 -44 183 -44q73 0 115.5 34.5t42.5 92.5q0 37 -19 66
t-49.5 48.5t-68 36.5t-74.5 36.5t-67.5 43t-49.5 60.5t-19 85q0 90 64 141.5t177 51.5q42 0 85 -7t65 -14z" />
    <glyph glyph-name="T" unicode="T" horiz-adv-x="585" 
d="M23 752h539v-76h-221v-676h-97v676h-221v76z" />
    <glyph glyph-name="U" unicode="U" horiz-adv-x="754" 
d="M98 752h97v-476q0 -104 41 -159.5t146 -55.5t146 55.5t41 159.5v476h87v-459q0 -44 -2 -73t-16.5 -74.5t-41.5 -76.5q-71 -82 -221 -82q-146 0 -217 82q-28 32 -42 77t-16 73t-2 74v459z" />
    <glyph glyph-name="V" unicode="V" horiz-adv-x="677" 
d="M21 752h107l215 -638l224 638h89l-276 -752h-92z" />
    <glyph glyph-name="W" unicode="W" horiz-adv-x="1012" 
d="M29 752h103l162 -624l172 603h97l166 -603l168 624h86l-213 -752h-96l-169 608l-173 -608h-98z" />
    <glyph glyph-name="X" unicode="X" horiz-adv-x="695" 
d="M42 752h116l198 -305l198 305h98l-245 -363l261 -389h-117l-212 328l-214 -328h-97l259 387z" />
    <glyph glyph-name="Y" unicode="Y" horiz-adv-x="634" 
d="M13 752h113l201 -367l202 367h92l-256 -453v-299h-97v298z" />
    <glyph glyph-name="Z" unicode="Z" horiz-adv-x="635" 
d="M570 752v-66l-402 -611h410v-75h-524v68l401 609h-387v75h502z" />
    <glyph glyph-name="bracketleft" unicode="[" horiz-adv-x="389" 
d="M98 780h234v-72h-147v-793h147v-72h-234v937z" />
    <glyph glyph-name="backslash" unicode="\" horiz-adv-x="432" 
d="M329 -28l-308 808h82l308 -808h-82z" />
    <glyph glyph-name="bracketright" unicode="]" horiz-adv-x="392" 
d="M294 -157h-234v72h147v793h-147v72h234v-937z" />
    <glyph glyph-name="asciicircum" unicode="^" horiz-adv-x="510" 
d="M456 408h-93l-111 257l-112 -257h-86l155 344h92z" />
    <glyph glyph-name="underscore" unicode="_" horiz-adv-x="390" 
d="M394 -106h-398v69h398v-69z" />
    <glyph glyph-name="grave" unicode="`" 
d="M339 631h-73l-132 149h109z" />
    <glyph glyph-name="a.alt" unicode="a" horiz-adv-x="571" 
d="M96 450v77q64 24 160 24q135 0 180 -66q29 -41 29 -142v-203q0 -22 1.5 -34t13.5 -25t36 -13l32 4v-69q-26 -8 -62 -8q-50 0 -77.5 22t-31.5 75q-14 -46 -57 -73t-103 -27q-78 0 -124.5 43.5t-46.5 114.5q0 168 268 168l56 -2q0 36 -0.5 52.5t-4.5 35t-13 31.5
q-28 43 -108 43q-34 0 -69 -7t-53 -14l-18 -7h-8zM146 154q0 -40 25 -64.5t69 -24.5q77 0 109 62q21 40 21 114v12h-32q-24 0 -38.5 -0.5t-41 -3t-43 -9t-34.5 -17t-26.5 -28t-8.5 -41.5z" />
    <glyph glyph-name="b" unicode="b" horiz-adv-x="633" 
d="M89 780h95v-333q14 48 56 78t109 30q106 0 167.5 -74.5t61.5 -206.5q0 -135 -63.5 -210.5t-176.5 -75.5q-127 0 -161 97l-31 -85h-57v780zM329 481q-76 0 -112 -56.5t-36 -153.5q0 -98 36 -154.5t111 -56.5q76 0 112 56.5t36 154.5q0 97 -36 153.5t-111 56.5z" />
    <glyph glyph-name="c" unicode="c" horiz-adv-x="486" 
d="M436 89v-79q-50 -18 -120 -18q-125 0 -193 73.5t-68 205.5t68 206t193 74q31 0 61 -4.5t45 -8.5l14 -5v-79h-8q-50 23 -108 23q-78 0 -120.5 -53.5t-42.5 -149.5q0 -97 42.5 -152.5t120.5 -55.5q25 0 52 6t42 12l14 5h8z" />
    <glyph glyph-name="d" unicode="d" horiz-adv-x="633" 
d="M449 780h95v-780h-73l-21 96q-13 -51 -57.5 -79.5t-109.5 -28.5q-107 0 -167.5 75.5t-60.5 206.5t62 208t173 77q123 0 159 -99v324zM305 481q-76 0 -112 -56.5t-36 -152.5q0 -97 36 -153.5t111 -56.5q76 0 112 56.5t36 153.5q0 96 -36 152.5t-111 56.5z" />
    <glyph glyph-name="e" unicode="e" horiz-adv-x="565" 
d="M478 93v-77q-67 -24 -158 -24q-131 0 -196 67q-69 71 -69 211q0 134 63 210t175 76q126 0 180 -94q16 -28 24.5 -69t9.5 -68.5t1 -75.5h-353q0 -89 43 -137t127 -48q33 0 69 7t56 15l20 7h8zM155 317h254q0 169 -119 169q-122 0 -135 -169z" />
    <glyph glyph-name="f" unicode="f" horiz-adv-x="424" 
d="M390 463h-160v-463h-95v463h-107v72h107v41q0 36 1 53t6 40.5t15 41.5q40 70 154 70q20 0 39.5 -2t29.5 -4l10 -2v-77h-8q-35 12 -70 12q-52 0 -71 -39q-11 -23 -11 -94v-40h160v-72z" />
    <glyph glyph-name="g.alt" unicode="g" horiz-adv-x="585" 
d="M491 381q0 -80 -55.5 -127t-150.5 -47q-41 0 -74 9q-45 -19 -45 -60q0 -17 7.5 -28t22 -15t24.5 -5t26 -1h102q22 0 36.5 -1t42 -4t46 -12t38.5 -23.5t30 -39t10 -57.5q0 -86 -72.5 -132t-208.5 -46q-239 0 -239 138q0 28 11.5 50t23.5 33t32 19.5t25 9.5t14 3
q-4 1 -8.5 3t-16 9t-19.5 16t-15 25t-7 35q0 32 19.5 55t38.5 31t40 12q-90 44 -90 151q0 80 55.5 127t150.5 47q89 0 143 -42q8 21 22 34t32 18t29.5 6t29.5 1h12v-82q-18 4 -42 4q-35 0 -52 -11q32 -45 32 -103zM338 29h-163q-6 -3 -14.5 -8.5t-23 -26.5t-14.5 -48
q0 -86 150 -86q87 0 134 26t47 73q0 70 -116 70zM285 275q52 0 80.5 28t28.5 78q0 51 -28.5 79t-80.5 28q-53 0 -81 -28t-28 -79q0 -50 28 -78t81 -28z" />
    <glyph glyph-name="h" unicode="h" horiz-adv-x="610" 
d="M89 780h95v-326q25 101 156 101q108 0 156 -70q15 -22 22.5 -52t8.5 -51.5t1 -61.5v-320h-96v321q0 78 -21 109q-31 46 -101 46q-126 0 -126 -140v-336h-95v780z" />
    <glyph glyph-name="i.round" unicode="i" horiz-adv-x="274" 
d="M137 764q27 0 43.5 -17.5t16.5 -42.5q0 -26 -16.5 -43t-44.5 -17q-27 0 -43.5 17.5t-16.5 42.5q0 26 16.5 43t44.5 17zM89 543h95v-543h-95v543z" />
    <glyph glyph-name="j.round" unicode="j" horiz-adv-x="278" 
d="M-41 -196v72h8q21 -4 41 -4q51 0 72 36q14 25 14 87v548h95v-545q0 -85 -22 -125q-41 -73 -155 -73zM142 764q27 0 43.5 -17.5t16.5 -42.5q0 -26 -16.5 -43t-44.5 -17q-27 0 -43.5 17.5t-16.5 42.5q0 26 16.5 43t44.5 17z" />
    <glyph glyph-name="k.alt" unicode="k" horiz-adv-x="568" 
d="M89 780h95v-483l237 246h108l-244 -245l256 -298h-119l-238 283v-283h-95v780z" />
    <glyph glyph-name="l" unicode="l" horiz-adv-x="273" 
d="M89 780h95v-780h-95v780z" />
    <glyph glyph-name="m" unicode="m" horiz-adv-x="927" 
d="M89 543h73l20 -93q23 105 155 105q70 0 108.5 -28.5t57.5 -82.5q35 111 162 111q103 0 149 -70q20 -29 25.5 -66t5.5 -99v-320h-96v321q0 77 -20 109q-29 46 -96 46q-118 0 -118 -140v-336h-96v321q0 77 -20 109q-29 46 -96 46q-118 0 -118 -140v-336h-96v543z" />
    <glyph glyph-name="n" unicode="n" horiz-adv-x="611" 
d="M89 543h73l20 -93q25 105 159 105q108 0 156 -70q15 -22 22.5 -52t8.5 -51.5t1 -61.5v-320h-96v321q0 78 -21 109q-31 46 -102 46q-125 0 -125 -140v-336h-96v543z" />
    <glyph glyph-name="o" unicode="o" horiz-adv-x="613" 
d="M558 273q0 -137 -65.5 -211.5t-186.5 -74.5q-119 0 -185 73.5t-66 209.5q0 137 65.5 211.5t186.5 74.5q119 0 185 -73.5t66 -209.5zM307 58q149 0 149 213q0 214 -150 214q-149 0 -149 -213q0 -214 150 -214z" />
    <glyph glyph-name="p" unicode="p" horiz-adv-x="633" 
d="M184 -200h-95v743h73l21 -96q13 51 57.5 79.5t109.5 28.5q107 0 167.5 -75.5t60.5 -205.5q0 -132 -62 -209t-173 -77q-123 0 -159 99v-287zM328 62q76 0 112 57t36 153q0 95 -35.5 152t-111.5 57t-112 -56.5t-36 -153.5t36 -153t111 -56z" />
    <glyph glyph-name="q" unicode="q" horiz-adv-x="633" 
d="M544 -200h-95v296q-14 -48 -56 -78t-109 -30q-106 0 -167.5 74.5t-61.5 206.5q0 135 63.5 210.5t176.5 75.5q127 0 161 -97l31 85h57v-743zM304 62q76 0 112 56t36 155q0 98 -36 154t-111 56q-76 0 -112 -57t-36 -154t35.5 -153.5t111.5 -56.5z" />
    <glyph glyph-name="r" unicode="r" horiz-adv-x="387" 
d="M363 548v-90q-24 5 -52 5q-35 0 -60.5 -11t-37.5 -25t-19 -37t-8 -37t-1 -35v-318h-96v543h72l19 -104q25 109 166 109h17z" />
    <glyph glyph-name="s" unicode="s" horiz-adv-x="467" 
d="M388 531v-79h-8q-63 26 -124 26q-45 0 -70 -18t-25 -48q0 -29 25.5 -50t62.5 -36t74 -34t62.5 -55t25.5 -87q0 -79 -56.5 -118.5t-149.5 -39.5q-39 0 -74.5 7t-51.5 13l-16 7v79h8q74 -33 143 -33q49 0 75 20.5t26 54.5q0 32 -25.5 55t-62.5 38.5t-74 33.5t-62.5 51
t-25.5 81q0 70 52 111t144 41q32 0 64 -5t47 -10z" />
    <glyph glyph-name="t" unicode="t" horiz-adv-x="434" 
d="M383 80v-76q-39 -12 -92 -12q-102 0 -139 57q-10 16 -15 38.5t-6 41.5t-1 59v275h-102v72h102v151l95 29v-180h158v-72h-158v-274q0 -71 12 -93q17 -31 64 -31q17 0 35.5 3.5t28.5 7.5l10 4h8z" />
    <glyph glyph-name="u" unicode="u" horiz-adv-x="610" 
d="M521 0h-73l-20 93q-23 -105 -157 -105q-103 0 -150 68q-20 29 -26 67t-6 100v320h96v-321q0 -80 21 -109q32 -46 99 -46q120 0 120 140v336h96v-543z" />
    <glyph glyph-name="v" unicode="v" horiz-adv-x="594" 
d="M43 543h110l152 -431l156 431h90l-208 -543h-93z" />
    <glyph glyph-name="w" unicode="w" horiz-adv-x="885" 
d="M50 543h103l120 -431l130 421h95l126 -421l124 431h86l-167 -543h-98l-127 424l-131 -424h-98z" />
    <glyph glyph-name="x" unicode="x" horiz-adv-x="574" 
d="M49 543h119l127 -202l128 202h100l-177 -262l190 -281h-119l-139 218l-139 -218h-100l188 278z" />
    <glyph glyph-name="y.alt" unicode="y" horiz-adv-x="591" 
d="M548 543l-202 -534q-17 -46 -28.5 -72.5t-30.5 -57t-39 -46t-50.5 -26.5t-68.5 -11q-18 0 -35.5 2t-25.5 4l-9 2v78h8q34 -13 65 -13q44 0 70.5 34.5t55.5 113.5l-216 526h110l156 -414l150 414h90z" />
    <glyph glyph-name="z" unicode="z" horiz-adv-x="511" 
d="M447 535v-72l-275 -391h281v-72h-392v76l274 387h-270v72h382z" />
    <glyph glyph-name="braceleft" unicode="{" horiz-adv-x="388" 
d="M331 780v-72q-60 0 -88 -15.5t-28 -69.5v-204q0 -16 -0.5 -25t-4.5 -24t-11 -24.5t-21.5 -19t-35.5 -14.5q21 -5 35.5 -14.5t21.5 -19t11 -24.5t4.5 -24t0.5 -25v-205q0 -54 28 -69.5t88 -15.5v-72q-40 0 -61 1.5t-51.5 10t-50.5 26.5q-19 17 -28 42t-10.5 41t-1.5 44
v202q0 42 -21 54t-68 12v72q47 0 68 12t21 54v201q0 28 1.5 44t10.5 41t28 42q20 18 50.5 26.5t51.5 10t61 1.5z" />
    <glyph glyph-name="bar" unicode="|" horiz-adv-x="288" 
d="M98 780h92v-980h-92v980z" />
    <glyph glyph-name="braceright" unicode="}" horiz-adv-x="388" 
d="M57 -157v72q60 0 88 15.5t28 69.5v205q0 16 0.5 25t4.5 24t11 24.5t21.5 19t35.5 14.5q-21 5 -35.5 14.5t-21.5 19t-11 24.5t-4.5 24t-0.5 25v204q0 54 -28 69.5t-88 15.5v72q40 0 61 -1.5t51.5 -10t50.5 -26.5q19 -17 28 -42t10.5 -41t1.5 -44v-201q0 -42 21 -54t68 -12
v-72q-47 0 -68 -12t-21 -54v-202q0 -28 -1.5 -44t-10.5 -41t-28 -42q-20 -18 -50.5 -26.5t-51.5 -10t-61 -1.5z" />
    <glyph glyph-name="asciitilde" unicode="~" horiz-adv-x="680" 
d="M596 362v-86q-2 -3 -6.5 -8t-19 -18t-30.5 -22.5t-41 -17.5t-51 -8q-42 0 -81.5 21t-74 42t-65.5 21q-33 0 -66.5 -21t-50.5 -42l-16 -21h-10v86q2 3 6.5 8t19 18t30.5 22.5t41 17.5t51 8q42 0 81.5 -21t74 -42t65.5 -21q33 0 66.5 21t50.5 42l16 21h10z" />
    <glyph glyph-name="nbspace" unicode="&#xa0;" horiz-adv-x="284" 
 />
    <glyph glyph-name="exclamdown.round" unicode="&#xa1;" horiz-adv-x="299" 
d="M192 -200h-103l11 539h81zM141 548q28 0 43.5 -16.5t15.5 -41.5q0 -26 -15.5 -42t-43.5 -16t-44 16t-16 42q0 25 16 41.5t44 16.5z" />
    <glyph glyph-name="cent" unicode="&#xa2;" horiz-adv-x="524" 
d="M319 -64h-73l12 112q-95 18 -149 85.5t-54 178.5q0 122 66 191.5t180 77.5l8 107h73l-12 -108q26 -2 51.5 -6.5t38.5 -7.5l13 -4v-72h-8q-48 15 -101 21l-33 -400q29 0 62.5 5.5t52.5 11.5l19 6h8v-72q-66 -20 -143 -20h-4zM144 313q0 -75 31 -125t89 -68l32 390
q-73 -10 -112.5 -61.5t-39.5 -135.5z" />
    <glyph glyph-name="sterling" unicode="&#xa3;" horiz-adv-x="545" 
d="M60 315v73h84q-39 76 -39 130q0 83 60 130t163 47q30 0 61 -4t47 -8l15 -4v-76h-8q-55 20 -114 20q-62 0 -95 -27.5t-33 -75.5q0 -17 5.5 -36t9.5 -29.5t17.5 -35t16.5 -31.5h184v-73h-158q6 -25 6 -54q0 -129 -104 -187h313v-74h-432v61q127 65 127 188q0 33 -10 66
h-116z" />
    <glyph glyph-name="currency" unicode="&#xa4;" horiz-adv-x="555" 
d="M94 338q0 60 27 104l-67 66l54 54l65 -68q45 28 105 28q59 0 103 -28l65 68l55 -54l-68 -66q28 -45 28 -103q0 -60 -28 -104l68 -66l-54 -54l-65 68q-45 -28 -105 -28q-61 0 -104 27l-64 -67l-55 54l67 66q-27 44 -27 103zM168 338q0 -55 29 -87.5t81 -32.5q51 0 80 33
t29 88t-29 87.5t-81 32.5q-51 0 -80 -33t-29 -88z" />
    <glyph glyph-name="yen" unicode="&#xa5;" horiz-adv-x="656" 
d="M541 144h-167v-144h-92v144h-167v64h167v79h-167v64h150l-222 337h108l185 -291l186 291h91l-223 -337h151v-64h-167v-79h167v-64z" />
    <glyph glyph-name="brokenbar" unicode="&#xa6;" horiz-adv-x="288" 
d="M98 780h92v-380h-92v380zM98 180h92v-380h-92v380z" />
    <glyph glyph-name="section" unicode="&#xa7;" horiz-adv-x="503" 
d="M73 -2h8q69 -30 146 -30q53 0 82 17.5t29 48.5q0 30 -29 53.5t-70.5 41.5t-83.5 39.5t-71 58t-29 84.5q0 31 11.5 56t30 38.5t33.5 20.5t29 10q-89 50 -89 123q0 62 53.5 99.5t148.5 37.5q37 0 75 -6t58 -12l20 -5v-73h-8q-70 28 -146 28q-50 0 -79 -16t-29 -47
q0 -29 29.5 -52t71.5 -41t83.5 -38.5t71 -56t29.5 -83.5q0 -31 -11.5 -56t-30.5 -39.5t-33.5 -22.5t-29.5 -12q88 -52 88 -125q0 -63 -54 -101t-151 -38q-39 0 -77 6t-57 12l-19 6v74zM364 277q0 15 -4 27.5t-15 24.5t-18.5 19.5t-28 18.5t-28.5 15t-34 16t-32 15
q-65 -24 -65 -86q0 -13 4.5 -25.5t9 -21.5t17 -19.5t19.5 -16.5t25.5 -16t26 -13.5l30 -14t28.5 -13.5q65 33 65 90z" />
    <glyph glyph-name="dieresis" unicode="&#xa8;" 
d="M157 735h90v-95h-90v95zM353 735h90v-95h-90v95z" />
    <glyph glyph-name="copyright" unicode="&#xa9;" horiz-adv-x="891" 
d="M546 227v-68q-47 -20 -109 -20q-90 0 -147.5 53.5t-57.5 151.5t57.5 151t147.5 53q28 0 55 -5t40 -10l14 -5v-68h-8q-43 20 -95 20q-60 0 -92 -35t-32 -101t32 -101.5t92 -35.5q23 0 47 5t36 10l12 5h8zM57 344q0 157 99.5 256.5t262.5 99.5t262.5 -99.5t99.5 -256.5
t-99.5 -257t-262.5 -100t-262.5 100t-99.5 257zM129 344q0 -129 79 -212t212 -83q132 0 210.5 83.5t78.5 211.5t-78.5 211t-210.5 83q-133 0 -212 -82.5t-79 -211.5z" />
    <glyph glyph-name="ordfeminine" unicode="&#xaa;" horiz-adv-x="410" 
d="M71 685v60q53 15 125 15q102 0 135 -46q22 -31 22 -110v-209h-62l-15 61q-20 -69 -113 -69q-57 0 -92 28.5t-35 80.5q0 62 53 90q22 12 54 17.5t56.5 6.5t72.5 1q0 49 -11 65q-19 27 -78 27q-25 0 -51 -4.5t-40 -8.5l-13 -5h-8zM119 502q0 -54 67 -54q26 0 44.5 9
t26.5 23.5t11.5 27t3.5 25.5v31q-26 0 -39.5 -0.5t-35 -2t-32.5 -5.5t-23.5 -10.5t-17.5 -17.5t-5 -26z" />
    <glyph glyph-name="guillemotleft" unicode="&#xab;" horiz-adv-x="568" 
d="M60 311l134 209h95l-140 -207l140 -210h-95zM279 311l134 209h95l-140 -207l140 -210h-95z" />
    <glyph glyph-name="logicalnot" unicode="&#xac;" horiz-adv-x="680" 
d="M535 147h-83v194h-368v75h451v-269z" />
    <glyph glyph-name="softhyphen" unicode="&#xad;" horiz-adv-x="441" 
d="M379 273h-317v77h317v-77z" />
    <glyph glyph-name="registered" unicode="&#xae;" horiz-adv-x="540" 
d="M43 633q0 98 63.5 158.5t163.5 60.5t163.5 -60.5t63.5 -158.5t-63.5 -158.5t-163.5 -60.5t-163.5 60.5t-63.5 158.5zM99 633q0 -75 46.5 -122.5t124.5 -47.5t124.5 47.5t46.5 122.5t-46.5 122.5t-124.5 47.5t-124.5 -47.5t-46.5 -122.5zM271 597h-36v-80h-56v237h83
q53 0 77 -16q29 -20 29 -60q0 -52 -45 -72l54 -89h-63zM235 713v-75h35q42 0 42 37q0 38 -42 38h-35z" />
    <glyph glyph-name="macron" unicode="&#xaf;" 
d="M158 704h284v-62h-284v62z" />
    <glyph glyph-name="degree" unicode="&#xb0;" horiz-adv-x="495" 
d="M75 620q0 73 48 118.5t125 45.5q76 0 124 -45.5t48 -117.5q0 -73 -48 -118.5t-125 -45.5q-76 0 -124 45.5t-48 117.5zM147 620q0 -45 27.5 -74t73.5 -29t73 29.5t27 74.5t-27.5 74t-73.5 29t-73 -29.5t-27 -74.5z" />
    <glyph glyph-name="plusminus" unicode="&#xb1;" horiz-adv-x="680" 
d="M379 134h-78v170h-194v68h194v171h78v-171h194v-68h-194v-170zM573 0h-466v68h466v-68z" />
    <glyph glyph-name="two.superior" unicode="&#xb2;" horiz-adv-x="371" 
d="M324 427v-64h-279v55q16 15 45 43t41.5 40.5t33 34t29.5 34t19.5 29t14.5 30.5t4 29q0 66 -82 66q-20 0 -43.5 -4t-36.5 -8l-13 -4h-5v62q50 14 109 14q78 0 117.5 -31t39.5 -85q0 -22 -8 -44.5t-18.5 -40t-31 -40t-36 -37t-43.5 -39.5t-43 -40h186z" />
    <glyph glyph-name="three.superior" unicode="&#xb3;" horiz-adv-x="368" 
d="M85 548v62h43q45 0 67 12q29 15 29 47q0 55 -77 55q-20 0 -43 -4t-36 -8l-13 -3h-4v62q46 13 104 13q74 0 114 -28t40 -76q0 -38 -23 -63.5t-64 -33.5q43 -6 70 -32.5t27 -69.5q0 -56 -47 -89t-129 -33q-25 0 -49.5 3.5t-35.5 6.5l-12 3v62h5q45 -15 91 -15q44 0 68 17
t24 48q0 34 -32 52q-22 12 -74 12h-43z" />
    <glyph glyph-name="acute" unicode="&#xb4;" 
d="M334 631h-73l96 149h109z" />
    <glyph glyph-name="mu" unicode="&#xb5;" horiz-adv-x="610" 
d="M184 -200h-95v743h96v-323q0 -80 21 -111q31 -45 99 -45q120 0 120 140v339h96v-543h-70l-17 80q-9 -42 -42 -66.5t-85 -24.5q-84 0 -125 70z" />
    <glyph glyph-name="mu" unicode="&#x3bc;" horiz-adv-x="610" 
d="M184 -200h-95v743h96v-323q0 -80 21 -111q31 -45 99 -45q120 0 120 140v339h96v-543h-70l-17 80q-9 -42 -42 -66.5t-85 -24.5q-84 0 -125 70z" />
    <glyph glyph-name="paragraph" unicode="&#xb6;" horiz-adv-x="799" 
d="M474 -92h-86v328h-69q-134 0 -192 39q-84 56 -84 183q0 132 91 192q58 38 183 38h368v-780h-86v707h-125v-707zM388 309v306h-84q-83 0 -118 -26q-51 -37 -51 -126q0 -90 51 -128q35 -26 118 -26h84z" />
    <glyph glyph-name="periodcentered.round" unicode="&#xb7;" horiz-adv-x="147" 
d="M73 339q28 0 44.5 -17t16.5 -43t-16 -43t-44 -17t-44.5 17t-16.5 43t16 43t44 17z" />
    <glyph glyph-name="cedilla" unicode="&#xb8;" horiz-adv-x="602" 
d="M265 0h51q67 -37 67 -99q0 -45 -34 -74t-98 -29l-55 5v60h8q23 -7 47 -7q61 0 61 52q0 35 -47 92z" />
    <glyph glyph-name="one.superior" unicode="&#xb9;" horiz-adv-x="278" 
d="M210 363h-81v346l-92 -29h-5v62l123 38h55v-417z" />
    <glyph glyph-name="ordmasculine" unicode="&#xba;" horiz-adv-x="444" 
d="M407 577q0 -92 -48.5 -141.5t-137.5 -49.5q-88 0 -136 48.5t-48 139.5q0 92 48.5 141.5t137.5 49.5q88 0 136 -48.5t48 -139.5zM222 445q99 0 99 130q0 131 -99 131t-99 -130q0 -131 99 -131z" />
    <glyph glyph-name="guillemotright" unicode="&#xbb;" horiz-adv-x="568" 
d="M508 311l-134 -208h-95l140 206l-140 211h95zM289 311l-134 -208h-95l140 206l-140 211h95z" />
    <glyph glyph-name="onequarter" unicode="&#xbc;" horiz-adv-x="924" 
d="M247 334h-82v376l-121 -43h-8v62l154 51h57v-446zM820 772l-360 -449l-319 -415h-89v8l360 449l319 415h89v-8zM879 0h-75v-92h-71v92h-220v64l203 290h88v-292h75v-62zM580 62h153v213z" />
    <glyph glyph-name="onehalf" unicode="&#xbd;" horiz-adv-x="943" 
d="M247 334h-82v376l-121 -43h-8v62l154 51h57v-446zM820 772l-360 -449l-319 -415h-89v8l360 449l319 415h89v-8zM887 -30v-62h-303v54q12 12 39.5 37t38 35.5t31.5 31t29.5 30.5t23.5 26.5t20.5 27.5t13 25t10 26t2.5 25q0 72 -88 72q-21 0 -45 -4t-37 -8l-14 -5h-8v63
q53 16 115 16q81 0 121 -34t40 -92q0 -24 -8.5 -48.5t-19 -42.5t-33 -43t-38.5 -40t-48 -44.5t-49 -45.5h207z" />
    <glyph glyph-name="threequarters" unicode="&#xbe;" horiz-adv-x="976" 
d="M97 535v60h54q109 0 109 67q0 63 -90 63q-23 0 -48 -4t-38 -8l-14 -4h-8v62q52 15 115 15q81 0 124 -30.5t43 -82.5q0 -40 -26 -67.5t-73 -36.5q49 -6 79 -35.5t30 -74.5q0 -59 -50.5 -95t-137.5 -36q-28 0 -55.5 4t-40.5 8l-13 3v61h8q49 -15 99 -15t78 19t28 54
q0 73 -119 73h-54zM872 772l-360 -449l-319 -415h-89v8l360 449l319 415h89v-8zM931 0h-75v-92h-71v92h-220v64l203 290h88v-292h75v-62zM632 62h153v213z" />
    <glyph glyph-name="questiondown.round" unicode="&#xbf;" horiz-adv-x="450" 
d="M240 432q-28 0 -43.5 16.5t-15.5 41.5q0 26 15.5 42t43.5 16t44 -16t16 -42q0 -25 -16 -41.5t-44 -16.5zM418 -103v-77q-72 -28 -174 -28q-122 0 -183 50t-61 135q0 32 8.5 59.5t26 50t32 37t39.5 35t35 30.5q26 25 38.5 51.5t14.5 44.5t2 54h89q0 -43 -2.5 -66t-20 -59
t-53.5 -69q-6 -5 -28.5 -24.5t-32 -29.5t-24.5 -28.5t-21 -38t-6 -41.5q0 -56 40.5 -86.5t115.5 -30.5q38 0 77.5 8t59.5 16l20 7h8z" />
    <glyph glyph-name="Agrave" unicode="&#xc0;" horiz-adv-x="664" 
d="M651 0h-104l-71 210h-300l-74 -210h-89l274 752h98zM329 646l-127 -362h249zM375 839h-84l-153 123h123z" />
    <glyph glyph-name="Aacute" unicode="&#xc1;" horiz-adv-x="664" 
d="M651 0h-104l-71 210h-300l-74 -210h-89l274 752h98zM329 646l-127 -362h249zM372 839h-83l113 123h123z" />
    <glyph glyph-name="Acircumflex" unicode="&#xc2;" horiz-adv-x="664" 
d="M651 0h-104l-71 210h-300l-74 -210h-89l274 752h98zM329 646l-127 -362h249zM284 962h95l118 -123h-89l-79 78l-77 -78h-86z" />
    <glyph glyph-name="Atilde" unicode="&#xc3;" horiz-adv-x="664" 
d="M651 0h-104l-71 210h-300l-74 -210h-89l274 752h98zM329 646l-127 -362h249zM173 839v60q39 39 101 39q31 0 74.5 -17.5t64.5 -17.5q20 0 41.5 8.5t33.5 17.5l12 9h8v-60q-39 -39 -101 -39q-31 0 -74.5 17.5t-64.5 17.5q-20 0 -41.5 -8.5t-33.5 -17.5l-12 -9h-8z" />
    <glyph glyph-name="Adieresis.round" unicode="&#xc4;" horiz-adv-x="664" 
d="M651 0h-104l-71 210h-300l-74 -210h-89l274 752h98zM329 646l-127 -362h249zM226 939q26 0 40.5 -15t14.5 -39q0 -23 -15 -38.5t-40 -15.5t-40 15.5t-15 38.5q0 24 14.5 39t40.5 15zM438 939q26 0 40.5 -15t14.5 -39q0 -23 -15 -38.5t-40 -15.5t-40 15.5t-15 38.5
q0 24 14.5 39t40.5 15z" />
    <glyph glyph-name="Aring" unicode="&#xc5;" horiz-adv-x="664" 
d="M207 825q0 51 35.5 82.5t89.5 31.5t89.5 -31.5t35.5 -82.5q0 -71 -64 -97l258 -728h-104l-71 210h-300l-74 -210h-89l264 726q-70 24 -70 99zM329 646l-127 -362h249zM270 822q0 -27 17 -44.5t45 -17.5t45 17.5t17 44.5t-17 45t-45 18t-45 -18t-17 -45z" />
    <glyph glyph-name="AE" unicode="&#xc6;" horiz-adv-x="960" 
d="M890 752v-75h-325v-246h277v-75h-277v-281h341v-75h-435v210h-253l-119 -210h-96l438 752h449zM471 655l-211 -371h211v371z" />
    <glyph glyph-name="Ccedilla" unicode="&#xc7;" horiz-adv-x="630" 
d="M573 96v-78q-61 -23 -147 -26q54 -35 54 -91q0 -45 -34 -74t-98 -29l-55 5v60h8q23 -7 47 -7q61 0 61 52q0 34 -42 86q-156 14 -233 119.5t-77 262.5q0 80 20.5 147.5t62 121.5t110.5 84.5t160 30.5q42 0 83 -6.5t61 -13.5l19 -6v-78h-8q-69 30 -150 30
q-127 0 -191 -86.5t-64 -222.5q0 -137 64 -224t191 -87q36 0 73.5 7.5t57.5 14.5l19 8h8z" />
    <glyph glyph-name="Egrave" unicode="&#xc8;" horiz-adv-x="589" 
d="M98 752h421v-75h-325v-246h277v-75h-277v-281h341v-75h-437v752zM351 839h-84l-153 123h123z" />
    <glyph glyph-name="Eacute" unicode="&#xc9;" horiz-adv-x="589" 
d="M98 752h421v-75h-325v-246h277v-75h-277v-281h341v-75h-437v752zM348 839h-83l113 123h123z" />
    <glyph glyph-name="Ecircumflex" unicode="&#xca;" horiz-adv-x="589" 
d="M98 752h421v-75h-325v-246h277v-75h-277v-281h341v-75h-437v752zM260 962h95l118 -123h-89l-79 78l-77 -78h-86z" />
    <glyph glyph-name="Edieresis.round" unicode="&#xcb;" horiz-adv-x="589" 
d="M98 752h421v-75h-325v-246h277v-75h-277v-281h341v-75h-437v752zM216 939q26 0 40.5 -15t14.5 -39q0 -23 -15 -38.5t-40 -15.5t-40 15.5t-15 38.5q0 24 14.5 39t40.5 15zM400 939q26 0 40.5 -15t14.5 -39q0 -23 -15 -38.5t-40 -15.5t-40 15.5t-15 38.5q0 24 14.5 39
t40.5 15z" />
    <glyph glyph-name="Igrave" unicode="&#xcc;" horiz-adv-x="293" 
d="M98 752h97v-752h-97v752zM189 839h-84l-153 123h123z" />
    <glyph glyph-name="Iacute" unicode="&#xcd;" horiz-adv-x="293" 
d="M98 752h97v-752h-97v752zM186 839h-83l113 123h123z" />
    <glyph glyph-name="Icircumflex" unicode="&#xce;" horiz-adv-x="293" 
d="M98 752h97v-752h-97v752zM98 962h95l118 -123h-89l-79 78l-77 -78h-86z" />
    <glyph glyph-name="Idieresis.round" unicode="&#xcf;" horiz-adv-x="293" 
d="M98 752h97v-752h-97v752zM54 939q26 0 40.5 -15t14.5 -39q0 -23 -15 -38.5t-40 -15.5t-40 15.5t-15 38.5q0 24 14.5 39t40.5 15zM238 939q26 0 40.5 -15t14.5 -39q0 -23 -15 -38.5t-40 -15.5t-40 15.5t-15 38.5q0 24 14.5 39t40.5 15z" />
    <glyph glyph-name="Eth" unicode="&#xd0;" horiz-adv-x="782" 
d="M126 752h191q52 0 82.5 -1.5t80.5 -12.5t89 -33q156 -88 156 -328q0 -243 -162 -331q-84 -46 -246 -46h-191v356h-109v74h109v322zM223 678v-248h182v-74h-182v-282h100q122 0 182 35q117 67 117 267t-118 267q-61 35 -181 35h-100z" />
    <glyph glyph-name="Ntilde" unicode="&#xd1;" horiz-adv-x="776" 
d="M98 752h97l396 -595v595h87v-752h-89l-404 602v-602h-87v752zM229 839v60q39 39 101 39q31 0 74.5 -17.5t64.5 -17.5q20 0 41.5 8.5t33.5 17.5l12 9h8v-60q-39 -39 -101 -39q-31 0 -74.5 17.5t-64.5 17.5q-20 0 -41.5 -8.5t-33.5 -17.5l-12 -9h-8z" />
    <glyph glyph-name="Ograve" unicode="&#xd2;" horiz-adv-x="788" 
d="M731 379q0 -185 -88.5 -288.5t-250.5 -103.5q-161 0 -248 101.5t-87 284.5q0 185 88.5 288.5t250.5 103.5q161 0 248 -101.5t87 -284.5zM394 61q113 0 173.5 79.5t60.5 235.5t-60.5 235.5t-173.5 79.5t-173.5 -79.5t-60.5 -235.5t60.5 -235.5t173.5 -79.5zM437 839h-84
l-153 123h123z" />
    <glyph glyph-name="Oacute" unicode="&#xd3;" horiz-adv-x="788" 
d="M731 379q0 -185 -88.5 -288.5t-250.5 -103.5q-161 0 -248 101.5t-87 284.5q0 185 88.5 288.5t250.5 103.5q161 0 248 -101.5t87 -284.5zM394 61q113 0 173.5 79.5t60.5 235.5t-60.5 235.5t-173.5 79.5t-173.5 -79.5t-60.5 -235.5t60.5 -235.5t173.5 -79.5zM434 839h-83
l113 123h123z" />
    <glyph glyph-name="Ocircumflex" unicode="&#xd4;" horiz-adv-x="788" 
d="M731 379q0 -185 -88.5 -288.5t-250.5 -103.5q-161 0 -248 101.5t-87 284.5q0 185 88.5 288.5t250.5 103.5q161 0 248 -101.5t87 -284.5zM394 61q113 0 173.5 79.5t60.5 235.5t-60.5 235.5t-173.5 79.5t-173.5 -79.5t-60.5 -235.5t60.5 -235.5t173.5 -79.5zM346 962h95
l118 -123h-89l-79 78l-77 -78h-86z" />
    <glyph glyph-name="Otilde" unicode="&#xd5;" horiz-adv-x="788" 
d="M731 379q0 -185 -88.5 -288.5t-250.5 -103.5q-161 0 -248 101.5t-87 284.5q0 185 88.5 288.5t250.5 103.5q161 0 248 -101.5t87 -284.5zM394 61q113 0 173.5 79.5t60.5 235.5t-60.5 235.5t-173.5 79.5t-173.5 -79.5t-60.5 -235.5t60.5 -235.5t173.5 -79.5zM235 839v60
q39 39 101 39q31 0 74.5 -17.5t64.5 -17.5q20 0 41.5 8.5t33.5 17.5l12 9h8v-60q-39 -39 -101 -39q-31 0 -74.5 17.5t-64.5 17.5q-20 0 -41.5 -8.5t-33.5 -17.5l-12 -9h-8z" />
    <glyph glyph-name="Odieresis.round" unicode="&#xd6;" horiz-adv-x="788" 
d="M731 379q0 -185 -88.5 -288.5t-250.5 -103.5q-161 0 -248 101.5t-87 284.5q0 185 88.5 288.5t250.5 103.5q161 0 248 -101.5t87 -284.5zM394 61q113 0 173.5 79.5t60.5 235.5t-60.5 235.5t-173.5 79.5t-173.5 -79.5t-60.5 -235.5t60.5 -235.5t173.5 -79.5zM288 939
q26 0 40.5 -15t14.5 -39q0 -23 -15 -38.5t-40 -15.5t-40 15.5t-15 38.5q0 24 14.5 39t40.5 15zM500 939q26 0 40.5 -15t14.5 -39q0 -23 -15 -38.5t-40 -15.5t-40 15.5t-15 38.5q0 24 14.5 39t40.5 15z" />
    <glyph glyph-name="multiply" unicode="&#xd7;" horiz-adv-x="680" 
d="M572 108l-58 -56l-176 180l-176 -180l-55 54l180 176l-180 174l58 56l176 -180l176 180l55 -54l-180 -176z" />
    <glyph glyph-name="Oslash" unicode="&#xd8;" horiz-adv-x="788" 
d="M731 378q0 -185 -89 -288t-249 -103q-117 0 -196 55l-50 -70h-95l92 118q-87 101 -87 284q0 185 89 288t249 103q117 0 196 -55l50 70h95l-92 -118q87 -102 87 -284zM156 376q0 -136 44 -213l343 480q-57 51 -149 51q-115 0 -176.5 -80t-61.5 -238zM394 58
q115 0 176.5 80t61.5 238q0 135 -45 213l-343 -481q57 -50 150 -50z" />
    <glyph glyph-name="Ugrave" unicode="&#xd9;" horiz-adv-x="754" 
d="M98 752h97v-476q0 -104 41 -159.5t146 -55.5t146 55.5t41 159.5v476h87v-459q0 -44 -2 -73t-16.5 -74.5t-41.5 -76.5q-71 -82 -221 -82q-146 0 -217 82q-28 32 -42 77t-16 73t-2 74v459zM417 839h-84l-153 123h123z" />
    <glyph glyph-name="Uacute" unicode="&#xda;" horiz-adv-x="754" 
d="M98 752h97v-476q0 -104 41 -159.5t146 -55.5t146 55.5t41 159.5v476h87v-459q0 -44 -2 -73t-16.5 -74.5t-41.5 -76.5q-71 -82 -221 -82q-146 0 -217 82q-28 32 -42 77t-16 73t-2 74v459zM414 839h-83l113 123h123z" />
    <glyph glyph-name="Ucircumflex" unicode="&#xdb;" horiz-adv-x="754" 
d="M98 752h97v-476q0 -104 41 -159.5t146 -55.5t146 55.5t41 159.5v476h87v-459q0 -44 -2 -73t-16.5 -74.5t-41.5 -76.5q-71 -82 -221 -82q-146 0 -217 82q-28 32 -42 77t-16 73t-2 74v459zM326 962h95l118 -123h-89l-79 78l-77 -78h-86z" />
    <glyph glyph-name="Udieresis.round" unicode="&#xdc;" horiz-adv-x="754" 
d="M98 752h97v-476q0 -104 41 -159.5t146 -55.5t146 55.5t41 159.5v476h87v-459q0 -44 -2 -73t-16.5 -74.5t-41.5 -76.5q-71 -82 -221 -82q-146 0 -217 82q-28 32 -42 77t-16 73t-2 74v459zM268 939q26 0 40.5 -15t14.5 -39q0 -23 -15 -38.5t-40 -15.5t-40 15.5t-15 38.5
q0 24 14.5 39t40.5 15zM480 939q26 0 40.5 -15t14.5 -39q0 -23 -15 -38.5t-40 -15.5t-40 15.5t-15 38.5q0 24 14.5 39t40.5 15z" />
    <glyph glyph-name="Yacute" unicode="&#xdd;" horiz-adv-x="634" 
d="M13 752h113l201 -367l202 367h92l-256 -453v-299h-97v298zM365 839h-83l113 123h123z" />
    <glyph glyph-name="Thorn" unicode="&#xde;" horiz-adv-x="625" 
d="M98 752h97v-138h81q148 0 213 -41q93 -59 93 -191q0 -137 -102 -200q-41 -25 -88.5 -32.5t-116.5 -7.5h-80v-142h-97v752zM195 540v-324h95q94 0 134 29q56 41 56 133q0 93 -56 133q-40 29 -134 29h-95z" />
    <glyph glyph-name="germandbls" unicode="&#xdf;" horiz-adv-x="615" 
d="M184 0h-95v530q0 38 1 58t7 50t19 53q50 90 188 90q97 0 150 -43.5t53 -115.5q0 -35 -13.5 -63.5t-32.5 -46.5t-38.5 -33t-33 -32.5t-13.5 -36.5q0 -23 20.5 -43t49.5 -38t57.5 -39t49 -56.5t20.5 -81.5q0 -78 -54 -119t-140 -41q-29 0 -56.5 4.5t-40.5 9.5l-14 4v73h8
q53 -22 106 -22q45 0 70 21t25 58q0 27 -14.5 49.5t-36.5 37t-47 32t-47 34.5t-36.5 44.5t-14.5 61.5q0 33 13.5 57.5t32.5 40.5t38 31t32.5 36t13.5 48q0 42 -29 69.5t-79 27.5q-76 0 -104 -62q-15 -32 -15 -115v-532z" />
    <glyph glyph-name="agrave.alt" unicode="&#xe0;" horiz-adv-x="571" 
d="M96 450v77q64 24 160 24q135 0 180 -66q29 -41 29 -142v-203q0 -22 1.5 -34t13.5 -25t36 -13l32 4v-69q-26 -8 -62 -8q-50 0 -77.5 22t-31.5 75q-14 -46 -57 -73t-103 -27q-78 0 -124.5 43.5t-46.5 114.5q0 168 268 168l56 -2q0 36 -0.5 52.5t-4.5 35t-13 31.5
q-28 43 -108 43q-34 0 -69 -7t-53 -14l-18 -7h-8zM146 154q0 -40 25 -64.5t69 -24.5q77 0 109 62q21 40 21 114v12h-32q-24 0 -38.5 -0.5t-41 -3t-43 -9t-34.5 -17t-26.5 -28t-8.5 -41.5zM308 631h-73l-132 149h109z" />
    <glyph glyph-name="aacute.alt" unicode="&#xe1;" horiz-adv-x="571" 
d="M96 450v77q64 24 160 24q135 0 180 -66q29 -41 29 -142v-203q0 -22 1.5 -34t13.5 -25t36 -13l32 4v-69q-26 -8 -62 -8q-50 0 -77.5 22t-31.5 75q-14 -46 -57 -73t-103 -27q-78 0 -124.5 43.5t-46.5 114.5q0 168 268 168l56 -2q0 36 -0.5 52.5t-4.5 35t-13 31.5
q-28 43 -108 43q-34 0 -69 -7t-53 -14l-18 -7h-8zM146 154q0 -40 25 -64.5t69 -24.5q77 0 109 62q21 40 21 114v12h-32q-24 0 -38.5 -0.5t-41 -3t-43 -9t-34.5 -17t-26.5 -28t-8.5 -41.5zM303 631h-73l96 149h109z" />
    <glyph glyph-name="acircumflex.alt" unicode="&#xe2;" horiz-adv-x="571" 
d="M96 450v77q64 24 160 24q135 0 180 -66q29 -41 29 -142v-203q0 -22 1.5 -34t13.5 -25t36 -13l32 4v-69q-26 -8 -62 -8q-50 0 -77.5 22t-31.5 75q-14 -46 -57 -73t-103 -27q-78 0 -124.5 43.5t-46.5 114.5q0 168 268 168l56 -2q0 36 -0.5 52.5t-4.5 35t-13 31.5
q-28 43 -108 43q-34 0 -69 -7t-53 -14l-18 -7h-8zM146 154q0 -40 25 -64.5t69 -24.5q77 0 109 62q21 40 21 114v12h-32q-24 0 -38.5 -0.5t-41 -3t-43 -9t-34.5 -17t-26.5 -28t-8.5 -41.5zM232 780h74l118 -149h-80l-78 93l-77 -93h-75z" />
    <glyph glyph-name="atilde.alt" unicode="&#xe3;" horiz-adv-x="571" 
d="M96 450v77q64 24 160 24q135 0 180 -66q29 -41 29 -142v-203q0 -22 1.5 -34t13.5 -25t36 -13l32 4v-69q-26 -8 -62 -8q-50 0 -77.5 22t-31.5 75q-14 -46 -57 -73t-103 -27q-78 0 -124.5 43.5t-46.5 114.5q0 168 268 168l56 -2q0 36 -0.5 52.5t-4.5 35t-13 31.5
q-28 43 -108 43q-34 0 -69 -7t-53 -14l-18 -7h-8zM146 154q0 -40 25 -64.5t69 -24.5q77 0 109 62q21 40 21 114v12h-32q-24 0 -38.5 -0.5t-41 -3t-43 -9t-34.5 -17t-26.5 -28t-8.5 -41.5zM122 640v59q36 40 90 40q27 0 68 -18t60 -18q18 0 37 9t29 18l10 9h8v-59
q-36 -40 -90 -40q-27 0 -68 18t-60 18q-18 0 -37 -9t-29 -18l-10 -9h-8z" />
    <glyph glyph-name="adieresis.round.alt" unicode="&#xe4;" horiz-adv-x="571" 
d="M96 450v77q64 24 160 24q135 0 180 -66q29 -41 29 -142v-203q0 -22 1.5 -34t13.5 -25t36 -13l32 4v-69q-26 -8 -62 -8q-50 0 -77.5 22t-31.5 75q-14 -46 -57 -73t-103 -27q-78 0 -124.5 43.5t-46.5 114.5q0 168 268 168l56 -2q0 36 -0.5 52.5t-4.5 35t-13 31.5
q-28 43 -108 43q-34 0 -69 -7t-53 -14l-18 -7h-8zM146 154q0 -40 25 -64.5t69 -24.5q77 0 109 62q21 40 21 114v12h-32q-24 0 -38.5 -0.5t-41 -3t-43 -9t-34.5 -17t-26.5 -28t-8.5 -41.5zM171 741q25 0 39.5 -15t14.5 -38t-14.5 -38t-39.5 -15q-26 0 -40.5 15t-14.5 38
t14.5 38t40.5 15zM368 741q25 0 39.5 -15t14.5 -38t-14.5 -38t-39.5 -15q-26 0 -40.5 15t-14.5 38t14.5 38t40.5 15z" />
    <glyph glyph-name="aring.alt" unicode="&#xe5;" horiz-adv-x="571" 
d="M96 450v77q64 24 160 24q135 0 180 -66q29 -41 29 -142v-203q0 -22 1.5 -34t13.5 -25t36 -13l32 4v-69q-26 -8 -62 -8q-50 0 -77.5 22t-31.5 75q-14 -46 -57 -73t-103 -27q-78 0 -124.5 43.5t-46.5 114.5q0 168 268 168l56 -2q0 36 -0.5 52.5t-4.5 35t-13 31.5
q-28 43 -108 43q-34 0 -69 -7t-53 -14l-18 -7h-8zM146 154q0 -40 25 -64.5t69 -24.5q77 0 109 62q21 40 21 114v12h-32q-24 0 -38.5 -0.5t-41 -3t-43 -9t-34.5 -17t-26.5 -28t-8.5 -41.5zM154 704q0 44 31.5 71.5t83.5 27.5t83.5 -27.5t31.5 -71.5t-31.5 -71.5t-83.5 -27.5
t-83.5 27.5t-31.5 71.5zM215 704q0 -24 14.5 -38.5t39.5 -14.5t39.5 14.5t14.5 38.5t-14.5 38.5t-39.5 14.5t-39.5 -14.5t-14.5 -38.5z" />
    <glyph glyph-name="ae" unicode="&#xe6;" horiz-adv-x="883" 
d="M410 119q-38 -127 -185 -127q-81 0 -129.5 40t-48.5 114q0 91 74 133q30 17 76.5 26t81 10t98.5 1q0 87 -18 117q-28 45 -112 45q-34 0 -70.5 -7t-55.5 -14l-19 -7h-8v78q71 23 164 23q146 0 183 -83q57 85 172 85q124 0 178 -93q16 -28 24.5 -68.5t9.5 -68t1 -75.5h-353
q0 -89 43 -136.5t127 -47.5q33 0 69 7t56 14l20 7h8v-76q-66 -24 -158 -24q-179 0 -228 127zM473 316h254q0 167 -119 167q-125 0 -135 -167zM147 151q0 -40 26 -62.5t74 -22.5q79 0 110 59q20 39 20 116v11q-142 0 -183 -22q-47 -25 -47 -79z" />
    <glyph glyph-name="ccedilla" unicode="&#xe7;" horiz-adv-x="486" 
d="M436 89v-79q-44 -16 -106 -18q54 -35 54 -91q0 -45 -34 -74t-98 -29l-55 5v60h8q23 -7 47 -7q61 0 61 52q0 34 -43 87q-104 13 -159.5 85t-55.5 191q0 132 68 206t193 74q31 0 61 -4.5t45 -8.5l14 -5v-79h-8q-50 23 -108 23q-78 0 -120.5 -53.5t-42.5 -149.5
q0 -97 42.5 -152.5t120.5 -55.5q25 0 52 6t42 12l14 5h8z" />
    <glyph glyph-name="egrave" unicode="&#xe8;" horiz-adv-x="565" 
d="M478 93v-77q-67 -24 -158 -24q-131 0 -196 67q-69 71 -69 211q0 134 63 210t175 76q126 0 180 -94q16 -28 24.5 -69t9.5 -68.5t1 -75.5h-353q0 -89 43 -137t127 -48q33 0 69 7t56 15l20 7h8zM155 317h254q0 169 -119 169q-122 0 -135 -169zM328 631h-73l-132 149h109z
" />
    <glyph glyph-name="eacute" unicode="&#xe9;" horiz-adv-x="565" 
d="M478 93v-77q-67 -24 -158 -24q-131 0 -196 67q-69 71 -69 211q0 134 63 210t175 76q126 0 180 -94q16 -28 24.5 -69t9.5 -68.5t1 -75.5h-353q0 -89 43 -137t127 -48q33 0 69 7t56 15l20 7h8zM155 317h254q0 169 -119 169q-122 0 -135 -169zM323 631h-73l96 149h109z" />
    <glyph glyph-name="ecircumflex" unicode="&#xea;" horiz-adv-x="565" 
d="M478 93v-77q-67 -24 -158 -24q-131 0 -196 67q-69 71 -69 211q0 134 63 210t175 76q126 0 180 -94q16 -28 24.5 -69t9.5 -68.5t1 -75.5h-353q0 -89 43 -137t127 -48q33 0 69 7t56 15l20 7h8zM155 317h254q0 169 -119 169q-122 0 -135 -169zM252 780h74l118 -149h-80
l-78 93l-77 -93h-75z" />
    <glyph glyph-name="edieresis.round" unicode="&#xeb;" horiz-adv-x="565" 
d="M478 93v-77q-67 -24 -158 -24q-131 0 -196 67q-69 71 -69 211q0 134 63 210t175 76q126 0 180 -94q16 -28 24.5 -69t9.5 -68.5t1 -75.5h-353q0 -89 43 -137t127 -48q33 0 69 7t56 15l20 7h8zM155 317h254q0 169 -119 169q-122 0 -135 -169zM191 741q25 0 39.5 -15
t14.5 -38t-14.5 -38t-39.5 -15q-26 0 -40.5 15t-14.5 38t14.5 38t40.5 15zM388 741q25 0 39.5 -15t14.5 -38t-14.5 -38t-39.5 -15q-26 0 -40.5 15t-14.5 38t14.5 38t40.5 15z" />
    <glyph glyph-name="igrave" unicode="&#xec;" horiz-adv-x="273" 
d="M89 543h95v-543h-95v543zM175 631h-73l-132 149h109z" />
    <glyph glyph-name="iacute" unicode="&#xed;" horiz-adv-x="273" 
d="M89 543h95v-543h-95v543zM170 631h-73l96 149h109z" />
    <glyph glyph-name="icircumflex" unicode="&#xee;" horiz-adv-x="273" 
d="M89 543h95v-543h-95v543zM99 780h74l118 -149h-80l-78 93l-77 -93h-75z" />
    <glyph glyph-name="idieresis.round" unicode="&#xef;" horiz-adv-x="273" 
d="M89 543h95v-543h-95v543zM46 741q25 0 39.5 -15t14.5 -38t-14.5 -38t-39.5 -15t-39.5 15t-14.5 38t14.5 38t39.5 15zM226 741q25 0 39.5 -15t14.5 -38t-14.5 -38t-39.5 -15t-39.5 15t-14.5 38t14.5 38t39.5 15z" />
    <glyph glyph-name="eth" unicode="&#xf0;" horiz-adv-x="603" 
d="M506 690l-99 -51q135 -156 135 -355q0 -151 -77 -230q-65 -67 -171 -67q-104 0 -171.5 67t-67.5 172q0 103 65.5 171t165.5 68q114 0 156 -96q-18 119 -113 230l-152 -77v58l115 59q-38 38 -82 71.5t-69 47.5l-25 14v8h125q62 -33 130 -101l135 68v-57zM300 396
q-65 0 -104.5 -46.5t-39.5 -122.5t39.5 -122.5t104.5 -46.5t104.5 46.5t39.5 122.5t-39.5 122.5t-104.5 46.5z" />
    <glyph glyph-name="ntilde" unicode="&#xf1;" horiz-adv-x="611" 
d="M89 543h73l20 -93q25 105 159 105q108 0 156 -70q15 -22 22.5 -52t8.5 -51.5t1 -61.5v-320h-96v321q0 78 -21 109q-31 46 -102 46q-125 0 -125 -140v-336h-96v543zM159 640v59q36 40 90 40q27 0 68 -18t60 -18q18 0 37 9t29 18l10 9h8v-59q-36 -40 -90 -40q-27 0 -68 18
t-60 18q-18 0 -37 -9t-29 -18l-10 -9h-8z" />
    <glyph glyph-name="ograve" unicode="&#xf2;" horiz-adv-x="613" 
d="M558 273q0 -137 -65.5 -211.5t-186.5 -74.5q-119 0 -185 73.5t-66 209.5q0 137 65.5 211.5t186.5 74.5q119 0 185 -73.5t66 -209.5zM307 58q149 0 149 213q0 214 -150 214q-149 0 -149 -213q0 -214 150 -214zM345 631h-73l-132 149h109z" />
    <glyph glyph-name="oacute" unicode="&#xf3;" horiz-adv-x="613" 
d="M558 273q0 -137 -65.5 -211.5t-186.5 -74.5q-119 0 -185 73.5t-66 209.5q0 137 65.5 211.5t186.5 74.5q119 0 185 -73.5t66 -209.5zM307 58q149 0 149 213q0 214 -150 214q-149 0 -149 -213q0 -214 150 -214zM340 631h-73l96 149h109z" />
    <glyph glyph-name="ocircumflex" unicode="&#xf4;" horiz-adv-x="613" 
d="M558 273q0 -137 -65.5 -211.5t-186.5 -74.5q-119 0 -185 73.5t-66 209.5q0 137 65.5 211.5t186.5 74.5q119 0 185 -73.5t66 -209.5zM307 58q149 0 149 213q0 214 -150 214q-149 0 -149 -213q0 -214 150 -214zM269 780h74l118 -149h-80l-78 93l-77 -93h-75z" />
    <glyph glyph-name="otilde" unicode="&#xf5;" horiz-adv-x="613" 
d="M558 273q0 -137 -65.5 -211.5t-186.5 -74.5q-119 0 -185 73.5t-66 209.5q0 137 65.5 211.5t186.5 74.5q119 0 185 -73.5t66 -209.5zM307 58q149 0 149 213q0 214 -150 214q-149 0 -149 -213q0 -214 150 -214zM159 640v59q36 40 90 40q27 0 68 -18t60 -18q18 0 37 9t29 18
l10 9h8v-59q-36 -40 -90 -40q-27 0 -68 18t-60 18q-18 0 -37 -9t-29 -18l-10 -9h-8z" />
    <glyph glyph-name="odieresis.round" unicode="&#xf6;" horiz-adv-x="613" 
d="M558 273q0 -137 -65.5 -211.5t-186.5 -74.5q-119 0 -185 73.5t-66 209.5q0 137 65.5 211.5t186.5 74.5q119 0 185 -73.5t66 -209.5zM307 58q149 0 149 213q0 214 -150 214q-149 0 -149 -213q0 -214 150 -214zM208 741q25 0 39.5 -15t14.5 -38t-14.5 -38t-39.5 -15
q-26 0 -40.5 15t-14.5 38t14.5 38t40.5 15zM405 741q25 0 39.5 -15t14.5 -38t-14.5 -38t-39.5 -15q-26 0 -40.5 15t-14.5 38t14.5 38t40.5 15z" />
    <glyph glyph-name="divide.round" unicode="&#xf7;" horiz-adv-x="680" 
d="M596 245h-512v73h512v-73zM340 548q26 0 41 -15.5t15 -39.5t-15 -39.5t-41 -15.5q-27 0 -42 15.5t-15 39.5t15 39.5t42 15.5zM340 15q-27 0 -42 15.5t-15 39.5t15 39.5t42 15.5q26 0 41 -15.5t15 -39.5t-15 -39.5t-41 -15.5z" />
    <glyph glyph-name="oslash" unicode="&#xf8;" horiz-adv-x="612" 
d="M557 271q0 -135 -67 -209.5t-184 -74.5q-66 0 -119 25l-39 -67h-76l65 100q-82 74 -82 227q0 135 67 209.5t184 74.5q66 0 119 -25l39 67h76l-66 -101q83 -75 83 -226zM153 270q0 -99 31 -151l203 348q-32 20 -80 20q-154 0 -154 -217zM305 56q154 0 154 217
q0 98 -31 151l-203 -348q30 -20 80 -20z" />
    <glyph glyph-name="ugrave" unicode="&#xf9;" horiz-adv-x="610" 
d="M521 0h-73l-20 93q-23 -105 -157 -105q-103 0 -150 68q-20 29 -26 67t-6 100v320h96v-321q0 -80 21 -109q32 -46 99 -46q120 0 120 140v336h96v-543zM344 631h-73l-132 149h109z" />
    <glyph glyph-name="uacute" unicode="&#xfa;" horiz-adv-x="610" 
d="M521 0h-73l-20 93q-23 -105 -157 -105q-103 0 -150 68q-20 29 -26 67t-6 100v320h96v-321q0 -80 21 -109q32 -46 99 -46q120 0 120 140v336h96v-543zM339 631h-73l96 149h109z" />
    <glyph glyph-name="ucircumflex" unicode="&#xfb;" horiz-adv-x="610" 
d="M521 0h-73l-20 93q-23 -105 -157 -105q-103 0 -150 68q-20 29 -26 67t-6 100v320h96v-321q0 -80 21 -109q32 -46 99 -46q120 0 120 140v336h96v-543zM268 780h74l118 -149h-80l-78 93l-77 -93h-75z" />
    <glyph glyph-name="udieresis.round" unicode="&#xfc;" horiz-adv-x="610" 
d="M521 0h-73l-20 93q-23 -105 -157 -105q-103 0 -150 68q-20 29 -26 67t-6 100v320h96v-321q0 -80 21 -109q32 -46 99 -46q120 0 120 140v336h96v-543zM207 741q25 0 39.5 -15t14.5 -38t-14.5 -38t-39.5 -15q-26 0 -40.5 15t-14.5 38t14.5 38t40.5 15zM404 741
q25 0 39.5 -15t14.5 -38t-14.5 -38t-39.5 -15q-26 0 -40.5 15t-14.5 38t14.5 38t40.5 15z" />
    <glyph glyph-name="yacute.alt" unicode="&#xfd;" horiz-adv-x="591" 
d="M548 543l-202 -534q-17 -46 -28.5 -72.5t-30.5 -57t-39 -46t-50.5 -26.5t-68.5 -11q-18 0 -35.5 2t-25.5 4l-9 2v78h8q34 -13 65 -13q44 0 70.5 34.5t55.5 113.5l-216 526h110l156 -414l150 414h90zM333 631h-73l96 149h109z" />
    <glyph glyph-name="thorn" unicode="&#xfe;" horiz-adv-x="633" 
d="M184 -200h-95v980h95v-333q14 50 58 79t110 29q106 0 166 -75.5t60 -205.5q0 -131 -61.5 -208.5t-171.5 -77.5q-124 0 -161 98v-286zM328 62q76 0 112 57t36 153q0 95 -35.5 152t-111.5 57t-112 -56.5t-36 -153.5t36 -153t111 -56z" />
    <glyph glyph-name="ydieresis.round.alt" unicode="&#xff;" horiz-adv-x="591" 
d="M548 543l-202 -534q-17 -46 -28.5 -72.5t-30.5 -57t-39 -46t-50.5 -26.5t-68.5 -11q-18 0 -35.5 2t-25.5 4l-9 2v78h8q34 -13 65 -13q44 0 70.5 34.5t55.5 113.5l-216 526h110l156 -414l150 414h90zM201 741q25 0 39.5 -15t14.5 -38t-14.5 -38t-39.5 -15q-26 0 -40.5 15
t-14.5 38t14.5 38t40.5 15zM398 741q25 0 39.5 -15t14.5 -38t-14.5 -38t-39.5 -15q-26 0 -40.5 15t-14.5 38t14.5 38t40.5 15z" />
    <glyph glyph-name="Amacron" unicode="&#x100;" horiz-adv-x="664" 
d="M651 0h-104l-71 210h-300l-74 -210h-89l274 752h98zM329 646l-127 -362h249zM166 917h332v-65h-332v65z" />
    <glyph glyph-name="amacron.alt" unicode="&#x101;" horiz-adv-x="571" 
d="M96 450v77q64 24 160 24q135 0 180 -66q29 -41 29 -142v-203q0 -22 1.5 -34t13.5 -25t36 -13l32 4v-69q-26 -8 -62 -8q-50 0 -77.5 22t-31.5 75q-14 -46 -57 -73t-103 -27q-78 0 -124.5 43.5t-46.5 114.5q0 168 268 168l56 -2q0 36 -0.5 52.5t-4.5 35t-13 31.5
q-28 43 -108 43q-34 0 -69 -7t-53 -14l-18 -7h-8zM146 154q0 -40 25 -64.5t69 -24.5q77 0 109 62q21 40 21 114v12h-32q-24 0 -38.5 -0.5t-41 -3t-43 -9t-34.5 -17t-26.5 -28t-8.5 -41.5zM127 704h284v-62h-284v62z" />
    <glyph glyph-name="Abreve" unicode="&#x102;" horiz-adv-x="664" 
d="M651 0h-104l-71 210h-300l-74 -210h-89l274 752h98zM329 646l-127 -362h249zM421 962h68q0 -60 -40 -93t-117 -33t-117.5 33t-40.5 93h69q0 -32 23 -49.5t66 -17.5t66 17.5t23 49.5z" />
    <glyph glyph-name="abreve.alt" unicode="&#x103;" horiz-adv-x="571" 
d="M96 450v77q64 24 160 24q135 0 180 -66q29 -41 29 -142v-203q0 -22 1.5 -34t13.5 -25t36 -13l32 4v-69q-26 -8 -62 -8q-50 0 -77.5 22t-31.5 75q-14 -46 -57 -73t-103 -27q-78 0 -124.5 43.5t-46.5 114.5q0 168 268 168l56 -2q0 36 -0.5 52.5t-4.5 35t-13 31.5
q-28 43 -108 43q-34 0 -69 -7t-53 -14l-18 -7h-8zM146 154q0 -40 25 -64.5t69 -24.5q77 0 109 62q21 40 21 114v12h-32q-24 0 -38.5 -0.5t-41 -3t-43 -9t-34.5 -17t-26.5 -28t-8.5 -41.5zM353 780h69q0 -73 -40.5 -109t-112.5 -36q-153 0 -153 145h68q0 -87 85 -87
q84 0 84 87z" />
    <glyph glyph-name="Aogonek" unicode="&#x104;" horiz-adv-x="664" 
d="M547 0l-71 210h-300l-74 -210h-89l274 752h98l266 -752v-5q-59 -12 -94.5 -37t-35.5 -59q0 -47 67 -47q13 0 26.5 2t21.5 4l7 3h8v-56q-34 -7 -73 -7q-61 0 -96 23t-35 68q0 39 26 64.5t74 46.5zM329 646l-127 -362h249z" />
    <glyph glyph-name="aogonek.alt" unicode="&#x105;" horiz-adv-x="571" 
d="M96 450v77q64 24 160 24q135 0 180 -66q29 -41 29 -142v-203q0 -22 1.5 -34t13.5 -25t36 -13l32 4v-69q-130 -45 -130 -104q0 -47 67 -47q13 0 27 2t21 4l7 3h8v-56q-34 -7 -72 -7q-61 0 -96.5 22.5t-35.5 65.5q0 74 117 114q-76 4 -84 92q-14 -46 -57 -73t-103 -27
q-78 0 -124.5 43.5t-46.5 114.5q0 168 268 168l56 -2q0 36 -0.5 52.5t-4.5 35t-13 31.5q-28 43 -108 43q-34 0 -69 -7t-53 -14l-18 -7h-8zM146 154q0 -40 25 -64.5t69 -24.5q77 0 109 62q21 40 21 114v12h-32q-24 0 -38.5 -0.5t-41 -3t-43 -9t-34.5 -17t-26.5 -28
t-8.5 -41.5z" />
    <glyph glyph-name="Cacute" unicode="&#x106;" horiz-adv-x="630" 
d="M573 96v-78q-68 -26 -163 -26q-91 0 -160 30.5t-110.5 84.5t-62 121.5t-20.5 147.5t20.5 147.5t62 121.5t110.5 84.5t160 30.5q42 0 83 -6.5t61 -13.5l19 -6v-78h-8q-69 30 -150 30q-127 0 -191 -86.5t-64 -222.5q0 -137 64 -224t191 -87q36 0 73.5 7.5t57.5 14.5l19 8h8
zM425 839h-83l113 123h123z" />
    <glyph glyph-name="cacute" unicode="&#x107;" horiz-adv-x="486" 
d="M436 89v-79q-50 -18 -120 -18q-125 0 -193 73.5t-68 205.5t68 206t193 74q31 0 61 -4.5t45 -8.5l14 -5v-79h-8q-50 23 -108 23q-78 0 -120.5 -53.5t-42.5 -149.5q0 -97 42.5 -152.5t120.5 -55.5q25 0 52 6t42 12l14 5h8zM325 631h-73l96 149h109z" />
    <glyph glyph-name="Ccircumflex" unicode="&#x108;" horiz-adv-x="630" 
d="M573 96v-78q-68 -26 -163 -26q-91 0 -160 30.5t-110.5 84.5t-62 121.5t-20.5 147.5t20.5 147.5t62 121.5t110.5 84.5t160 30.5q42 0 83 -6.5t61 -13.5l19 -6v-78h-8q-69 30 -150 30q-127 0 -191 -86.5t-64 -222.5q0 -137 64 -224t191 -87q36 0 73.5 7.5t57.5 14.5l19 8h8
zM337 962h95l118 -123h-89l-79 78l-77 -78h-86z" />
    <glyph glyph-name="ccircumflex" unicode="&#x109;" horiz-adv-x="486" 
d="M436 89v-79q-50 -18 -120 -18q-125 0 -193 73.5t-68 205.5t68 206t193 74q31 0 61 -4.5t45 -8.5l14 -5v-79h-8q-50 23 -108 23q-78 0 -120.5 -53.5t-42.5 -149.5q0 -97 42.5 -152.5t120.5 -55.5q25 0 52 6t42 12l14 5h8zM254 780h74l118 -149h-80l-78 93l-77 -93h-75z
" />
    <glyph glyph-name="Ccaron" unicode="&#x10c;" horiz-adv-x="630" 
d="M573 96v-78q-68 -26 -163 -26q-91 0 -160 30.5t-110.5 84.5t-62 121.5t-20.5 147.5t20.5 147.5t62 121.5t110.5 84.5t160 30.5q42 0 83 -6.5t61 -13.5l19 -6v-78h-8q-69 30 -150 30q-127 0 -191 -86.5t-64 -222.5q0 -137 64 -224t191 -87q36 0 73.5 7.5t57.5 14.5l19 8h8
zM432 839h-95l-118 123h90l78 -80l77 80h86z" />
    <glyph glyph-name="ccaron" unicode="&#x10d;" horiz-adv-x="486" 
d="M436 89v-79q-50 -18 -120 -18q-125 0 -193 73.5t-68 205.5t68 206t193 74q31 0 61 -4.5t45 -8.5l14 -5v-79h-8q-50 23 -108 23q-78 0 -120.5 -53.5t-42.5 -149.5q0 -97 42.5 -152.5t120.5 -55.5q25 0 52 6t42 12l14 5h8zM328 631h-74l-118 149h84l73 -98l74 98h79z" />
    <glyph glyph-name="Dcaron" unicode="&#x10e;" horiz-adv-x="754" 
d="M98 752h191q52 0 82.5 -1.5t80.5 -12.5t89 -33q156 -88 156 -328q0 -243 -162 -331q-84 -46 -246 -46h-191v752zM195 678v-604h100q122 0 182 35q117 67 117 267t-118 267q-61 35 -181 35h-100zM372 839h-95l-118 123h90l78 -80l77 80h86z" />
    <glyph glyph-name="dcaron" unicode="&#x10f;" horiz-adv-x="633" 
d="M449 780h95v-780h-73l-21 96q-13 -51 -57.5 -79.5t-109.5 -28.5q-107 0 -167.5 75.5t-60.5 206.5t62 208t173 77q123 0 159 -99v324zM305 481q-76 0 -112 -56.5t-36 -152.5q0 -97 36 -153.5t111 -56.5q76 0 112 56.5t36 153.5q0 96 -36 152.5t-111 56.5zM666 599h-58
l33 181h88z" />
    <glyph glyph-name="Dcroat" unicode="&#x110;" horiz-adv-x="782" 
d="M126 752h191q52 0 82.5 -1.5t80.5 -12.5t89 -33q156 -88 156 -328q0 -243 -162 -331q-84 -46 -246 -46h-191v356h-109v74h109v322zM223 678v-248h182v-74h-182v-282h100q122 0 182 35q117 67 117 267t-118 267q-61 35 -181 35h-100z" />
    <glyph glyph-name="dcroat" unicode="&#x111;" horiz-adv-x="633" 
d="M641 636h-97v-636h-73l-21 96q-13 -51 -57.5 -79.5t-109.5 -28.5q-107 0 -167.5 75.5t-60.5 206.5t62 208t173 77q123 0 159 -99v180h-155v59h155v85h95v-85h97v-59zM305 481q-76 0 -112 -56.5t-36 -152.5q0 -97 36 -153.5t111 -56.5q76 0 112 56.5t36 153.5
q0 96 -36 152.5t-111 56.5z" />
    <glyph glyph-name="Emacron" unicode="&#x112;" horiz-adv-x="589" 
d="M98 752h421v-75h-325v-246h277v-75h-277v-281h341v-75h-437v752zM168 917h280v-65h-280v65z" />
    <glyph glyph-name="emacron" unicode="&#x113;" horiz-adv-x="565" 
d="M478 93v-77q-67 -24 -158 -24q-131 0 -196 67q-69 71 -69 211q0 134 63 210t175 76q126 0 180 -94q16 -28 24.5 -69t9.5 -68.5t1 -75.5h-353q0 -89 43 -137t127 -48q33 0 69 7t56 15l20 7h8zM155 317h254q0 169 -119 169q-122 0 -135 -169zM147 704h284v-62h-284v62z" />
    <glyph glyph-name="Ebreve" unicode="&#x114;" horiz-adv-x="589" 
d="M98 752h421v-75h-325v-246h277v-75h-277v-281h341v-75h-437v752zM397 962h68q0 -60 -40 -93t-117 -33t-117.5 33t-40.5 93h69q0 -32 23 -49.5t66 -17.5t66 17.5t23 49.5z" />
    <glyph glyph-name="ebreve" unicode="&#x115;" horiz-adv-x="565" 
d="M478 93v-77q-67 -24 -158 -24q-131 0 -196 67q-69 71 -69 211q0 134 63 210t175 76q126 0 180 -94q16 -28 24.5 -69t9.5 -68.5t1 -75.5h-353q0 -89 43 -137t127 -48q33 0 69 7t56 15l20 7h8zM155 317h254q0 169 -119 169q-122 0 -135 -169zM373 780h69q0 -73 -40.5 -109
t-112.5 -36q-153 0 -153 145h68q0 -87 85 -87q84 0 84 87z" />
    <glyph glyph-name="Edotaccent.round" unicode="&#x116;" horiz-adv-x="589" 
d="M98 752h421v-75h-325v-246h277v-75h-277v-281h341v-75h-437v752zM308 945q28 0 43.5 -16t15.5 -41t-15.5 -41t-43.5 -16t-44 16t-16 41t16 41t44 16z" />
    <glyph glyph-name="edotaccent.round" unicode="&#x117;" horiz-adv-x="565" 
d="M478 93v-77q-67 -24 -158 -24q-131 0 -196 67q-69 71 -69 211q0 134 63 210t175 76q126 0 180 -94q16 -28 24.5 -69t9.5 -68.5t1 -75.5h-353q0 -89 43 -137t127 -48q33 0 69 7t56 15l20 7h8zM155 317h254q0 169 -119 169q-122 0 -135 -169zM289 759q28 0 43.5 -16
t15.5 -41t-15.5 -40.5t-43.5 -15.5t-44 15.5t-16 40.5t16 41t44 16z" />
    <glyph glyph-name="Eogonek" unicode="&#x118;" horiz-adv-x="589" 
d="M463 0h-365v752h421v-75h-325v-246h277v-75h-277v-281h341v-91q-130 -27 -130 -87q0 -22 19 -33.5t48 -11.5q13 0 26.5 2t21.5 4l7 3h8v-56q-34 -7 -72 -7q-61 0 -96.5 22.5t-35.5 65.5q0 44 35 69t97 45z" />
    <glyph glyph-name="eogonek" unicode="&#x119;" horiz-adv-x="565" 
d="M478 93v-77q-66 -21 -98 -52.5t-32 -63.5q0 -48 67 -48q13 0 27 2t21 4l7 3h8v-56q-34 -7 -72 -7q-61 0 -96.5 22.5t-35.5 63.5q0 66 96 115q-18 -7 -61 -7q-117 0 -184 67q-70 70 -70 210q0 135 63 211t175 76q126 0 180 -94q16 -28 24.5 -69t9.5 -68.5t1 -75.5h-353
q0 -89 43 -137t127 -48q33 0 69 7t56 15l20 7h8zM155 317h254q0 169 -119 169q-122 0 -135 -169z" />
    <glyph glyph-name="Ecaron" unicode="&#x11a;" horiz-adv-x="589" 
d="M98 752h421v-75h-325v-246h277v-75h-277v-281h341v-75h-437v752zM355 839h-95l-118 123h90l78 -80l77 80h86z" />
    <glyph glyph-name="ecaron" unicode="&#x11b;" horiz-adv-x="565" 
d="M478 93v-77q-67 -24 -158 -24q-131 0 -196 67q-69 71 -69 211q0 134 63 210t175 76q126 0 180 -94q16 -28 24.5 -69t9.5 -68.5t1 -75.5h-353q0 -89 43 -137t127 -48q33 0 69 7t56 15l20 7h8zM155 317h254q0 169 -119 169q-122 0 -135 -169zM326 631h-74l-118 149h84
l73 -98l74 98h79z" />
    <glyph glyph-name="Gcircumflex" unicode="&#x11c;" horiz-adv-x="731" 
d="M410 393h243v-362q-91 -40 -219 -40q-173 0 -275 95.5t-102 284.5q0 193 106 291t284 98q47 0 93 -7t68 -13l23 -7v-81h-8q-73 34 -175 34q-133 0 -210.5 -76t-77.5 -231q0 -154 75 -234t198 -80q32 0 63 5.5t46 10.5l15 5v231h-147v76zM373 962h95l118 -123h-89l-79 78
l-77 -78h-86z" />
    <glyph glyph-name="gcircumflex.alt" unicode="&#x11d;" horiz-adv-x="585" 
d="M491 381q0 -80 -55.5 -127t-150.5 -47q-41 0 -74 9q-45 -19 -45 -60q0 -17 7.5 -28t22 -15t24.5 -5t26 -1h102q22 0 36.5 -1t42 -4t46 -12t38.5 -23.5t30 -39t10 -57.5q0 -86 -72.5 -132t-208.5 -46q-239 0 -239 138q0 28 11.5 50t23.5 33t32 19.5t25 9.5t14 3
q-4 1 -8.5 3t-16 9t-19.5 16t-15 25t-7 35q0 32 19.5 55t38.5 31t40 12q-90 44 -90 151q0 80 55.5 127t150.5 47q89 0 143 -42q8 21 22 34t32 18t29.5 6t29.5 1h12v-82q-18 4 -42 4q-35 0 -52 -11q32 -45 32 -103zM338 29h-163q-6 -3 -14.5 -8.5t-23 -26.5t-14.5 -48
q0 -86 150 -86q87 0 134 26t47 73q0 70 -116 70zM285 275q52 0 80.5 28t28.5 78q0 51 -28.5 79t-80.5 28q-53 0 -81 -28t-28 -79q0 -50 28 -78t81 -28zM230 780h74l118 -149h-80l-78 93l-77 -93h-75z" />
    <glyph glyph-name="Gbreve" unicode="&#x11e;" horiz-adv-x="731" 
d="M410 393h243v-362q-91 -40 -219 -40q-173 0 -275 95.5t-102 284.5q0 193 106 291t284 98q47 0 93 -7t68 -13l23 -7v-81h-8q-73 34 -175 34q-133 0 -210.5 -76t-77.5 -231q0 -154 75 -234t198 -80q32 0 63 5.5t46 10.5l15 5v231h-147v76zM510 962h68q0 -60 -40 -93
t-117 -33t-117.5 33t-40.5 93h69q0 -32 23 -49.5t66 -17.5t66 17.5t23 49.5z" />
    <glyph glyph-name="gbreve.alt" unicode="&#x11f;" horiz-adv-x="585" 
d="M491 381q0 -80 -55.5 -127t-150.5 -47q-41 0 -74 9q-45 -19 -45 -60q0 -17 7.5 -28t22 -15t24.5 -5t26 -1h102q22 0 36.5 -1t42 -4t46 -12t38.5 -23.5t30 -39t10 -57.5q0 -86 -72.5 -132t-208.5 -46q-239 0 -239 138q0 28 11.5 50t23.5 33t32 19.5t25 9.5t14 3
q-4 1 -8.5 3t-16 9t-19.5 16t-15 25t-7 35q0 32 19.5 55t38.5 31t40 12q-90 44 -90 151q0 80 55.5 127t150.5 47q89 0 143 -42q8 21 22 34t32 18t29.5 6t29.5 1h12v-82q-18 4 -42 4q-35 0 -52 -11q32 -45 32 -103zM338 29h-163q-6 -3 -14.5 -8.5t-23 -26.5t-14.5 -48
q0 -86 150 -86q87 0 134 26t47 73q0 70 -116 70zM285 275q52 0 80.5 28t28.5 78q0 51 -28.5 79t-80.5 28q-53 0 -81 -28t-28 -79q0 -50 28 -78t81 -28zM351 780h69q0 -73 -40.5 -109t-112.5 -36q-153 0 -153 145h68q0 -87 85 -87q84 0 84 87z" />
    <glyph glyph-name="Gdotaccent.round" unicode="&#x120;" horiz-adv-x="731" 
d="M410 393h243v-362q-91 -40 -219 -40q-173 0 -275 95.5t-102 284.5q0 193 106 291t284 98q47 0 93 -7t68 -13l23 -7v-81h-8q-73 34 -175 34q-133 0 -210.5 -76t-77.5 -231q0 -154 75 -234t198 -80q32 0 63 5.5t46 10.5l15 5v231h-147v76zM421 945q28 0 43.5 -16t15.5 -41
t-15.5 -41t-43.5 -16t-44 16t-16 41t16 41t44 16z" />
    <glyph glyph-name="gdotaccent.round" unicode="&#x121;" horiz-adv-x="634" 
d="M545 543v-477q0 -47 -1.5 -71t-10.5 -57.5t-27 -57.5q-66 -88 -231 -88q-48 0 -93.5 7.5t-66.5 14.5l-21 8v83h8q86 -40 178 -40q109 0 149 65q15 24 18.5 52.5t3.5 85.5v41q-16 -49 -59 -76t-107 -27q-106 0 -168 72t-62 200q0 130 63.5 203.5t175.5 73.5q125 0 163 -94
l32 82h56zM305 78q148 0 148 202q0 93 -35.5 148t-112.5 55t-112.5 -55t-35.5 -148q0 -202 148 -202zM315 759q28 0 43.5 -16t15.5 -41t-15.5 -40.5t-43.5 -15.5t-44 15.5t-16 40.5t16 41t44 16z" />
    <glyph glyph-name="Gcommaaccent" unicode="&#x122;" horiz-adv-x="731" 
d="M410 393h243v-362q-91 -40 -219 -40q-173 0 -275 95.5t-102 284.5q0 193 106 291t284 98q47 0 93 -7t68 -13l23 -7v-81h-8q-73 34 -175 34q-133 0 -210.5 -76t-77.5 -231q0 -154 75 -234t198 -80q32 0 63 5.5t46 10.5l15 5v231h-147v76zM386 -88h93l-60 -120h-69z" />
    <glyph glyph-name="gcommaaccent.alt" unicode="&#x123;" horiz-adv-x="585" 
d="M491 381q0 -80 -55.5 -127t-150.5 -47q-41 0 -74 9q-45 -19 -45 -60q0 -17 7.5 -28t22 -15t24.5 -5t26 -1h102q22 0 36.5 -1t42 -4t46 -12t38.5 -23.5t30 -39t10 -57.5q0 -86 -72.5 -132t-208.5 -46q-239 0 -239 138q0 28 11.5 50t23.5 33t32 19.5t25 9.5t14 3
q-4 1 -8.5 3t-16 9t-19.5 16t-15 25t-7 35q0 32 19.5 55t38.5 31t40 12q-90 44 -90 151q0 80 55.5 127t150.5 47q89 0 143 -42q8 21 22 34t32 18t29.5 6t29.5 1h12v-82q-18 4 -42 4q-35 0 -52 -11q32 -45 32 -103zM338 29h-163q-6 -3 -14.5 -8.5t-23 -26.5t-14.5 -48
q0 -86 150 -86q87 0 134 26t47 73q0 70 -116 70zM285 275q52 0 80.5 28t28.5 78q0 51 -28.5 79t-80.5 28q-53 0 -81 -28t-28 -79q0 -50 28 -78t81 -28zM310 631h-96l73 149h68z" />
    <glyph glyph-name="Hcircumflex" unicode="&#x124;" horiz-adv-x="764" 
d="M98 752h97v-321h374v321h97v-752h-97v356h-374v-356h-97v752zM334 962h95l118 -123h-89l-79 78l-77 -78h-86z" />
    <glyph glyph-name="hcircumflex" unicode="&#x125;" horiz-adv-x="610" 
d="M89 780h95v-326q25 101 156 101q108 0 156 -70q15 -22 22.5 -52t8.5 -51.5t1 -61.5v-320h-96v321q0 78 -21 109q-31 46 -101 46q-126 0 -126 -140v-336h-95v780zM319 780h74l118 -149h-80l-78 93l-77 -93h-75z" />
    <glyph glyph-name="Itilde" unicode="&#x128;" horiz-adv-x="293" 
d="M98 752h97v-752h-97v752zM-13 839v60q39 39 101 39q31 0 74.5 -17.5t64.5 -17.5q20 0 41.5 8.5t33.5 17.5l12 9h8v-60q-39 -39 -101 -39q-31 0 -74.5 17.5t-64.5 17.5q-20 0 -41.5 -8.5t-33.5 -17.5l-12 -9h-8z" />
    <glyph glyph-name="itilde" unicode="&#x129;" horiz-adv-x="273" 
d="M89 543h95v-543h-95v543zM-11 640v59q36 40 90 40q27 0 68 -18t60 -18q18 0 37 9t29 18l10 9h8v-59q-36 -40 -90 -40q-27 0 -68 18t-60 18q-18 0 -37 -9t-29 -18l-10 -9h-8z" />
    <glyph glyph-name="Imacron" unicode="&#x12a;" horiz-adv-x="293" 
d="M98 752h97v-752h-97v752zM6 917h280v-65h-280v65z" />
    <glyph glyph-name="imacron" unicode="&#x12b;" horiz-adv-x="273" 
d="M89 543h95v-543h-95v543zM19 704h234v-62h-234v62z" />
    <glyph glyph-name="Ibreve" unicode="&#x12c;" horiz-adv-x="293" 
d="M98 752h97v-752h-97v752zM235 962h68q0 -60 -40 -93t-117 -33t-117.5 33t-40.5 93h69q0 -32 23 -49.5t66 -17.5t66 17.5t23 49.5z" />
    <glyph glyph-name="ibreve" unicode="&#x12d;" horiz-adv-x="273" 
d="M89 543h95v-543h-95v543zM220 780h69q0 -73 -40.5 -109t-112.5 -36q-153 0 -153 145h68q0 -87 85 -87q84 0 84 87z" />
    <glyph glyph-name="Iogonek" unicode="&#x12e;" horiz-adv-x="293" 
d="M98 0v752h97v-760q-59 -12 -94.5 -36t-35.5 -57q0 -47 67 -47q13 0 26.5 2t21.5 4l7 3h8v-56q-34 -7 -73 -7q-61 0 -96 22.5t-35 66.5q0 75 107 113z" />
    <glyph glyph-name="iogonek" unicode="&#x12f;" horiz-adv-x="273" 
d="M89 0v543h95v-551q-59 -12 -94.5 -36t-35.5 -57q0 -47 67 -47q13 0 26.5 2t20.5 4l8 3h8v-56q-34 -7 -73 -7q-61 0 -96 22.5t-35 67.5q0 24 10.5 44t29.5 33t34 20.5t35 14.5zM86 746h101v-97h-101v97z" />
    <glyph glyph-name="Idotaccent.round" unicode="&#x130;" horiz-adv-x="293" 
d="M98 752h97v-752h-97v752zM146 945q28 0 43.5 -16t15.5 -41t-15.5 -41t-43.5 -16t-44 16t-16 41t16 41t44 16z" />
    <glyph glyph-name="dotlessi" unicode="&#x131;" horiz-adv-x="273" 
d="M89 543h95v-543h-95v543z" />
    <glyph glyph-name="Jcircumflex" unicode="&#x134;" horiz-adv-x="425" 
d="M14 7v76h8q43 -15 85 -15q69 0 101 46q22 33 22 114v524h97v-518q0 -36 -1 -56.5t-10 -52.5t-26 -56q-54 -75 -178 -75q-25 0 -49.5 3t-36.5 7zM230 962h95l118 -123h-89l-79 78l-77 -78h-86z" />
    <glyph glyph-name="jcircumflex" unicode="&#x135;" horiz-adv-x="278" 
d="M-41 -196v72h8q21 -4 41 -4q51 0 72 36q14 25 14 87v548h95v-545q0 -85 -22 -125q-41 -73 -155 -73zM104 780h74l118 -149h-80l-78 93l-77 -93h-75z" />
    <glyph glyph-name="Kcommaaccent" unicode="&#x136;" horiz-adv-x="665" 
d="M98 752h96v-358l327 358h107l-292 -316l302 -436h-116l-251 369l-77 -78v-291h-96v752zM285 -88h93l-60 -120h-69z" />
    <glyph glyph-name="kcommaaccent" unicode="&#x137;" horiz-adv-x="566" 
d="M89 780h95v-485l229 248h108l-212 -224l222 -319h-112l-173 256l-62 -61v-195h-95v780zM233 -88h93l-60 -120h-69z" />
    <glyph glyph-name="kgreenlandic" unicode="&#x138;" horiz-adv-x="566" 
d="M89 543h95v-248l229 248h108l-212 -224l222 -319h-112l-173 256l-62 -61v-195h-95v543z" />
    <glyph glyph-name="Lacute" unicode="&#x139;" horiz-adv-x="523" 
d="M98 752h97v-676h313v-76h-410v752zM185 839h-83l113 123h123z" />
    <glyph glyph-name="lacute" unicode="&#x13a;" horiz-adv-x="273" 
d="M89 780h95v-780h-95v780zM170 868h-73l96 149h109z" />
    <glyph glyph-name="Lcommaaccent" unicode="&#x13b;" horiz-adv-x="523" 
d="M98 752h97v-676h313v-76h-410v752zM266 -88h93l-60 -120h-69z" />
    <glyph glyph-name="lcommaaccent" unicode="&#x13c;" horiz-adv-x="273" 
d="M89 780h95v-780h-95v780zM89 -88h93l-60 -120h-69z" />
    <glyph glyph-name="Lcaron" unicode="&#x13d;" horiz-adv-x="523" 
d="M342 524h-65l40 228h92zM98 752h97v-676h313v-76h-410v752z" />
    <glyph glyph-name="lcaron" unicode="&#x13e;" horiz-adv-x="273" 
d="M89 780h95v-780h-95v780zM306 599h-58l33 181h88z" />
    <glyph glyph-name="Ldot.round" unicode="&#x13f;" horiz-adv-x="610" 
d="M98 752h97v-676h313v-76h-410v752zM453 404q28 0 44 -17t16 -43t-16 -43t-44 -17t-44 17t-16 43t16 43t44 17z" />
    <glyph glyph-name="ldot.round" unicode="&#x140;" horiz-adv-x="525" 
d="M89 780h95v-780h-95v780zM346 339q28 0 44.5 -17t16.5 -43t-16 -43t-44 -17t-44.5 17t-16.5 43t16 43t44 17z" />
    <glyph glyph-name="Lslash" unicode="&#x141;" horiz-adv-x="555" 
d="M130 752h97v-288l168 62v-73l-168 -62v-315h313v-76h-410v355l-113 -42v73l113 42v324z" />
    <glyph glyph-name="lslash" unicode="&#x142;" horiz-adv-x="365" 
d="M348 433l-118 -43v-390h-95v356l-118 -43v73l118 43v351h95v-317l118 43v-73z" />
    <glyph glyph-name="Nacute" unicode="&#x143;" horiz-adv-x="776" 
d="M98 752h97l396 -595v595h87v-752h-89l-404 602v-602h-87v752zM428 839h-83l113 123h123z" />
    <glyph glyph-name="nacute" unicode="&#x144;" horiz-adv-x="611" 
d="M89 543h73l20 -93q25 105 159 105q108 0 156 -70q15 -22 22.5 -52t8.5 -51.5t1 -61.5v-320h-96v321q0 78 -21 109q-31 46 -102 46q-125 0 -125 -140v-336h-96v543zM340 631h-73l96 149h109z" />
    <glyph glyph-name="Ncommaaccent" unicode="&#x145;" horiz-adv-x="776" 
d="M98 752h97l396 -595v595h87v-752h-89l-404 602v-602h-87v752zM344 -88h93l-60 -120h-69z" />
    <glyph glyph-name="ncommaaccent" unicode="&#x146;" horiz-adv-x="611" 
d="M89 543h73l20 -93q25 105 159 105q108 0 156 -70q15 -22 22.5 -52t8.5 -51.5t1 -61.5v-320h-96v321q0 78 -21 109q-31 46 -102 46q-125 0 -125 -140v-336h-96v543zM258 -88h93l-60 -120h-69z" />
    <glyph glyph-name="Ncaron" unicode="&#x147;" horiz-adv-x="776" 
d="M98 752h97l396 -595v595h87v-752h-89l-404 602v-602h-87v752zM435 839h-95l-118 123h90l78 -80l77 80h86z" />
    <glyph glyph-name="ncaron" unicode="&#x148;" horiz-adv-x="611" 
d="M89 543h73l20 -93q25 105 159 105q108 0 156 -70q15 -22 22.5 -52t8.5 -51.5t1 -61.5v-320h-96v321q0 78 -21 109q-31 46 -102 46q-125 0 -125 -140v-336h-96v543zM343 631h-74l-118 149h84l73 -98l74 98h79z" />
    <glyph glyph-name="Omacron" unicode="&#x14c;" horiz-adv-x="788" 
d="M731 379q0 -185 -88.5 -288.5t-250.5 -103.5q-161 0 -248 101.5t-87 284.5q0 185 88.5 288.5t250.5 103.5q161 0 248 -101.5t87 -284.5zM394 61q113 0 173.5 79.5t60.5 235.5t-60.5 235.5t-173.5 79.5t-173.5 -79.5t-60.5 -235.5t60.5 -235.5t173.5 -79.5zM228 917h332
v-65h-332v65z" />
    <glyph glyph-name="omacron" unicode="&#x14d;" horiz-adv-x="613" 
d="M558 273q0 -137 -65.5 -211.5t-186.5 -74.5q-119 0 -185 73.5t-66 209.5q0 137 65.5 211.5t186.5 74.5q119 0 185 -73.5t66 -209.5zM307 58q149 0 149 213q0 214 -150 214q-149 0 -149 -213q0 -214 150 -214zM164 704h284v-62h-284v62z" />
    <glyph glyph-name="Ohungarumlaut" unicode="&#x150;" horiz-adv-x="788" 
d="M731 379q0 -185 -88.5 -288.5t-250.5 -103.5q-161 0 -248 101.5t-87 284.5q0 185 88.5 288.5t250.5 103.5q161 0 248 -101.5t87 -284.5zM394 61q113 0 173.5 79.5t60.5 235.5t-60.5 235.5t-173.5 79.5t-173.5 -79.5t-60.5 -235.5t60.5 -235.5t173.5 -79.5zM514 839h-69
l115 123h95zM337 839h-69l106 123h95z" />
    <glyph glyph-name="ohungarumlaut" unicode="&#x151;" horiz-adv-x="613" 
d="M558 273q0 -137 -65.5 -211.5t-186.5 -74.5q-119 0 -185 73.5t-66 209.5q0 137 65.5 211.5t186.5 74.5q119 0 185 -73.5t66 -209.5zM307 58q149 0 149 213q0 214 -150 214q-149 0 -149 -213q0 -214 150 -214zM422 631h-69l106 149h95zM253 631h-69l97 149h95z" />
    <glyph glyph-name="OE" unicode="&#x152;" horiz-adv-x="1071" 
d="M592 677q4 -2 11 -6.5t26 -23t34 -43.5t29.5 -71t19.5 -102h241v-75h-239q-2 -65 -16 -118t-32.5 -82t-36.5 -48.5t-31 -25.5l-12 -7h431v-75h-611q-42 0 -69.5 2t-75 16t-83.5 42q-121 94 -121 315q0 220 127 316q37 28 84.5 42.5t75 16.5t70.5 2h587v-75h-409zM387 70
q109 0 168 75.5t59 230.5t-59 230t-168 75t-168 -75t-59 -230t59 -230.5t168 -75.5z" />
    <glyph glyph-name="oe" unicode="&#x153;" horiz-adv-x="945" 
d="M486 112q-20 -57 -70.5 -91t-124.5 -34q-108 0 -172 74t-64 208q0 135 65 211t175 76q71 0 122 -32t72 -92q1 5 4 13.5t17 30t32.5 37.5t54 29.5t78.5 13.5q124 0 178 -94q16 -28 24.5 -69t9.5 -68.5t1 -75.5h-353q0 -89 43 -137t127 -48q33 0 69 7t56 15l20 7h8v-77
q-67 -24 -158 -24q-169 0 -214 120zM535 317h254q0 169 -119 169q-122 0 -135 -169zM299 58q142 0 142 213q0 104 -36 159t-107 55q-141 0 -141 -213q0 -214 142 -214z" />
    <glyph glyph-name="Racute" unicode="&#x154;" horiz-adv-x="659" 
d="M337 317h-142v-317h-97v752h227q122 0 182 -40q82 -55 82 -174q0 -167 -154 -209l195 -329h-111zM195 678v-285h129q77 0 113 25q51 35 51 118q0 82 -51 117q-37 25 -113 25h-129zM366 839h-83l113 123h123z" />
    <glyph glyph-name="racute" unicode="&#x155;" horiz-adv-x="387" 
d="M363 548v-90q-24 5 -52 5q-35 0 -60.5 -11t-37.5 -25t-19 -37t-8 -37t-1 -35v-318h-96v543h72l19 -104q25 109 166 109h17zM240 631h-73l96 149h109z" />
    <glyph glyph-name="Rcaron" unicode="&#x158;" horiz-adv-x="659" 
d="M337 317h-142v-317h-97v752h227q122 0 182 -40q82 -55 82 -174q0 -167 -154 -209l195 -329h-111zM195 678v-285h129q77 0 113 25q51 35 51 118q0 82 -51 117q-37 25 -113 25h-129zM373 839h-95l-118 123h90l78 -80l77 80h86z" />
    <glyph glyph-name="rcaron" unicode="&#x159;" horiz-adv-x="387" 
d="M363 548v-90q-24 5 -52 5q-35 0 -60.5 -11t-37.5 -25t-19 -37t-8 -37t-1 -35v-318h-96v543h72l19 -104q25 109 166 109h17zM243 631h-74l-118 149h84l73 -98l74 98h79z" />
    <glyph glyph-name="Sacute" unicode="&#x15a;" horiz-adv-x="569" 
d="M479 732v-77h-8q-81 33 -163 33q-69 0 -106 -29.5t-37 -79.5q0 -35 19 -62t49.5 -45t67.5 -35t74.5 -36.5t68 -44.5t49.5 -64t19 -90q0 -105 -74.5 -157.5t-191.5 -52.5q-48 0 -93.5 8.5t-67.5 17.5l-22 9v81h8q91 -44 183 -44q73 0 115.5 34.5t42.5 92.5q0 37 -19 66
t-49.5 48.5t-68 36.5t-74.5 36.5t-67.5 43t-49.5 60.5t-19 85q0 90 64 141.5t177 51.5q42 0 85 -7t65 -14zM330 839h-83l113 123h123z" />
    <glyph glyph-name="sacute" unicode="&#x15b;" horiz-adv-x="467" 
d="M388 531v-79h-8q-63 26 -124 26q-45 0 -70 -18t-25 -48q0 -29 25.5 -50t62.5 -36t74 -34t62.5 -55t25.5 -87q0 -79 -56.5 -118.5t-149.5 -39.5q-39 0 -74.5 7t-51.5 13l-16 7v79h8q74 -33 143 -33q49 0 75 20.5t26 54.5q0 32 -25.5 55t-62.5 38.5t-74 33.5t-62.5 51
t-25.5 81q0 70 52 111t144 41q32 0 64 -5t47 -10zM280 631h-73l96 149h109z" />
    <glyph glyph-name="Scircumflex" unicode="&#x15c;" horiz-adv-x="569" 
d="M479 732v-77h-8q-81 33 -163 33q-69 0 -106 -29.5t-37 -79.5q0 -35 19 -62t49.5 -45t67.5 -35t74.5 -36.5t68 -44.5t49.5 -64t19 -90q0 -105 -74.5 -157.5t-191.5 -52.5q-48 0 -93.5 8.5t-67.5 17.5l-22 9v81h8q91 -44 183 -44q73 0 115.5 34.5t42.5 92.5q0 37 -19 66
t-49.5 48.5t-68 36.5t-74.5 36.5t-67.5 43t-49.5 60.5t-19 85q0 90 64 141.5t177 51.5q42 0 85 -7t65 -14zM242 962h95l118 -123h-89l-79 78l-77 -78h-86z" />
    <glyph glyph-name="scircumflex" unicode="&#x15d;" horiz-adv-x="467" 
d="M388 531v-79h-8q-63 26 -124 26q-45 0 -70 -18t-25 -48q0 -29 25.5 -50t62.5 -36t74 -34t62.5 -55t25.5 -87q0 -79 -56.5 -118.5t-149.5 -39.5q-39 0 -74.5 7t-51.5 13l-16 7v79h8q74 -33 143 -33q49 0 75 20.5t26 54.5q0 32 -25.5 55t-62.5 38.5t-74 33.5t-62.5 51
t-25.5 81q0 70 52 111t144 41q32 0 64 -5t47 -10zM209 780h74l118 -149h-80l-78 93l-77 -93h-75z" />
    <glyph glyph-name="Scedilla" unicode="&#x15e;" horiz-adv-x="569" 
d="M479 732v-77h-8q-81 33 -163 33q-69 0 -106 -29.5t-37 -79.5q0 -35 19 -62t49.5 -45t67.5 -35t74.5 -36.5t68 -44.5t49.5 -64t19 -90q0 -94 -60 -145.5t-158 -61.5q58 -37 58 -94q0 -45 -34 -74t-98 -29l-55 5v60h8q23 -7 47 -7q61 0 61 52q0 35 -41 84q-47 0 -91 9
t-65 17l-21 9v81h8q91 -44 183 -44q73 0 115.5 34.5t42.5 92.5q0 37 -19 66t-49.5 48.5t-68 36.5t-74.5 36.5t-67.5 43t-49.5 60.5t-19 85q0 90 64 141.5t177 51.5q42 0 85 -7t65 -14z" />
    <glyph glyph-name="scedilla" unicode="&#x15f;" horiz-adv-x="467" 
d="M388 531v-79h-8q-63 26 -124 26q-45 0 -70 -18t-25 -48q0 -29 25.5 -50t62.5 -36t74 -34t62.5 -55t25.5 -87q0 -69 -44 -108t-118 -47q58 -37 58 -94q0 -45 -34 -74t-98 -29l-55 5v60h8q23 -7 47 -7q61 0 61 52q0 35 -41 84q-36 1 -69 7.5t-48 12.5l-15 7v79h8
q74 -33 143 -33q49 0 75 20.5t26 54.5q0 32 -25.5 55t-62.5 38.5t-74 33.5t-62.5 51t-25.5 81q0 70 52 111t144 41q32 0 64 -5t47 -10z" />
    <glyph glyph-name="Scaron" unicode="&#x160;" horiz-adv-x="569" 
d="M479 732v-77h-8q-81 33 -163 33q-69 0 -106 -29.5t-37 -79.5q0 -35 19 -62t49.5 -45t67.5 -35t74.5 -36.5t68 -44.5t49.5 -64t19 -90q0 -105 -74.5 -157.5t-191.5 -52.5q-48 0 -93.5 8.5t-67.5 17.5l-22 9v81h8q91 -44 183 -44q73 0 115.5 34.5t42.5 92.5q0 37 -19 66
t-49.5 48.5t-68 36.5t-74.5 36.5t-67.5 43t-49.5 60.5t-19 85q0 90 64 141.5t177 51.5q42 0 85 -7t65 -14zM337 839h-95l-118 123h90l78 -80l77 80h86z" />
    <glyph glyph-name="scaron" unicode="&#x161;" horiz-adv-x="467" 
d="M388 531v-79h-8q-63 26 -124 26q-45 0 -70 -18t-25 -48q0 -29 25.5 -50t62.5 -36t74 -34t62.5 -55t25.5 -87q0 -79 -56.5 -118.5t-149.5 -39.5q-39 0 -74.5 7t-51.5 13l-16 7v79h8q74 -33 143 -33q49 0 75 20.5t26 54.5q0 32 -25.5 55t-62.5 38.5t-74 33.5t-62.5 51
t-25.5 81q0 70 52 111t144 41q32 0 64 -5t47 -10zM283 631h-74l-118 149h84l73 -98l74 98h79z" />
    <glyph glyph-name="Tcedilla" unicode="&#x162;" horiz-adv-x="585" 
d="M259 0h-15v676h-221v76h539v-76h-221v-676h-31q67 -37 67 -99q0 -45 -34 -74t-98 -29l-55 5v60h8q23 -7 47 -7q61 0 61 52q0 35 -47 92z" />
    <glyph glyph-name="tcedilla" unicode="&#x163;" horiz-adv-x="434" 
d="M383 80v-76q-33 -10 -79 -12q54 -35 54 -91q0 -45 -34 -74t-98 -29l-55 5v60h8q23 -7 47 -7q61 0 61 52q0 34 -44 88q-64 10 -91 53q-10 16 -15 38.5t-6 41.5t-1 59v275h-102v72h102v151l95 29v-180h158v-72h-158v-274q0 -71 12 -93q17 -31 64 -31q17 0 35.5 3.5
t28.5 7.5l10 4h8z" />
    <glyph glyph-name="Tcaron" unicode="&#x164;" horiz-adv-x="585" 
d="M23 752h539v-76h-221v-676h-97v676h-221v76zM339 839h-95l-118 123h90l78 -80l77 80h86z" />
    <glyph glyph-name="tcaron" unicode="&#x165;" horiz-adv-x="434" 
d="M383 80v-76q-39 -12 -92 -12q-102 0 -139 57q-10 16 -15 38.5t-6 41.5t-1 59v275h-102v72h102v151l95 29v-180h158v-72h-158v-274q0 -71 12 -93q17 -31 64 -31q17 0 35.5 3.5t28.5 7.5l10 4h8zM347 599h-58l33 181h88z" />
    <glyph glyph-name="Utilde" unicode="&#x168;" horiz-adv-x="754" 
d="M98 752h97v-476q0 -104 41 -159.5t146 -55.5t146 55.5t41 159.5v476h87v-459q0 -44 -2 -73t-16.5 -74.5t-41.5 -76.5q-71 -82 -221 -82q-146 0 -217 82q-28 32 -42 77t-16 73t-2 74v459zM215 839v60q39 39 101 39q31 0 74.5 -17.5t64.5 -17.5q20 0 41.5 8.5t33.5 17.5
l12 9h8v-60q-39 -39 -101 -39q-31 0 -74.5 17.5t-64.5 17.5q-20 0 -41.5 -8.5t-33.5 -17.5l-12 -9h-8z" />
    <glyph glyph-name="utilde" unicode="&#x169;" horiz-adv-x="610" 
d="M521 0h-73l-20 93q-23 -105 -157 -105q-103 0 -150 68q-20 29 -26 67t-6 100v320h96v-321q0 -80 21 -109q32 -46 99 -46q120 0 120 140v336h96v-543zM158 640v59q36 40 90 40q27 0 68 -18t60 -18q18 0 37 9t29 18l10 9h8v-59q-36 -40 -90 -40q-27 0 -68 18t-60 18
q-18 0 -37 -9t-29 -18l-10 -9h-8z" />
    <glyph glyph-name="Umacron" unicode="&#x16a;" horiz-adv-x="754" 
d="M98 752h97v-476q0 -104 41 -159.5t146 -55.5t146 55.5t41 159.5v476h87v-459q0 -44 -2 -73t-16.5 -74.5t-41.5 -76.5q-71 -82 -221 -82q-146 0 -217 82q-28 32 -42 77t-16 73t-2 74v459zM208 917h332v-65h-332v65z" />
    <glyph glyph-name="umacron" unicode="&#x16b;" horiz-adv-x="610" 
d="M521 0h-73l-20 93q-23 -105 -157 -105q-103 0 -150 68q-20 29 -26 67t-6 100v320h96v-321q0 -80 21 -109q32 -46 99 -46q120 0 120 140v336h96v-543zM163 704h284v-62h-284v62z" />
    <glyph glyph-name="Ubreve" unicode="&#x16c;" horiz-adv-x="754" 
d="M98 752h97v-476q0 -104 41 -159.5t146 -55.5t146 55.5t41 159.5v476h87v-459q0 -44 -2 -73t-16.5 -74.5t-41.5 -76.5q-71 -82 -221 -82q-146 0 -217 82q-28 32 -42 77t-16 73t-2 74v459zM463 962h68q0 -60 -40 -93t-117 -33t-117.5 33t-40.5 93h69q0 -32 23 -49.5
t66 -17.5t66 17.5t23 49.5z" />
    <glyph glyph-name="ubreve" unicode="&#x16d;" horiz-adv-x="610" 
d="M521 0h-73l-20 93q-23 -105 -157 -105q-103 0 -150 68q-20 29 -26 67t-6 100v320h96v-321q0 -80 21 -109q32 -46 99 -46q120 0 120 140v336h96v-543zM389 780h69q0 -73 -40.5 -109t-112.5 -36q-153 0 -153 145h68q0 -87 85 -87q84 0 84 87z" />
    <glyph glyph-name="Uring" unicode="&#x16e;" horiz-adv-x="754" 
d="M98 752h97v-476q0 -104 41 -159.5t146 -55.5t146 55.5t41 159.5v476h87v-459q0 -44 -2 -73t-16.5 -74.5t-41.5 -76.5q-71 -82 -221 -82q-146 0 -217 82q-28 32 -42 77t-16 73t-2 74v459zM258 874q0 46 32 73.5t84 27.5t84 -27.5t32 -73.5t-32 -73.5t-84 -27.5t-84 27.5
t-32 73.5zM319 874q0 -24 14.5 -38.5t40.5 -14.5t40.5 14.5t14.5 38.5t-14.5 38.5t-40.5 14.5t-40.5 -14.5t-14.5 -38.5z" />
    <glyph glyph-name="uring" unicode="&#x16f;" horiz-adv-x="610" 
d="M521 0h-73l-20 93q-23 -105 -157 -105q-103 0 -150 68q-20 29 -26 67t-6 100v320h96v-321q0 -80 21 -109q32 -46 99 -46q120 0 120 140v336h96v-543zM190 682q0 44 31.5 71.5t83.5 27.5t83.5 -27.5t31.5 -71.5t-31.5 -71.5t-83.5 -27.5t-83.5 27.5t-31.5 71.5zM251 682
q0 -24 14.5 -38.5t39.5 -14.5t39.5 14.5t14.5 38.5t-14.5 38.5t-39.5 14.5t-39.5 -14.5t-14.5 -38.5z" />
    <glyph glyph-name="Uhungarumlaut" unicode="&#x170;" horiz-adv-x="754" 
d="M98 752h97v-476q0 -104 41 -159.5t146 -55.5t146 55.5t41 159.5v476h87v-459q0 -44 -2 -73t-16.5 -74.5t-41.5 -76.5q-71 -82 -221 -82q-146 0 -217 82q-28 32 -42 77t-16 73t-2 74v459zM494 839h-69l115 123h95zM317 839h-69l106 123h95z" />
    <glyph glyph-name="uhungarumlaut" unicode="&#x171;" horiz-adv-x="610" 
d="M521 0h-73l-20 93q-23 -105 -157 -105q-103 0 -150 68q-20 29 -26 67t-6 100v320h96v-321q0 -80 21 -109q32 -46 99 -46q120 0 120 140v336h96v-543zM421 631h-69l106 149h95zM252 631h-69l97 149h95z" />
    <glyph glyph-name="Uogonek" unicode="&#x172;" horiz-adv-x="754" 
d="M98 752h97v-476q0 -104 41 -159.5t146 -55.5t146 55.5t41 159.5v476h87v-457q0 -43 -2 -68.5t-10.5 -65.5t-30.5 -71.5t-58 -56.5q-25 -17 -77 -40t-80 -43.5t-28 -49.5q0 -48 67 -48q13 0 27 2t21 4l7 3h8v-56q-34 -7 -72 -7q-61 0 -96.5 23t-35.5 66q0 72 98 102
q-82 0 -138.5 16.5t-97.5 63.5q-28 32 -42 76.5t-16 72.5t-2 77v457z" />
    <glyph glyph-name="uogonek" unicode="&#x173;" horiz-adv-x="610" 
d="M449 0h-1l-20 93q-23 -105 -157 -105q-103 0 -150 68q-20 29 -26 67t-6 100v320h96v-321q0 -80 21 -109q32 -46 99 -46q120 0 120 140v336h96v-559q-130 -27 -130 -87q0 -22 19 -33.5t48 -11.5q13 0 26.5 2t21.5 4l7 3h8v-56q-34 -7 -72 -7q-61 0 -96.5 22.5t-35.5 65.5
q0 44 35 69t97 45z" />
    <glyph glyph-name="Wcircumflex" unicode="&#x174;" horiz-adv-x="1012" 
d="M29 752h103l162 -624l172 603h97l166 -603l168 624h86l-213 -752h-96l-169 608l-173 -608h-98zM466 962h95l118 -123h-89l-79 78l-77 -78h-86z" />
    <glyph glyph-name="wcircumflex" unicode="&#x175;" horiz-adv-x="885" 
d="M50 543h103l120 -431l130 421h95l126 -421l124 431h86l-167 -543h-98l-127 424l-131 -424h-98zM410 780h74l118 -149h-80l-78 93l-77 -93h-75z" />
    <glyph glyph-name="Ycircumflex" unicode="&#x176;" horiz-adv-x="634" 
d="M13 752h113l201 -367l202 367h92l-256 -453v-299h-97v298zM277 962h95l118 -123h-89l-79 78l-77 -78h-86z" />
    <glyph glyph-name="ycircumflex.alt" unicode="&#x177;" horiz-adv-x="591" 
d="M548 543l-202 -534q-17 -46 -28.5 -72.5t-30.5 -57t-39 -46t-50.5 -26.5t-68.5 -11q-18 0 -35.5 2t-25.5 4l-9 2v78h8q34 -13 65 -13q44 0 70.5 34.5t55.5 113.5l-216 526h110l156 -414l150 414h90zM262 780h74l118 -149h-80l-78 93l-77 -93h-75z" />
    <glyph glyph-name="Ydieresis.round" unicode="&#x178;" horiz-adv-x="634" 
d="M13 752h113l201 -367l202 367h92l-256 -453v-299h-97v298zM219 939q26 0 40.5 -15t14.5 -39q0 -23 -15 -38.5t-40 -15.5t-40 15.5t-15 38.5q0 24 14.5 39t40.5 15zM431 939q26 0 40.5 -15t14.5 -39q0 -23 -15 -38.5t-40 -15.5t-40 15.5t-15 38.5q0 24 14.5 39t40.5 15z
" />
    <glyph glyph-name="Zacute" unicode="&#x179;" horiz-adv-x="635" 
d="M570 752v-66l-402 -611h410v-75h-524v68l401 609h-387v75h502zM355 839h-83l113 123h123z" />
    <glyph glyph-name="zacute" unicode="&#x17a;" horiz-adv-x="511" 
d="M447 535v-72l-275 -391h281v-72h-392v76l274 387h-270v72h382zM297 631h-73l96 149h109z" />
    <glyph glyph-name="Zdotaccent.round" unicode="&#x17b;" horiz-adv-x="635" 
d="M570 752v-66l-402 -611h410v-75h-524v68l401 609h-387v75h502zM315 945q28 0 43.5 -16t15.5 -41t-15.5 -41t-43.5 -16t-44 16t-16 41t16 41t44 16z" />
    <glyph glyph-name="zdotaccent.round" unicode="&#x17c;" horiz-adv-x="511" 
d="M447 535v-72l-275 -391h281v-72h-392v76l274 387h-270v72h382zM263 759q28 0 43.5 -16t15.5 -41t-15.5 -40.5t-43.5 -15.5t-44 15.5t-16 40.5t16 41t44 16z" />
    <glyph glyph-name="Zcaron" unicode="&#x17d;" horiz-adv-x="635" 
d="M570 752v-66l-402 -611h410v-75h-524v68l401 609h-387v75h502zM362 839h-95l-118 123h90l78 -80l77 80h86z" />
    <glyph glyph-name="zcaron" unicode="&#x17e;" horiz-adv-x="511" 
d="M447 535v-72l-275 -391h281v-72h-392v76l274 387h-270v72h382zM300 631h-74l-118 149h84l73 -98l74 98h79z" />
    <glyph glyph-name="Schwa" unicode="&#x18f;" horiz-adv-x="694" 
d="M99 650v77q82 33 201 33q167 0 249 -90q88 -97 88 -291q0 -185 -80.5 -288.5t-222.5 -103.5q-160 0 -228 128q-21 39 -31.5 94.5t-12 92t-1.5 100.5h477q0 138 -62 211.5t-182 73.5q-43 0 -89.5 -9.5t-72.5 -18.5l-25 -9h-8zM538 330h-378q0 -270 176 -270q94 0 145.5 72
t56.5 198z" />
    <glyph glyph-name="florin" unicode="&#x192;" horiz-adv-x="395" 
d="M361 463h-160v-459q0 -94 -22 -133q-41 -71 -154 -71q-17 0 -33.5 1.5t-24.5 2.5l-8 2v73h8q29 -7 55 -7q52 0 71 37q13 25 13 93v461h-107v72h107v40q0 36 1 53.5t6 41t15 41.5q40 70 154 70q20 0 39.5 -2t29.5 -4l10 -2v-75h-8q-36 11 -69 11q-53 0 -72 -40
q-11 -23 -11 -95v-39h160v-72z" />
    <glyph glyph-name="Scommaaccent" unicode="&#x218;" horiz-adv-x="569" 
d="M479 732v-77h-8q-81 33 -163 33q-69 0 -106 -29.5t-37 -79.5q0 -35 19 -62t49.5 -45t67.5 -35t74.5 -36.5t68 -44.5t49.5 -64t19 -90q0 -105 -74.5 -157.5t-191.5 -52.5q-48 0 -93.5 8.5t-67.5 17.5l-22 9v81h8q91 -44 183 -44q73 0 115.5 34.5t42.5 92.5q0 37 -19 66
t-49.5 48.5t-68 36.5t-74.5 36.5t-67.5 43t-49.5 60.5t-19 85q0 90 64 141.5t177 51.5q42 0 85 -7t65 -14zM222 -88h93l-60 -120h-69z" />
    <glyph glyph-name="scommaaccent" unicode="&#x219;" horiz-adv-x="467" 
d="M388 531v-79h-8q-63 26 -124 26q-45 0 -70 -18t-25 -48q0 -29 25.5 -50t62.5 -36t74 -34t62.5 -55t25.5 -87q0 -79 -56.5 -118.5t-149.5 -39.5q-39 0 -74.5 7t-51.5 13l-16 7v79h8q74 -33 143 -33q49 0 75 20.5t26 54.5q0 32 -25.5 55t-62.5 38.5t-74 33.5t-62.5 51
t-25.5 81q0 70 52 111t144 41q32 0 64 -5t47 -10zM177 -88h93l-60 -120h-69z" />
    <glyph glyph-name="uni021A" unicode="&#x21a;" horiz-adv-x="585" 
d="M23 752h539v-76h-221v-676h-97v676h-221v76zM247 -88h93l-60 -120h-69z" />
    <glyph glyph-name="uni021B" unicode="&#x21b;" horiz-adv-x="434" 
d="M383 80v-76q-39 -12 -92 -12q-102 0 -139 57q-10 16 -15 38.5t-6 41.5t-1 59v275h-102v72h102v151l95 29v-180h158v-72h-158v-274q0 -71 12 -93q17 -31 64 -31q17 0 35.5 3.5t28.5 7.5l10 4h8zM228 -88h93l-60 -120h-69z" />
    <glyph glyph-name="dotlessj" unicode="&#x237;" horiz-adv-x="278" 
d="M-41 -196v72h8q21 -4 41 -4q51 0 72 36q14 25 14 87v548h95v-545q0 -85 -22 -125q-41 -73 -155 -73z" />
    <glyph glyph-name="schwa" unicode="&#x259;" horiz-adv-x="565" 
d="M87 450v77q67 24 158 24q131 0 196 -67q69 -70 69 -211q0 -134 -63 -210t-175 -76q-126 0 -180 94q-16 28 -24.5 69t-9.5 68.5t-1 75.5h353q0 89 -43 137t-127 48q-33 0 -69 -7.5t-56 -14.5l-20 -7h-8zM410 226h-254q0 -169 119 -169q122 0 135 169z" />
    <glyph glyph-name="circumflex" unicode="&#x2c6;" 
d="M263 780h74l118 -149h-80l-78 93l-77 -93h-75z" />
    <glyph glyph-name="caron" unicode="&#x2c7;" 
d="M337 631h-74l-118 149h84l73 -98l74 98h79z" />
    <glyph glyph-name="breve" unicode="&#x2d8;" 
d="M384 780h69q0 -73 -40.5 -109t-112.5 -36q-153 0 -153 145h68q0 -87 85 -87q84 0 84 87z" />
    <glyph glyph-name="dotaccent" unicode="&#x2d9;" 
d="M250 752h100v-97h-100v97z" />
    <glyph glyph-name="ring" unicode="&#x2da;" 
d="M185 704q0 44 31.5 71.5t83.5 27.5t83.5 -27.5t31.5 -71.5t-31.5 -71.5t-83.5 -27.5t-83.5 27.5t-31.5 71.5zM246 704q0 -24 14.5 -38.5t39.5 -14.5t39.5 14.5t14.5 38.5t-14.5 38.5t-39.5 14.5t-39.5 -14.5t-14.5 -38.5z" />
    <glyph glyph-name="ogonek" unicode="&#x2db;" 
d="M228 0h72v-16q-130 -27 -130 -87q0 -22 19 -33.5t48 -11.5q13 0 26.5 2t20.5 4l8 3h8v-56q-34 -7 -72 -7q-61 0 -96.5 22.5t-35.5 65.5q0 44 35 69t97 45z" />
    <glyph glyph-name="tilde" unicode="&#x2dc;" 
d="M153 640v59q36 40 90 40q27 0 68 -18t60 -18q18 0 37 9t29 18l10 9h8v-59q-36 -40 -90 -40q-27 0 -68 18t-60 18q-18 0 -37 -9t-29 -18l-10 -9h-8z" />
    <glyph glyph-name="hungarumlaut" unicode="&#x2dd;" 
d="M416 631h-69l106 149h95zM247 631h-69l97 149h95z" />
    <glyph glyph-name="uni0312" unicode="&#x312;" 
d="M343 631h-96l73 149h68z" />
    <glyph glyph-name="Delta" unicode="&#x394;" horiz-adv-x="655" 
d="M13 0l268 752h102l259 -752h-629zM325 650l-199 -576h390z" />
    <glyph glyph-name="Delta" unicode="&#x2206;" horiz-adv-x="655" 
d="M13 0l268 752h102l259 -752h-629zM325 650l-199 -576h390z" />
    <glyph glyph-name="pi" unicode="&#x3c0;" horiz-adv-x="671" 
d="M639 462h-107v-462h-95v462h-182l-55 -462h-95l55 462h-128v73h607v-73z" />
    <glyph glyph-name="Wgrave" unicode="&#x1e80;" horiz-adv-x="1012" 
d="M29 752h103l162 -624l172 603h97l166 -603l168 624h86l-213 -752h-96l-169 608l-173 -608h-98zM557 839h-84l-153 123h123z" />
    <glyph glyph-name="wgrave" unicode="&#x1e81;" horiz-adv-x="885" 
d="M50 543h103l120 -431l130 421h95l126 -421l124 431h86l-167 -543h-98l-127 424l-131 -424h-98zM486 631h-73l-132 149h109z" />
    <glyph glyph-name="Wacute" unicode="&#x1e82;" horiz-adv-x="1012" 
d="M29 752h103l162 -624l172 603h97l166 -603l168 624h86l-213 -752h-96l-169 608l-173 -608h-98zM554 839h-83l113 123h123z" />
    <glyph glyph-name="wacute" unicode="&#x1e83;" horiz-adv-x="885" 
d="M50 543h103l120 -431l130 421h95l126 -421l124 431h86l-167 -543h-98l-127 424l-131 -424h-98zM481 631h-73l96 149h109z" />
    <glyph glyph-name="Ygrave" unicode="&#x1ef2;" horiz-adv-x="634" 
d="M13 752h113l201 -367l202 367h92l-256 -453v-299h-97v298zM368 839h-84l-153 123h123z" />
    <glyph glyph-name="ygrave.alt" unicode="&#x1ef3;" horiz-adv-x="591" 
d="M548 543l-202 -534q-17 -46 -28.5 -72.5t-30.5 -57t-39 -46t-50.5 -26.5t-68.5 -11q-18 0 -35.5 2t-25.5 4l-9 2v78h8q34 -13 65 -13q44 0 70.5 34.5t55.5 113.5l-216 526h110l156 -414l150 414h90zM338 631h-73l-132 149h109z" />
    <glyph glyph-name="space.tnum" unicode="&#x2007;" 
 />
    <glyph glyph-name="minus.tnum" unicode="&#x2012;" 
d="M535 244h-470v75h470v-75z" />
    <glyph glyph-name="endash" unicode="&#x2013;" horiz-adv-x="672" 
d="M594 276h-516v72h516v-72z" />
    <glyph glyph-name="emdash" unicode="&#x2014;" horiz-adv-x="1052" 
d="M974 276h-896v72h896v-72z" />
    <glyph glyph-name="quoteleft" unicode="&#x2018;" horiz-adv-x="284" 
d="M133 780h67l-40 -257h-95z" />
    <glyph glyph-name="quoteright" unicode="&#x2019;" horiz-adv-x="285" 
d="M142 523h-67l40 257h95z" />
    <glyph glyph-name="quotesinglbase" unicode="&#x201a;" horiz-adv-x="255" 
d="M124 -123h-67l40 257h95z" />
    <glyph glyph-name="quotedblleft" unicode="&#x201c;" horiz-adv-x="438" 
d="M290 780h64l-40 -257h-91zM133 780h64l-40 -257h-91z" />
    <glyph glyph-name="quotedblright" unicode="&#x201d;" horiz-adv-x="438" 
d="M139 523h-64l40 257h91zM296 523h-64l40 257h91z" />
    <glyph glyph-name="quotedblbase" unicode="&#x201e;" horiz-adv-x="409" 
d="M121 -123h-64l40 257h91zM278 -123h-64l40 257h91z" />
    <glyph glyph-name="dagger" unicode="&#x2020;" horiz-adv-x="522" 
d="M305 0h-88v463h-168v72h168v153h88v-153h168v-72h-168v-463z" />
    <glyph glyph-name="daggerdbl" unicode="&#x2021;" horiz-adv-x="522" 
d="M305 0h-88v153h-146v72h146v238h-146v72h146v153h88v-153h146v-72h-146v-238h146v-72h-146v-153z" />
    <glyph glyph-name="bullet.round" unicode="&#x2022;" horiz-adv-x="267" 
d="M120 392q37 0 58 -22t21 -57q0 -34 -21 -56t-58 -22q-36 0 -57 22t-21 56q0 35 20.5 57t57.5 22z" />
    <glyph glyph-name="ellipsis.round" unicode="&#x2026;" horiz-adv-x="876" 
d="M163 111q27 0 42.5 -16.5t15.5 -41.5t-15.5 -41.5t-42.5 -16.5t-42.5 16.5t-15.5 41.5t15.5 41.5t42.5 16.5zM438 111q27 0 42.5 -16.5t15.5 -41.5t-15.5 -41.5t-42.5 -16.5t-42.5 16.5t-15.5 41.5t15.5 41.5t42.5 16.5zM713 111q27 0 42.5 -16.5t15.5 -41.5t-15.5 -41.5
t-42.5 -16.5t-42.5 16.5t-15.5 41.5t15.5 41.5t42.5 16.5z" />
    <glyph glyph-name="perthousand" unicode="&#x2030;" horiz-adv-x="1227" 
d="M755 682l-300 -358l-252 -324h-95v6l300 358l252 324h95v-6zM61 527q0 77 48.5 125t122.5 48t121.5 -48t47.5 -124q0 -77 -48.5 -125t-122.5 -48t-121.5 47.5t-47.5 124.5zM136 527q0 -48 26.5 -78t68.5 -30t68.5 30t26.5 79q0 48 -26.5 78t-68.5 30t-68.5 -30t-26.5 -79
zM462 160q0 77 48.5 125t122.5 48q73 0 121 -47.5t48 -124.5t-48.5 -125t-122.5 -48q-73 0 -121 48t-48 124zM537 160q0 -48 26.5 -78t68.5 -30t68.5 30t26.5 79q0 48 -26.5 78t-68.5 30t-68.5 -30t-26.5 -79zM853 160q0 77 48.5 125t122.5 48t121.5 -47.5t47.5 -124.5
t-48.5 -125t-122.5 -48t-121.5 48t-47.5 124zM928 160q0 -48 26.5 -78t68.5 -30t68.5 30t26.5 79q0 48 -26.5 78t-68.5 30t-68.5 -30t-26.5 -79z" />
    <glyph glyph-name="guilsinglleft" unicode="&#x2039;" horiz-adv-x="349" 
d="M60 311l134 209h95l-140 -207l140 -210h-95z" />
    <glyph glyph-name="guilsinglright" unicode="&#x203a;" horiz-adv-x="349" 
d="M289 311l-134 -208h-95l140 206l-140 211h95z" />
    <glyph glyph-name="fraction" unicode="&#x2044;" horiz-adv-x="210" 
d="M489 772l-360 -449l-319 -415h-89v8l360 449l319 415h89v-8z" />
    <glyph glyph-name="zero.superior" unicode="&#x2070;" horiz-adv-x="441" 
d="M386 573q0 -217 -166 -217q-165 0 -165 214q0 217 167 217q164 0 164 -214zM300 571q0 84 -19 120.5t-61 36.5t-60.5 -36.5t-18.5 -120.5t18.5 -120t60.5 -36t61 36.5t19 119.5z" />
    <glyph glyph-name="i.superior" unicode="&#x2071;" horiz-adv-x="212" 
d="M64 838h84v-74h-84v74zM65 710h81v-347h-81v347z" />
    <glyph glyph-name="four.superior" unicode="&#x2074;" horiz-adv-x="412" 
d="M373 449h-66v-86h-75v86h-196v57l178 274h93v-269h66v-62zM108 511h124v187z" />
    <glyph glyph-name="five.superior" unicode="&#x2075;" horiz-adv-x="373" 
d="M305 717h-166l-7 -100q20 3 44 3q73 0 112.5 -35t39.5 -93q0 -63 -46 -98t-127 -35q-26 0 -51.5 3.5t-37.5 7.5l-13 3v63h5q50 -17 98 -17q89 0 89 70t-103 70l-76 -5h-4l12 226h231v-63z" />
    <glyph glyph-name="six.superior" unicode="&#x2076;" horiz-adv-x="418" 
d="M373 498q0 -64 -42.5 -103t-117.5 -39q-86 0 -126 53q-32 44 -32 139q0 124 49 180t151 56q23 0 45 -2.5t32 -5.5l11 -2v-63h-5q-40 13 -84 13q-64 0 -90.5 -37t-26.5 -116q21 57 102 57q62 0 98 -35.5t36 -94.5zM215 570q-35 0 -55.5 -20.5t-20.5 -56.5q0 -35 19.5 -57
t55.5 -22q35 0 55 21t20 57t-19 57t-55 21z" />
    <glyph glyph-name="seven.superior" unicode="&#x2077;" horiz-adv-x="351" 
d="M229 717h-200v63h286v-46l-146 -371h-88z" />
    <glyph glyph-name="eight.superior" unicode="&#x2078;" horiz-adv-x="410" 
d="M59 678q0 50 39.5 79.5t107.5 29.5q67 0 106.5 -29t39.5 -77q0 -69 -81 -98q93 -32 93 -111q0 -53 -43.5 -84.5t-117.5 -31.5q-73 0 -115 31t-42 82q0 71 92 106q-79 29 -79 103zM140 676q0 -46 80 -72q50 23 50 71q0 25 -17 40t-47 15q-31 0 -48.5 -15t-17.5 -39z
M129 476q0 -30 20.5 -46.5t54.5 -16.5q36 0 56.5 16.5t20.5 43.5q0 49 -92 79q-60 -25 -60 -76z" />
    <glyph glyph-name="nine.superior" unicode="&#x2079;" horiz-adv-x="418" 
d="M45 645q0 64 42 103t117 39q86 0 126 -53q33 -46 33 -140q0 -124 -49 -179.5t-151 -55.5q-23 0 -45 2.5t-32 4.5l-11 3v63h4q41 -13 85 -13q64 0 90.5 37t26.5 116q-23 -57 -102 -57q-62 0 -98 35.5t-36 94.5zM202 573q35 0 55.5 20.5t20.5 56.5q0 35 -19 57t-56 22
q-35 0 -55 -21t-20 -57t19 -57t55 -21z" />
    <glyph glyph-name="plus.superior" unicode="&#x207a;" horiz-adv-x="473" 
d="M272 372h-71v139h-139v61h139v138h71v-138h139v-61h-139v-139z" />
    <glyph glyph-name="minus.superior" unicode="&#x207b;" horiz-adv-x="473" 
d="M411 511h-349v61h349v-61z" />
    <glyph glyph-name="equal.superior" unicode="&#x207c;" horiz-adv-x="473" 
d="M394 448h-315v58h315v-58zM394 577h-315v57h315v-57z" />
    <glyph glyph-name="parenleft.superior" unicode="&#x207d;" horiz-adv-x="259" 
d="M156 855h60q-4 -4 -9.5 -12.5t-20.5 -37t-26.5 -60t-21 -81.5t-9.5 -103t9 -103t21.5 -83t25.5 -59t22 -38l9 -12h-60q-4 5 -11.5 13.5t-25.5 38t-32 61.5t-25.5 81.5t-11.5 100.5t11 100t26.5 82.5t31 60t26.5 38.5z" />
    <glyph glyph-name="parenright.superior" unicode="&#x207e;" horiz-adv-x="259" 
d="M103 266h-60q4 4 9.5 12.5t21 37t27 60t21 82t9.5 103.5t-9 102.5t-22 82.5t-26 59t-22 38l-9 12h60q4 -5 11.5 -13.5t25.5 -37.5t32 -61t25.5 -81.5t11.5 -100.5t-11 -100t-26.5 -83t-31 -60.5t-26.5 -39.5z" />
    <glyph glyph-name="n.superior" unicode="&#x207f;" horiz-adv-x="441" 
d="M66 710h63l15 -59q20 67 108 67q73 0 106 -46q21 -29 21 -105v-204h-82v206q0 40 -12 57q-19 26 -61 26q-76 0 -76 -77v-212h-82v347z" />
    <glyph glyph-name="zero.inferior" unicode="&#x2080;" horiz-adv-x="441" 
d="M386 10q0 -217 -166 -217q-165 0 -165 214q0 217 167 217q164 0 164 -214zM300 8q0 84 -19 120.5t-61 36.5t-60.5 -36.5t-18.5 -120.5t18.5 -120t60.5 -36t61 36.5t19 119.5z" />
    <glyph glyph-name="one.inferior" unicode="&#x2081;" horiz-adv-x="278" 
d="M210 -200h-81v346l-92 -29h-5v62l123 38h55v-417z" />
    <glyph glyph-name="two.inferior" unicode="&#x2082;" horiz-adv-x="371" 
d="M324 -136v-64h-279v55q16 15 45 43t41.5 40.5t33 34t29.5 34t19.5 29t14.5 30.5t4 29q0 66 -82 66q-20 0 -43.5 -4t-36.5 -8l-13 -4h-5v62q50 14 109 14q78 0 117.5 -31t39.5 -85q0 -22 -8 -44.5t-18.5 -40t-31 -40t-36 -37t-43.5 -39.5t-43 -40h186z" />
    <glyph glyph-name="three.inferior" unicode="&#x2083;" horiz-adv-x="368" 
d="M85 -15v62h43q45 0 67 12q29 15 29 47q0 55 -77 55q-20 0 -43 -3.5t-36 -7.5l-13 -4h-4v62q46 13 104 13q74 0 114 -28t40 -76q0 -38 -23 -63.5t-64 -33.5q43 -6 70 -32.5t27 -69.5q0 -56 -47 -89t-129 -33q-25 0 -49.5 3t-35.5 7l-12 3v62h5q45 -15 91 -15q44 0 68 17
t24 48q0 34 -32 52q-22 12 -74 12h-43z" />
    <glyph glyph-name="four.inferior" unicode="&#x2084;" horiz-adv-x="412" 
d="M373 -114h-66v-86h-75v86h-196v57l178 274h93v-269h66v-62zM108 -52h124v187z" />
    <glyph glyph-name="five.inferior" unicode="&#x2085;" horiz-adv-x="373" 
d="M305 154h-166l-7 -100q20 3 44 3q73 0 112.5 -35t39.5 -93q0 -63 -46 -98t-127 -35q-26 0 -51.5 3.5t-37.5 6.5l-13 4v63h5q50 -17 98 -17q89 0 89 70t-103 70l-76 -5h-4l12 226h231v-63z" />
    <glyph glyph-name="six.inferior" unicode="&#x2086;" horiz-adv-x="418" 
d="M373 -65q0 -64 -42.5 -103t-117.5 -39q-86 0 -126 53q-32 44 -32 139q0 124 49 180t151 56q23 0 45 -2.5t32 -4.5l11 -3v-63h-5q-40 13 -84 13q-64 0 -90.5 -37t-26.5 -116q21 57 102 57q62 0 98 -35.5t36 -94.5zM215 7q-35 0 -55.5 -20.5t-20.5 -56.5q0 -35 19.5 -57
t55.5 -22q35 0 55 21t20 57t-19 57t-55 21z" />
    <glyph glyph-name="seven.inferior" unicode="&#x2087;" horiz-adv-x="351" 
d="M229 154h-200v63h286v-46l-146 -371h-88z" />
    <glyph glyph-name="eight.inferior" unicode="&#x2088;" horiz-adv-x="410" 
d="M59 115q0 50 39.5 79.5t107.5 29.5q67 0 106.5 -29t39.5 -77q0 -69 -81 -98q93 -32 93 -111q0 -53 -43.5 -84.5t-117.5 -31.5q-73 0 -115 31t-42 82q0 71 92 106q-79 29 -79 103zM140 113q0 -46 80 -72q50 23 50 71q0 25 -17 40t-47 15q-31 0 -48.5 -15t-17.5 -39z
M129 -87q0 -30 20.5 -46.5t54.5 -16.5q36 0 56.5 16.5t20.5 43.5q0 49 -92 79q-60 -25 -60 -76z" />
    <glyph glyph-name="nine.inferior" unicode="&#x2089;" horiz-adv-x="418" 
d="M45 82q0 64 42 103t117 39q86 0 126 -53q33 -46 33 -140q0 -124 -49 -179.5t-151 -55.5q-23 0 -45 2.5t-32 5.5l-11 2v63h4q41 -13 85 -13q64 0 90.5 37t26.5 116q-23 -57 -102 -57q-62 0 -98 35.5t-36 94.5zM202 10q35 0 55.5 20.5t20.5 56.5q0 35 -19 57t-56 22
q-35 0 -55 -21t-20 -57t19 -57t55 -21z" />
    <glyph glyph-name="parenleft.inferior" unicode="&#x208d;" horiz-adv-x="259" 
d="M156 292h60q-4 -4 -9.5 -12.5t-20.5 -37t-26.5 -60t-21 -81.5t-9.5 -103t9 -103t21.5 -83t25.5 -59t22 -38l9 -12h-60q-4 5 -11.5 13.5t-25.5 38t-32 61.5t-25.5 81.5t-11.5 100.5t11 100t26.5 82.5t31 60t26.5 39.5z" />
    <glyph glyph-name="parenright.inferior" unicode="&#x208e;" horiz-adv-x="259" 
d="M103 -297h-60q4 4 9.5 12.5t21 37t27 60t21 82t9.5 103.5t-9 102.5t-22 82.5t-26 59t-22 38l-9 12h60q4 -5 11.5 -13.5t25.5 -37.5t32 -61t25.5 -81.5t11.5 -100.5t-11 -100t-26.5 -83t-31 -60.5t-26.5 -38.5z" />
    <glyph glyph-name="rupee" unicode="&#x20a8;" horiz-adv-x="562" 
d="M512 446h-121q-8 -74 -62 -117t-149 -45l247 -284h-117l-236 280v60h54q81 0 121 25q44 27 53 81h-228v62h227q-9 55 -52 81q-40 25 -121 25h-54v74h438v-74h-195q27 -9 47 -36.5t26 -69.5h122v-62z" />
    <glyph glyph-name="Euro" unicode="&#x20ac;" horiz-adv-x="664" 
d="M483 227h-245q24 -75 77.5 -118.5t136.5 -43.5q33 0 67 7t52 14l18 7h7v-77q-60 -23 -147 -23q-130 0 -208 63.5t-105 170.5h-92v71h81q-2 15 -2 46t2 46h-81v71h92q27 107 105.5 170.5t207.5 63.5q39 0 75.5 -5.5t53.5 -11.5l18 -6v-77h-7q-63 28 -138 28
q-85 0 -138.5 -43.5t-76.5 -118.5h303l-17 -71h-299q-2 -14 -2 -42q0 -34 2 -50h276z" />
    <glyph glyph-name="uni20BA" unicode="&#x20ba;" horiz-adv-x="643" 
d="M361 318l-134 -49v-196q288 0 288 276h81q0 -228 -169 -309q-83 -40 -219 -40h-77v234l-87 -31v65l87 31v77l-87 -31v65l87 31v247h96v-212l134 49v-65l-134 -49v-77l134 49v-65z" />
    <glyph glyph-name="numero" unicode="&#x2116;" horiz-adv-x="1045" 
d="M98 688h99l307 -534v534h87v-688h-90l-316 542v-542h-87v688zM1007 516q0 -90 -43 -137t-125 -47q-83 0 -126 47t-43 137t43 137t125 47q83 0 126 -47t43 -137zM838 390q90 0 90 126t-89 126q-90 0 -90 -126t89 -126z" />
    <glyph glyph-name="trademark" unicode="&#x2122;" horiz-adv-x="787" 
d="M23 752h261v-58h-95v-262h-71v262h-95v58zM351 752h97l96 -224l96 224h96v-320h-69v248l-97 -227h-60l-97 227v-248h-62v320z" />
    <glyph glyph-name="onethird" unicode="&#x2153;" horiz-adv-x="949" 
d="M247 334h-82v376l-121 -43h-8v62l154 51h57v-446zM820 772l-360 -449l-319 -415h-89v8l360 449l319 415h89v-8zM635 109v60h54q109 0 109 67q0 63 -90 63q-23 0 -47.5 -4t-37.5 -8l-13 -4h-8v62q50 15 113 15q81 0 124 -30.5t43 -82.5q0 -40 -25.5 -67.5t-72.5 -36.5
q48 -6 78 -35.5t30 -74.5q0 -59 -50.5 -95t-137.5 -36q-28 0 -56 4t-42 8l-15 3v61h8q53 -15 103 -15t78 19t28 54q0 73 -119 73h-54z" />
    <glyph glyph-name="twothirds" unicode="&#x2154;" horiz-adv-x="1021" 
d="M344 396v-62h-302v54q17 16 50 47t47 44.5t37.5 37t33.5 37t22 32t16.5 34.5t4.5 32q0 72 -95 72q-23 0 -48 -4t-38 -8l-14 -5h-8v63q54 16 119 16q84 0 125.5 -34t41.5 -91q0 -29 -9.5 -55.5t-34 -56t-42 -47t-58.5 -54t-58 -52.5h210zM892 772l-360 -449l-319 -415h-89
v8l360 449l319 415h89v-8zM707 109v60h54q109 0 109 67q0 63 -90 63q-23 0 -47.5 -4t-37.5 -8l-13 -4h-8v62q50 15 113 15q81 0 124 -30.5t43 -82.5q0 -40 -25.5 -67.5t-72.5 -36.5q48 -6 78 -35.5t30 -74.5q0 -59 -50.5 -95t-137.5 -36q-28 0 -56 4t-42 8l-15 3v61h8
q53 -15 103 -15t78 19t28 54q0 73 -119 73h-54z" />
    <glyph glyph-name="oneeighth" unicode="&#x215b;" horiz-adv-x="965" 
d="M247 334h-82v376l-121 -43h-8v62l154 51h57v-446zM820 772l-360 -449l-319 -415h-89v8l360 449l319 415h89v-8zM581 247q0 53 43.5 83t115.5 30q70 0 113.5 -28t43.5 -80q0 -76 -91 -109q48 -16 76.5 -46.5t28.5 -73.5q0 -56 -48.5 -88.5t-127.5 -32.5q-76 0 -122.5 30.5
t-46.5 84.5q0 82 107 118q-42 15 -67 43.5t-25 68.5zM660 247q0 -60 92 -85q66 28 66 83q0 29 -21 45t-59 16t-58 -16t-20 -43zM645 25q0 -33 25 -51t69 -18q43 0 68 17.5t25 48.5q0 58 -110 92q-77 -30 -77 -89z" />
    <glyph glyph-name="threeeighths" unicode="&#x215c;" horiz-adv-x="1017" 
d="M97 535v60h54q109 0 109 67q0 63 -90 63q-23 0 -48 -4t-38 -8l-14 -4h-8v62q52 15 115 15q81 0 124 -30.5t43 -82.5q0 -40 -26 -67.5t-73 -36.5q49 -6 79 -35.5t30 -74.5q0 -59 -50.5 -95t-137.5 -36q-28 0 -55.5 4t-40.5 8l-13 3v61h8q49 -15 99 -15t78 19t28 54
q0 73 -119 73h-54zM872 772l-360 -449l-319 -415h-89v8l360 449l319 415h89v-8zM633 247q0 53 43.5 83t115.5 30q70 0 113.5 -28t43.5 -80q0 -76 -91 -109q48 -16 76.5 -46.5t28.5 -73.5q0 -56 -48.5 -88.5t-127.5 -32.5q-76 0 -122.5 30.5t-46.5 84.5q0 82 107 118
q-42 15 -67 43.5t-25 68.5zM712 247q0 -60 92 -85q66 28 66 83q0 29 -21 45t-59 16t-58 -16t-20 -43zM697 25q0 -33 25 -51t69 -18q43 0 68 17.5t25 48.5q0 58 -110 92q-77 -30 -77 -89z" />
    <glyph glyph-name="fiveeighths" unicode="&#x215d;" horiz-adv-x="1024" 
d="M338 717h-183l-9 -113q24 3 49 3q81 0 124 -37.5t43 -98.5q0 -67 -49 -105t-135 -38q-27 0 -55 4t-42 8l-14 3v63h8q51 -17 103 -17q51 0 77.5 21.5t26.5 58.5q0 78 -122 78l-75 -4h-8l14 237h247v-63zM879 772l-360 -449l-319 -415h-89v8l360 449l319 415h89v-8z
M640 247q0 53 43.5 83t115.5 30q70 0 113.5 -28t43.5 -80q0 -76 -91 -109q48 -16 76.5 -46.5t28.5 -73.5q0 -56 -48.5 -88.5t-127.5 -32.5q-76 0 -122.5 30.5t-46.5 84.5q0 82 107 118q-42 15 -67 43.5t-25 68.5zM719 247q0 -60 92 -85q66 28 66 83q0 29 -21 45t-59 16
t-58 -16t-20 -43zM704 25q0 -33 25 -51t69 -18q43 0 68 17.5t25 48.5q0 58 -110 92q-77 -30 -77 -89z" />
    <glyph glyph-name="seveneighths" unicode="&#x215e;" horiz-adv-x="946" 
d="M259 717h-225v63h309v-45l-163 -401h-86zM801 772l-360 -449l-319 -415h-89v8l360 449l319 415h89v-8zM562 247q0 53 43.5 83t115.5 30q70 0 113.5 -28t43.5 -80q0 -76 -91 -109q48 -16 76.5 -46.5t28.5 -73.5q0 -56 -48.5 -88.5t-127.5 -32.5q-76 0 -122.5 30.5
t-46.5 84.5q0 82 107 118q-42 15 -67 43.5t-25 68.5zM641 247q0 -60 92 -85q66 28 66 83q0 29 -21 45t-59 16t-58 -16t-20 -43zM626 25q0 -33 25 -51t69 -18q43 0 68 17.5t25 48.5q0 58 -110 92q-77 -30 -77 -89z" />
    <glyph glyph-name="arrowleft" unicode="&#x2190;" horiz-adv-x="1000" 
d="M84 342l324 346h110l-297 -308l717 5v-82l-717 5l299 -308h-114z" />
    <glyph glyph-name="arrowup" unicode="&#x2191;" horiz-adv-x="1000" 
d="M502 820l357 -344v-100h-8l-311 306l3 -682h-87l4 682l-312 -304h-8v96z" />
    <glyph glyph-name="arrowright" unicode="&#x2192;" horiz-adv-x="1000" 
d="M916 346l-324 -346h-110l296 308l-716 -5v82l716 -5l-298 308h114z" />
    <glyph glyph-name="arrowdown" unicode="&#x2193;" horiz-adv-x="1000" 
d="M498 -68l-358 343v101h8l312 -307l-4 683h87l-3 -683l311 305h8v-97z" />
    <glyph glyph-name="arrownorthwest" unicode="&#x2196;" horiz-adv-x="1000" 
d="M200 169v519h518l70 -68v-8l-462 7l571 -571l-61 -61l-565 577l7 -467h-8z" />
    <glyph glyph-name="arrownortheast" unicode="&#x2197;" horiz-adv-x="1000" 
d="M800 688v-519l-70 -72h-8l7 467l-566 -577l-61 61l572 571l-463 -7v8l70 68h519z" />
    <glyph glyph-name="arrowsoutheast" unicode="&#x2198;" horiz-adv-x="1000" 
d="M800 518v-518h-519l-70 67v8l463 -7l-572 571l61 61l566 -577l-7 468h8z" />
    <glyph glyph-name="arrowsouthwest" unicode="&#x2199;" horiz-adv-x="1000" 
d="M200 0v518l70 73h8l-7 -468l565 577l61 -61l-571 -571l462 7v-8l-70 -67h-518z" />
    <glyph glyph-name="minus" unicode="&#x2212;" horiz-adv-x="680" 
d="M596 244h-512v75h512v-75z" />
    <glyph glyph-name="radical" unicode="&#x221a;" horiz-adv-x="633" 
d="M62 347h184l83 -244l197 677h80l-236 -780h-90l-97 275h-121v72z" />
    <glyph glyph-name="infinity" unicode="&#x221e;" horiz-adv-x="898" 
d="M654 71q-134 0 -208 149q-69 -149 -202 -149q-86 0 -137.5 59t-51.5 153q0 93 51 151.5t138 58.5q132 0 207 -149q69 149 203 149q86 0 137.5 -59t51.5 -152q0 -94 -51 -152.5t-138 -58.5zM252 142q53 0 87.5 37t66.5 104q-31 67 -66 103t-87 36q-53 0 -83 -37.5
t-30 -101.5q0 -65 30 -103t82 -38zM645 422q-52 0 -87 -37t-67 -104q32 -68 66.5 -103.5t87.5 -35.5t83 37.5t30 101.5q0 65 -30.5 103t-82.5 38z" />
    <glyph glyph-name="integral" unicode="&#x222b;" horiz-adv-x="380" 
d="M380 828h-8q-32 8 -62 8q-58 0 -81 -39q-14 -25 -14 -95v-703q0 -79 -10 -108q-5 -14 -13 -27q-44 -72 -167 -72q-18 0 -35.5 1.5t-26.5 2.5l-9 2v74h8q32 -8 63 -8q58 0 80 38q15 26 15 96v702v19v19.5t0.5 16.5t1 17.5t2.5 15.5t4 16.5t5.5 15t8.5 15.5q45 73 167 73
q18 0 35.5 -1.5t26.5 -2.5l9 -2v-74z" />
    <glyph glyph-name="approxequal" unicode="&#x2248;" horiz-adv-x="680" 
d="M573 255v-71q-6 -6 -17 -14t-46.5 -22t-72.5 -14q-46 0 -108.5 27t-92.5 27q-29 0 -59 -13.5t-46 -26.5l-16 -14h-8v70q6 6 18 14.5t46.5 22.5t68.5 14q40 0 103.5 -26.5t97.5 -26.5q31 0 62 13t47 27l15 13h8zM573 429v-70q-7 -6 -18.5 -14.5t-46.5 -22.5t-68 -14
q-40 0 -103.5 26.5t-98.5 26.5q-30 0 -61 -13.5t-47 -26.5l-15 -13h-8v71q6 6 17 14t46.5 22t72.5 14q46 0 109 -27t93 -27q28 0 58 13.5t46 27.5l16 13h8z" />
    <glyph glyph-name="notequal" unicode="&#x2260;" horiz-adv-x="680" 
d="M317 37h-64l26 116h-178v68h194l27 121h-221v68h237l25 116h64l-26 -116h178v-68h-194l-27 -121h221v-68h-237z" />
    <glyph glyph-name="lessequal" unicode="&#x2264;" horiz-adv-x="680" 
d="M539 526v-75l-328 -122l328 -125v-76l-406 158v82zM539 0h-406v66h406v-66z" />
    <glyph glyph-name="greaterequal" unicode="&#x2265;" horiz-adv-x="680" 
d="M141 128v76l328 121l-328 126v75l406 -158v-82zM141 66h406v-66h-406v66z" />
    <glyph glyph-name="a" horiz-adv-x="554" 
d="M94 450v78q71 23 164 23q135 0 182 -67q15 -21 22.5 -52t8.5 -53.5t1 -64.5v-314h-71l-21 93q-9 -44 -47.5 -74.5t-107.5 -30.5q-79 0 -128.5 42t-49.5 117q0 94 82 136q31 16 74.5 23.5t76.5 8.5t97 1q0 87 -18 117q-28 45 -112 45q-34 0 -70.5 -7t-55.5 -14l-19 -7h-8z
M147 149q0 -40 25.5 -63.5t71.5 -23.5q81 0 113 62q20 39 20 116v12q-79 0 -117.5 -4t-66.5 -19q-46 -26 -46 -80z" />
    <glyph glyph-name="g" horiz-adv-x="634" 
d="M545 543v-477q0 -47 -1.5 -71t-10.5 -57.5t-27 -57.5q-66 -88 -231 -88q-48 0 -93.5 7.5t-66.5 14.5l-21 8v83h8q86 -40 178 -40q109 0 149 65q15 24 18.5 52.5t3.5 85.5v41q-16 -49 -59 -76t-107 -27q-106 0 -168 72t-62 200q0 130 63.5 203.5t175.5 73.5q125 0 163 -94
l32 82h56zM305 78q148 0 148 202q0 93 -35.5 148t-112.5 55t-112.5 -55t-35.5 -148q0 -202 148 -202z" />
    <glyph glyph-name="i" horiz-adv-x="273" 
d="M86 752h101v-97h-101v97zM89 543h95v-543h-95v543z" />
    <glyph glyph-name="j" horiz-adv-x="278" 
d="M-41 -196v72h8q21 -4 41 -4q51 0 72 36q14 25 14 87v548h95v-545q0 -85 -22 -125q-41 -73 -155 -73zM91 752h101v-97h-101v97z" />
    <glyph glyph-name="k" horiz-adv-x="566" 
d="M89 780h95v-485l229 248h108l-212 -224l222 -319h-112l-173 256l-62 -61v-195h-95v780z" />
    <glyph glyph-name="y" horiz-adv-x="591" 
d="M548 543l-291 -743h-96l89 213l-208 530h110l150 -419l156 419h90z" />
    <glyph glyph-name="K" horiz-adv-x="665" 
d="M98 752h96v-358l327 358h107l-292 -316l302 -436h-116l-251 369l-77 -78v-291h-96v752z" />
    <glyph glyph-name="cent.gap" horiz-adv-x="487" 
d="M332 -64h-84l5 111q-95 17 -146.5 86t-51.5 179q0 111 53.5 180.5t152.5 85.5v110h83l-5 -107q26 -1 50.5 -6t36.5 -9l11 -4v-74h-9q-52 23 -111 23q-80 0 -124 -52t-44 -146t44 -147t124 -53q26 0 54 5.5t43 11.5l14 6h9v-74q-44 -17 -105 -20v-106z" />
    <glyph glyph-name="cent.smcp" horiz-adv-x="448" 
d="M277 -6h-69l11 92q-77 15 -120.5 67.5t-43.5 136.5q0 93 53.5 147.5t145.5 62.5l7 88h69l-11 -89l78 -13v-68h-6q-38 11 -79 15l-24 -286q22 0 48 4.5t40 8.5l15 4h6v-68q-54 -15 -114 -15zM138 293q0 -109 88 -138l23 277q-54 -8 -82.5 -44.5t-28.5 -94.5z" />
    <glyph glyph-name="cent.gap.smcp" horiz-adv-x="417" 
d="M285 -6h-80l4 92q-74 14 -114 67t-40 137q0 86 41.5 140t118.5 67v91h80l-5 -88q20 -1 39.5 -4.5t28.5 -6.5l9 -3v-70h-8q-42 17 -88 17q-61 0 -93.5 -37t-32.5 -104q0 -68 33 -105.5t93 -37.5q20 0 42 4.5t34 8.5l12 4h8v-70q-34 -12 -82 -15v-87z" />
    <glyph glyph-name="dollar.gap" horiz-adv-x="540" 
d="M297 -64h-83l5 88q-40 1 -79 8.5t-58 13.5l-18 7v78h8q86 -37 176 -37q67 0 103 26t36 72q0 42 -33.5 70.5t-80.5 46t-94.5 37t-81 57t-33.5 93.5q0 68 46 110.5t129 53.5v92h83l-5 -89q34 -1 68.5 -7t52.5 -11l17 -5v-75h-9q-77 29 -157 29q-62 0 -95.5 -23t-33.5 -62
q0 -38 33.5 -64t80.5 -43t94.5 -37.5t81 -61t33.5 -100.5q0 -77 -50.5 -121t-135.5 -55v-91z" />
    <glyph glyph-name="dollar.pl" horiz-adv-x="613" 
d="M307 -64h-76l12 99q-46 3 -89.5 11t-63.5 14l-21 7v79h9q71 -31 172 -39l22 253q-40 13 -63 21.5t-55.5 25.5t-49.5 34.5t-30 45t-13 61.5q0 81 65.5 124.5t178.5 45.5l8 98h76l-12 -101q38 -3 75.5 -10t55.5 -12l18 -5v-76h-9q-60 25 -148 33l-20 -227
q47 -15 77.5 -28.5t64 -36.5t50 -56.5t16.5 -78.5q0 -89 -65.5 -133.5t-177.5 -49.5zM467 206q0 49 -33 78.5t-94 52.5l-20 -232q147 6 147 101zM151 556q0 -44 33.5 -69.5t97.5 -46.5l18 208q-149 -5 -149 -92z" />
    <glyph glyph-name="dollar.gap.pl" horiz-adv-x="575" 
d="M314 -64h-84l5 98q-45 1 -88 9.5t-63 16.5l-20 7v81h8q91 -41 193 -41q75 0 115 28.5t40 79.5q0 40 -26.5 69t-66 43t-85.5 31.5t-85.5 35.5t-66 55t-26.5 88q0 73 50.5 120t141.5 58v101h84l-5 -99q38 -1 76 -7.5t57 -11.5l20 -6v-78h-8q-84 31 -172 31
q-71 0 -108.5 -25.5t-37.5 -69.5q0 -42 36.5 -69.5t89 -44.5t105 -38t89 -64t36.5 -108q0 -83 -55.5 -130t-148.5 -59v-101z" />
    <glyph glyph-name="period" horiz-adv-x="252" 
d="M76 102h104v-102h-104v102z" />
    <glyph glyph-name="colon" horiz-adv-x="268" 
d="M82 100h104v-100h-104v100zM82 535h104v-100h-104v100z" />
    <glyph glyph-name="semicolon" horiz-adv-x="268" 
d="M82 535h104v-100h-104v100zM88 102h98l-75 -259h-69z" />
    <glyph glyph-name="question" horiz-adv-x="526" 
d="M62 655v77q72 28 174 28q122 0 183 -50t61 -135q0 -33 -8.5 -61t-26 -51t-32 -37.5t-39.5 -35.5t-35 -30q-26 -25 -38.5 -52t-14.5 -46t-2 -58h-89q0 46 2.5 70t20 60.5t53.5 69.5q4 4 28 24.5t32.5 30t24 29t21.5 39t6 42.5q0 56 -40.5 86.5t-115.5 30.5q-38 0 -77.5 -8
t-59.5 -16l-20 -7h-8zM188 99h103v-99h-103v99z" />
    <glyph glyph-name="exclam" horiz-adv-x="319" 
d="M115 99h103v-99h-103v99zM115 752h103l-11 -548h-81z" />
    <glyph glyph-name="questiondown" horiz-adv-x="450" 
d="M418 -103v-77q-72 -28 -174 -28q-122 0 -183 50t-61 135q0 32 8.5 59.5t26 50t32 37t39.5 35t35 30.5q26 25 38.5 51.5t14.5 44.5t2 54h89q0 -43 -2.5 -66t-20 -59t-53.5 -69q-6 -5 -28.5 -24.5t-32 -29.5t-24.5 -28.5t-21 -38t-6 -41.5q0 -56 40.5 -86.5t115.5 -30.5
q38 0 77.5 8t59.5 16l20 7h8zM292 444h-103v99h103v-99z" />
    <glyph glyph-name="exclamdown" horiz-adv-x="299" 
d="M192 444h-103v99h103v-99zM192 -200h-103l11 539h81z" />
    <glyph glyph-name="questiondown.uc" horiz-adv-x="512" 
d="M465 97v-77q-72 -28 -174 -28q-122 0 -183 50t-61 135q0 33 8.5 61t26 51t32 37.5t39.5 35.5t35 30q26 25 38.5 52t14.5 46t2 58h89q0 -46 -2.5 -70t-20 -60.5t-53.5 -69.5q-4 -4 -28 -24.5t-32.5 -30t-24 -29t-21.5 -39t-6 -42.5q0 -56 40.5 -86.5t115.5 -30.5
q38 0 77.5 8t59.5 16l20 7h8zM339 653h-103v99h103v-99z" />
    <glyph glyph-name="questiondown.round.uc" horiz-adv-x="512" 
d="M288 641q-28 0 -44 16.5t-16 41.5q0 26 16 42t44 16t43.5 -16t15.5 -42q0 -25 -15.5 -41.5t-43.5 -16.5zM465 97v-77q-72 -28 -174 -28q-122 0 -183 50t-61 135q0 33 8.5 61t26 51t32 37.5t39.5 35.5t35 30q26 25 38.5 52t14.5 46t2 58h89q0 -46 -2.5 -70t-20 -60.5
t-53.5 -69.5q-4 -4 -28 -24.5t-32.5 -30t-24 -29t-21.5 -39t-6 -42.5q0 -56 40.5 -86.5t115.5 -30.5q38 0 77.5 8t59.5 16l20 7h8z" />
    <glyph glyph-name="exclamdown.uc" horiz-adv-x="319" 
d="M204 653h-103v99h103v-99zM204 0h-103l11 548h81z" />
    <glyph glyph-name="exclamdown.round.uc" horiz-adv-x="319" 
d="M204 0h-103l11 548h81zM153 641q-28 0 -44 16.5t-16 41.5q0 26 16 42t44 16t43.5 -16t15.5 -42q0 -25 -15.5 -41.5t-43.5 -16.5z" />
    <glyph glyph-name="multiply.full" horiz-adv-x="844" 
d="M765 51l-60 -56l-283 295l-286 -295l-58 55l288 295l-287 292l60 56l283 -295l286 295l58 -55l-288 -295z" />
    <glyph glyph-name="parenleft.case" horiz-adv-x="351" 
d="M223 780h73q-6 -5 -15 -15.5t-32.5 -49.5t-41.5 -85t-32.5 -123t-14.5 -163t14 -162.5t34 -124t40 -83.5t34 -51l14 -15h-73l-17 17t-38 51.5t-48 86.5t-38 122t-17 159t16.5 158t39.5 123.5t46 85t39 53.5z" />
    <glyph glyph-name="parenright.case" horiz-adv-x="351" 
d="M128 -92h-73q6 5 15 15.5t32.5 49.5t41.5 85t32.5 123t14.5 163t-14 162.5t-34 124t-40 83.5t-34 51l-14 15h73l17 -17t38 -51.5t48 -86.5t38 -122t17 -159t-16.5 -158t-39.5 -123.5t-46 -85t-40 -53.5z" />
    <glyph glyph-name="bracketleft.case" horiz-adv-x="389" 
d="M98 780h234v-72h-147v-728h147v-72h-234v872z" />
    <glyph glyph-name="bracketright.case" horiz-adv-x="392" 
d="M294 -92h-234v72h147v728h-147v72h234v-872z" />
    <glyph glyph-name="braceleft.case" horiz-adv-x="388" 
d="M331 780v-72q-60 0 -88 -15.5t-28 -69.5v-172q0 -16 -0.5 -25t-4.5 -24t-11 -24.5t-21.5 -19t-35.5 -14.5q21 -5 35.5 -14.5t21.5 -19t11 -24.5t4.5 -24t0.5 -25v-172q0 -54 28 -69.5t88 -15.5v-72q-40 0 -61 1.5t-51.5 10t-50.5 26.5q-19 17 -28 42t-10.5 41t-1.5 44
v169q0 42 -21 54t-68 12v72q47 0 68 12t21 54v169q0 28 1.5 44t10.5 41t28 42q20 18 50.5 26.5t51.5 10t61 1.5z" />
    <glyph glyph-name="braceright.case" horiz-adv-x="388" 
d="M57 -92v72q60 0 88 15.5t28 69.5v172q0 16 0.5 25t4.5 24t11 24.5t21.5 19t35.5 14.5q-21 5 -35.5 14.5t-21.5 19t-11 24.5t-4.5 24t-0.5 25v172q0 54 -28 69.5t-88 15.5v72q40 0 61 -1.5t51.5 -10t50.5 -26.5q19 -17 28 -42t10.5 -41t1.5 -44v-169q0 -42 21 -54t68 -12
v-72q-47 0 -68 -12t-21 -54v-169q0 -28 -1.5 -44t-10.5 -41t-28 -42q-20 -18 -50.5 -26.5t-51.5 -10t-61 -1.5z" />
    <glyph glyph-name="periodcentered" horiz-adv-x="147" 
d="M23 328h101v-102h-101v102z" />
    <glyph glyph-name="divide" horiz-adv-x="680" 
d="M596 245h-512v73h512v-73zM288 543h104v-94h-104v94zM392 20h-104v94h104v-94z" />
    <glyph glyph-name="arrowright.long" horiz-adv-x="1400" 
d="M1316 346l-324 -346h-110l296 308l-1116 -5v82l1116 -5l-298 308h114z" />
    <glyph glyph-name="arrowleft.long" horiz-adv-x="1400" 
d="M84 342l324 346h110l-297 -308l1117 5v-82l-1117 5l299 -308h-114z" />
    <glyph glyph-name="bullet" horiz-adv-x="267" 
d="M47 387h147v-147h-147v147z" />
    <glyph glyph-name="ellipsis" horiz-adv-x="877" 
d="M115 98h97v-98h-97v98zM390 98h97v-98h-97v98zM665 98h97v-98h-97v98z" />
    <glyph glyph-name="commaaccent" 
d="M253 -88h93l-60 -120h-69z" />
    <glyph glyph-name="dieresis.round" 
d="M202 741q25 0 39.5 -15t14.5 -38t-14.5 -38t-39.5 -15q-26 0 -40.5 15t-14.5 38t14.5 38t40.5 15zM399 741q25 0 39.5 -15t14.5 -38t-14.5 -38t-39.5 -15q-26 0 -40.5 15t-14.5 38t14.5 38t40.5 15z" />
    <glyph glyph-name="dieresis.narrow" 
d="M167 735h87v-95h-87v95zM346 735h87v-95h-87v95z" />
    <glyph glyph-name="dieresis.narrow.round" 
d="M210 741q25 0 39.5 -15t14.5 -38t-14.5 -38t-39.5 -15t-39.5 15t-14.5 38t14.5 38t39.5 15zM390 741q25 0 39.5 -15t14.5 -38t-14.5 -38t-39.5 -15t-39.5 15t-14.5 38t14.5 38t39.5 15z" />
    <glyph glyph-name="dotaccent.round" 
d="M300 759q28 0 43.5 -16t15.5 -41t-15.5 -40.5t-43.5 -15.5t-44 15.5t-16 40.5t16 41t44 16z" />
    <glyph glyph-name="macron.narrow" 
d="M183 704h234v-62h-234v62z" />
    <glyph glyph-name="ring.low" 
d="M185 682q0 44 31.5 71.5t83.5 27.5t83.5 -27.5t31.5 -71.5t-31.5 -71.5t-83.5 -27.5t-83.5 27.5t-31.5 71.5zM246 682q0 -24 14.5 -38.5t39.5 -14.5t39.5 14.5t14.5 38.5t-14.5 38.5t-39.5 14.5t-39.5 -14.5t-14.5 -38.5z" />
    <glyph glyph-name="dieresis.case" 
d="M139 931h95v-92h-95v92zM366 931h95v-92h-95v92z" />
    <glyph glyph-name="dieresis.round.case" 
d="M194 939q26 0 40.5 -15t14.5 -39q0 -23 -15 -38.5t-40 -15.5t-40 15.5t-15 38.5q0 24 14.5 39t40.5 15zM406 939q26 0 40.5 -15t14.5 -39q0 -23 -15 -38.5t-40 -15.5t-40 15.5t-15 38.5q0 24 14.5 39t40.5 15z" />
    <glyph glyph-name="dieresis.narrow.case" 
d="M160 931h91v-92h-91v92zM349 931h91v-92h-91v92z" />
    <glyph glyph-name="dieresis.narrow.round.case" 
d="M208 939q26 0 40.5 -15t14.5 -39q0 -23 -15 -38.5t-40 -15.5t-40 15.5t-15 38.5q0 24 14.5 39t40.5 15zM392 939q26 0 40.5 -15t14.5 -39q0 -23 -15 -38.5t-40 -15.5t-40 15.5t-15 38.5q0 24 14.5 39t40.5 15z" />
    <glyph glyph-name="dotaccent.case" 
d="M247 931h106v-92h-106v92z" />
    <glyph glyph-name="dotaccent.round.case" 
d="M300 945q28 0 43.5 -16t15.5 -41t-15.5 -41t-43.5 -16t-44 16t-16 41t16 41t44 16z" />
    <glyph glyph-name="macron.case" 
d="M134 917h332v-65h-332v65z" />
    <glyph glyph-name="macron.narrow.case" 
d="M160 917h280v-65h-280v65z" />
    <glyph glyph-name="grave.case" 
d="M343 839h-84l-153 123h123z" />
    <glyph glyph-name="acute.case" 
d="M340 839h-83l113 123h123z" />
    <glyph glyph-name="hungarumlaut.case" 
d="M420 839h-69l115 123h95zM243 839h-69l106 123h95z" />
    <glyph glyph-name="circumflex.case" 
d="M252 962h95l118 -123h-89l-79 78l-77 -78h-86z" />
    <glyph glyph-name="caron.case" 
d="M347 839h-95l-118 123h90l78 -80l77 80h86z" />
    <glyph glyph-name="breve.case" 
d="M389 962h68q0 -60 -40 -93t-117 -33t-117.5 33t-40.5 93h69q0 -32 23 -49.5t66 -17.5t66 17.5t23 49.5z" />
    <glyph glyph-name="ring.case" 
d="M184 874q0 46 32 73.5t84 27.5t84 -27.5t32 -73.5t-32 -73.5t-84 -27.5t-84 27.5t-32 73.5zM245 874q0 -24 14.5 -38.5t40.5 -14.5t40.5 14.5t14.5 38.5t-14.5 38.5t-40.5 14.5t-40.5 -14.5t-14.5 -38.5z" />
    <glyph glyph-name="ring.low.case" 
d="M175 825q0 51 35.5 82.5t89.5 31.5t89.5 -31.5t35.5 -82.5q0 -50 -34 -78.5t-91 -28.5t-91 28.5t-34 78.5zM238 822q0 -27 17 -44.5t45 -17.5t45 17.5t17 44.5t-17 45t-45 18t-45 -18t-17 -45z" />
    <glyph glyph-name="tilde.case" 
d="M141 839v60q39 39 101 39q31 0 74.5 -17.5t64.5 -17.5q20 0 41.5 8.5t33.5 17.5l12 9h8v-60q-39 -39 -101 -39q-31 0 -74.5 17.5t-64.5 17.5q-20 0 -41.5 -8.5t-33.5 -17.5l-12 -9h-8z" />
    <glyph glyph-name="ring.low.cap" 
d="M175 766q0 50 35.5 81t89.5 31t89.5 -31t35.5 -81q0 -51 -36 -83t-89 -32t-89 32t-36 83zM238 761q0 -27 17 -44.5t45 -17.5t45 17.5t17 44.5t-17 45t-45 18t-45 -18t-17 -45z" />
    <glyph glyph-name="ring.low.smcp" 
d="M178 652q0 51 34.5 81t87.5 30t87.5 -30t34.5 -81q0 -48 -33 -76t-89 -28t-89 28t-33 76zM241 649q0 -26 16 -42.5t43 -16.5t43 16.5t16 42.5q0 27 -16 43.5t-43 16.5t-43 -16.5t-16 -43.5z" />
    <glyph glyph-name="ordfeminine.alt" horiz-adv-x="422" 
d="M74 684v60q47 16 122 16q103 0 136 -45q21 -29 21 -96v-121q0 -15 1.5 -23.5t10.5 -17t27 -8.5l20 1v-58q-25 -4 -50 -4q-40 0 -60 15t-24 50q-10 -31 -40.5 -48.5t-74.5 -17.5q-58 0 -92.5 28.5t-34.5 77.5q0 56 50 86t145 30h41q0 51 -13 68q-20 26 -73 26
q-25 0 -51.5 -4.5t-40.5 -9.5l-14 -5h-6zM119 500q0 -24 17.5 -38t50.5 -14q85 0 85 102v13h-21q-132 0 -132 -63z" />
    <glyph glyph-name="dagger.sups" horiz-adv-x="461" 
d="M268 380h-75v279h-120v61h120v96h75v-96h120v-61h-120v-279z" />
    <glyph glyph-name="daggerdbl.sups" horiz-adv-x="461" 
d="M267 380h-73v94h-109v60h109v126h-109v60h109v96h73v-96h109v-60h-109v-126h109v-60h-109v-94z" />
    <glyph glyph-name="periodcentered.case" horiz-adv-x="147" 
d="M23 395h101v-102h-101v102z" />
    <glyph glyph-name="periodcentered.round.case" horiz-adv-x="146" 
d="M73 404q28 0 44 -17t16 -43t-16 -43t-44 -17t-44 17t-16 43t16 43t44 17z" />
    <glyph glyph-name="hyphen.case" horiz-adv-x="441" 
d="M379 305h-317v77h317v-77z" />
    <glyph glyph-name="softhyphen.case" horiz-adv-x="441" 
d="M379 305h-317v77h317v-77z" />
    <glyph glyph-name="endash.case" horiz-adv-x="672" 
d="M594 308h-516v72h516v-72z" />
    <glyph glyph-name="emdash.case" horiz-adv-x="1052" 
d="M974 308h-896v72h896v-72z" />
    <glyph glyph-name="guilsinglleft.case" horiz-adv-x="349" 
d="M60 343l134 209h95l-140 -207l140 -210h-95z" />
    <glyph glyph-name="guilsinglright.case" horiz-adv-x="349" 
d="M289 343l-134 -208h-95l140 206l-140 211h95z" />
    <glyph glyph-name="guillemotleft.case" horiz-adv-x="568" 
d="M60 343l134 209h95l-140 -207l140 -210h-95zM279 343l134 209h95l-140 -207l140 -210h-95z" />
    <glyph glyph-name="guillemotright.case" horiz-adv-x="568" 
d="M508 343l-134 -208h-95l140 206l-140 211h95zM289 343l-134 -208h-95l140 206l-140 211h95z" />
    <glyph glyph-name="less.case" horiz-adv-x="680" 
d="M538 580v-80l-357 -154l357 -158v-80l-435 195v82z" />
    <glyph glyph-name="greater.case" horiz-adv-x="680" 
d="M142 108v80l357 154l-357 158v80l435 -195v-82z" />
    <glyph glyph-name="plus.case" horiz-adv-x="680" 
d="M381 83h-83v223h-214v75h214v224h83v-224h215v-75h-215v-223z" />
    <glyph glyph-name="minus.case" horiz-adv-x="680" 
d="M596 306h-512v75h512v-75z" />
    <glyph glyph-name="divide.case" horiz-adv-x="680" 
d="M596 307h-512v73h512v-73zM288 605h104v-94h-104v94zM392 83h-104v94h104v-94z" />
    <glyph glyph-name="divide.round.case" horiz-adv-x="680" 
d="M596 307h-512v73h512v-73zM340 610q26 0 41 -15.5t15 -39.5t-15 -39.5t-41 -15.5q-27 0 -42 15.5t-15 39.5t15 39.5t42 15.5zM340 77q-27 0 -42 15.5t-15 39.5t15 39.5t42 15.5q26 0 41 -15.5t15 -39.5t-15 -39.5t-41 -15.5z" />
    <glyph glyph-name="equal.case" horiz-adv-x="680" 
d="M573 214h-466v70h466v-70zM573 404h-466v70h466v-70z" />
    <glyph glyph-name="notequal.case" horiz-adv-x="680" 
d="M317 99h-64l26 117h-178v68h194l27 120h-221v68h237l25 116h64l-27 -116h179v-68h-195l-27 -120h222v-68h-238z" />
    <glyph glyph-name="asciitilde.case" horiz-adv-x="680" 
d="M596 424v-86q-6 -8 -18 -20.5t-51 -33t-80 -20.5q-42 0 -81 21t-73.5 42t-65.5 21q-33 0 -66.5 -21t-50.5 -42l-16 -21h-10v86q2 3 6.5 8t19 18t30.5 22.5t41 17.5t51 8q42 0 81.5 -21t74 -42t65.5 -21q33 0 66 21t50 42l17 21h10z" />
    <glyph glyph-name="approxequal.case" horiz-adv-x="680" 
d="M573 317v-71q-6 -6 -17 -14t-46.5 -22t-72.5 -14q-46 0 -108.5 27t-92.5 27q-29 0 -59 -13.5t-46 -26.5l-16 -14h-8v70q6 6 18 14.5t46.5 22.5t68.5 14q40 0 103.5 -26.5t97.5 -26.5q31 0 62 13t47 27l15 13h8zM573 491v-70q-7 -6 -18.5 -14.5t-46.5 -22.5t-68 -14
q-40 0 -104.5 27t-97.5 27q-30 0 -61 -13.5t-47 -26.5l-15 -14h-8v71q6 6 17 14t46.5 22t72.5 14q46 0 109 -26.5t93 -26.5q28 0 58 13t46 27l16 13h8z" />
    <glyph glyph-name="multiply.case" horiz-adv-x="680" 
d="M572 170l-58 -56l-176 180l-176 -180l-55 54l180 176l-180 174l58 56l176 -180l176 180l55 -54l-180 -176z" />
    <glyph glyph-name="colon.case" horiz-adv-x="268" 
d="M82 176h104v-100h-104v100zM82 611h104v-100h-104v100z" />
    <glyph glyph-name="colon.round.case" horiz-adv-x="268" 
d="M133 190q28 0 44 -17t16 -43t-16 -43t-44 -17t-44 17t-16 43t16 43t44 17zM133 618q28 0 44 -17t16 -43t-16 -43t-44 -17t-44 17t-16 43t16 43t44 17z" />
    <glyph glyph-name="one.pl" horiz-adv-x="415" 
d="M309 0h-96v667l-164 -57h-8v76l198 66h70v-752z" />
    <glyph glyph-name="two.pl" horiz-adv-x="586" 
d="M518 77v-77h-456v67q33 36 91 96.5t85 89.5t65.5 75t55.5 76t30 68t13 74q0 66 -39.5 103t-117.5 37q-36 0 -76.5 -8t-62.5 -16l-22 -7h-8v78q82 27 179 27q123 0 186.5 -54.5t63.5 -149.5q0 -42 -13.5 -83.5t-33.5 -75.5t-55.5 -77t-66 -74.5t-79 -82t-81.5 -86.5h342z
" />
    <glyph glyph-name="three.pl" horiz-adv-x="572" 
d="M129 356v74h63q81 0 127 27q60 35 60 108q0 58 -38 89.5t-113 31.5q-33 0 -70 -6t-57 -12l-20 -7h-8v76q74 23 163 23q119 0 181.5 -50.5t62.5 -133.5q0 -67 -39.5 -114t-110.5 -62q72 -10 119 -61t47 -130q0 -98 -74 -157.5t-204 -59.5q-40 0 -78 6t-56 12l-19 5v74h8
q70 -23 143 -23q84 0 131.5 37.5t47.5 105.5q0 80 -66 119q-48 28 -138 28h-62z" />
    <glyph glyph-name="four.pl" horiz-adv-x="647" 
d="M596 167h-121v-167h-91v167h-340v64l317 521h114v-510h121v-75zM133 242h251v408z" />
    <glyph glyph-name="five.pl" horiz-adv-x="578" 
d="M474 675h-283l-14 -223q36 4 72 4q131 0 198 -64t67 -165q0 -108 -75 -171.5t-202 -63.5q-40 0 -80 6t-60 12l-20 7v78h8q76 -29 154 -29q86 0 130.5 43t44.5 114q0 72 -48.5 116t-147.5 44q-22 0 -51.5 -2.5t-48.5 -4.5l-18 -2h-8l21 378h361v-77z" />
    <glyph glyph-name="six.pl" horiz-adv-x="649" 
d="M585 236q0 -109 -68 -179t-185 -70q-134 0 -197 89q-53 75 -53 256q0 228 74.5 328t241.5 100q36 0 71 -4t52 -8l17 -5v-78h-8q-61 21 -135 21q-120 0 -168 -77.5t-48 -251.5q17 52 63 81t116 29q104 0 165.5 -64t61.5 -167zM338 395q-69 0 -112 -43t-43 -121
q0 -74 39 -123t112 -49q68 0 109.5 45.5t41.5 125.5q0 76 -38.5 120.5t-108.5 44.5z" />
    <glyph glyph-name="seven.pl" horiz-adv-x="534" 
d="M387 675h-353v77h456v-54l-256 -698h-104z" />
    <glyph glyph-name="eight.pl" horiz-adv-x="655" 
d="M94 577q0 89 65 138t169 49q103 0 167.5 -48t64.5 -134q0 -64 -38 -112.5t-104 -75.5q78 -28 122.5 -79.5t44.5 -122.5q0 -95 -74 -149.5t-190 -54.5q-113 0 -182.5 52t-69.5 143q0 75 46 126t119 79q-65 27 -102.5 74.5t-37.5 114.5zM193 577q0 -55 40.5 -92.5
t118.5 -64.5q109 53 109 154q0 55 -35 87t-99 32q-63 0 -98.5 -31.5t-35.5 -84.5zM169 192q0 -63 42 -98t115 -35q74 0 116.5 35t42.5 94q0 60 -46.5 100.5t-139.5 71.5q-130 -59 -130 -168z" />
    <glyph glyph-name="nine.pl" horiz-adv-x="649" 
d="M64 515q0 110 67.5 179.5t186.5 69.5q132 0 196 -89q52 -73 52 -253q0 -231 -74 -330.5t-240 -99.5q-37 0 -72 4t-52 8l-17 5v78h8q61 -21 135 -21q120 0 167.5 77.5t47.5 251.5q-17 -52 -63 -81.5t-116 -29.5q-104 0 -165 64t-61 167zM311 356q68 0 111 43t43 122
q0 75 -39 123t-111 48q-69 0 -110 -45t-41 -125q0 -76 38.5 -121t108.5 -45z" />
    <glyph glyph-name="zero.pl" horiz-adv-x="693" 
d="M610 379q0 -67 -6.5 -121.5t-24 -106.5t-46.5 -87t-77 -56t-111 -21q-64 0 -111.5 21t-76 55.5t-46 86t-23.5 104t-6 118.5q0 85 11 150t39 122.5t82.5 88.5t133.5 31q64 0 111.5 -21.5t75.5 -56t45.5 -86t23.5 -104t6 -117.5zM508 376q0 166 -38.5 240t-123.5 74
t-123.5 -74t-38.5 -240t38.5 -240.5t123.5 -74.5t123.5 74.5t38.5 240.5z" />
    <glyph glyph-name="numbersign.pl" horiz-adv-x="803" 
d="M730 584l-7 -69h-131l-27 -278h131l-6 -69h-132l-17 -168h-82l16 168h-189l-17 -168h-82l16 168h-130l6 69h131l28 278h-132l7 69h131l17 168h83l-17 -168h189l17 168h83l-17 -168h131zM320 515l-27 -278h189l28 278h-190z" />
    <glyph glyph-name="Euro.pl" horiz-adv-x="717" 
d="M522 251h-273q25 -85 84.5 -135t153.5 -50q36 0 73.5 7.5t57.5 14.5l19 8h8v-78q-66 -26 -161 -26q-141 0 -225 70t-112 189h-100v72h88q-2 17 -2 53q0 35 2 52h-88v72h99q28 119 112.5 189.5t225.5 70.5q42 0 82.5 -6.5t59.5 -13.5l19 -6v-78h-8q-69 30 -152 30
q-95 0 -154.5 -50t-83.5 -136h335l-17 -72h-331q-2 -32 -2 -48q0 -30 3 -57h304z" />
    <glyph glyph-name="sterling.pl" horiz-adv-x="584" 
d="M64 346v74h94q-45 86 -45 147q0 90 63.5 141.5t174.5 51.5q33 0 66 -4.5t49 -9.5l17 -4v-77h-8q-60 21 -124 21q-69 0 -105 -31t-36 -84q0 -20 5.5 -41t11.5 -34.5t19.5 -39t18.5 -36.5h201v-74h-175q7 -33 7 -63q0 -143 -115 -208h345v-75h-466v63q139 70 139 208
q0 36 -12 75h-125z" />
    <glyph glyph-name="yen.pl" horiz-adv-x="705" 
d="M582 160h-183v-160h-94v160h-182v66h182v88h-182v66h165l-242 372h109l205 -325l206 325h93l-244 -372h167v-66h-183v-88h183v-66z" />
    <glyph glyph-name="uni20BA.pl" horiz-adv-x="686" 
d="M385 350l-147 -55v-221q317 0 317 305h82q0 -249 -184 -336q-89 -43 -234 -43h-78v259l-94 -35v67l94 35v87l-94 -35v67l94 35v272h97v-236l147 55v-67l-147 -55v-87l147 55v-67z" />
    <glyph glyph-name="rupee.pl" horiz-adv-x="604" 
d="M551 493h-131q-9 -81 -68.5 -127t-164.5 -48l270 -318h-119l-259 314v60h58q90 0 134 27q49 29 58 92h-250v64h249q-9 61 -57 92q-44 28 -134 28h-58v75h472v-75h-213q30 -10 53 -41.5t29 -78.5h131v-64z" />
    <glyph glyph-name="one.tnum.pl" 
d="M94 0v74h186v593l-188 -57h-8v76l223 66h69v-678h167v-74h-449z" />
    <glyph glyph-name="one.tnum" 
d="M96 0v73h181v531l-183 -52h-8v76l218 60h68v-615h162v-73h-438z" />
    <glyph glyph-name="perthousand.pl" horiz-adv-x="1323" 
d="M811 746l-323 -391l-274 -355h-97v7l323 390l274 355h97v-6zM65 577q0 84 52 136t132 52q79 0 131 -52t52 -135q0 -84 -52 -136t-132 -52q-79 0 -131 52t-52 135zM142 578q0 -56 30 -89.5t77 -33.5q46 0 76 33.5t30 89.5q0 55 -30 88.5t-77 33.5q-46 0 -76 -33.5
t-30 -88.5zM497 174q0 84 52 136.5t132 52.5q79 0 130.5 -52t51.5 -135q0 -84 -52 -136.5t-132 -52.5q-79 0 -130.5 52t-51.5 135zM574 175q0 -55 30 -88.5t76 -33.5t76 33.5t30 88.5t-30 88.5t-76 33.5t-76 -33.5t-30 -88.5zM920 174q0 84 52 136.5t132 52.5
q79 0 130.5 -52t51.5 -135q0 -84 -52 -136.5t-132 -52.5q-79 0 -130.5 52t-51.5 135zM997 175q0 -55 30 -88.5t76 -33.5t76 33.5t30 88.5t-30 88.5t-76 33.5t-76 -33.5t-30 -88.5z" />
    <glyph glyph-name="percent.pl" horiz-adv-x="929" 
d="M811 746l-323 -391l-274 -355h-97v7l323 390l274 355h97v-6zM65 577q0 84 52 136t132 52q79 0 131 -52t52 -135q0 -84 -52 -136t-132 -52q-79 0 -131 52t-52 135zM142 578q0 -56 30 -89.5t77 -33.5q46 0 76 33.5t30 89.5q0 55 -30 88.5t-77 33.5q-46 0 -76 -33.5
t-30 -88.5zM497 174q0 84 52 136.5t132 52.5q79 0 130.5 -52t51.5 -135q0 -84 -52 -136.5t-132 -52.5q-79 0 -130.5 52t-51.5 135zM574 175q0 -55 30 -88.5t76 -33.5t76 33.5t30 88.5t-30 88.5t-76 33.5t-76 -33.5t-30 -88.5z" />
    <glyph glyph-name="daggerdbl.pl" horiz-adv-x="561" 
d="M325 0h-89v168h-160v74h160v268h-160v73h160v169h89v-169h160v-73h-160v-268h160v-74h-160v-168z" />
    <glyph glyph-name="dagger.pl" horiz-adv-x="561" 
d="M325 0h-89v510h-183v73h183v169h89v-169h183v-73h-183v-510z" />
    <glyph glyph-name="two.smcp" horiz-adv-x="499" 
d="M435 76v-76h-374v66q23 24 62 62.5t58.5 58t47.5 49.5t41.5 49t28.5 43t20.5 45.5t5.5 43.5q0 47 -29.5 73t-88.5 26q-28 0 -60.5 -6t-50.5 -12l-18 -5h-7v75q67 20 146 20q104 0 156.5 -43t52.5 -117q0 -38 -12.5 -73t-42.5 -72.5t-53.5 -63t-73 -72t-73.5 -71.5h264z
" />
    <glyph glyph-name="three.smcp" horiz-adv-x="492" 
d="M115 266v73h56q61 0 96 19q43 24 43 73q0 85 -112 85q-28 0 -58.5 -5t-47.5 -10l-16 -5h-7v74q61 18 137 18q100 0 152 -38.5t52 -105.5q0 -53 -31.5 -88.5t-88.5 -47.5q58 -8 95.5 -46t37.5 -99q0 -77 -62 -123t-170 -46q-33 0 -65 4.5t-48 9.5l-15 4v73h6
q60 -19 121 -19q63 0 98 26t35 73q0 56 -48 82q-34 19 -105 19h-55z" />
    <glyph glyph-name="four.smcp" horiz-adv-x="551" 
d="M499 124h-94v-124h-88v124h-270v66l248 392h110v-385h94v-73zM133 197h184v287z" />
    <glyph glyph-name="five.smcp" horiz-adv-x="497" 
d="M404 507h-227l-10 -154q29 3 58 3q103 0 157 -49t54 -129q0 -86 -61.5 -135t-167.5 -49q-34 0 -67.5 5t-50.5 10l-17 5v75h6q65 -23 129 -23q65 0 98 29.5t33 78.5q0 51 -36 81t-113 30l-98 -7h-7l17 304h303v-75z" />
    <glyph glyph-name="six.smcp" horiz-adv-x="555" 
d="M494 186q0 -87 -56 -141.5t-155 -54.5q-113 0 -165 72q-43 60 -43 195q0 176 63 253.5t199 77.5q31 0 60.5 -3.5t43.5 -6.5l14 -4v-75h-6q-53 17 -112 17q-91 0 -128.5 -55t-37.5 -177q30 82 141 82q84 0 133 -49t49 -131zM288 297q-51 0 -82.5 -31t-31.5 -86
q0 -53 29 -87t82 -34q52 0 81.5 32.5t29.5 88.5q0 54 -28 85.5t-80 31.5z" />
    <glyph glyph-name="seven.smcp" horiz-adv-x="464" 
d="M316 507h-278v75h379v-54l-202 -528h-103z" />
    <glyph glyph-name="eight.smcp" horiz-adv-x="553" 
d="M83 444q0 69 53.5 108t141.5 39q87 0 139.5 -38.5t52.5 -105.5q0 -49 -30 -85.5t-81 -55.5q130 -46 130 -155q0 -74 -59.5 -117t-156.5 -43q-95 0 -152 41.5t-57 112.5q0 103 129 153q-51 20 -80.5 57t-29.5 89zM179 441q0 -39 30 -65t88 -45q77 37 77 108
q0 39 -25.5 61.5t-71.5 22.5t-72 -22.5t-26 -59.5zM162 153q0 -45 30.5 -69.5t82.5 -24.5q54 0 85 24.5t31 65.5q0 43 -34.5 71t-102.5 51q-92 -41 -92 -118z" />
    <glyph glyph-name="nine.smcp" horiz-adv-x="555" 
d="M61 396q0 87 56 141.5t155 54.5q113 0 165 -72q43 -60 43 -195q0 -176 -63 -253.5t-199 -77.5q-31 0 -60.5 3.5t-43.5 6.5l-14 4v75h6q53 -17 112 -17q91 0 128.5 55t37.5 177q-14 -39 -50.5 -60.5t-90.5 -21.5q-83 0 -132.5 49t-49.5 131zM268 285q51 0 82 31t31 86
q0 53 -29 87t-82 34q-51 0 -81 -32.5t-30 -88.5q0 -54 28.5 -85.5t80.5 -31.5z" />
    <glyph glyph-name="zero.smcp" horiz-adv-x="588" 
d="M513 294q0 -65 -9.5 -115t-32.5 -95t-68 -69.5t-110 -24.5t-109.5 24t-67.5 68t-32 93.5t-9 112.5q0 65 9.5 115.5t32.5 95t68.5 69t110.5 24.5q52 0 91.5 -16.5t63 -43.5t38 -67t19.5 -80.5t5 -90.5zM413 291q0 122 -28 176t-91 54q-62 0 -90.5 -54t-28.5 -176
t28.5 -176t90.5 -54q63 0 91 54t28 176z" />
    <glyph glyph-name="numbersign.smcp" horiz-adv-x="686" 
d="M613 457l-6 -68h-102l-20 -196h101l-6 -68h-102l-13 -125h-80l13 125h-144l-13 -125h-80l13 125h-101l6 68h102l20 196h-101l6 68h102l13 125h80l-13 -125h144l13 125h80l-13 -125h101zM281 389l-20 -196h144l20 196h-144z" />
    <glyph glyph-name="dollar.smcp" horiz-adv-x="532" 
d="M269 -50h-71l10 76q-36 3 -71 9t-51 11l-17 5v74h7q57 -24 139 -31l18 177q-32 9 -51.5 16t-45.5 19.5t-40.5 26.5t-25 36t-10.5 49q0 65 54 100.5t149 37.5l6 76h71l-10 -78q31 -3 61 -8t45 -8l15 -4v-72h-7q-51 19 -122 26l-16 -160q38 -11 63 -21t52.5 -27.5
t41.5 -44.5t14 -62q0 -71 -54.5 -107t-147.5 -41zM389 161q0 33 -24 54t-69 36l-15 -159q108 4 108 69zM147 426q0 -30 24.5 -48t71.5 -32l14 145q-110 -5 -110 -65z" />
    <glyph glyph-name="dollar.gap.smcp" horiz-adv-x="492" 
d="M275 -50h-82l4 75q-36 2 -69.5 8.5t-49.5 12.5l-15 5v76h7q77 -32 157 -32q55 0 84 19.5t29 54.5q0 33 -28.5 54.5t-69.5 34t-82 28t-69.5 47t-28.5 79.5q0 58 40 94.5t113 46.5l-1 79h82l-4 -76q30 -1 60 -6t45 -9l15 -4v-74h-6q-71 24 -140 24q-52 0 -79.5 -17
t-27.5 -47t28.5 -49t69.5 -32t82 -28.5t69.5 -49.5t28.5 -84q0 -65 -44 -103t-119 -48z" />
    <glyph glyph-name="Euro.smcp" horiz-adv-x="599" 
d="M431 187h-200q45 -121 178 -121q28 0 57 5.5t44 10.5l15 6h6v-75q-51 -19 -127 -19q-113 0 -181 52t-93 141h-83v69h71q-1 11 -1 35q0 23 1 35h-71v69h83q25 89 93 141t181 52q34 0 65.5 -5t46.5 -9l15 -5v-75h-6q-54 22 -118 22q-135 0 -177 -121h251l-16 -69h-250
q-1 -11 -1 -32q0 -26 2 -38h232z" />
    <glyph glyph-name="sterling.smcp" horiz-adv-x="500" 
d="M62 264v72h67q-29 58 -29 101q0 70 55 110.5t147 40.5q27 0 53.5 -3.5t40.5 -6.5l13 -4v-75h-6q-49 17 -102 17q-52 0 -78.5 -20.5t-26.5 -57.5q0 -13 4.5 -28t7.5 -22t14.5 -27t13.5 -25h158v-72h-132q4 -24 4 -39q0 -104 -88 -152h265v-73h-382v60q109 51 109 152
q0 26 -8 52h-100z" />
    <glyph glyph-name="yen.smcp" horiz-adv-x="599" 
d="M489 118h-144v-118h-92v118h-143v61h143v62h-143v62h126l-190 279h107l154 -236l156 236h90l-191 -279h127v-62h-144v-62h144v-61z" />
    <glyph glyph-name="uni20BA.smcp" horiz-adv-x="592" 
d="M334 264l-114 -38v-153q243 0 243 227h80q0 -193 -146 -264q-74 -36 -195 -36h-78v194l-77 -25v61l77 25v61l-77 -25v62l77 25v204h96v-172l114 38v-62l-114 -38v-61l114 38v-61z" />
    <glyph glyph-name="rupee.smcp" horiz-adv-x="515" 
d="M462 367h-104q-8 -60 -53.5 -94.5t-125.5 -37.5l213 -235h-117l-200 229v55h46q69 0 103 20q35 20 44 63h-193v59h193q-10 43 -44 63t-103 20h-46v73h387v-73h-167q49 -17 62 -83h105v-59z" />
    <glyph glyph-name="dagger.smcp" horiz-adv-x="479" 
d="M284 0h-88v385h-145v71h145v126h88v-126h144v-71h-144v-385z" />
    <glyph glyph-name="daggerdbl.smcp" horiz-adv-x="480" 
d="M284 0h-88v126h-125v71h125v188h-125v71h125v126h88v-126h125v-71h-125v-188h125v-71h-125v-126z" />
    <glyph glyph-name="percent.smcp" horiz-adv-x="781" 
d="M679 577l-265 -305l-219 -272h-92v6l264 304l220 272h92v-5zM62 446q0 65 43 106t108 41t108 -41t43 -106t-43 -105.5t-108 -40.5t-108 40.5t-43 105.5zM134 446q0 -39 22.5 -63t56.5 -24t56.5 24t22.5 63t-22.5 63t-56.5 24t-56.5 -24t-22.5 -63zM419 136q0 66 42.5 107
t107.5 41t107.5 -41t42.5 -106q0 -66 -42.5 -107t-107.5 -41t-107.5 41t-42.5 106zM491 137q0 -39 22 -62.5t56 -23.5t56 23.5t22 62.5t-22 62.5t-56 23.5t-56 -23.5t-22 -62.5z" />
    <glyph glyph-name="perthousand.smcp" horiz-adv-x="1102" 
d="M679 577l-265 -305l-219 -272h-92v5l264 305l220 272h92v-5zM62 446q0 65 43 106t108 41t107.5 -41t42.5 -106t-43 -106t-108 -41t-107.5 41t-42.5 106zM135 445q0 -39 22 -62.5t56 -23.5t55.5 24t21.5 63t-21.5 62.5t-55.5 23.5t-56 -24t-22 -63zM418 136q0 65 43 106
t108 41t107.5 -41t42.5 -106t-43 -106t-108 -41t-107.5 41t-42.5 106zM491 137q0 -39 21.5 -63t56.5 -24q34 0 55.5 24t21.5 63t-21.5 62.5t-56.5 23.5q-34 0 -55.5 -23.5t-21.5 -62.5zM761 136q0 65 43 106t108 41t108 -40.5t43 -105.5q0 -66 -43 -107t-108 -41t-108 41
t-43 106zM835 136q0 -39 21.5 -62.5t55.5 -23.5t55.5 24t21.5 63t-21.5 62.5t-55.5 23.5t-55.5 -24t-21.5 -63z" />
    <glyph glyph-name="one.tnum.smcp" horiz-adv-x="504" 
d="M84 0v73h143v426l-145 -43h-6v74l181 52h65v-509h129v-73h-367z" />
    <glyph glyph-name="two.pl.tnum.smcp" horiz-adv-x="504" 
d="M438 76v-76h-377v66q23 23 63 62.5t58.5 58t47.5 49t42.5 49t28.5 43t20.5 46t5.5 43.5q0 99 -119 99q-28 0 -60.5 -6t-51.5 -12l-18 -5h-6v75q68 20 148 20q104 0 156.5 -43t52.5 -117q0 -38 -12.5 -73t-43 -72.5t-54 -63t-73 -72t-74.5 -71.5h266z" />
    <glyph glyph-name="three.pl.tnum.smcp" horiz-adv-x="504" 
d="M118 266v73h56q63 0 99 19q45 24 45 74q0 84 -115 84q-28 0 -59 -5t-48 -10l-17 -5h-7v74q62 18 139 18q101 0 154 -39t53 -105q0 -52 -32 -88t-90 -48q59 -8 97 -46t38 -99q0 -77 -62.5 -123t-172.5 -46q-34 0 -67 4.5t-49 9.5l-15 4v73h7q60 -19 122 -19q65 0 101 26
t36 73q0 57 -49 82q-37 19 -109 19h-55z" />
    <glyph glyph-name="four.pl.tnum.smcp" horiz-adv-x="504" 
d="M462 124h-86v-124h-87v124h-252v66l231 392h108v-385h86v-73zM121 197h168v287z" />
    <glyph glyph-name="five.pl.tnum.smcp" horiz-adv-x="504" 
d="M401 507h-216l-10 -154q28 3 55 3q99 0 150.5 -49t51.5 -129q0 -86 -59 -135t-161 -49q-32 0 -64.5 5t-49.5 10l-16 5v75h6q64 -23 124 -23q61 0 92 29.5t31 78.5q0 51 -34 81t-107 30l-94 -7h-6l16 304h291v-75z" />
    <glyph glyph-name="six.pl.tnum.smcp" horiz-adv-x="504" 
d="M456 185q0 -87 -52.5 -141t-145.5 -54q-106 0 -156 72q-41 59 -41 194q0 176 60 254t188 78q29 0 56.5 -3.5t40.5 -6.5l13 -4v-75h-5q-50 17 -105 17q-84 0 -118.5 -55t-34.5 -177q28 82 131 82q77 0 123 -49.5t46 -131.5zM261 297q-47 0 -74.5 -31t-27.5 -86
q0 -53 26 -87t74 -34q47 0 74 32.5t27 88.5q0 54 -25.5 85.5t-73.5 31.5z" />
    <glyph glyph-name="seven.pl.tnum.smcp" horiz-adv-x="504" 
d="M346 507h-299v75h400v-54l-217 -528h-104z" />
    <glyph glyph-name="eight.pl.tnum.smcp" horiz-adv-x="503" 
d="M69 443q0 70 49.5 109t133.5 39q83 0 132.5 -38.5t49.5 -105.5q0 -49 -27.5 -85t-75.5 -56q120 -46 120 -156q0 -74 -55 -116.5t-147 -42.5q-91 0 -144 41.5t-53 112.5q0 104 119 153q-102 42 -102 145zM164 442q0 -39 27.5 -65t79.5 -46q68 37 68 108q0 39 -23 61.5
t-64 22.5t-64.5 -22t-23.5 -59zM149 153q0 -45 27 -69.5t75 -24.5t75.5 25t27.5 65q0 43 -31.5 71t-91.5 51q-82 -40 -82 -118z" />
    <glyph glyph-name="nine.pl.tnum.smcp" horiz-adv-x="504" 
d="M48 397q0 87 52.5 141t145.5 54q106 0 156 -72q41 -59 41 -195q0 -176 -60 -253.5t-187 -77.5q-29 0 -56.5 3.5t-41.5 6.5l-13 4v75h6q49 -17 104 -17q84 0 118.5 55t34.5 177q-28 -82 -131 -82q-77 0 -123 49.5t-46 131.5zM243 285q47 0 74.5 31t27.5 86q0 53 -26 87
t-74 34q-47 0 -73.5 -32.5t-26.5 -88.5q0 -54 25 -85.5t73 -31.5z" />
    <glyph glyph-name="zero.pl.tnum.smcp" horiz-adv-x="504" 
d="M451 294q0 -51 -5 -93.5t-19 -82.5t-36 -67.5t-58 -44t-83 -16.5q-59 0 -99.5 24.5t-60.5 69t-28.5 93.5t-8.5 112q0 64 8.5 114.5t29.5 95t62 69t100 24.5t99.5 -24t61 -68t29 -93.5t8.5 -112.5zM353 291q0 122 -24 176t-77 54t-77 -53.5t-24 -176.5t24 -176.5t77 -53.5
t77 54t24 176z" />
    <glyph glyph-name="numbersign.pl.tnum.smcp" horiz-adv-x="504" 
d="M474 457l-6 -68h-78l-16 -196h79l-6 -68h-79l-10 -125h-76l10 125h-108l-10 -125h-75l10 125h-79l6 68h78l16 196h-79l7 68h78l10 125h76l-11 -125h108l11 125h76l-11 -125h79zM206 389l-16 -196h108l16 196h-108z" />
    <glyph glyph-name="dollar.pl.tnum.smcp" horiz-adv-x="504" 
d="M255 -50h-70l10 76q-35 3 -68.5 9t-49.5 11l-16 5v74h7q56 -24 134 -31l17 177q-31 9 -49.5 16t-44 19.5t-39.5 26.5t-24 36t-10 49q0 65 52 100.5t144 37.5l6 76h70l-10 -78q30 -3 59 -8t43 -8l15 -4v-72h-7q-50 19 -118 26l-15 -160q37 -11 61 -21t50.5 -27.5t40 -44.5
t13.5 -62q0 -71 -52.5 -107t-142.5 -41zM370 161q0 33 -23 54t-66 36l-15 -159q104 4 104 69zM137 426q0 -30 23.5 -47.5t68.5 -32.5l13 145q-105 -5 -105 -65z" />
    <glyph glyph-name="dollar.gap.pl.tnum.smcp" horiz-adv-x="504" 
d="M281 -50h-82l4 75q-36 2 -70.5 8.5t-50.5 12.5l-16 5v76h7q78 -32 160 -32q56 0 86 19t30 54q0 33 -29.5 54.5t-71 34.5t-83 28.5t-71 47t-29.5 79.5q0 58 41 94.5t115 46.5l-1 79h82l-4 -76q31 -1 61.5 -6t46.5 -9l15 -4v-74h-6q-72 24 -143 24q-54 0 -82 -17t-28 -47
t29.5 -49t71 -32t83 -28.5t71 -49.5t29.5 -84q0 -65 -44.5 -103.5t-121.5 -48.5z" />
    <glyph glyph-name="Euro.pl.tnum.smcp" horiz-adv-x="505" 
d="M369 187h-169q37 -121 152 -121q24 0 49 5.5t38 10.5l13 6h6v-75q-45 -19 -112 -19q-99 0 -160 52t-83 141h-74v69h63q-1 11 -1 35q0 23 1 35h-63v69h74q22 89 83 141t160 52q30 0 58 -5t41 -9l13 -5v-75h-6q-46 22 -101 22q-115 0 -152 -121h215l-15 -69h-212
q-1 -11 -1 -33q0 -25 1 -37h197z" />
    <glyph glyph-name="sterling.pl.tnum.smcp" horiz-adv-x="504" 
d="M79 264v72h61q-26 56 -26 100q0 71 50.5 111.5t135.5 40.5q25 0 49.5 -3.5t36.5 -6.5l13 -4v-75h-5q-45 17 -93 17q-46 0 -70 -20.5t-24 -57.5q0 -13 4 -27.5t7 -22.5t13 -27.5t12 -24.5h142v-72h-118q3 -18 3 -39q0 -105 -78 -152h237v-73h-351v60q99 51 99 153
q0 23 -7 51h-91z" />
    <glyph glyph-name="yen.pl.tnum.smcp" horiz-adv-x="505" 
d="M422 118h-125v-118h-89v118h-125v61h125v62h-125v62h110l-168 279h104l131 -236l132 236h88l-168 -279h110v-62h-125v-62h125v-61z" />
    <glyph glyph-name="uni20BA.pl.tnum.smcp" horiz-adv-x="503" 
d="M288 264l-101 -37v-154q212 0 212 227h77q0 -194 -128 -264q-66 -36 -178 -36h-77v193l-68 -24v61l68 24v61l-68 -24v62l68 24v205h94v-171l101 37v-62l-101 -37v-61l101 37v-61z" />
    <glyph glyph-name="rupee.pl.tnum.smcp" horiz-adv-x="505" 
d="M454 367h-103q-8 -60 -52.5 -94.5t-123.5 -37.5l210 -235h-116l-197 229v55h46q67 0 100 20q35 20 44 63h-190v59h190q-10 41 -44 63q-33 20 -100 20h-46v73h382v-73h-165q48 -17 61 -83h104v-59z" />
    <glyph glyph-name="A.smcp" horiz-adv-x="573" 
d="M552 0h-103l-52 150h-234l-54 -150h-88l218 582h99zM282 481l-93 -259h183z" />
    <glyph glyph-name="B.smcp" horiz-adv-x="560" 
d="M87 582h185q95 0 138 -24q66 -37 66 -119q0 -32 -10.5 -57.5t-26 -38t-31 -20.5t-26.5 -10l-10 -2q6 0 15 -1.5t33 -10t42.5 -22.5t33.5 -43t15 -67q0 -89 -72 -134q-53 -33 -162 -33h-190v582zM182 266v-197h92q61 0 94 19q44 26 44 80q0 55 -47 81q-32 17 -94 17h-89z
M182 513v-173h79q50 0 75 13q41 22 41 73q0 52 -40 74q-25 13 -77 13h-78z" />
    <glyph glyph-name="C.smcp" horiz-adv-x="531" 
d="M475 88v-75q-55 -19 -131 -19q-144 0 -216 83.5t-72 213.5t72 213.5t216 83.5q34 0 66.5 -5t48.5 -9l16 -5v-75h-7q-53 22 -116 22q-97 0 -145.5 -62t-48.5 -160q0 -100 49 -164t146 -64q28 0 56.5 5.5t43.5 10.5l15 6h7z" />
    <glyph glyph-name="D.smcp" horiz-adv-x="636" 
d="M87 582h162q44 0 67.5 -1t65 -10t73.5 -27q125 -71 125 -253q0 -183 -129 -253q-32 -18 -72 -27t-64.5 -10t-65.5 -1h-162v582zM183 510v-438h72q91 0 135 24q88 47 88 194q0 148 -90 196q-45 24 -133 24h-72z" />
    <glyph glyph-name="E.smcp" horiz-adv-x="505" 
d="M87 582h351v-73h-256v-169h218v-74h-218v-193h269v-73h-364v582z" />
    <glyph glyph-name="F.smcp" horiz-adv-x="471" 
d="M87 582h343v-75h-247v-198h219v-74h-219v-235h-96v582z" />
    <glyph glyph-name="G.smcp" horiz-adv-x="616" 
d="M339 307h206v-284q-77 -31 -182 -31q-142 0 -224.5 74t-82.5 220q0 150 86.5 226t233.5 76q39 0 76.5 -5t55.5 -10l18 -5v-77h-6q-61 25 -142 25q-103 0 -161.5 -55.5t-58.5 -167.5t56.5 -170.5t149.5 -58.5q22 0 43.5 3t32.5 7l10 3v158h-111v72z" />
    <glyph glyph-name="H.smcp" horiz-adv-x="644" 
d="M87 582h96v-242h278v242h96v-582h-96v266h-278v-266h-96v582z" />
    <glyph glyph-name="I.smcp" horiz-adv-x="270" 
d="M87 582h96v-582h-96v582z" />
    <glyph glyph-name="J.smcp" horiz-adv-x="375" 
d="M24 5v73h6q35 -11 68 -11q52 0 77 34q17 24 17 85v396h96v-390q0 -92 -31 -135q-45 -62 -152 -62q-21 0 -41.5 2.5t-29.5 4.5z" />
    <glyph glyph-name="K.smcp" horiz-adv-x="572" 
d="M87 582h95v-265l247 265h105l-228 -242l234 -340h-114l-185 274l-59 -61v-213h-95v582z" />
    <glyph glyph-name="L.smcp" horiz-adv-x="450" 
d="M87 582h96v-507h243v-75h-339v582z" />
    <glyph glyph-name="M.smcp" horiz-adv-x="812" 
d="M87 582h122l200 -453l195 453h121v-582h-94v464l-187 -435h-85l-187 435v-464h-85v582z" />
    <glyph glyph-name="N.smcp" horiz-adv-x="652" 
d="M87 582h94l299 -426v426h85v-582h-86l-307 433v-433h-85v582z" />
    <glyph glyph-name="O.smcp" horiz-adv-x="664" 
d="M608 292q0 -142 -72.5 -222.5t-204.5 -80.5t-203.5 80t-71.5 221q0 142 72.5 222.5t204.5 80.5t203.5 -80t71.5 -221zM332 61q85 0 129.5 58t44.5 172t-44.5 172t-129.5 58t-129.5 -58t-44.5 -172t44.5 -172t129.5 -58z" />
    <glyph glyph-name="P.smcp" horiz-adv-x="540" 
d="M87 582h155q119 0 173 -32q79 -47 79 -154q0 -112 -87 -162q-55 -31 -166 -31h-58v-203h-96v582zM183 510v-235h68q70 0 100 21q43 30 43 97q0 66 -43 96q-30 21 -100 21h-68z" />
    <glyph glyph-name="Q.smcp" horiz-adv-x="664" 
d="M608 292q0 -95 -33.5 -164.5t-97.5 -104.5l87 -115h-110l-60 87q-30 -6 -63 -6q-132 0 -203.5 80t-71.5 221q0 142 72.5 222.5t204.5 80.5t203.5 -80t71.5 -221zM332 61q85 0 129.5 58t44.5 172t-44.5 172t-129.5 58t-129.5 -58t-44.5 -172t44.5 -172t129.5 -58z" />
    <glyph glyph-name="R.smcp" horiz-adv-x="566" 
d="M288 235h-106v-235h-95v582h193q106 0 155 -33q66 -44 66 -136q0 -129 -119 -166l150 -247h-108zM182 510v-203h97q58 0 85 17q38 24 38 84t-38 84q-28 18 -85 18h-97z" />
    <glyph glyph-name="S.smcp" horiz-adv-x="491" 
d="M408 567v-74h-6q-69 26 -134 26q-51 0 -78.5 -20t-27.5 -54q0 -33 28 -57t68.5 -40.5t81 -37t68.5 -58t28 -91.5q0 -82 -61.5 -124.5t-161.5 -42.5q-39 0 -77 6.5t-56 13.5l-18 6v77h7q77 -34 150 -34q54 0 85.5 23.5t31.5 63.5q0 30 -20.5 53.5t-50.5 37t-66 31
t-66 35.5t-50.5 50.5t-20.5 75.5q0 73 54 114t150 41q34 0 69.5 -5t54.5 -11z" />
    <glyph glyph-name="T.smcp" horiz-adv-x="499" 
d="M30 582h439v-75h-172v-507h-96v507h-171v75z" />
    <glyph glyph-name="U.smcp" horiz-adv-x="633" 
d="M87 582h96v-368q0 -74 30 -113.5t109 -39.5t109 39.5t30 113.5v368h85v-352q0 -36 -1.5 -57.5t-13 -56.5t-33.5 -60q-60 -67 -182 -67q-121 0 -181 67q-22 25 -33.5 59.5t-13 56.5t-1.5 58v352z" />
    <glyph glyph-name="V.smcp" horiz-adv-x="579" 
d="M27 582h105l164 -475l170 475h86l-218 -582h-94z" />
    <glyph glyph-name="W.smcp" horiz-adv-x="850" 
d="M34 582h102l122 -460l128 445h96l126 -445l124 460h84l-167 -582h-97l-127 450l-129 -450h-98z" />
    <glyph glyph-name="X.smcp" horiz-adv-x="591" 
d="M42 582h115l147 -223l148 223h95l-192 -280l205 -302h-116l-158 240l-160 -240h-94l203 299z" />
    <glyph glyph-name="Y.smcp" horiz-adv-x="545" 
d="M21 582h112l150 -268l151 268h90l-203 -352v-230h-96v228z" />
    <glyph glyph-name="Z.smcp" horiz-adv-x="537" 
d="M475 582v-66l-309 -443h315v-73h-427v68l307 441h-297v73h411z" />
    <glyph glyph-name="K.alt.smcp" horiz-adv-x="588" 
d="M87 582h96v-265l258 265h105l-262 -261l281 -321h-120l-262 304v-304h-96v582z" />
    <glyph glyph-name="AE.smcp" horiz-adv-x="804" 
d="M737 582v-73h-256v-169h218v-74h-218v-193h269v-73h-361v153h-197l-88 -153h-91l345 582h379zM389 493l-157 -272h157v272z" />
    <glyph glyph-name="OE.smcp" horiz-adv-x="888" 
d="M505 509q3 -1 8 -4.5t18.5 -16.5t24.5 -30t21.5 -48.5t14.5 -69.5h191v-74h-189q-2 -44 -12.5 -80t-23.5 -56t-26 -34t-22 -18l-8 -5h332v-73h-492q-122 0 -185 46q-101 73 -101 244t105 246q66 46 187 46h473v-73h-316zM327 67q169 0 169 224t-169 224t-169 -224
t169 -224z" />
    <glyph glyph-name="Eth.smcp" horiz-adv-x="659" 
d="M111 582h162q42 0 67 -1t65.5 -10t72.5 -27q125 -70 125 -252q0 -184 -129 -254q-32 -18 -71.5 -27t-64 -10t-65.5 -1h-162v266h-85v73h85v243zM206 510v-171h136v-73h-136v-194h73q90 0 135 25q88 48 88 194q0 147 -90 195q-45 24 -133 24h-73z" />
    <glyph glyph-name="Thorn.smcp" horiz-adv-x="540" 
d="M87 582h96v-100h59q119 0 173 -32q79 -46 79 -155q0 -111 -87 -161q-55 -31 -166 -31h-58v-103h-96v582zM183 410v-235h68q69 0 99 20q44 30 44 98q0 67 -44 97q-30 20 -99 20h-68z" />
    <glyph glyph-name="Schwa.smcp" horiz-adv-x="592" 
d="M90 490v74q70 24 168 24q140 0 206 -69q72 -75 72 -226q0 -144 -66 -224t-184 -80q-132 0 -189 99q-17 31 -26 72t-10.5 72t-1.5 87h379q0 97 -47.5 148t-139.5 51q-35 0 -73.5 -7t-59.5 -14l-21 -7h-7zM438 250h-282q0 -190 132 -190q70 0 108.5 50.5t41.5 139.5z" />
    <glyph glyph-name="Lslash.smcp" horiz-adv-x="475" 
d="M113 582h96v-215l127 44v-70l-127 -44v-222h242v-75h-338v264l-87 -30v70l87 30v248z" />
    <glyph glyph-name="Lcaron.smcp" horiz-adv-x="450" 
d="M305 394h-64l33 188h87zM87 582h96v-507h243v-75h-339v582z" />
    <glyph glyph-name="Oslash.smcp" horiz-adv-x="665" 
d="M609 291q0 -141 -72.5 -221.5t-204.5 -80.5q-91 0 -153 38l-36 -49h-91l74 93q-70 79 -70 220q0 142 73 222t204 80q87 0 153 -39l36 50h91l-75 -93q71 -79 71 -220zM333 57q87 0 133 59t46 175q0 93 -30 149l-257 -350q42 -33 108 -33zM153 291q0 -92 29 -150l258 351
q-42 33 -107 33q-87 0 -133.5 -59t-46.5 -175z" />
    <glyph glyph-name="Uogonek.smcp" horiz-adv-x="633" 
d="M87 582h96v-368q0 -74 30 -113.5t109 -39.5t109 39.5t30 113.5v368h85v-350q0 -46 -2.5 -73t-21.5 -66.5t-56 -64.5q-23 -16 -72.5 -37.5t-76.5 -41.5t-27 -49q0 -48 67 -48q13 0 27 2t21 4l7 3h8v-56q-34 -7 -72 -7q-61 0 -96.5 23t-35.5 66q0 42 29.5 65.5t79.5 39.5
q-133 0 -190 64q-22 25 -33.5 59.5t-13 56.5t-1.5 60v350z" />
    <glyph glyph-name="ampersand.smcp" horiz-adv-x="644" 
d="M624 0h-114l-76 68q-70 -77 -188 -77q-90 0 -143 40.5t-53 108.5q0 53 32.5 90t94.5 70q-43 41 -63 75.5t-20 74.5q0 63 46 103t124 40q75 0 119.5 -37t44.5 -94q0 -50 -34 -86.5t-99 -76.5l140 -125q29 60 39 141h86q-12 -111 -67 -189l131 -120v-6zM262 59q71 0 123 55
l-158 140q-78 -54 -78 -107q0 -40 32 -64t81 -24zM186 455q0 -52 67 -116q92 61 92 117q0 33 -23 52.5t-57 19.5t-56.5 -20t-22.5 -53z" />
    <glyph glyph-name="question.smcp" horiz-adv-x="456" 
d="M61 493v74q60 21 144 21q101 0 152 -38t51 -107q0 -26 -6.5 -47.5t-21 -39.5t-25.5 -29t-32 -27.5t-28 -22.5q-21 -18 -30.5 -38.5t-11 -33t-1.5 -39.5h-86q0 34 2 52.5t16 45.5t41 51q5 4 22.5 19t25 22.5t19 21t16 28t4.5 30.5q0 80 -116 80q-30 0 -62 -6t-50 -12
l-17 -5h-6zM160 92h98v-92h-98v92z" />
    <glyph glyph-name="question.round.smcp" horiz-adv-x="456" 
d="M209 103q26 0 41 -14.5t15 -38.5t-14.5 -39t-41.5 -15t-42 15t-15 39t15 38.5t42 14.5zM61 492v75q60 21 144 21q101 0 152 -38.5t51 -106.5q0 -32 -13.5 -60t-25 -40.5t-41 -35.5t-34.5 -28q-20 -18 -29.5 -38t-11 -33.5t-1.5 -45.5h-87q0 36 2.5 56t16 47t40.5 51
q2 2 26 22t32.5 28.5t19 28.5t10.5 41q0 38 -30.5 59t-85.5 21q-30 0 -62 -6t-50 -12l-17 -6h-6z" />
    <glyph glyph-name="exclam.smcp" horiz-adv-x="291" 
d="M102 92h98v-92h-98v92zM100 582h102l-10 -416h-82z" />
    <glyph glyph-name="exclam.round.smcp" horiz-adv-x="291" 
d="M99 582h102l-11 -420h-80zM150 103q27 0 42 -14.5t15 -38.5t-15 -39t-42 -15q-26 0 -41 15t-15 39t15 38.5t41 14.5z" />
    <glyph glyph-name="questiondown.smcp" horiz-adv-x="443" 
d="M394 90v-75q-59 -21 -144 -21q-101 0 -152 38.5t-51 106.5q0 26 7 47.5t21.5 39.5t25.5 29t32 27t28 23q29 26 36 49.5t7 67.5h86q0 -36 -2.5 -56t-16 -47.5t-40.5 -51.5q-1 -1 -26.5 -22t-32.5 -29t-18 -28.5t-11 -41.5q0 -38 30.5 -59t85.5 -21q30 0 62.5 6t49.5 12
l17 6h6zM296 493h-99v89h99v-89z" />
    <glyph glyph-name="questiondown.round.smcp" horiz-adv-x="443" 
d="M247 479q-27 0 -42 14.5t-15 38.5t15 39t42 15t41.5 -15t14.5 -39t-15 -38.5t-41 -14.5zM394 90v-75q-59 -21 -144 -21q-101 0 -152 38.5t-51 106.5q0 32 13.5 60t25 40.5t41 35.5t34.5 28q29 26 36 49.5t7 67.5h86q0 -36 -2.5 -56t-16 -47t-40.5 -51q-2 -2 -26 -22
t-32.5 -28.5t-19 -28.5t-10.5 -41q0 -38 30.5 -59t85.5 -21q30 0 62.5 6t49.5 12l17 6h6z" />
    <glyph glyph-name="exclamdown.smcp" horiz-adv-x="291" 
d="M189 493h-99v89h99v-89zM191 0h-102l11 422h80z" />
    <glyph glyph-name="exclamdown.round.smcp" horiz-adv-x="291" 
d="M191 0h-102l11 420h80zM140 479q-26 0 -41 14.5t-15 38.5t15 39t41 15q27 0 42 -15t15 -39t-15 -38.5t-42 -14.5z" />
    <glyph glyph-name="copyright.smcp" horiz-adv-x="738" 
d="M451 187v-64q-37 -15 -85 -15q-73 0 -120.5 40.5t-47.5 117.5t47.5 117.5t120.5 40.5q21 0 42.5 -4t31.5 -8l11 -3v-64h-7q-32 14 -70 14q-92 0 -92 -93t92 -93q17 0 34.5 3.5t26.5 7.5l9 3h7zM56 266q0 123 81 199.5t212 76.5q132 0 213 -76.5t81 -199.5t-81 -199.5
t-213 -76.5q-131 0 -212 76.5t-81 199.5zM123 266q0 -96 61.5 -158t165.5 -62q103 0 164.5 62t61.5 158t-61.5 158t-164.5 62q-104 0 -165.5 -62t-61.5 -158z" />
    <glyph glyph-name="parenleft.smcp" horiz-adv-x="310" 
d="M188 653h70q-4 -5 -11.5 -15.5t-25.5 -45t-32 -73.5t-25.5 -101t-11.5 -127t11 -126t26.5 -102t31 -72.5t26.5 -46.5l11 -15h-70q-5 6 -13.5 16.5t-30.5 46.5t-39 75t-30.5 100t-13.5 124t13 123t32 101.5t37.5 74t31.5 48.5z" />
    <glyph glyph-name="parenright.smcp" horiz-adv-x="310" 
d="M122 -71h-70q4 5 11.5 15.5t25.5 45t32 73.5t25.5 101t11.5 127t-11 126t-26.5 102t-31 72.5t-26.5 46.5l-11 15h70q5 -6 13.5 -16.5t30.5 -46.5t39 -75t30.5 -100t13.5 -124t-13 -123t-32 -101.5t-37.5 -74t-31.5 -48.5z" />
    <glyph glyph-name="bracketleft.smcp" horiz-adv-x="345" 
d="M87 653h202v-70h-117v-585h117v-69h-202v724z" />
    <glyph glyph-name="bracketright.smcp" horiz-adv-x="347" 
d="M260 -71h-202v69h117v585h-117v70h202v-724z" />
    <glyph glyph-name="braceleft.smcp" horiz-adv-x="345" 
d="M289 653v-70q-48 0 -69 -11t-21 -50v-142q0 -23 -2 -36t-17 -29.5t-44 -23.5q22 -5 36 -15t19.5 -24t6.5 -23.5t1 -26.5v-142q0 -39 21 -50.5t69 -11.5v-69q-36 0 -55 1t-44.5 8t-42.5 22q-16 14 -23.5 34.5t-8.5 32.5t-1 36v144q0 31 -16.5 40t-54.5 9v70q38 0 54.5 9
t16.5 40v144q0 23 1 35.5t8.5 32.5t23.5 34q24 21 56.5 26.5t85.5 5.5z" />
    <glyph glyph-name="braceright.smcp" horiz-adv-x="345" 
d="M56 583v70q35 0 55 -1.5t45 -8.5t42 -22q16 -14 23.5 -34t8.5 -32.5t1 -35.5v-144q0 -31 16.5 -40t54.5 -9v-70q-38 0 -54.5 -9t-16.5 -40v-144q0 -24 -1 -36t-8.5 -32.5t-23.5 -34.5q-17 -15 -42.5 -22t-44.5 -8t-55 -1v69q48 0 69 11.5t21 50.5v142q0 17 1 26.5
t6.5 23.5t19.5 24t36 15q-29 7 -44 23.5t-17 29.5t-2 36v142q0 39 -21 50t-69 11z" />
    <glyph glyph-name="slash.smcp" horiz-adv-x="380" 
d="M353 604l-246 -626h-80l246 626h80z" />
    <glyph glyph-name="backslash.smcp" horiz-adv-x="380" 
d="M273 -22l-246 626h80l246 -626h-80z" />
    <glyph glyph-name="two.tnum" 
d="M528 77v-77h-464v66q35 34 95 89.5t87.5 81.5t66.5 67t56 68t30 60.5t13 66.5q0 123 -158 123q-39 0 -80.5 -7t-63.5 -14l-23 -7h-8v77q84 24 184 24q128 0 190 -49.5t62 -135.5q0 -39 -14 -77t-33.5 -68.5t-56 -69.5t-67 -66.5t-81.5 -73.5t-84 -78h349z" />
    <glyph glyph-name="three.tnum" 
d="M137 322v74h65q84 0 133 24q57 28 57 96q0 51 -34 78.5t-115 27.5q-37 0 -75.5 -6t-59.5 -12l-20 -5h-9v75q76 21 171 21q126 0 185 -45.5t59 -122.5q0 -65 -39 -106.5t-111 -54.5q76 -11 121 -56.5t45 -119.5q0 -89 -70.5 -143t-207.5 -54q-43 0 -83 5t-59 10l-19 6v74
h8q69 -22 152 -22q178 0 178 127q0 72 -64 104q-51 25 -144 25h-64z" />
    <glyph glyph-name="four.tnum" 
d="M559 151h-114v-151h-89v151h-322v65l299 472h112v-463h114v-74zM122 225h234v362z" />
    <glyph glyph-name="five.tnum" 
d="M484 612h-282l-14 -198q34 4 73 4q134 0 195 -57t61 -151q0 -103 -68 -160t-198 -57q-41 0 -81.5 6t-60.5 11l-20 6v77h8q73 -27 156 -27q164 0 164 138q0 142 -185 142q-24 0 -54 -2t-48 -4l-18 -3h-8l21 351h359v-76z" />
    <glyph glyph-name="six.tnum" 
d="M548 217q0 -101 -64.5 -165t-177.5 -64q-127 0 -187 83q-50 70 -50 233q0 209 71 300t230 91q34 0 67.5 -3.5t49.5 -7.5l16 -4v-78h-7q-59 20 -130 20q-112 0 -156.5 -69t-44.5 -223q16 47 59.5 73t108.5 26q99 0 157 -58.5t58 -153.5zM312 358q-64 0 -103.5 -38.5
t-39.5 -108.5q0 -66 36.5 -109t102.5 -43q64 0 102.5 40.5t38.5 111.5q0 68 -36 107.5t-101 39.5z" />
    <glyph glyph-name="seven.tnum" 
d="M438 612h-390v76h493v-54l-282 -634h-105z" />
    <glyph glyph-name="eight.tnum" 
d="M80 527q0 81 61 126.5t160 45.5q98 0 158.5 -44.5t60.5 -123.5q0 -59 -35.5 -102.5t-96.5 -67.5q155 -55 155 -185q0 -87 -69 -137t-179 -50q-107 0 -173 48.5t-66 131.5q0 127 154 185q-130 52 -130 173zM177 526q0 -49 37 -82t109 -58q100 49 100 137q0 49 -32.5 77.5
t-90.5 28.5t-90.5 -28t-32.5 -75zM155 177q0 -56 38.5 -87t105.5 -31q68 0 106.5 31.5t38.5 83.5q0 53 -43 89t-127 63q-119 -51 -119 -149z" />
    <glyph glyph-name="nine.tnum" 
d="M52 471q0 100 64 164t177 64q127 0 187 -82q51 -70 51 -234q0 -208 -71.5 -299t-229.5 -91q-34 0 -67.5 3.5t-50.5 7.5l-16 4v78h8q58 -20 129 -20q112 0 157 69t45 223q-17 -47 -60.5 -73.5t-108.5 -26.5q-99 0 -156.5 58.5t-57.5 154.5zM287 329q64 0 104 39t40 108
q0 66 -36.5 109t-103.5 43q-64 0 -102 -40.5t-38 -111.5q0 -67 35.5 -107t100.5 -40z" />
    <glyph glyph-name="zero.tnum" 
d="M541 347q0 -61 -6 -110.5t-22 -97t-42.5 -80t-70.5 -52t-102 -19.5t-101 19.5t-69 51t-42 79t-21.5 95.5t-5.5 108q0 61 6 110.5t22 97t42.5 79.5t70 51.5t101.5 19.5t101.5 -19.5t69.5 -51t42 -79t21.5 -95.5t5.5 -107zM441 344q0 149 -34 215.5t-107 66.5
q-74 0 -107.5 -66t-33.5 -216t33.5 -216.5t107.5 -66.5q73 0 107 66.5t34 216.5z" />
    <glyph glyph-name="numbersign.tnum" 
d="M572 536l-6 -69h-103l-22 -246h104l-6 -69h-104l-13 -152h-79l13 152h-147l-13 -152h-79l13 152h-103l7 69h102l22 246h-104l7 69h103l14 152h79l-14 -152h147l14 152h78l-13 -152h103zM237 467l-22 -246h147l22 246h-147z" />
    <glyph glyph-name="Euro.tnum" 
d="M444 227h-231q44 -161 202 -161q32 0 64.5 7t48.5 13l17 7h7v-77q-56 -23 -141 -23q-125 0 -199.5 62t-98.5 172h-88v71h77q-1 15 -1 46t1 46h-77v71h88q24 109 98.5 171.5t199.5 62.5q38 0 73 -5.5t52 -11.5l16 -6v-77h-7q-58 27 -131 27q-160 0 -203 -161h287l-17 -71
h-282q-1 -14 -1 -43q0 -33 2 -49h260z" />
    <glyph glyph-name="sterling.tnum" 
d="M80 315v73h89q-42 82 -42 136q0 82 61.5 126.5t168.5 44.5q32 0 63.5 -4t47.5 -8l16 -4v-76h-7q-57 20 -122 20t-99 -25.5t-34 -71.5q0 -17 5.5 -36.5t11.5 -31.5t18.5 -35.5t17.5 -34.5h193v-73h-167q6 -25 6 -53q0 -70 -32 -117t-79 -71h331v-74h-449v62
q134 64 134 187q0 35 -11 66h-121z" />
    <glyph glyph-name="yen.tnum" 
d="M506 144h-160v-144h-92v144h-161v64h161v79h-161v64h145l-215 337h107l177 -291l179 291h90l-215 -337h145v-64h-160v-79h160v-64z" />
    <glyph glyph-name="uni20BA.tnum" 
d="M340 317l-132 -48v-195q284 0 284 275h79q0 -228 -166 -309q-81 -40 -216 -40h-77v234l-86 -31v65l86 31v77l-86 -31v65l86 31v247h96v-212l132 48v-65l-132 -48v-77l132 48v-65z" />
    <glyph glyph-name="rupee.tnum" 
d="M548 446h-131q-9 -74 -68.5 -117t-163.5 -45l269 -284h-118l-259 280v60h59q89 0 133 24q49 28 57 82h-249v62h249q-9 54 -57 81q-45 25 -133 25h-59v74h471v-74h-212q29 -9 51 -37t29 -69h132v-62z" />
    <glyph glyph-name="A.cap" horiz-adv-x="635" 
d="M615 0h-103l-64 188h-274l-66 -188h-88l252 688h98zM314 584l-114 -323h223z" />
    <glyph glyph-name="B.cap" horiz-adv-x="626" 
d="M98 688h201q36 0 55.5 -1t48.5 -7.5t52 -19.5q76 -44 76 -140q0 -39 -12 -69t-29.5 -45t-35 -24.5t-29.5 -11.5l-12 -3q6 0 17 -2t38.5 -12.5t48.5 -26.5t38 -50.5t17 -79.5q0 -103 -83 -157q-60 -39 -180 -39h-211v688zM193 323v-252h113q75 0 114 25q52 34 52 101
q0 70 -59 103q-42 23 -115 23h-105zM193 617v-221h98q59 0 91 17q50 27 50 93q0 68 -49 95q-30 16 -94 16h-96z" />
    <glyph glyph-name="C.cap" horiz-adv-x="599" 
d="M538 93v-77q-63 -23 -150 -23q-111 0 -186.5 49t-108 126t-32.5 176t32.5 176t108 126t186.5 49q39 0 76.5 -5.5t55.5 -11.5l18 -6v-77h-7q-63 28 -139 28q-114 0 -171.5 -77t-57.5 -198q0 -123 58 -203t173 -80q33 0 67.5 7t52.5 14l17 7h7z" />
    <glyph glyph-name="D.cap" horiz-adv-x="715" 
d="M98 688h179q48 0 76.5 -1.5t74.5 -12t82 -30.5q144 -83 144 -300q0 -219 -149 -301q-36 -20 -81 -30t-72.5 -11.5t-74.5 -1.5h-179v688zM194 615v-542h89q110 0 164 31q105 61 105 239q0 180 -107 241q-55 31 -162 31h-89z" />
    <glyph glyph-name="E.cap" horiz-adv-x="563" 
d="M98 688h393v-74h-298v-218h253v-73h-253v-249h312v-74h-407v688z" />
    <glyph glyph-name="F.cap" horiz-adv-x="525" 
d="M98 688h383v-75h-287v-252h255v-75h-255v-286h-96v688z" />
    <glyph glyph-name="G.cap" horiz-adv-x="694" 
d="M386 359h228v-331q-86 -36 -204 -36q-161 0 -255 87t-94 260q0 176 98 266t264 90q43 0 85.5 -6t63.5 -12l21 -6v-79h-7q-68 31 -162 31q-121 0 -191 -68.5t-70 -207.5t68 -211t179 -72q28 0 55 4.5t41 9.5l13 4v204h-133v73z" />
    <glyph glyph-name="H.cap" horiz-adv-x="724" 
d="M98 688h96v-292h336v292h96v-688h-96v323h-336v-323h-96v688z" />
    <glyph glyph-name="I.cap" horiz-adv-x="292" 
d="M98 688h96v-688h-96v688z" />
    <glyph glyph-name="J.cap" horiz-adv-x="413" 
d="M22 6v75h7q40 -14 79 -14q61 0 91 42q20 29 20 103v476h96v-470q0 -33 -1 -52t-9.5 -49t-24.5 -52q-51 -70 -167 -70q-23 0 -46 3t-34 6z" />
    <glyph glyph-name="K.cap" horiz-adv-x="635" 
d="M98 688h95v-323l295 323h106l-266 -288l274 -400h-114l-225 334l-70 -72v-262h-95v688z" />
    <glyph glyph-name="L.cap" horiz-adv-x="502" 
d="M98 688h96v-613h285v-75h-381v688z" />
    <glyph glyph-name="M.cap" horiz-adv-x="916" 
d="M98 688h123l239 -555l236 555h122v-688h-95v570l-227 -537h-86l-226 537v-570h-86v688z" />
    <glyph glyph-name="N.cap" horiz-adv-x="735" 
d="M98 688h95l358 -532v532h86v-688h-87l-366 539v-539h-86v688z" />
    <glyph glyph-name="O.cap" horiz-adv-x="747" 
d="M686 347q0 -169 -82 -264t-233 -95q-149 0 -229.5 93t-80.5 260q0 169 82 264t233 95q149 0 229.5 -93t80.5 -260zM373 61q103 0 157 71t54 212t-54 212t-157 71q-102 0 -156 -71t-54 -212t54 -212t156 -71z" />
    <glyph glyph-name="P.cap" horiz-adv-x="599" 
d="M98 688h169q135 0 196 -38q88 -55 88 -177q0 -127 -96 -185q-62 -37 -190 -37h-71v-251h-96v688zM194 615v-291h84q85 0 121 26q51 37 51 120t-51 119q-36 26 -121 26h-84z" />
    <glyph glyph-name="Q.cap" horiz-adv-x="747" 
d="M686 347q0 -116 -39.5 -199t-114.5 -123l100 -135h-112l-72 106q-38 -8 -77 -8q-149 0 -229.5 93t-80.5 260q0 169 82 264t233 95q149 0 229.5 -93t80.5 -260zM373 61q103 0 157 71t54 212t-54 212t-157 71q-102 0 -156 -71t-54 -212t54 -212t156 -71z" />
    <glyph glyph-name="R.cap" horiz-adv-x="630" 
d="M321 286h-128v-286h-95v688h213q37 0 56.5 -1t54 -9.5t60.5 -26.5q76 -51 76 -159q0 -153 -141 -194l178 -298h-109zM193 615v-256h117q69 0 102 22q46 32 46 106q0 75 -46 106q-34 22 -102 22h-117z" />
    <glyph glyph-name="S.cap" horiz-adv-x="545" 
d="M454 670v-76h-7q-75 30 -151 30q-62 0 -95.5 -25.5t-33.5 -69.5q0 -42 33 -72t79.5 -50.5t93 -44.5t79.5 -68.5t33 -107.5q0 -96 -69 -144.5t-178 -48.5q-45 0 -87.5 8t-62.5 16l-21 8v79h7q86 -40 170 -40q66 0 104 30t38 81q0 45 -33 77t-79.5 53t-93 44.5t-79.5 65.5
t-33 101q0 84 60 131.5t166 47.5q39 0 79 -6.5t61 -12.5z" />
    <glyph glyph-name="T.cap" horiz-adv-x="559" 
d="M30 688h499v-75h-202v-613h-96v613h-201v75z" />
    <glyph glyph-name="U.cap" horiz-adv-x="714" 
d="M98 688h96v-435q0 -93 37 -142.5t131 -49.5q95 0 131.5 49.5t36.5 142.5v435h86v-419q0 -41 -1.5 -66.5t-15 -67.5t-38.5 -71q-67 -76 -206 -76q-136 0 -202 76q-19 23 -31.5 49t-17 57t-5.5 49.5t-1 49.5v419z" />
    <glyph glyph-name="V.cap" horiz-adv-x="647" 
d="M28 688h106l194 -577l203 577h88l-254 -688h-92z" />
    <glyph glyph-name="W.cap" horiz-adv-x="955" 
d="M35 688h102l146 -563l155 544h96l150 -544l151 563h85l-195 -688h-96l-152 549l-156 -549h-97z" />
    <glyph glyph-name="X.cap" horiz-adv-x="662" 
d="M47 688h114l178 -275l179 275h96l-224 -332l239 -356h-116l-191 295l-193 -295h-95l237 354z" />
    <glyph glyph-name="Y.cap" horiz-adv-x="606" 
d="M20 688h112l181 -330l182 330h91l-236 -415v-273h-96v272z" />
    <glyph glyph-name="Z.cap" horiz-adv-x="604" 
d="M536 688v-65l-365 -549h372v-74h-485v68l364 546h-351v74h465z" />
    <glyph glyph-name="K.alt.cap" horiz-adv-x="649" 
d="M98 688h96v-314l304 314h106l-308 -310l332 -378h-121l-313 360v-360h-96v688z" />
    <glyph glyph-name="AE.cap" horiz-adv-x="904" 
d="M832 688v-74h-298v-218h253v-73h-253v-249h312v-74h-405v190h-229l-108 -190h-93l401 688h420zM441 594l-190 -334h190v334z" />
    <glyph glyph-name="OE.cap" horiz-adv-x="1006" 
d="M561 614q4 -2 10 -6t23 -20.5t30.5 -39t26.5 -63t17 -89.5h221v-73h-219q-2 -57 -14.5 -104t-29 -72.5t-32.5 -43t-27 -23.5l-11 -6h392v-74h-563q-39 0 -64.5 1.5t-69.5 15t-77 38.5q-113 86 -113 288q0 203 118 290q35 25 78.5 38.5t69 15t65.5 1.5h542v-74h-373z
M367 68q98 0 151 68.5t53 207.5t-53 207.5t-151 68.5t-151 -68.5t-53 -207.5t53 -207.5t151 -68.5z" />
    <glyph glyph-name="Eth.cap" horiz-adv-x="742" 
d="M125 688h179q48 0 76.5 -1.5t74.5 -12t82 -30.5q144 -81 144 -300q0 -217 -149 -300q-36 -20 -80.5 -30.5t-73 -12t-74.5 -1.5h-179v323h-100v73h100v292zM220 615v-219h164v-73h-164v-250h90q110 0 164 31q105 60 105 240t-106 240q-55 31 -163 31h-90z" />
    <glyph glyph-name="Thorn.cap" horiz-adv-x="599" 
d="M98 688h96v-124h72q137 0 197 -38q88 -55 88 -177q0 -126 -97 -185q-38 -23 -81.5 -29.5t-107.5 -6.5h-71v-128h-96v688zM194 491v-291h84q83 0 120 26q52 37 52 120t-52 120q-36 25 -120 25h-84z" />
    <glyph glyph-name="Schwa.cap" horiz-adv-x="662" 
d="M100 591v75q77 29 188 29q157 0 232 -82q81 -88 81 -266q0 -170 -74.5 -264.5t-206.5 -94.5q-150 0 -213 117q-19 36 -29 87.5t-11.5 85.5t-1.5 93h438q0 122 -56.5 187.5t-165.5 65.5q-39 0 -82.5 -8t-66.5 -16l-24 -9h-8zM503 300h-341q0 -240 159 -240q85 0 131 64
t51 176z" />
    <glyph glyph-name="Lslash.cap" horiz-adv-x="531" 
d="M128 688h96v-261l152 56v-72l-152 -56v-280h284v-75h-380v320l-103 -37v72l103 37v296z" />
    <glyph glyph-name="Lcaron.cap" horiz-adv-x="502" 
d="M331 475h-64l37 213h89zM98 688h96v-613h285v-75h-381v688z" />
    <glyph glyph-name="Oslash.cap" horiz-adv-x="746" 
d="M686 344q0 -168 -82.5 -262t-231.5 -94q-105 0 -179 48l-44 -62h-93l85 108q-80 92 -80 261t82 263t231 94q105 0 179 -49l45 63h92l-85 -109q81 -93 81 -261zM158 344q0 -120 39 -190l309 432q-51 45 -133 45q-104 0 -159.5 -72.5t-55.5 -214.5zM373 57
q104 0 159.5 72.5t55.5 214.5q0 116 -39 189l-309 -432q50 -44 133 -44z" />
    <glyph glyph-name="Uogonek.cap" horiz-adv-x="714" 
d="M98 688h96v-435q0 -93 37 -142.5t131 -49.5q95 0 131.5 49.5t36.5 142.5v435h86v-417q0 -42 -2 -66t-9.5 -59.5t-28 -63.5t-52.5 -51q-26 -18 -77 -40.5t-77.5 -42t-26.5 -48.5q0 -48 67 -48q13 0 27 2t21 4l7 3h8v-56q-34 -7 -72 -7q-61 0 -96.5 23t-35.5 67
q0 72 102 102q-75 0 -127.5 15.5t-90.5 58.5q-20 23 -32 49t-16.5 56.5t-5.5 49.5t-1 52v417z" />
    <glyph glyph-name="ampersand.cap" horiz-adv-x="718" 
d="M699 0h-116l-94 87q-81 -98 -215 -98q-99 0 -159.5 48t-60.5 126q0 61 37.5 105t108.5 85q-50 50 -73 91.5t-23 89.5q0 74 51 120t137 46q83 0 132.5 -42.5t49.5 -108.5q0 -59 -39 -102.5t-115 -94.5l170 -156q35 77 47 178h86q-16 -137 -75 -226l151 -141v-7zM289 58
q87 0 150 76l-188 172q-47 -33 -72 -65t-25 -72q0 -50 38.5 -80.5t96.5 -30.5zM197 539q0 -65 80 -145q54 38 83 72t29 77q0 41 -27.5 66t-68.5 25q-42 0 -69 -26t-27 -69z" />
    <glyph glyph-name="question.cap" horiz-adv-x="506" 
d="M66 594v76q67 25 162 25q113 0 170 -45t57 -124q0 -31 -8 -57t-24.5 -47t-30.5 -34.5t-36 -31.5t-31 -27q-24 -22 -35.5 -46.5t-13 -42t-1.5 -51.5h-87q0 31 1.5 47.5t7 42t20.5 47t40 44.5q3 3 24.5 21.5t29.5 27t22.5 26t20 36t5.5 39.5q0 49 -36.5 76t-103.5 27
q-35 0 -71.5 -7.5t-55.5 -14.5l-19 -7h-7zM181 96h101v-96h-101v96z" />
    <glyph glyph-name="question.round.cap" horiz-adv-x="506" 
d="M231 108q28 0 43 -16t15 -41q0 -24 -15.5 -40t-42.5 -16t-42.5 16t-15.5 40q0 25 15.5 41t42.5 16zM66 594v76q67 25 162 25q113 0 170 -45.5t57 -124.5q0 -30 -8 -55.5t-24 -46.5t-29 -34t-36.5 -32t-32.5 -27q-24 -22 -35 -46t-13 -42t-2 -55h-88q0 44 2.5 66.5t18 55
t48.5 62.5q3 2 30.5 26t37.5 35t22.5 36t12.5 51q0 50 -36.5 77t-103.5 27q-35 0 -71.5 -7.5t-55.5 -14.5l-19 -7h-7z" />
    <glyph glyph-name="exclam.cap" horiz-adv-x="316" 
d="M114 96h100v-96h-100v96zM113 688h102l-11 -499h-80z" />
    <glyph glyph-name="exclam.round.cap" horiz-adv-x="316" 
d="M113 688h102l-11 -501h-80zM164 108q27 0 42.5 -16t15.5 -41q0 -24 -15.5 -40t-42.5 -16t-42.5 16t-15.5 40q0 25 15.5 41t42.5 16z" />
    <glyph glyph-name="questiondown.cap" horiz-adv-x="492" 
d="M440 94v-76q-67 -25 -162 -25q-113 0 -170 45.5t-57 124.5q0 30 7.5 55.5t24 46.5t29.5 34t36.5 32.5t32.5 27.5q34 32 42 60.5t8 84.5h88q0 -45 -2.5 -67.5t-18 -55.5t-48.5 -63q-6 -6 -25 -21.5t-29 -26t-23.5 -27t-19.5 -35t-6 -39.5q0 -50 37 -77t104 -27
q35 0 71 7.5t55 14.5l19 7h7zM326 594h-102v94h102v-94z" />
    <glyph glyph-name="questiondown.round.cap" horiz-adv-x="492" 
d="M275 580q-27 0 -42.5 16t-15.5 41q0 24 15.5 40t42.5 16t42.5 -16t15.5 -40q0 -25 -15.5 -41t-42.5 -16zM440 94v-76q-67 -25 -162 -25q-113 0 -170 45.5t-57 124.5q0 30 8 55.5t24 46.5t29 34t36.5 32t32.5 27q24 22 35 46t13 42t2 55h88q0 -44 -2.5 -66.5t-18 -55
t-48.5 -62.5q-3 -2 -30.5 -26t-37.5 -35t-22.5 -36t-12.5 -51q0 -50 37 -77t104 -27q35 0 71 7.5t55 14.5l19 7h7z" />
    <glyph glyph-name="exclamdown.cap" horiz-adv-x="316" 
d="M203 594h-102v94h102v-94zM203 0h-102l11 504h80z" />
    <glyph glyph-name="exclamdown.round.cap" horiz-adv-x="316" 
d="M203 0h-102l11 501h80zM152 580q-27 0 -42.5 16t-15.5 41q0 24 15.5 40t42.5 16t42.5 -16t15.5 -40q0 -25 -15.5 -41t-42.5 -16z" />
    <glyph glyph-name="hyphen.superior" horiz-adv-x="379" 
d="M329 529h-279v63h279v-63z" />
    <glyph glyph-name="period.superior" horiz-adv-x="200" 
d="M59 445h85v-82h-85v82z" />
    <glyph glyph-name="period.round.superior" horiz-adv-x="202" 
d="M102 459q22 0 36 -14t14 -36t-14 -36t-36 -14t-36 14t-14 36t14 36t36 14z" />
    <glyph glyph-name="comma.superior" horiz-adv-x="201" 
d="M67 445h82l-51 -176h-61z" />
    <glyph glyph-name="dollar.gap.superior" horiz-adv-x="368" 
d="M210 328h-70l3 52q-26 1 -50 6t-35 9l-11 4v62h5q59 -23 116 -23q76 0 76 47q0 22 -20.5 36t-50 23t-58.5 20t-49.5 33.5t-20.5 57.5q0 43 29 70t82 35l-1 55h69l-3 -53q22 -1 43.5 -4.5t32.5 -6.5l11 -3v-61h-5q-53 18 -104 18q-71 0 -71 -41q0 -20 20.5 -32.5t50 -21
t58.5 -19.5t49.5 -35.5t20.5 -60.5q0 -47 -31.5 -75t-87.5 -37z" />
    <glyph glyph-name="a.superior" horiz-adv-x="403" 
d="M72 636v65q51 14 116 14q98 0 131 -46q22 -30 22 -107v-199h-61l-17 57q-6 -27 -31.5 -46t-70.5 -19q-54 0 -88 27.5t-34 77.5q0 58 50 86q21 12 51.5 17.5t53 6.5t66.5 1q0 43 -11 59q-16 24 -71 24q-24 0 -49 -4.5t-39 -9.5l-13 -4h-5zM124 464q0 -46 56 -46
q48 0 68 33q12 20 12 61v8q-83 0 -109 -13q-27 -13 -27 -43z" />
    <glyph glyph-name="a.alt.superior" horiz-adv-x="413" 
d="M73 636v64q45 15 115 15q96 0 127 -43q20 -27 20 -93v-119q0 -41 31 -41l20 3v-58q-19 -5 -45 -5q-72 0 -79 62q-10 -30 -38.5 -46.5t-69.5 -16.5q-53 0 -84.5 28.5t-31.5 75.5q0 111 181 111l35 -1q0 44 -11 59q-17 23 -67 23q-23 0 -47.5 -4.5t-36.5 -9.5l-13 -4h-6z
M123 466q0 -47 54 -47q45 0 64 33q13 22 13 61v8h-21q-22 0 -35.5 -1t-33.5 -5.5t-30.5 -17t-10.5 -31.5z" />
    <glyph glyph-name="b.superior" horiz-adv-x="454" 
d="M66 855h81v-203q20 66 108 66q72 0 113.5 -47.5t41.5 -132.5q0 -86 -43.5 -134.5t-120.5 -48.5q-84 0 -107 60l-22 -52h-51v492zM234 655q-89 0 -89 -119q0 -121 89 -121t89 121q0 119 -89 119z" />
    <glyph glyph-name="c.superior" horiz-adv-x="348" 
d="M305 434v-66q-33 -10 -79 -10q-89 0 -135.5 47t-46.5 131q0 85 46.5 132t135.5 47q20 0 40 -2.5t30 -4.5l9 -3v-66h-5q-32 14 -70 14q-48 0 -73.5 -30.5t-25.5 -85.5t25.5 -86t73.5 -31q16 0 33.5 3.5t26.5 6.5l10 4h5z" />
    <glyph glyph-name="d.superior" horiz-adv-x="454" 
d="M307 855h81v-492h-63l-16 58q-9 -31 -38 -48.5t-72 -17.5q-74 0 -114.5 49t-40.5 131q0 83 41.5 133t118.5 50q82 0 103 -60v197zM220 655q-89 0 -89 -118q0 -119 89 -119t89 119q0 118 -89 118z" />
    <glyph glyph-name="e.superior" horiz-adv-x="410" 
d="M343 437v-64q-48 -15 -113 -15q-92 0 -138 43q-48 45 -48 132q0 86 44 136t123 50q89 0 128 -61q25 -39 25 -144h-235q0 -46 27 -71t79 -25q23 0 49 5t40 9l14 5h5zM129 570h152q0 92 -72 92t-80 -92z" />
    <glyph glyph-name="f.superior" horiz-adv-x="315" 
d="M283 645h-104v-282h-81v282h-71v60h71v22q0 58 15 82q29 48 113 48l57 -5v-64h-5q-24 8 -48 8q-33 0 -44 -22q-7 -14 -7 -49v-20h104v-60z" />
    <glyph glyph-name="g.superior" horiz-adv-x="455" 
d="M389 710v-297q0 -84 -25 -118q-45 -61 -165 -61q-34 0 -66 5t-47 9l-15 5v70h6q62 -28 126 -28q68 0 93 38q14 20 14 75v24q-24 -62 -111 -62q-72 0 -113.5 46t-41.5 126q0 81 43 128.5t120 47.5q83 0 110 -59l23 51h49zM221 430q89 0 89 113q0 115 -89 115
q-90 0 -90 -115q0 -113 90 -113z" />
    <glyph glyph-name="g.alt.superior" horiz-adv-x="426" 
d="M353 607q0 -52 -40 -82.5t-107 -30.5q-31 0 -51 5q-21 -9 -21 -29q0 -27 51 -27h64q20 0 32.5 -0.5t35.5 -5.5t37 -14t25 -28t11 -45q0 -116 -194 -116q-167 0 -167 85q0 21 9.5 35.5t24.5 21.5t22 9t15 3q-5 1 -14.5 6t-20.5 19.5t-11 34.5q0 29 20.5 44t45.5 19
q-61 30 -61 96q0 51 40 81.5t107 30.5q65 0 106 -30q16 44 77 44h8v-68q-13 3 -30 3t-30 -5q16 -26 16 -56zM240 376h-108q-28 -13 -28 -42q0 -45 94 -45q111 0 111 50q0 37 -69 37zM206 551q64 0 64 56q0 55 -64 55t-64 -55q0 -56 64 -56z" />
    <glyph glyph-name="h.superior" horiz-adv-x="440" 
d="M66 855h81v-199q19 62 103 62q74 0 107 -46q21 -29 21 -105v-204h-82v206q0 40 -12 57q-19 26 -61 26q-76 0 -76 -77v-212h-81v492z" />
    <glyph glyph-name="i.round.superior" horiz-adv-x="213" 
d="M107 857q21 0 35 -13.5t14 -34.5t-14 -35t-36 -14t-35.5 14t-13.5 35t14 34.5t36 13.5zM66 710h81v-347h-81v347z" />
    <glyph glyph-name="j.superior" horiz-adv-x="216" 
d="M-18 242v59h5q15 -2 28 -2q34 0 46 20q8 12 8 47v344h81v-340q0 -56 -16 -82q-30 -49 -113 -49zM68 838h84v-74h-84v74z" />
    <glyph glyph-name="j.round.superior" horiz-adv-x="216" 
d="M-18 242v59h5q15 -2 28 -2q34 0 46 20q8 12 8 47v344h81v-340q0 -56 -16 -82q-30 -49 -113 -49zM110 857q22 0 35.5 -13.5t13.5 -34.5t-13.5 -35t-35.5 -14t-36 14t-14 35t14 34.5t36 13.5z" />
    <glyph glyph-name="k.superior" horiz-adv-x="414" 
d="M66 855h81v-291l141 146h90l-138 -141l143 -206h-94l-103 154l-39 -37v-117h-81v492z" />
    <glyph glyph-name="k.alt.superior" horiz-adv-x="419" 
d="M66 855h81v-303l150 158h90l-156 -156l162 -191h-100l-146 177v-177h-81v492z" />
    <glyph glyph-name="l.superior" horiz-adv-x="213" 
d="M66 855h81v-492h-81v492z" />
    <glyph glyph-name="m.superior" horiz-adv-x="652" 
d="M66 710h63l15 -59q19 67 106 67q85 0 111 -70q25 70 106 70q71 0 102 -46q21 -30 21 -105v-204h-82v206q0 40 -12 57q-17 26 -57 26q-70 0 -70 -77v-212h-82v206q0 40 -12 57q-17 26 -57 26q-70 0 -70 -77v-212h-82v347z" />
    <glyph glyph-name="o.superior" horiz-adv-x="441" 
d="M397 537q0 -88 -46 -135.5t-131 -47.5q-84 0 -130 46.5t-46 135.5q0 88 45.5 135.5t131.5 47.5q84 0 130 -46.5t46 -135.5zM220 413q90 0 90 123q0 124 -90 124q-89 0 -89 -124q0 -123 89 -123z" />
    <glyph glyph-name="p.superior" horiz-adv-x="454" 
d="M147 239h-81v471h63l17 -58q8 31 37 48.5t72 17.5q74 0 114.5 -49t40.5 -131q0 -83 -41.5 -133t-118.5 -50q-80 0 -103 60v-176zM234 418q89 0 89 119q0 118 -89 118t-89 -119q0 -118 89 -118z" />
    <glyph glyph-name="q.superior" horiz-adv-x="454" 
d="M388 239h-81v182q-19 -66 -108 -66q-72 0 -113.5 47.5t-41.5 132.5q0 86 43.5 134.5t120.5 48.5q84 0 108 -60l22 52h50v-471zM220 418q89 0 89 120t-89 120t-89 -121q0 -119 89 -119z" />
    <glyph glyph-name="r.superior" horiz-adv-x="291" 
d="M266 714v-77q-18 3 -37 3q-28 0 -46.5 -8t-25 -23.5t-8 -25t-1.5 -25.5v-195h-82v347h62l16 -68q16 72 112 72h10z" />
    <glyph glyph-name="s.superior" horiz-adv-x="343" 
d="M281 702v-65h-5q-46 17 -87 17q-57 0 -57 -32q0 -17 26 -30.5t57 -23.5t57 -37t26 -68q0 -53 -40 -79t-108 -26q-27 0 -52 4t-36 8l-12 4v66h5q54 -21 102 -21q59 0 59 36q0 20 -26 35.5t-57 25t-57 34.5t-26 63q0 47 37 74.5t104 27.5q23 0 45.5 -3.5t33.5 -6.5z" />
    <glyph glyph-name="t.superior" horiz-adv-x="321" 
d="M277 428v-62q-28 -8 -66 -8q-74 0 -101 39q-16 24 -16 89v159h-67v60h67v90l81 24v-114h102v-60h-102v-157q0 -40 8 -53q10 -16 39 -16q12 0 24.5 2.5t19.5 4.5l6 2h5z" />
    <glyph glyph-name="u.superior" horiz-adv-x="440" 
d="M374 363h-63l-16 59q-17 -67 -107 -67q-71 0 -101 43q-21 29 -21 108v204h82v-206q0 -40 12 -57q19 -26 62 -26q70 0 70 77v212h82v-347z" />
    <glyph glyph-name="v.superior" horiz-adv-x="424" 
d="M34 710h92l94 -255l95 255h75l-138 -347h-81z" />
    <glyph glyph-name="w.superior" horiz-adv-x="618" 
d="M40 710h86l72 -255l78 248h80l77 -248l73 255h72l-107 -347h-84l-78 251l-79 -251h-84z" />
    <glyph glyph-name="x.superior" horiz-adv-x="418" 
d="M39 710h100l78 -118l78 118h82l-117 -168l126 -179h-101l-84 126l-84 -126h-83l123 176z" />
    <glyph glyph-name="y.superior" horiz-adv-x="424" 
d="M390 710l-193 -471h-82l60 130l-141 341h92l93 -247l96 247h75z" />
    <glyph glyph-name="y.alt.superior" horiz-adv-x="424" 
d="M390 710l-136 -339q-14 -34 -23.5 -53t-27 -40.5t-42 -31t-59.5 -9.5l-49 5v64h5q25 -8 45 -8q26 0 43 18.5t34 57.5l-146 336h92l96 -241l93 241h75z" />
    <glyph glyph-name="z.superior" horiz-adv-x="370" 
d="M319 705v-60l-177 -222h180v-60h-273v65l173 217h-170v60h267z" />
    <glyph glyph-name="plus.inferior" horiz-adv-x="473" 
d="M272 -191h-71v139h-139v61h139v138h71v-138h139v-61h-139v-139z" />
    <glyph glyph-name="minus.inferior" horiz-adv-x="473" 
d="M411 -52h-349v61h349v-61z" />
    <glyph glyph-name="hyphen.inferior" horiz-adv-x="379" 
d="M329 -52h-279v63h279v-63z" />
    <glyph glyph-name="equal.inferior" horiz-adv-x="473" 
d="M394 -115h-315v58h315v-58zM394 14h-315v57h315v-57z" />
    <glyph glyph-name="period.inferior" horiz-adv-x="200" 
d="M59 -118h85v-82h-85v82z" />
    <glyph glyph-name="period.round.inferior" horiz-adv-x="202" 
d="M102 -104q22 0 36 -14t14 -36t-14 -36t-36 -14t-36 14t-14 36t14 36t36 14z" />
    <glyph glyph-name="comma.inferior" horiz-adv-x="201" 
d="M67 -118h82l-51 -176h-61z" />
    <glyph glyph-name="dollar.gap.inferior" horiz-adv-x="368" 
d="M210 -235h-70l3 53q-26 1 -50 5.5t-35 8.5l-11 4v62h5q59 -23 116 -23q76 0 76 47q0 22 -20.5 36t-50 23t-58.5 20t-49.5 33.5t-20.5 57.5q0 43 29 70t82 35l-1 55h69l-3 -53q22 -1 43.5 -4.5t32.5 -6.5l11 -3v-61h-5q-53 18 -104 18q-71 0 -71 -41q0 -20 20.5 -32.5
t50 -21t58.5 -19.5t49.5 -35.5t20.5 -60.5q0 -47 -31.5 -75t-87.5 -36z" />
    <glyph glyph-name="a.inferior" horiz-adv-x="403" 
d="M72 73v65q51 14 116 14q98 0 131 -46q22 -30 22 -107v-199h-61l-17 57q-6 -27 -31.5 -46t-70.5 -19q-54 0 -88 27.5t-34 77.5q0 58 50 86q21 12 51.5 17.5t53 6.5t66.5 1q0 43 -11 59q-17 24 -71 24q-24 0 -49 -4.5t-39 -8.5l-13 -5h-5zM124 -99q0 -46 56 -46q48 0 68 33
q12 20 12 61v8q-83 0 -109 -13q-27 -14 -27 -43z" />
    <glyph glyph-name="a.alt.inferior" horiz-adv-x="413" 
d="M73 73v64q45 15 115 15q96 0 127 -43q20 -27 20 -93v-119q0 -41 31 -41l20 3v-58q-19 -5 -45 -5q-72 0 -79 62q-10 -30 -38.5 -46.5t-69.5 -16.5q-53 0 -84.5 28.5t-31.5 75.5q0 111 181 111l35 -1q0 44 -11 59q-17 23 -67 23q-23 0 -47.5 -4.5t-36.5 -8.5l-13 -5h-6z
M123 -97q0 -47 54 -47q45 0 64 33q13 22 13 61v8h-21q-22 0 -35.5 -1t-33.5 -5.5t-30.5 -17t-10.5 -31.5z" />
    <glyph glyph-name="b.inferior" horiz-adv-x="454" 
d="M66 292h81v-203q20 66 108 66q72 0 113.5 -47.5t41.5 -132.5q0 -86 -43.5 -134.5t-120.5 -48.5q-84 0 -107 60l-22 -52h-51v492zM234 92q-89 0 -89 -120t89 -120t89 121q0 119 -89 119z" />
    <glyph glyph-name="c.inferior" horiz-adv-x="348" 
d="M305 -129v-66q-33 -10 -79 -10q-89 0 -135.5 47t-46.5 131q0 85 46.5 132t135.5 47q20 0 40 -2.5t30 -5.5l9 -2v-66h-5q-32 14 -70 14q-48 0 -73.5 -30.5t-25.5 -85.5t25.5 -86t73.5 -31q16 0 33.5 3.5t26.5 7.5l10 3h5z" />
    <glyph glyph-name="d.inferior" horiz-adv-x="454" 
d="M307 292h81v-492h-63l-16 58q-9 -31 -38 -48.5t-72 -17.5q-74 0 -114.5 49t-40.5 131q0 83 41.5 133t118.5 50q82 0 103 -60v197zM220 92q-89 0 -89 -119q0 -118 89 -118t89 119q0 118 -89 118z" />
    <glyph glyph-name="e.inferior" horiz-adv-x="410" 
d="M343 -126v-64q-48 -15 -113 -15q-92 0 -138 43q-48 45 -48 132q0 86 44 136t123 50q89 0 128 -61q25 -39 25 -144h-235q0 -46 27 -71t79 -25q23 0 49 4.5t40 9.5l14 5h5zM129 7h152q0 92 -72 92t-80 -92z" />
    <glyph glyph-name="f.inferior" horiz-adv-x="315" 
d="M283 82h-104v-282h-81v282h-71v60h71v22q0 58 15 82q29 48 113 48l57 -5v-64h-5q-24 8 -48 8q-33 0 -44 -22q-7 -14 -7 -49v-20h104v-60z" />
    <glyph glyph-name="g.inferior" horiz-adv-x="455" 
d="M389 147v-297q0 -84 -25 -118q-45 -61 -165 -61q-34 0 -66 4.5t-47 9.5l-15 5v70h6q62 -28 126 -28q68 0 93 38q14 20 14 75v24q-24 -62 -111 -62q-72 0 -113.5 46t-41.5 126q0 81 43 128.5t120 47.5q83 0 110 -59l23 51h49zM221 -133q89 0 89 113q0 115 -89 115
q-90 0 -90 -115q0 -113 90 -113z" />
    <glyph glyph-name="g.alt.inferior" horiz-adv-x="426" 
d="M353 44q0 -52 -40 -82.5t-107 -30.5q-24 0 -51 5q-21 -9 -21 -29q0 -27 51 -27h64q20 0 32.5 -0.5t35.5 -5.5t37 -14t25 -28t11 -45q0 -116 -194 -116q-167 0 -167 85q0 27 17.5 44t31.5 21t22 4q-46 18 -46 60q0 50 66 64q-61 30 -61 95q0 51 40 81.5t107 30.5
q65 0 106 -30q16 44 77 44h8v-68q-13 3 -30 3t-30 -5q16 -26 16 -56zM240 -187h-108q-28 -13 -28 -42q0 -45 94 -45q111 0 111 50q0 37 -69 37zM206 -12q64 0 64 56q0 55 -64 55t-64 -55q0 -56 64 -56z" />
    <glyph glyph-name="h.inferior" horiz-adv-x="440" 
d="M66 292h81v-199q19 62 103 62q74 0 107 -46q21 -29 21 -105v-204h-82v206q0 40 -12 57q-19 26 -61 26q-76 0 -76 -77v-212h-81v492z" />
    <glyph glyph-name="i.inferior" horiz-adv-x="212" 
d="M64 275h84v-74h-84v74zM65 147h81v-347h-81v347z" />
    <glyph glyph-name="i.round.inferior" horiz-adv-x="213" 
d="M107 294q21 0 35 -14t14 -34q0 -21 -14 -35t-36 -14t-35.5 14t-13.5 35t14 34.5t36 13.5zM66 147h81v-347h-81v347z" />
    <glyph glyph-name="j.inferior" horiz-adv-x="216" 
d="M-18 -321v59h5q15 -2 28 -2q34 0 46 20q8 12 8 47v344h81v-340q0 -56 -16 -82q-30 -49 -113 -49zM68 275h84v-74h-84v74z" />
    <glyph glyph-name="j.round.inferior" horiz-adv-x="216" 
d="M-18 -321v59h5q15 -2 28 -2q34 0 46 20q8 12 8 47v344h81v-340q0 -56 -16 -82q-30 -49 -113 -49zM110 294q22 0 35.5 -13.5t13.5 -34.5t-13.5 -35t-35.5 -14t-36 14t-14 35t14 34.5t36 13.5z" />
    <glyph glyph-name="k.inferior" horiz-adv-x="414" 
d="M66 292h81v-291l141 146h90l-138 -141l143 -206h-94l-103 155l-39 -38v-117h-81v492z" />
    <glyph glyph-name="k.alt.inferior" horiz-adv-x="419" 
d="M66 292h81v-303l150 158h90l-156 -156l162 -191h-100l-146 177v-177h-81v492z" />
    <glyph glyph-name="l.inferior" horiz-adv-x="213" 
d="M66 292h81v-492h-81v492z" />
    <glyph glyph-name="m.inferior" horiz-adv-x="652" 
d="M66 147h63l15 -59q19 67 106 67q85 0 111 -70q25 70 106 70q71 0 102 -46q21 -30 21 -105v-204h-82v206q0 40 -12 57q-17 26 -57 26q-70 0 -70 -77v-212h-82v206q0 40 -12 57q-17 26 -57 26q-70 0 -70 -77v-212h-82v347z" />
    <glyph glyph-name="n.inferior" horiz-adv-x="441" 
d="M66 147h63l15 -59q20 67 108 67q73 0 106 -46q21 -29 21 -105v-204h-82v206q0 40 -12 57q-19 26 -61 26q-76 0 -76 -77v-212h-82v347z" />
    <glyph glyph-name="o.inferior" horiz-adv-x="441" 
d="M397 -26q0 -88 -46 -135.5t-131 -47.5q-84 0 -130 46.5t-46 135.5q0 88 45.5 135.5t131.5 47.5q84 0 130 -46.5t46 -135.5zM220 -150q90 0 90 123q0 124 -90 124q-89 0 -89 -124q0 -123 89 -123z" />
    <glyph glyph-name="p.inferior" horiz-adv-x="454" 
d="M147 -324h-81v471h63l17 -58q8 31 37 48.5t72 17.5q74 0 114.5 -49t40.5 -131q0 -83 -41.5 -133t-118.5 -50q-80 0 -103 60v-176zM234 -145q89 0 89 118q0 119 -89 119t-89 -119q0 -118 89 -118z" />
    <glyph glyph-name="q.inferior" horiz-adv-x="454" 
d="M388 -324h-81v182q-19 -66 -108 -66q-72 0 -113.5 47.5t-41.5 132.5q0 86 43.5 134.5t120.5 48.5q84 0 108 -60l22 52h50v-471zM220 -145q89 0 89 119q0 121 -89 121t-89 -121q0 -119 89 -119z" />
    <glyph glyph-name="r.inferior" horiz-adv-x="291" 
d="M266 151v-77q-18 3 -37 3q-28 0 -46.5 -8t-25 -23.5t-8 -25t-1.5 -25.5v-195h-82v347h62l16 -68q16 72 112 72h10z" />
    <glyph glyph-name="s.inferior" horiz-adv-x="343" 
d="M281 139v-65h-5q-46 17 -87 17q-57 0 -57 -32q0 -17 26 -30.5t57 -23.5t57 -37t26 -68q0 -53 -40 -79t-108 -26q-27 0 -52 4t-36 8l-12 4v66h5q54 -21 102 -21q59 0 59 36q0 20 -26 35.5t-57 25t-57 34.5t-26 63q0 47 37 74.5t104 27.5q23 0 45.5 -3t33.5 -7z" />
    <glyph glyph-name="t.inferior" horiz-adv-x="321" 
d="M277 -135v-62q-28 -8 -66 -8q-74 0 -101 39q-16 24 -16 89v159h-67v60h67v90l81 24v-114h102v-60h-102v-157q0 -40 8 -53q10 -16 39 -16q12 0 24.5 2t19.5 4l6 3h5z" />
    <glyph glyph-name="u.inferior" horiz-adv-x="440" 
d="M374 -200h-63l-16 59q-17 -67 -107 -67q-71 0 -101 43q-21 29 -21 108v204h82v-206q0 -40 12 -57q20 -26 62 -26q70 0 70 77v212h82v-347z" />
    <glyph glyph-name="v.inferior" horiz-adv-x="424" 
d="M34 147h92l94 -255l95 255h75l-138 -347h-81z" />
    <glyph glyph-name="w.inferior" horiz-adv-x="618" 
d="M40 147h86l72 -255l78 248h80l77 -248l73 255h72l-107 -347h-84l-78 251l-79 -251h-84z" />
    <glyph glyph-name="x.inferior" horiz-adv-x="418" 
d="M39 147h100l78 -118l78 118h82l-117 -168l126 -179h-101l-84 126l-84 -126h-83l123 176z" />
    <glyph glyph-name="y.inferior" horiz-adv-x="424" 
d="M390 147l-193 -471h-82l60 130l-141 341h92l93 -247l96 247h75z" />
    <glyph glyph-name="y.alt.inferior" horiz-adv-x="424" 
d="M390 147l-136 -339q-14 -34 -23.5 -53t-27 -40.5t-42 -31t-59.5 -9.5l-49 5v64h5q25 -8 45 -8q26 0 43 18.5t34 57.5l-146 336h92l96 -241l93 241h75z" />
    <glyph glyph-name="z.inferior" horiz-adv-x="370" 
d="M319 142v-60l-177 -222h180v-60h-273v65l173 217h-170v60h267z" />
    <glyph glyph-name="Aacute.cap" horiz-adv-x="635" 
d="M615 0h-103l-64 188h-274l-66 -188h-88l252 688h98zM314 584l-114 -323h223zM357 775h-83l113 123h123z" />
    <glyph glyph-name="Aacute.smcp" horiz-adv-x="573" 
d="M552 0h-103l-52 150h-234l-54 -150h-88l218 582h99zM282 481l-93 -259h183zM325 667h-80l100 124h118z" />
    <glyph glyph-name="abreve" horiz-adv-x="554" 
d="M94 450v78q71 23 164 23q135 0 182 -67q15 -21 22.5 -52t8.5 -53.5t1 -64.5v-314h-71l-21 93q-9 -44 -47.5 -74.5t-107.5 -30.5q-79 0 -128.5 42t-49.5 117q0 94 82 136q31 16 74.5 23.5t76.5 8.5t97 1q0 87 -18 117q-28 45 -112 45q-34 0 -70.5 -7t-55.5 -14l-19 -7h-8z
M147 149q0 -40 25.5 -63.5t71.5 -23.5q81 0 113 62q20 39 20 116v12q-79 0 -117.5 -4t-66.5 -19q-46 -26 -46 -80zM357 780h69q0 -73 -40.5 -109t-112.5 -36q-153 0 -153 145h68q0 -87 85 -87q84 0 84 87z" />
    <glyph glyph-name="Abreve.cap" horiz-adv-x="635" 
d="M615 0h-103l-64 188h-274l-66 -188h-88l252 688h98zM314 584l-114 -323h223zM406 898h68q0 -60 -40 -93t-117 -33t-117.5 33t-40.5 93h69q0 -32 23 -49.5t66 -17.5t66 17.5t23 49.5z" />
    <glyph glyph-name="Abreve.smcp" horiz-adv-x="573" 
d="M552 0h-103l-52 150h-234l-54 -150h-88l218 582h99zM282 481l-93 -259h183zM359 791h68q0 -127 -142 -127q-143 0 -143 127h69q0 -68 74 -68t74 68z" />
    <glyph glyph-name="acircumflex" horiz-adv-x="554" 
d="M94 450v78q71 23 164 23q135 0 182 -67q15 -21 22.5 -52t8.5 -53.5t1 -64.5v-314h-71l-21 93q-9 -44 -47.5 -74.5t-107.5 -30.5q-79 0 -128.5 42t-49.5 117q0 94 82 136q31 16 74.5 23.5t76.5 8.5t97 1q0 87 -18 117q-28 45 -112 45q-34 0 -70.5 -7t-55.5 -14l-19 -7h-8z
M147 149q0 -40 25.5 -63.5t71.5 -23.5q81 0 113 62q20 39 20 116v12q-79 0 -117.5 -4t-66.5 -19q-46 -26 -46 -80zM236 780h74l118 -149h-80l-78 93l-77 -93h-75z" />
    <glyph glyph-name="Acircumflex.cap" horiz-adv-x="635" 
d="M615 0h-103l-64 188h-274l-66 -188h-88l252 688h98zM314 584l-114 -323h223zM269 898h95l118 -123h-89l-79 78l-77 -78h-86z" />
    <glyph glyph-name="Acircumflex.smcp" horiz-adv-x="573" 
d="M552 0h-103l-52 150h-234l-54 -150h-88l218 582h99zM282 481l-93 -259h183zM240 791h89l108 -124h-85l-68 74l-69 -74h-82z" />
    <glyph glyph-name="Adieresis" horiz-adv-x="664" 
d="M651 0h-104l-71 210h-300l-74 -210h-89l274 752h98zM329 646l-127 -362h249zM171 931h95v-92h-95v92zM398 931h95v-92h-95v92z" />
    <glyph glyph-name="adieresis" horiz-adv-x="554" 
d="M94 450v78q71 23 164 23q135 0 182 -67q15 -21 22.5 -52t8.5 -53.5t1 -64.5v-314h-71l-21 93q-9 -44 -47.5 -74.5t-107.5 -30.5q-79 0 -128.5 42t-49.5 117q0 94 82 136q31 16 74.5 23.5t76.5 8.5t97 1q0 87 -18 117q-28 45 -112 45q-34 0 -70.5 -7t-55.5 -14l-19 -7h-8z
M147 149q0 -40 25.5 -63.5t71.5 -23.5q81 0 113 62q20 39 20 116v12q-79 0 -117.5 -4t-66.5 -19q-46 -26 -46 -80zM130 735h90v-95h-90v95zM326 735h90v-95h-90v95z" />
    <glyph glyph-name="adieresis.alt" horiz-adv-x="571" 
d="M96 450v77q64 24 160 24q135 0 180 -66q29 -41 29 -142v-203q0 -22 1.5 -34t13.5 -25t36 -13l32 4v-69q-26 -8 -62 -8q-50 0 -77.5 22t-31.5 75q-14 -46 -57 -73t-103 -27q-78 0 -124.5 43.5t-46.5 114.5q0 168 268 168l56 -2q0 36 -0.5 52.5t-4.5 35t-13 31.5
q-28 43 -108 43q-34 0 -69 -7t-53 -14l-18 -7h-8zM146 154q0 -40 25 -64.5t69 -24.5q77 0 109 62q21 40 21 114v12h-32q-24 0 -38.5 -0.5t-41 -3t-43 -9t-34.5 -17t-26.5 -28t-8.5 -41.5zM126 735h90v-95h-90v95zM322 735h90v-95h-90v95z" />
    <glyph glyph-name="Adieresis.cap" horiz-adv-x="635" 
d="M615 0h-103l-64 188h-274l-66 -188h-88l252 688h98zM314 584l-114 -323h223zM156 867h95v-92h-95v92zM383 867h95v-92h-95v92z" />
    <glyph glyph-name="adieresis.round" horiz-adv-x="554" 
d="M94 450v78q71 23 164 23q135 0 182 -67q15 -21 22.5 -52t8.5 -53.5t1 -64.5v-314h-71l-21 93q-9 -44 -47.5 -74.5t-107.5 -30.5q-79 0 -128.5 42t-49.5 117q0 94 82 136q31 16 74.5 23.5t76.5 8.5t97 1q0 87 -18 117q-28 45 -112 45q-34 0 -70.5 -7t-55.5 -14l-19 -7h-8z
M147 149q0 -40 25.5 -63.5t71.5 -23.5q81 0 113 62q20 39 20 116v12q-79 0 -117.5 -4t-66.5 -19q-46 -26 -46 -80zM175 741q25 0 39.5 -15t14.5 -38t-14.5 -38t-39.5 -15q-26 0 -40.5 15t-14.5 38t14.5 38t40.5 15zM372 741q25 0 39.5 -15t14.5 -38t-14.5 -38t-39.5 -15
q-26 0 -40.5 15t-14.5 38t14.5 38t40.5 15z" />
    <glyph glyph-name="Adieresis.round.cap" horiz-adv-x="635" 
d="M615 0h-103l-64 188h-274l-66 -188h-88l252 688h98zM314 584l-114 -323h223zM211 875q26 0 40.5 -15t14.5 -39q0 -23 -15 -38.5t-40 -15.5t-40 15.5t-15 38.5q0 24 14.5 39t40.5 15zM423 875q26 0 40.5 -15t14.5 -39q0 -23 -15 -38.5t-40 -15.5t-40 15.5t-15 38.5
q0 24 14.5 39t40.5 15z" />
    <glyph glyph-name="Adieresis.round.smcp" horiz-adv-x="573" 
d="M552 0h-103l-52 150h-234l-54 -150h-88l218 582h99zM282 481l-93 -259h183zM187 765q26 0 40.5 -15t14.5 -38q0 -24 -14.5 -39t-40.5 -15t-40.5 15t-14.5 38q0 24 14.5 39t40.5 15zM383 765q26 0 40.5 -15t14.5 -38q0 -24 -14.5 -39t-40.5 -15t-40.5 15t-14.5 38
q0 24 14.5 39t40.5 15z" />
    <glyph glyph-name="Adieresis.smcp" horiz-adv-x="573" 
d="M552 0h-103l-52 150h-234l-54 -150h-88l218 582h99zM282 481l-93 -259h183zM143 761h89v-95h-89v95zM338 761h89v-95h-89v95z" />
    <glyph glyph-name="agrave" horiz-adv-x="554" 
d="M94 450v78q71 23 164 23q135 0 182 -67q15 -21 22.5 -52t8.5 -53.5t1 -64.5v-314h-71l-21 93q-9 -44 -47.5 -74.5t-107.5 -30.5q-79 0 -128.5 42t-49.5 117q0 94 82 136q31 16 74.5 23.5t76.5 8.5t97 1q0 87 -18 117q-28 45 -112 45q-34 0 -70.5 -7t-55.5 -14l-19 -7h-8z
M147 149q0 -40 25.5 -63.5t71.5 -23.5q81 0 113 62q20 39 20 116v12q-79 0 -117.5 -4t-66.5 -19q-46 -26 -46 -80zM312 631h-73l-132 149h109z" />
    <glyph glyph-name="Agrave.cap" horiz-adv-x="635" 
d="M615 0h-103l-64 188h-274l-66 -188h-88l252 688h98zM314 584l-114 -323h223zM360 775h-84l-153 123h123z" />
    <glyph glyph-name="Agrave.smcp" horiz-adv-x="573" 
d="M552 0h-103l-52 150h-234l-54 -150h-88l218 582h99zM282 481l-93 -259h183zM325 667h-81l-138 124h119z" />
    <glyph glyph-name="amacron" horiz-adv-x="554" 
d="M94 450v78q71 23 164 23q135 0 182 -67q15 -21 22.5 -52t8.5 -53.5t1 -64.5v-314h-71l-21 93q-9 -44 -47.5 -74.5t-107.5 -30.5q-79 0 -128.5 42t-49.5 117q0 94 82 136q31 16 74.5 23.5t76.5 8.5t97 1q0 87 -18 117q-28 45 -112 45q-34 0 -70.5 -7t-55.5 -14l-19 -7h-8z
M147 149q0 -40 25.5 -63.5t71.5 -23.5q81 0 113 62q20 39 20 116v12q-79 0 -117.5 -4t-66.5 -19q-46 -26 -46 -80zM131 704h284v-62h-284v62z" />
    <glyph glyph-name="Amacron.cap" horiz-adv-x="635" 
d="M615 0h-103l-64 188h-274l-66 -188h-88l252 688h98zM314 584l-114 -323h223zM151 852h332v-65h-332v65z" />
    <glyph glyph-name="Amacron.smcp" horiz-adv-x="573" 
d="M552 0h-103l-52 150h-234l-54 -150h-88l218 582h99zM282 481l-93 -259h183zM155 751h260v-65h-260v65z" />
    <glyph glyph-name="aogonek" horiz-adv-x="554" 
d="M400 0h1l-21 93q-9 -44 -47.5 -74.5t-107.5 -30.5q-79 0 -128.5 42t-49.5 117q0 94 82 136q31 16 74.5 23.5t76.5 8.5t97 1q0 87 -18 117q-28 45 -112 45q-34 0 -70.5 -7t-55.5 -14l-19 -7h-8v78q71 23 164 23q135 0 182 -67q15 -21 22.5 -52t8.5 -53.5t1 -64.5v-330
q-130 -27 -130 -87q0 -22 19 -33.5t48 -11.5q13 0 26.5 2t20.5 4l8 3h8v-56q-34 -7 -72 -7q-61 0 -96.5 22.5t-35.5 65.5q0 44 35 69t97 45zM147 149q0 -40 25.5 -63.5t71.5 -23.5q81 0 113 62q20 39 20 116v12q-79 0 -117.5 -4t-66.5 -19q-46 -26 -46 -80z" />
    <glyph glyph-name="Aogonek.cap" horiz-adv-x="635" 
d="M512 0l-64 188h-274l-66 -188h-88l252 688h98l245 -688v-5q-58 -12 -94 -38.5t-36 -58.5q0 -23 19 -34.5t48 -11.5q13 0 26.5 2t21.5 4l7 3h8v-56q-34 -7 -72 -7q-62 0 -97 23t-35 66q0 72 101 113zM314 584l-114 -323h223z" />
    <glyph glyph-name="Aogonek.smcp" horiz-adv-x="573" 
d="M449 0l-52 150h-234l-54 -150h-88l218 582h99l214 -582v-5q-59 -12 -94.5 -38t-35.5 -58q0 -47 67 -47q13 0 26.5 2t20.5 4l8 3h8v-56q-34 -7 -72 -7q-62 0 -97 23t-35 66q0 72 101 113zM282 481l-93 -259h183z" />
    <glyph glyph-name="aring" horiz-adv-x="554" 
d="M94 450v78q71 23 164 23q135 0 182 -67q15 -21 22.5 -52t8.5 -53.5t1 -64.5v-314h-71l-21 93q-9 -44 -47.5 -74.5t-107.5 -30.5q-79 0 -128.5 42t-49.5 117q0 94 82 136q31 16 74.5 23.5t76.5 8.5t97 1q0 87 -18 117q-28 45 -112 45q-34 0 -70.5 -7t-55.5 -14l-19 -7h-8z
M147 149q0 -40 25.5 -63.5t71.5 -23.5q81 0 113 62q20 39 20 116v12q-79 0 -117.5 -4t-66.5 -19q-46 -26 -46 -80zM158 704q0 44 31.5 71.5t83.5 27.5t83.5 -27.5t31.5 -71.5t-31.5 -71.5t-83.5 -27.5t-83.5 27.5t-31.5 71.5zM219 704q0 -24 14.5 -38.5t39.5 -14.5
t39.5 14.5t14.5 38.5t-14.5 38.5t-39.5 14.5t-39.5 -14.5t-14.5 -38.5z" />
    <glyph glyph-name="Aring.cap" horiz-adv-x="635" 
d="M192 766q0 50 35.5 81t89.5 31t89.5 -31t35.5 -81q0 -71 -64 -102l237 -664h-103l-64 188h-274l-66 -188h-88l242 661q-70 30 -70 105zM314 584l-114 -323h223zM255 761q0 -27 17 -44.5t45 -17.5t45 17.5t17 44.5t-17 45t-45 18t-45 -18t-17 -45z" />
    <glyph glyph-name="Aring.smcp" horiz-adv-x="573" 
d="M163 652q0 51 34.5 81t87.5 30t87.5 -30t34.5 -81q0 -67 -61 -93l206 -559h-103l-52 150h-234l-54 -150h-88l208 556q-66 24 -66 96zM282 481l-93 -259h183zM226 649q0 -26 16 -42.5t43 -16.5t43 16.5t16 42.5q0 27 -16 43.5t-43 16.5t-43 -16.5t-16 -43.5z" />
    <glyph glyph-name="atilde" horiz-adv-x="554" 
d="M94 450v78q71 23 164 23q135 0 182 -67q15 -21 22.5 -52t8.5 -53.5t1 -64.5v-314h-71l-21 93q-9 -44 -47.5 -74.5t-107.5 -30.5q-79 0 -128.5 42t-49.5 117q0 94 82 136q31 16 74.5 23.5t76.5 8.5t97 1q0 87 -18 117q-28 45 -112 45q-34 0 -70.5 -7t-55.5 -14l-19 -7h-8z
M147 149q0 -40 25.5 -63.5t71.5 -23.5q81 0 113 62q20 39 20 116v12q-79 0 -117.5 -4t-66.5 -19q-46 -26 -46 -80zM126 640v59q36 40 90 40q27 0 68 -18t60 -18q18 0 37 9t29 18l10 9h8v-59q-36 -40 -90 -40q-27 0 -68 18t-60 18q-18 0 -37 -9t-29 -18l-10 -9h-8z" />
    <glyph glyph-name="Atilde.cap" horiz-adv-x="635" 
d="M615 0h-103l-64 188h-274l-66 -188h-88l252 688h98zM314 584l-114 -323h223zM158 775v60q39 39 101 39q31 0 74.5 -17.5t64.5 -17.5q20 0 41.5 8.5t33.5 17.5l12 9h8v-60q-39 -39 -101 -39q-31 0 -74.5 17.5t-64.5 17.5q-20 0 -41.5 -8.5t-33.5 -17.5l-12 -9h-8z" />
    <glyph glyph-name="Atilde.smcp" horiz-adv-x="573" 
d="M552 0h-103l-52 150h-234l-54 -150h-88l218 582h99zM282 481l-93 -259h183zM139 667v61q36 39 90 39q27 0 67 -18t59 -18q18 0 37 9t29 18l10 9h8v-61q-36 -39 -90 -39q-27 0 -67 18t-59 18q-18 0 -37 -9t-29 -18l-10 -9h-8z" />
    <glyph glyph-name="Cacute.cap" horiz-adv-x="599" 
d="M538 93v-77q-63 -23 -150 -23q-111 0 -186.5 49t-108 126t-32.5 176t32.5 176t108 126t186.5 49q39 0 76.5 -5.5t55.5 -11.5l18 -6v-77h-7q-63 28 -139 28q-114 0 -171.5 -77t-57.5 -198q0 -123 58 -203t173 -80q33 0 67.5 7t52.5 14l17 7h7zM405 775h-83l113 123h123z
" />
    <glyph glyph-name="Cacute.smcp" horiz-adv-x="531" 
d="M475 88v-75q-55 -19 -131 -19q-144 0 -216 83.5t-72 213.5t72 213.5t216 83.5q34 0 66.5 -5t48.5 -9l16 -5v-75h-7q-53 22 -116 22q-97 0 -145.5 -62t-48.5 -160q0 -100 49 -164t146 -64q28 0 56.5 5.5t43.5 10.5l15 6h7zM363 667h-80l100 124h118z" />
    <glyph glyph-name="Ccaron.cap" horiz-adv-x="599" 
d="M538 93v-77q-63 -23 -150 -23q-111 0 -186.5 49t-108 126t-32.5 176t32.5 176t108 126t186.5 49q39 0 76.5 -5.5t55.5 -11.5l18 -6v-77h-7q-63 28 -139 28q-114 0 -171.5 -77t-57.5 -198q0 -123 58 -203t173 -80q33 0 67.5 7t52.5 14l17 7h7zM412 775h-95l-118 123h90
l78 -80l77 80h86z" />
    <glyph glyph-name="Ccaron.smcp" horiz-adv-x="531" 
d="M475 88v-75q-55 -19 -131 -19q-144 0 -216 83.5t-72 213.5t72 213.5t216 83.5q34 0 66.5 -5t48.5 -9l16 -5v-75h-7q-53 22 -116 22q-97 0 -145.5 -62t-48.5 -160q0 -100 49 -164t146 -64q28 0 56.5 5.5t43.5 10.5l15 6h7zM367 667h-89l-107 124h85l68 -76l67 76h84z" />
    <glyph glyph-name="Ccedilla.cap" horiz-adv-x="599" 
d="M538 93v-77q-56 -20 -135 -23q56 -35 56 -92q0 -45 -34 -74t-98 -29l-55 5v60h8q23 -7 47 -7q61 0 61 52q0 34 -43 87q-143 14 -213.5 110t-70.5 239q0 99 32.5 176t108 126t186.5 49q39 0 76.5 -5.5t55.5 -11.5l18 -6v-77h-7q-63 28 -139 28q-114 0 -171.5 -77
t-57.5 -198q0 -123 58 -203t173 -80q33 0 67.5 7t52.5 14l17 7h7z" />
    <glyph glyph-name="Ccedilla.smcp" horiz-adv-x="531" 
d="M475 88v-75q-48 -16 -115 -19q57 -35 57 -93q0 -45 -34 -74t-98 -29l-55 5v60h8q23 -7 47 -7q61 0 61 52q0 35 -44 88q-123 12 -184.5 93t-61.5 202q0 130 72 213.5t216 83.5q34 0 66.5 -5t48.5 -9l16 -5v-75h-7q-53 22 -116 22q-97 0 -145.5 -62t-48.5 -160
q0 -100 49 -164t146 -64q28 0 56.5 5.5t43.5 10.5l15 6h7z" />
    <glyph glyph-name="Ccircumflex.cap" horiz-adv-x="599" 
d="M538 93v-77q-63 -23 -150 -23q-111 0 -186.5 49t-108 126t-32.5 176t32.5 176t108 126t186.5 49q39 0 76.5 -5.5t55.5 -11.5l18 -6v-77h-7q-63 28 -139 28q-114 0 -171.5 -77t-57.5 -198q0 -123 58 -203t173 -80q33 0 67.5 7t52.5 14l17 7h7zM317 898h95l118 -123h-89
l-79 78l-77 -78h-86z" />
    <glyph glyph-name="Ccircumflex.smcp" horiz-adv-x="531" 
d="M475 88v-75q-55 -19 -131 -19q-144 0 -216 83.5t-72 213.5t72 213.5t216 83.5q34 0 66.5 -5t48.5 -9l16 -5v-75h-7q-53 22 -116 22q-97 0 -145.5 -62t-48.5 -160q0 -100 49 -164t146 -64q28 0 56.5 5.5t43.5 10.5l15 6h7zM278 791h89l108 -124h-85l-68 74l-69 -74h-82z
" />
    <glyph glyph-name="Dcaron.cap" horiz-adv-x="715" 
d="M98 688h179q48 0 76.5 -1.5t74.5 -12t82 -30.5q144 -83 144 -300q0 -219 -149 -301q-36 -20 -81 -30t-72.5 -11.5t-74.5 -1.5h-179v688zM194 615v-542h89q110 0 164 31q105 61 105 239q0 180 -107 241q-55 31 -162 31h-89zM353 775h-95l-118 123h90l78 -80l77 80h86z" />
    <glyph glyph-name="Dcaron.smcp" horiz-adv-x="636" 
d="M87 582h162q44 0 67.5 -1t65 -10t73.5 -27q125 -71 125 -253q0 -183 -129 -253q-32 -18 -72 -27t-64.5 -10t-65.5 -1h-162v582zM183 510v-438h72q91 0 135 24q88 47 88 194q0 148 -90 196q-45 24 -133 24h-72zM310 667h-89l-107 124h85l68 -76l67 76h84z" />
    <glyph glyph-name="Dcroat.cap" horiz-adv-x="742" 
d="M125 688h179q48 0 76.5 -1.5t74.5 -12t82 -30.5q144 -81 144 -300q0 -217 -149 -300q-36 -20 -80.5 -30.5t-73 -12t-74.5 -1.5h-179v323h-100v73h100v292zM220 615v-219h164v-73h-164v-250h90q110 0 164 31q105 60 105 240t-106 240q-55 31 -163 31h-90z" />
    <glyph glyph-name="Dcroat.smcp" horiz-adv-x="659" 
d="M111 582h162q42 0 67 -1t65.5 -10t72.5 -27q125 -70 125 -252q0 -184 -129 -254q-32 -18 -71.5 -27t-64 -10t-65.5 -1h-162v266h-85v73h85v243zM206 510v-171h136v-73h-136v-194h73q90 0 135 25q88 48 88 194q0 147 -90 195q-45 24 -133 24h-73z" />
    <glyph glyph-name="Eacute.cap" horiz-adv-x="563" 
d="M98 688h393v-74h-298v-218h253v-73h-253v-249h312v-74h-407v688zM334 775h-83l113 123h123z" />
    <glyph glyph-name="Eacute.smcp" horiz-adv-x="505" 
d="M87 582h351v-73h-256v-169h218v-74h-218v-193h269v-73h-364v582zM302 667h-80l100 124h118z" />
    <glyph glyph-name="Ebreve.cap" horiz-adv-x="563" 
d="M98 688h393v-74h-298v-218h253v-73h-253v-249h312v-74h-407v688zM383 898h68q0 -60 -40 -93t-117 -33t-117.5 33t-40.5 93h69q0 -32 23 -49.5t66 -17.5t66 17.5t23 49.5z" />
    <glyph glyph-name="Ebreve.smcp" horiz-adv-x="505" 
d="M87 582h351v-73h-256v-169h218v-74h-218v-193h269v-73h-364v582zM336 791h68q0 -127 -142 -127q-143 0 -143 127h69q0 -68 74 -68t74 68z" />
    <glyph glyph-name="Ecaron.cap" horiz-adv-x="563" 
d="M98 688h393v-74h-298v-218h253v-73h-253v-249h312v-74h-407v688zM341 775h-95l-118 123h90l78 -80l77 80h86z" />
    </font>
</defs>
</svg>
