<svg width="293" height="44" viewBox="0 0 293 44" fill="none" xmlns="http://www.w3.org/2000/svg">
<g clip-path="url(#clip0_128_1015)">
<path d="M43.9236 11.0997V28.9787H40.8275V20.916H32.7835V28.9787H29.6874V11.0997H32.7835V18.2121H40.8275V11.0997H43.9236ZM26.6011 28.9787H23.505V11.0997H26.6011V28.9787ZM20.4579 28.9787H17.1952L9.15117 15.8315H9.07278V28.9787H6.12364V11.0997H9.38631L17.4499 24.2763H17.4989V11.0997H20.4481V28.9787H20.4579ZM54.8286 19.9755L43.8942 0H3.63499C1.62644 0 0 1.64585 0 3.68357V36.3164C0 38.3444 1.62644 40 3.63499 40H43.8551L54.8188 19.9853L54.8286 19.9755Z" fill="#65666A"/>
<path d="M46.5984 40L57.5524 19.9853L46.6376 0H49.3712C50.8702 0 52.6828 1.08744 53.4079 2.40999L63.0097 19.9853L53.3785 37.5998C52.6534 38.9224 50.831 40.0098 49.3418 40.0098H46.6082L46.5984 40Z" fill="#336298"/>
</g>
<path d="M70.2681 2.64697H72.5301L76.8511 9.59247H76.8801V2.64697H79.0116V13H76.7351L72.4286 6.06897H72.3996V13H70.2681V2.64697Z" fill="#65666A"/>
<path d="M80.7111 7.80897C80.7401 7.32564 80.861 6.92447 81.0736 6.60547C81.2863 6.28647 81.557 6.03031 81.8856 5.83697C82.2143 5.64364 82.5816 5.50831 82.9876 5.43097C83.4033 5.34397 83.819 5.30047 84.2346 5.30047C84.6116 5.30047 84.9935 5.32947 85.3801 5.38747C85.7668 5.43581 86.1196 5.53731 86.4386 5.69197C86.7576 5.84664 87.0186 6.06414 87.2216 6.34447C87.4246 6.61514 87.5261 6.97764 87.5261 7.43197V11.3325C87.5261 11.6708 87.5455 11.9946 87.5841 12.304C87.6228 12.6133 87.6905 12.8453 87.7871 13H85.6991C85.6605 12.884 85.6266 12.768 85.5976 12.652C85.5783 12.5263 85.5638 12.4006 85.5541 12.275C85.2255 12.6133 84.8388 12.8501 84.3941 12.9855C83.9495 13.1208 83.4951 13.1885 83.0311 13.1885C82.6735 13.1885 82.34 13.145 82.0306 13.058C81.7213 12.971 81.4506 12.8356 81.2186 12.652C80.9866 12.4683 80.803 12.2363 80.6676 11.956C80.542 11.6756 80.4791 11.3421 80.4791 10.9555C80.4791 10.5301 80.5516 10.1821 80.6966 9.91147C80.8513 9.63114 81.0446 9.40881 81.2766 9.24447C81.5183 9.08014 81.789 8.95931 82.0886 8.88197C82.398 8.79497 82.7073 8.72731 83.0166 8.67897C83.326 8.63064 83.6305 8.59197 83.9301 8.56297C84.2298 8.53397 84.4956 8.49047 84.7276 8.43247C84.9596 8.37447 85.1433 8.29231 85.2786 8.18597C85.414 8.06997 85.4768 7.90564 85.4671 7.69297C85.4671 7.47064 85.4285 7.29664 85.3511 7.17097C85.2835 7.03564 85.1868 6.93414 85.0611 6.86647C84.9451 6.78914 84.805 6.74081 84.6406 6.72147C84.486 6.69247 84.3168 6.67797 84.1331 6.67797C83.7271 6.67797 83.4081 6.76497 83.1761 6.93897C82.9441 7.11297 82.8088 7.40297 82.7701 7.80897H80.7111ZM85.4671 9.33147C85.3801 9.40881 85.269 9.47164 85.1336 9.51997C85.008 9.55864 84.8678 9.59247 84.7131 9.62147C84.5681 9.65047 84.4135 9.67464 84.2491 9.69397C84.0848 9.71331 83.9205 9.73747 83.7561 9.76647C83.6015 9.79547 83.4468 9.83414 83.2921 9.88247C83.1471 9.93081 83.0166 9.99847 82.9006 10.0855C82.7943 10.1628 82.7073 10.2643 82.6396 10.39C82.572 10.5156 82.5381 10.6751 82.5381 10.8685C82.5381 11.0521 82.572 11.2068 82.6396 11.3325C82.7073 11.4581 82.7991 11.5596 82.9151 11.637C83.0311 11.7046 83.1665 11.753 83.3211 11.782C83.4758 11.811 83.6353 11.8255 83.7996 11.8255C84.2056 11.8255 84.5198 11.7578 84.7421 11.6225C84.9645 11.4871 85.1288 11.3276 85.2351 11.144C85.3415 10.9506 85.4043 10.7573 85.4236 10.564C85.4526 10.3706 85.4671 10.216 85.4671 10.1V9.33147Z" fill="#65666A"/>
<path d="M91.7343 5.50347H93.2423V6.88097H91.7343V10.593C91.7343 10.941 91.7923 11.173 91.9083 11.289C92.0243 11.405 92.2563 11.463 92.6043 11.463C92.7203 11.463 92.8315 11.4581 92.9378 11.4485C93.0441 11.4388 93.1456 11.4243 93.2423 11.405V13C93.0683 13.029 92.875 13.0483 92.6623 13.058C92.4496 13.0676 92.2418 13.0725 92.0388 13.0725C91.7198 13.0725 91.4153 13.0483 91.1253 13C90.845 12.9613 90.5936 12.8791 90.3713 12.7535C90.1586 12.6278 89.9895 12.449 89.8638 12.217C89.7381 11.985 89.6753 11.6805 89.6753 11.3035V6.88097H88.4283V5.50347H89.6753V3.25597H91.7343V5.50347Z" fill="#65666A"/>
<path d="M96.339 4.34347H94.28V2.64697H96.339V4.34347ZM94.28 5.50347H96.339V13H94.28V5.50347Z" fill="#65666A"/>
<path d="M99.7872 9.25897C99.7872 9.55864 99.8162 9.85347 99.8742 10.1435C99.9322 10.4238 100.029 10.68 100.164 10.912C100.309 11.1343 100.498 11.3131 100.73 11.4485C100.962 11.5838 101.252 11.6515 101.6 11.6515C101.948 11.6515 102.238 11.5838 102.47 11.4485C102.711 11.3131 102.9 11.1343 103.035 10.912C103.18 10.68 103.282 10.4238 103.34 10.1435C103.398 9.85347 103.427 9.55864 103.427 9.25897C103.427 8.95931 103.398 8.66447 103.34 8.37447C103.282 8.08447 103.18 7.82831 103.035 7.60597C102.9 7.38364 102.711 7.20481 102.47 7.06947C102.238 6.92447 101.948 6.85197 101.6 6.85197C101.252 6.85197 100.962 6.92447 100.73 7.06947C100.498 7.20481 100.309 7.38364 100.164 7.60597C100.029 7.82831 99.9322 8.08447 99.8742 8.37447C99.8162 8.66447 99.7872 8.95931 99.7872 9.25897ZM97.7282 9.25897C97.7282 8.65964 97.8201 8.11831 98.0037 7.63497C98.1874 7.14197 98.4484 6.72631 98.7867 6.38797C99.1251 6.03997 99.5311 5.77414 100.005 5.59047C100.478 5.39714 101.01 5.30047 101.6 5.30047C102.189 5.30047 102.721 5.39714 103.195 5.59047C103.678 5.77414 104.089 6.03997 104.427 6.38797C104.766 6.72631 105.027 7.14197 105.21 7.63497C105.394 8.11831 105.486 8.65964 105.486 9.25897C105.486 9.85831 105.394 10.3996 105.21 10.883C105.027 11.3663 104.766 11.782 104.427 12.13C104.089 12.4683 103.678 12.7293 103.195 12.913C102.721 13.0966 102.189 13.1885 101.6 13.1885C101.01 13.1885 100.478 13.0966 100.005 12.913C99.5311 12.7293 99.1251 12.4683 98.7867 12.13C98.4484 11.782 98.1874 11.3663 98.0037 10.883C97.8201 10.3996 97.7282 9.85831 97.7282 9.25897Z" fill="#65666A"/>
<path d="M106.824 5.50347H108.782V6.54747H108.825C109.086 6.11247 109.425 5.79831 109.84 5.60497C110.256 5.40197 110.681 5.30047 111.116 5.30047C111.667 5.30047 112.117 5.37781 112.465 5.53247C112.823 5.67747 113.103 5.88531 113.306 6.15597C113.509 6.41697 113.649 6.74081 113.726 7.12747C113.813 7.50447 113.857 7.92497 113.857 8.38897V13H111.798V8.76597C111.798 8.14731 111.701 7.68814 111.508 7.38847C111.315 7.07914 110.971 6.92447 110.478 6.92447C109.918 6.92447 109.512 7.09364 109.26 7.43197C109.009 7.76064 108.883 8.30681 108.883 9.07047V13H106.824V5.50347Z" fill="#65666A"/>
<path d="M115.333 7.80897C115.362 7.32564 115.483 6.92447 115.695 6.60547C115.908 6.28647 116.179 6.03031 116.507 5.83697C116.836 5.64364 117.203 5.50831 117.609 5.43097C118.025 5.34397 118.441 5.30047 118.856 5.30047C119.233 5.30047 119.615 5.32947 120.002 5.38747C120.388 5.43581 120.741 5.53731 121.06 5.69197C121.379 5.84664 121.64 6.06414 121.843 6.34447C122.046 6.61514 122.148 6.97764 122.148 7.43197V11.3325C122.148 11.6708 122.167 11.9946 122.206 12.304C122.244 12.6133 122.312 12.8453 122.409 13H120.321C120.282 12.884 120.248 12.768 120.219 12.652C120.2 12.5263 120.185 12.4006 120.176 12.275C119.847 12.6133 119.46 12.8501 119.016 12.9855C118.571 13.1208 118.117 13.1885 117.653 13.1885C117.295 13.1885 116.962 13.145 116.652 13.058C116.343 12.971 116.072 12.8356 115.84 12.652C115.608 12.4683 115.425 12.2363 115.289 11.956C115.164 11.6756 115.101 11.3421 115.101 10.9555C115.101 10.5301 115.173 10.1821 115.318 9.91147C115.473 9.63114 115.666 9.40881 115.898 9.24447C116.14 9.08014 116.411 8.95931 116.71 8.88197C117.02 8.79497 117.329 8.72731 117.638 8.67897C117.948 8.63064 118.252 8.59197 118.552 8.56297C118.851 8.53397 119.117 8.49047 119.349 8.43247C119.581 8.37447 119.765 8.29231 119.9 8.18597C120.036 8.06997 120.098 7.90564 120.089 7.69297C120.089 7.47064 120.05 7.29664 119.973 7.17097C119.905 7.03564 119.808 6.93414 119.683 6.86647C119.567 6.78914 119.427 6.74081 119.262 6.72147C119.108 6.69247 118.938 6.67797 118.755 6.67797C118.349 6.67797 118.03 6.76497 117.798 6.93897C117.566 7.11297 117.43 7.40297 117.392 7.80897H115.333ZM120.089 9.33147C120.002 9.40881 119.891 9.47164 119.755 9.51997C119.63 9.55864 119.489 9.59247 119.335 9.62147C119.19 9.65047 119.035 9.67464 118.871 9.69397C118.706 9.71331 118.542 9.73747 118.378 9.76647C118.223 9.79547 118.068 9.83414 117.914 9.88247C117.769 9.93081 117.638 9.99847 117.522 10.0855C117.416 10.1628 117.329 10.2643 117.261 10.39C117.194 10.5156 117.16 10.6751 117.16 10.8685C117.16 11.0521 117.194 11.2068 117.261 11.3325C117.329 11.4581 117.421 11.5596 117.537 11.637C117.653 11.7046 117.788 11.753 117.943 11.782C118.097 11.811 118.257 11.8255 118.421 11.8255C118.827 11.8255 119.141 11.7578 119.364 11.6225C119.586 11.4871 119.75 11.3276 119.857 11.144C119.963 10.9506 120.026 10.7573 120.045 10.564C120.074 10.3706 120.089 10.216 120.089 10.1V9.33147Z" fill="#65666A"/>
<path d="M123.804 2.64697H125.863V13H123.804V2.64697Z" fill="#65666A"/>
<path d="M131.737 2.64697H134.014V13H131.737V2.64697Z" fill="#65666A"/>
<path d="M135.796 5.50347H137.754V6.54747H137.797C138.058 6.11247 138.397 5.79831 138.812 5.60497C139.228 5.40197 139.653 5.30047 140.088 5.30047C140.639 5.30047 141.089 5.37781 141.437 5.53247C141.794 5.67747 142.075 5.88531 142.278 6.15597C142.481 6.41697 142.621 6.74081 142.698 7.12747C142.785 7.50447 142.829 7.92497 142.829 8.38897V13H140.77V8.76597C140.77 8.14731 140.673 7.68814 140.48 7.38847C140.286 7.07914 139.943 6.92447 139.45 6.92447C138.89 6.92447 138.484 7.09364 138.232 7.43197C137.981 7.76064 137.855 8.30681 137.855 9.07047V13H135.796V5.50347Z" fill="#65666A"/>
<path d="M145.986 10.564C145.986 10.7863 146.03 10.9796 146.117 11.144C146.214 11.2986 146.334 11.4291 146.479 11.5355C146.624 11.6321 146.789 11.7046 146.972 11.753C147.166 11.8013 147.364 11.8255 147.567 11.8255C147.712 11.8255 147.862 11.811 148.016 11.782C148.181 11.7433 148.326 11.6901 148.451 11.6225C148.587 11.5451 148.698 11.4485 148.785 11.3325C148.872 11.2068 148.915 11.0521 148.915 10.8685C148.915 10.5591 148.708 10.3271 148.292 10.1725C147.886 10.0178 147.316 9.86314 146.581 9.70847C146.281 9.64081 145.986 9.56347 145.696 9.47647C145.416 9.37981 145.165 9.25897 144.942 9.11397C144.72 8.95931 144.541 8.77081 144.406 8.54847C144.271 8.31647 144.203 8.03614 144.203 7.70747C144.203 7.22414 144.295 6.82781 144.478 6.51847C144.672 6.20914 144.923 5.96747 145.232 5.79347C145.542 5.60981 145.89 5.48414 146.276 5.41647C146.663 5.33914 147.059 5.30047 147.465 5.30047C147.871 5.30047 148.263 5.33914 148.64 5.41647C149.027 5.49381 149.37 5.62431 149.669 5.80797C149.969 5.99164 150.216 6.23814 150.409 6.54747C150.612 6.84714 150.733 7.22897 150.771 7.69297H148.814C148.785 7.29664 148.635 7.03081 148.364 6.89547C148.094 6.75047 147.775 6.67797 147.407 6.67797C147.291 6.67797 147.166 6.68764 147.03 6.70697C146.895 6.71664 146.769 6.74564 146.653 6.79397C146.547 6.84231 146.455 6.91481 146.378 7.01147C146.301 7.09847 146.262 7.21931 146.262 7.37397C146.262 7.55764 146.33 7.70747 146.465 7.82347C146.6 7.93947 146.774 8.03614 146.987 8.11347C147.209 8.18114 147.461 8.24397 147.741 8.30197C148.021 8.35997 148.306 8.42281 148.596 8.49047C148.896 8.55814 149.186 8.64031 149.466 8.73697C149.756 8.83364 150.013 8.96414 150.235 9.12847C150.457 9.28314 150.636 9.48131 150.771 9.72297C150.907 9.95497 150.974 10.245 150.974 10.593C150.974 11.086 150.873 11.5016 150.67 11.84C150.477 12.1686 150.22 12.4345 149.901 12.6375C149.582 12.8405 149.215 12.9806 148.799 13.058C148.393 13.145 147.978 13.1885 147.552 13.1885C147.117 13.1885 146.692 13.145 146.276 13.058C145.861 12.971 145.489 12.826 145.16 12.623C144.841 12.42 144.575 12.1541 144.362 11.8255C144.159 11.4871 144.048 11.0666 144.029 10.564H145.986Z" fill="#65666A"/>
<path d="M154.789 5.50347H156.297V6.88097H154.789V10.593C154.789 10.941 154.847 11.173 154.963 11.289C155.079 11.405 155.311 11.463 155.659 11.463C155.775 11.463 155.887 11.4581 155.993 11.4485C156.099 11.4388 156.201 11.4243 156.297 11.405V13C156.123 13.029 155.93 13.0483 155.717 13.058C155.505 13.0676 155.297 13.0725 155.094 13.0725C154.775 13.0725 154.47 13.0483 154.18 13C153.9 12.9613 153.649 12.8791 153.426 12.7535C153.214 12.6278 153.045 12.449 152.919 12.217C152.793 11.985 152.73 11.6805 152.73 11.3035V6.88097H151.483V5.50347H152.73V3.25597H154.789V5.50347Z" fill="#65666A"/>
<path d="M159.394 4.34347H157.335V2.64697H159.394V4.34347ZM157.335 5.50347H159.394V13H157.335V5.50347Z" fill="#65666A"/>
<path d="M163.625 5.50347H165.133V6.88097H163.625V10.593C163.625 10.941 163.683 11.173 163.799 11.289C163.915 11.405 164.147 11.463 164.495 11.463C164.611 11.463 164.723 11.4581 164.829 11.4485C164.935 11.4388 165.037 11.4243 165.133 11.405V13C164.959 13.029 164.766 13.0483 164.553 13.058C164.341 13.0676 164.133 13.0725 163.93 13.0725C163.611 13.0725 163.306 13.0483 163.016 13C162.736 12.9613 162.485 12.8791 162.262 12.7535C162.05 12.6278 161.881 12.449 161.755 12.217C161.629 11.985 161.566 11.6805 161.566 11.3035V6.88097H160.319V5.50347H161.566V3.25597H163.625V5.50347Z" fill="#65666A"/>
<path d="M173.146 13H171.188V11.956H171.145C170.884 12.391 170.545 12.7051 170.13 12.8985C169.714 13.0918 169.289 13.1885 168.854 13.1885C168.303 13.1885 167.848 13.116 167.491 12.971C167.143 12.826 166.867 12.623 166.664 12.362C166.461 12.0913 166.316 11.7675 166.229 11.3905C166.152 11.0038 166.113 10.5785 166.113 10.1145V5.50347H168.172V9.73747C168.172 10.3561 168.269 10.8201 168.462 11.1295C168.655 11.4291 168.999 11.579 169.492 11.579C170.052 11.579 170.458 11.4146 170.71 11.086C170.961 10.7476 171.087 10.1966 171.087 9.43297V5.50347H173.146V13Z" fill="#65666A"/>
<path d="M177.318 5.50347H178.826V6.88097H177.318V10.593C177.318 10.941 177.376 11.173 177.492 11.289C177.608 11.405 177.84 11.463 178.188 11.463C178.304 11.463 178.415 11.4581 178.522 11.4485C178.628 11.4388 178.73 11.4243 178.826 11.405V13C178.652 13.029 178.459 13.0483 178.246 13.058C178.034 13.0676 177.826 13.0725 177.623 13.0725C177.304 13.0725 176.999 13.0483 176.709 13C176.429 12.9613 176.178 12.8791 175.955 12.7535C175.743 12.6278 175.573 12.449 175.448 12.217C175.322 11.985 175.259 11.6805 175.259 11.3035V6.88097H174.012V5.50347H175.259V3.25597H177.318V5.50347Z" fill="#65666A"/>
<path d="M184.852 8.44697C184.755 7.92497 184.581 7.52864 184.33 7.25797C184.088 6.98731 183.716 6.85197 183.213 6.85197C182.885 6.85197 182.609 6.90997 182.387 7.02597C182.174 7.13231 182 7.26764 181.865 7.43197C181.739 7.59631 181.647 7.77031 181.589 7.95397C181.541 8.13764 181.512 8.30197 181.502 8.44697H184.852ZM181.502 9.75197C181.531 10.419 181.701 10.9023 182.01 11.202C182.319 11.5016 182.764 11.6515 183.344 11.6515C183.76 11.6515 184.117 11.55 184.417 11.347C184.717 11.1343 184.9 10.912 184.968 10.68H186.78C186.49 11.579 186.046 12.2218 185.446 12.6085C184.847 12.9951 184.122 13.1885 183.271 13.1885C182.682 13.1885 182.15 13.0966 181.676 12.913C181.203 12.7196 180.802 12.449 180.473 12.101C180.144 11.753 179.888 11.3373 179.704 10.854C179.53 10.3706 179.443 9.83897 179.443 9.25897C179.443 8.69831 179.535 8.17631 179.719 7.69297C179.903 7.20964 180.164 6.79397 180.502 6.44597C180.84 6.08831 181.241 5.80797 181.705 5.60497C182.179 5.40197 182.701 5.30047 183.271 5.30047C183.909 5.30047 184.465 5.42614 184.939 5.67747C185.413 5.91914 185.799 6.24781 186.099 6.66347C186.408 7.07914 186.631 7.55281 186.766 8.08447C186.901 8.61614 186.95 9.17197 186.911 9.75197H181.502Z" fill="#65666A"/>
<path d="M189.727 10.564C189.727 10.7863 189.771 10.9796 189.858 11.144C189.954 11.2986 190.075 11.4291 190.22 11.5355C190.365 11.6321 190.529 11.7046 190.713 11.753C190.906 11.8013 191.105 11.8255 191.308 11.8255C191.453 11.8255 191.602 11.811 191.757 11.782C191.921 11.7433 192.066 11.6901 192.192 11.6225C192.327 11.5451 192.439 11.4485 192.526 11.3325C192.613 11.2068 192.656 11.0521 192.656 10.8685C192.656 10.5591 192.448 10.3271 192.033 10.1725C191.627 10.0178 191.056 9.86314 190.322 9.70847C190.022 9.64081 189.727 9.56347 189.437 9.47647C189.157 9.37981 188.905 9.25897 188.683 9.11397C188.461 8.95931 188.282 8.77081 188.147 8.54847C188.011 8.31647 187.944 8.03614 187.944 7.70747C187.944 7.22414 188.035 6.82781 188.219 6.51847C188.412 6.20914 188.664 5.96747 188.973 5.79347C189.282 5.60981 189.63 5.48414 190.017 5.41647C190.404 5.33914 190.8 5.30047 191.206 5.30047C191.612 5.30047 192.004 5.33914 192.381 5.41647C192.767 5.49381 193.11 5.62431 193.41 5.80797C193.71 5.99164 193.956 6.23814 194.15 6.54747C194.353 6.84714 194.473 7.22897 194.512 7.69297H192.555C192.526 7.29664 192.376 7.03081 192.105 6.89547C191.834 6.75047 191.515 6.67797 191.148 6.67797C191.032 6.67797 190.906 6.68764 190.771 6.70697C190.636 6.71664 190.51 6.74564 190.394 6.79397C190.288 6.84231 190.196 6.91481 190.119 7.01147C190.041 7.09847 190.003 7.21931 190.003 7.37397C190.003 7.55764 190.07 7.70747 190.206 7.82347C190.341 7.93947 190.515 8.03614 190.728 8.11347C190.95 8.18114 191.201 8.24397 191.482 8.30197C191.762 8.35997 192.047 8.42281 192.337 8.49047C192.637 8.55814 192.927 8.64031 193.207 8.73697C193.497 8.83364 193.753 8.96414 193.976 9.12847C194.198 9.28314 194.377 9.48131 194.512 9.72297C194.647 9.95497 194.715 10.245 194.715 10.593C194.715 11.086 194.614 11.5016 194.411 11.84C194.217 12.1686 193.961 12.4345 193.642 12.6375C193.323 12.8405 192.956 12.9806 192.54 13.058C192.134 13.145 191.718 13.1885 191.293 13.1885C190.858 13.1885 190.433 13.145 190.017 13.058C189.601 12.971 189.229 12.826 188.901 12.623C188.582 12.42 188.316 12.1541 188.103 11.8255C187.9 11.4871 187.789 11.0666 187.77 10.564H189.727Z" fill="#65666A"/>
<path d="M201.783 9.25897C201.783 9.55864 201.812 9.85347 201.87 10.1435C201.928 10.4238 202.025 10.68 202.16 10.912C202.305 11.1343 202.493 11.3131 202.725 11.4485C202.957 11.5838 203.247 11.6515 203.595 11.6515C203.943 11.6515 204.233 11.5838 204.465 11.4485C204.707 11.3131 204.896 11.1343 205.031 10.912C205.176 10.68 205.277 10.4238 205.335 10.1435C205.393 9.85347 205.422 9.55864 205.422 9.25897C205.422 8.95931 205.393 8.66447 205.335 8.37447C205.277 8.08447 205.176 7.82831 205.031 7.60597C204.896 7.38364 204.707 7.20481 204.465 7.06947C204.233 6.92447 203.943 6.85197 203.595 6.85197C203.247 6.85197 202.957 6.92447 202.725 7.06947C202.493 7.20481 202.305 7.38364 202.16 7.60597C202.025 7.82831 201.928 8.08447 201.87 8.37447C201.812 8.66447 201.783 8.95931 201.783 9.25897ZM199.724 9.25897C199.724 8.65964 199.816 8.11831 199.999 7.63497C200.183 7.14197 200.444 6.72631 200.782 6.38797C201.121 6.03997 201.527 5.77414 202 5.59047C202.474 5.39714 203.006 5.30047 203.595 5.30047C204.185 5.30047 204.717 5.39714 205.19 5.59047C205.674 5.77414 206.085 6.03997 206.423 6.38797C206.761 6.72631 207.022 7.14197 207.206 7.63497C207.39 8.11831 207.481 8.65964 207.481 9.25897C207.481 9.85831 207.39 10.3996 207.206 10.883C207.022 11.3663 206.761 11.782 206.423 12.13C206.085 12.4683 205.674 12.7293 205.19 12.913C204.717 13.0966 204.185 13.1885 203.595 13.1885C203.006 13.1885 202.474 13.0966 202 12.913C201.527 12.7293 201.121 12.4683 200.782 12.13C200.444 11.782 200.183 11.3663 199.999 10.883C199.816 10.3996 199.724 9.85831 199.724 9.25897Z" fill="#65666A"/>
<path d="M209.27 6.88097H208.037V5.50347H209.27V4.92347C209.27 4.25647 209.477 3.71031 209.893 3.28497C210.309 2.85964 210.937 2.64697 211.778 2.64697C211.962 2.64697 212.145 2.65664 212.329 2.67597C212.513 2.68564 212.692 2.69531 212.866 2.70497V4.24197C212.624 4.21297 212.373 4.19847 212.112 4.19847C211.831 4.19847 211.628 4.26614 211.503 4.40147C211.387 4.52714 211.329 4.74464 211.329 5.05397V5.50347H212.75V6.88097H211.329V13H209.27V6.88097Z" fill="#65666A"/>
<path d="M217.902 2.64697H220.178V6.61997H224.369V2.64697H226.645V13H224.369V8.53397H220.178V13H217.902V2.64697Z" fill="#65666A"/>
<path d="M233.478 8.44697C233.381 7.92497 233.207 7.52864 232.956 7.25797C232.714 6.98731 232.342 6.85197 231.839 6.85197C231.511 6.85197 231.235 6.90997 231.013 7.02597C230.8 7.13231 230.626 7.26764 230.491 7.43197C230.365 7.59631 230.273 7.77031 230.215 7.95397C230.167 8.13764 230.138 8.30197 230.128 8.44697H233.478ZM230.128 9.75197C230.157 10.419 230.327 10.9023 230.636 11.202C230.945 11.5016 231.39 11.6515 231.97 11.6515C232.386 11.6515 232.743 11.55 233.043 11.347C233.343 11.1343 233.526 10.912 233.594 10.68H235.406C235.116 11.579 234.672 12.2218 234.072 12.6085C233.473 12.9951 232.748 13.1885 231.897 13.1885C231.308 13.1885 230.776 13.0966 230.302 12.913C229.829 12.7196 229.428 12.449 229.099 12.101C228.77 11.753 228.514 11.3373 228.33 10.854C228.156 10.3706 228.069 9.83897 228.069 9.25897C228.069 8.69831 228.161 8.17631 228.345 7.69297C228.529 7.20964 228.79 6.79397 229.128 6.44597C229.466 6.08831 229.867 5.80797 230.331 5.60497C230.805 5.40197 231.327 5.30047 231.897 5.30047C232.535 5.30047 233.091 5.42614 233.565 5.67747C234.039 5.91914 234.425 6.24781 234.725 6.66347C235.034 7.07914 235.257 7.55281 235.392 8.08447C235.527 8.61614 235.576 9.17197 235.537 9.75197H230.128Z" fill="#65666A"/>
<path d="M236.671 7.80897C236.7 7.32564 236.821 6.92447 237.034 6.60547C237.246 6.28647 237.517 6.03031 237.846 5.83697C238.174 5.64364 238.542 5.50831 238.948 5.43097C239.363 5.34397 239.779 5.30047 240.195 5.30047C240.572 5.30047 240.953 5.32947 241.34 5.38747C241.727 5.43581 242.08 5.53731 242.399 5.69197C242.718 5.84664 242.979 6.06414 243.182 6.34447C243.385 6.61514 243.486 6.97764 243.486 7.43197V11.3325C243.486 11.6708 243.505 11.9946 243.544 12.304C243.583 12.6133 243.65 12.8453 243.747 13H241.659C241.62 12.884 241.587 12.768 241.558 12.652C241.538 12.5263 241.524 12.4006 241.514 12.275C241.185 12.6133 240.799 12.8501 240.354 12.9855C239.909 13.1208 239.455 13.1885 238.991 13.1885C238.633 13.1885 238.3 13.145 237.991 13.058C237.681 12.971 237.411 12.8356 237.179 12.652C236.947 12.4683 236.763 12.2363 236.628 11.956C236.502 11.6756 236.439 11.3421 236.439 10.9555C236.439 10.5301 236.512 10.1821 236.657 9.91147C236.811 9.63114 237.005 9.40881 237.237 9.24447C237.478 9.08014 237.749 8.95931 238.049 8.88197C238.358 8.79497 238.667 8.72731 238.977 8.67897C239.286 8.63064 239.59 8.59197 239.89 8.56297C240.19 8.53397 240.456 8.49047 240.688 8.43247C240.92 8.37447 241.103 8.29231 241.239 8.18597C241.374 8.06997 241.437 7.90564 241.427 7.69297C241.427 7.47064 241.388 7.29664 241.311 7.17097C241.243 7.03564 241.147 6.93414 241.021 6.86647C240.905 6.78914 240.765 6.74081 240.601 6.72147C240.446 6.69247 240.277 6.67797 240.093 6.67797C239.687 6.67797 239.368 6.76497 239.136 6.93897C238.904 7.11297 238.769 7.40297 238.73 7.80897H236.671ZM241.427 9.33147C241.34 9.40881 241.229 9.47164 241.094 9.51997C240.968 9.55864 240.828 9.59247 240.673 9.62147C240.528 9.65047 240.373 9.67464 240.209 9.69397C240.045 9.71331 239.88 9.73747 239.716 9.76647C239.561 9.79547 239.407 9.83414 239.252 9.88247C239.107 9.93081 238.977 9.99847 238.861 10.0855C238.754 10.1628 238.667 10.2643 238.6 10.39C238.532 10.5156 238.498 10.6751 238.498 10.8685C238.498 11.0521 238.532 11.2068 238.6 11.3325C238.667 11.4581 238.759 11.5596 238.875 11.637C238.991 11.7046 239.126 11.753 239.281 11.782C239.436 11.811 239.595 11.8255 239.76 11.8255C240.166 11.8255 240.48 11.7578 240.702 11.6225C240.924 11.4871 241.089 11.3276 241.195 11.144C241.301 10.9506 241.364 10.7573 241.384 10.564C241.413 10.3706 241.427 10.216 241.427 10.1V9.33147Z" fill="#65666A"/>
<path d="M245.142 2.64697H247.201V13H245.142V2.64697Z" fill="#65666A"/>
<path d="M251.433 5.50347H252.941V6.88097H251.433V10.593C251.433 10.941 251.491 11.173 251.607 11.289C251.723 11.405 251.955 11.463 252.303 11.463C252.419 11.463 252.53 11.4581 252.636 11.4485C252.742 11.4388 252.844 11.4243 252.941 11.405V13C252.767 13.029 252.573 13.0483 252.361 13.058C252.148 13.0676 251.94 13.0725 251.737 13.0725C251.418 13.0725 251.114 13.0483 250.824 13C250.543 12.9613 250.292 12.8791 250.07 12.7535C249.857 12.6278 249.688 12.449 249.562 12.217C249.436 11.985 249.374 11.6805 249.374 11.3035V6.88097H248.127V5.50347H249.374V3.25597H251.433V5.50347Z" fill="#65666A"/>
<path d="M253.92 2.64697H255.979V6.54747H256.023C256.284 6.11247 256.617 5.79831 257.023 5.60497C257.429 5.40197 257.826 5.30047 258.212 5.30047C258.763 5.30047 259.213 5.37781 259.561 5.53247C259.918 5.67747 260.199 5.88531 260.402 6.15597C260.605 6.41697 260.745 6.74081 260.822 7.12747C260.909 7.50447 260.953 7.92497 260.953 8.38897V13H258.894V8.76597C258.894 8.14731 258.797 7.68814 258.604 7.38847C258.41 7.07914 258.067 6.92447 257.574 6.92447C257.014 6.92447 256.608 7.09364 256.356 7.43197C256.105 7.76064 255.979 8.30681 255.979 9.07047V13H253.92V2.64697Z" fill="#65666A"/>
<path d="M70.463 24.744C70.463 25.1253 70.5106 25.4737 70.606 25.789C70.7013 26.1043 70.8443 26.3757 71.035 26.603C71.2256 26.823 71.464 26.9953 71.75 27.12C72.0433 27.2447 72.388 27.307 72.784 27.307C73.3046 27.307 73.763 27.1933 74.159 26.966C74.555 26.7387 74.885 26.4417 75.149 26.075C75.4203 25.7083 75.622 25.294 75.754 24.832C75.8933 24.37 75.963 23.9043 75.963 23.435C75.963 23.0683 75.9153 22.7273 75.82 22.412C75.7246 22.0967 75.5816 21.8253 75.391 21.598C75.2003 21.3633 74.9656 21.18 74.687 21.048C74.4156 20.9087 74.0966 20.839 73.73 20.839C73.18 20.839 72.6996 20.9563 72.289 21.191C71.8856 21.4183 71.5483 21.7153 71.277 22.082C71.0056 22.4487 70.8003 22.8667 70.661 23.336C70.529 23.798 70.463 24.2673 70.463 24.744ZM69.418 24.744C69.418 24.106 69.517 23.501 69.715 22.929C69.913 22.3497 70.1953 21.84 70.562 21.4C70.936 20.96 71.3906 20.6117 71.926 20.355C72.4613 20.091 73.0626 19.959 73.73 19.959C74.236 19.959 74.6906 20.0507 75.094 20.234C75.5046 20.41 75.8493 20.6557 76.128 20.971C76.414 21.279 76.6303 21.6457 76.777 22.071C76.931 22.4963 77.008 22.951 77.008 23.435C77.008 24.051 76.909 24.645 76.711 25.217C76.5203 25.789 76.2416 26.295 75.875 26.735C75.5156 27.175 75.072 27.527 74.544 27.791C74.0233 28.0477 73.4366 28.176 72.784 28.176C71.706 28.176 70.8736 27.879 70.287 27.285C69.7076 26.6837 69.418 25.8367 69.418 24.744Z" fill="#65666A"/>
<path d="M81.8896 23.138H79.7336L78.7106 28H77.7756L78.7986 23.138H77.8416L78.0176 22.313H78.9746L79.1616 21.466C79.2643 21.004 79.4733 20.6557 79.7886 20.421C80.104 20.179 80.5183 20.058 81.0316 20.058C81.1196 20.058 81.2186 20.0653 81.3286 20.08C81.4386 20.0947 81.534 20.1167 81.6146 20.146L81.4496 20.96C81.369 20.9307 81.281 20.9123 81.1856 20.905C81.0976 20.8903 81.0133 20.883 80.9326 20.883C80.7053 20.883 80.5183 20.927 80.3716 21.015C80.2323 21.103 80.137 21.2717 80.0856 21.521L79.9096 22.313H82.0656L82.2526 21.466C82.3553 21.004 82.5643 20.6557 82.8796 20.421C83.195 20.179 83.6093 20.058 84.1226 20.058C84.2106 20.058 84.3096 20.0653 84.4196 20.08C84.5296 20.0947 84.625 20.1167 84.7056 20.146L84.5406 20.96C84.46 20.9307 84.372 20.9123 84.2766 20.905C84.1886 20.8903 84.1043 20.883 84.0236 20.883C83.7963 20.883 83.6093 20.927 83.4626 21.015C83.3233 21.103 83.228 21.2717 83.1766 21.521L83.0006 22.313H84.1006L83.9246 23.138H82.8246L81.8016 28H80.8666L81.8896 23.138ZM86.1466 21.29H85.2116L85.4536 20.146H86.3886L86.1466 21.29ZM84.9916 22.313H85.9266L84.7276 28H83.7926L84.9916 22.313Z" fill="#65666A"/>
<path d="M90.7098 24.117C90.7098 23.765 90.6034 23.4937 90.3908 23.303C90.1781 23.105 89.8848 23.006 89.5108 23.006C89.1514 23.006 88.8324 23.0867 88.5538 23.248C88.2824 23.4093 88.0514 23.6183 87.8608 23.875C87.6774 24.1317 87.5381 24.4213 87.4428 24.744C87.3474 25.0593 87.2998 25.371 87.2998 25.679C87.2998 25.899 87.3218 26.108 87.3658 26.306C87.4171 26.504 87.4978 26.6763 87.6078 26.823C87.7178 26.9697 87.8608 27.087 88.0368 27.175C88.2201 27.263 88.4438 27.307 88.7078 27.307C89.1111 27.307 89.4558 27.2007 89.7418 26.988C90.0278 26.7753 90.2368 26.493 90.3688 26.141H91.3038C91.1351 26.7863 90.8271 27.2777 90.3798 27.615C89.9324 27.9523 89.3751 28.121 88.7078 28.121C87.9304 28.121 87.3438 27.9083 86.9478 27.483C86.5591 27.0577 86.3648 26.4563 86.3648 25.679C86.3648 25.2243 86.4308 24.788 86.5628 24.37C86.7021 23.952 86.9038 23.5817 87.1678 23.259C87.4391 22.929 87.7691 22.6687 88.1578 22.478C88.5538 22.28 89.0048 22.181 89.5108 22.181C90.1561 22.181 90.6658 22.3387 91.0398 22.654C91.4211 22.962 91.6228 23.4497 91.6448 24.117H90.7098Z" fill="#65666A"/>
<path d="M93.12 25.437C93.098 25.5983 93.087 25.7633 93.087 25.932C93.087 26.152 93.1273 26.35 93.208 26.526C93.2886 26.6947 93.3986 26.8377 93.538 26.955C93.6773 27.065 93.835 27.153 94.011 27.219C94.187 27.2777 94.3703 27.307 94.561 27.307C94.979 27.307 95.3236 27.2153 95.595 27.032C95.8663 26.8413 96.068 26.57 96.2 26.218H97.135C97.0616 26.5333 96.9443 26.812 96.783 27.054C96.6216 27.2887 96.4273 27.4867 96.2 27.648C95.9726 27.802 95.7196 27.9193 95.441 28C95.1623 28.0807 94.869 28.121 94.561 28.121C94.0916 28.121 93.6993 28.0513 93.384 27.912C93.076 27.7653 92.8303 27.582 92.647 27.362C92.4636 27.1347 92.3353 26.889 92.262 26.625C92.1886 26.3537 92.152 26.0933 92.152 25.844C92.152 25.3013 92.229 24.8063 92.383 24.359C92.5443 23.9043 92.757 23.5157 93.021 23.193C93.2923 22.8703 93.604 22.621 93.956 22.445C94.3153 22.269 94.6893 22.181 95.078 22.181C95.914 22.181 96.5226 22.401 96.904 22.841C97.2926 23.281 97.487 23.9007 97.487 24.7C97.487 24.8467 97.476 24.986 97.454 25.118C97.432 25.25 97.4136 25.3563 97.399 25.437H93.12ZM96.552 24.612C96.5666 24.414 96.552 24.2197 96.508 24.029C96.4713 23.831 96.398 23.6587 96.288 23.512C96.1853 23.358 96.046 23.237 95.87 23.149C95.694 23.0537 95.4776 23.006 95.221 23.006C94.9496 23.006 94.704 23.05 94.484 23.138C94.2713 23.2187 94.0843 23.3323 93.923 23.479C93.7616 23.6257 93.626 23.798 93.516 23.996C93.406 24.1867 93.318 24.392 93.252 24.612H96.552Z" fill="#65666A"/>
<path d="M101.199 25.756C101.199 25.294 101.268 24.8467 101.408 24.414C101.554 23.9813 101.763 23.6 102.035 23.27C102.313 22.94 102.647 22.676 103.036 22.478C103.432 22.28 103.879 22.181 104.378 22.181C105.148 22.181 105.734 22.3827 106.138 22.786C106.541 23.182 106.743 23.765 106.743 24.535C106.743 24.997 106.673 25.4443 106.534 25.877C106.394 26.3097 106.189 26.6947 105.918 27.032C105.646 27.362 105.316 27.626 104.928 27.824C104.539 28.022 104.095 28.121 103.597 28.121C103.223 28.121 102.885 28.0623 102.585 27.945C102.291 27.8277 102.042 27.6663 101.837 27.461C101.631 27.2483 101.474 26.999 101.364 26.713C101.254 26.4197 101.199 26.1007 101.199 25.756ZM102.134 25.745C102.134 26.2143 102.266 26.592 102.53 26.878C102.794 27.164 103.182 27.307 103.696 27.307C104.04 27.307 104.341 27.219 104.598 27.043C104.862 26.867 105.082 26.647 105.258 26.383C105.441 26.1117 105.577 25.8183 105.665 25.503C105.76 25.1877 105.808 24.8907 105.808 24.612C105.808 24.392 105.778 24.183 105.72 23.985C105.661 23.787 105.569 23.6183 105.445 23.479C105.32 23.3323 105.162 23.2187 104.972 23.138C104.788 23.05 104.568 23.006 104.312 23.006C103.952 23.006 103.637 23.094 103.366 23.27C103.094 23.446 102.867 23.6697 102.684 23.941C102.5 24.205 102.361 24.4983 102.266 24.821C102.178 25.1437 102.134 25.4517 102.134 25.745Z" fill="#65666A"/>
<path d="M108.637 23.138H107.669L107.834 22.313H108.802C108.875 22.027 108.941 21.7483 109 21.477C109.066 21.2057 109.158 20.9673 109.275 20.762C109.392 20.5493 109.554 20.3807 109.759 20.256C109.972 20.124 110.265 20.058 110.639 20.058C110.771 20.058 110.903 20.0653 111.035 20.08C111.167 20.0873 111.295 20.1093 111.42 20.146L111.266 20.938C111.185 20.9233 111.108 20.9123 111.035 20.905C110.962 20.8903 110.892 20.883 110.826 20.883C110.599 20.883 110.423 20.927 110.298 21.015C110.173 21.0957 110.074 21.2057 110.001 21.345C109.935 21.477 109.884 21.6273 109.847 21.796C109.818 21.9647 109.777 22.137 109.726 22.313H110.815L110.661 23.138H109.561L108.516 28H107.581L108.637 23.138Z" fill="#65666A"/>
<path d="M116.076 22.313H117.208L117.033 23.138H115.9L115.195 26.482C115.188 26.548 115.181 26.6103 115.174 26.669C115.166 26.7277 115.163 26.79 115.163 26.856C115.163 27.0027 115.217 27.1053 115.327 27.164C115.445 27.2153 115.577 27.241 115.723 27.241C115.819 27.241 115.911 27.2337 115.999 27.219C116.087 27.197 116.175 27.1713 116.263 27.142L116.097 28C115.987 28.0147 115.878 28.0257 115.768 28.033C115.658 28.0477 115.548 28.055 115.438 28.055C115.262 28.055 115.097 28.0403 114.943 28.011C114.789 27.989 114.653 27.945 114.535 27.879C114.425 27.8057 114.334 27.7103 114.261 27.593C114.195 27.4757 114.161 27.3253 114.161 27.142C114.161 27.0613 114.165 26.9843 114.173 26.911C114.187 26.8377 114.202 26.757 114.216 26.669L114.965 23.138H114.007L114.184 22.313H115.14L115.493 20.63H116.428L116.076 22.313Z" fill="#65666A"/>
<path d="M118.72 20.146H119.655L118.984 23.149L119.006 23.171C119.241 22.841 119.538 22.5953 119.897 22.434C120.257 22.2653 120.634 22.181 121.03 22.181C121.566 22.181 121.962 22.2983 122.218 22.533C122.482 22.7677 122.614 23.138 122.614 23.644C122.614 23.7687 122.6 23.93 122.57 24.128C122.541 24.326 122.501 24.535 122.449 24.755L121.756 28H120.821L121.547 24.678C121.555 24.6193 121.566 24.5533 121.58 24.48C121.595 24.3993 121.61 24.3187 121.624 24.238C121.639 24.15 121.65 24.0693 121.657 23.996C121.672 23.9153 121.679 23.8493 121.679 23.798C121.679 23.5267 121.584 23.3287 121.393 23.204C121.203 23.072 120.968 23.006 120.689 23.006C120.433 23.006 120.176 23.0683 119.919 23.193C119.67 23.3177 119.457 23.4753 119.281 23.666C119.113 23.8127 118.981 23.9923 118.885 24.205C118.79 24.4103 118.713 24.6267 118.654 24.854L117.994 28H117.07L118.72 20.146Z" fill="#65666A"/>
<path d="M124.305 25.437C124.283 25.5983 124.272 25.7633 124.272 25.932C124.272 26.152 124.312 26.35 124.393 26.526C124.473 26.6947 124.583 26.8377 124.723 26.955C124.862 27.065 125.02 27.153 125.196 27.219C125.372 27.2777 125.555 27.307 125.746 27.307C126.164 27.307 126.508 27.2153 126.78 27.032C127.051 26.8413 127.253 26.57 127.385 26.218H128.32C128.246 26.5333 128.129 26.812 127.968 27.054C127.806 27.2887 127.612 27.4867 127.385 27.648C127.157 27.802 126.904 27.9193 126.626 28C126.347 28.0807 126.054 28.121 125.746 28.121C125.276 28.121 124.884 28.0513 124.569 27.912C124.261 27.7653 124.015 27.582 123.832 27.362C123.648 27.1347 123.52 26.889 123.447 26.625C123.373 26.3537 123.337 26.0933 123.337 25.844C123.337 25.3013 123.414 24.8063 123.568 24.359C123.729 23.9043 123.942 23.5157 124.206 23.193C124.477 22.8703 124.789 22.621 125.141 22.445C125.5 22.269 125.874 22.181 126.263 22.181C127.099 22.181 127.707 22.401 128.089 22.841C128.477 23.281 128.672 23.9007 128.672 24.7C128.672 24.8467 128.661 24.986 128.639 25.118C128.617 25.25 128.598 25.3563 128.584 25.437H124.305ZM127.737 24.612C127.751 24.414 127.737 24.2197 127.693 24.029C127.656 23.831 127.583 23.6587 127.473 23.512C127.37 23.358 127.231 23.237 127.055 23.149C126.879 23.0537 126.662 23.006 126.406 23.006C126.134 23.006 125.889 23.05 125.669 23.138C125.456 23.2187 125.269 23.3323 125.108 23.479C124.946 23.6257 124.811 23.798 124.701 23.996C124.591 24.1867 124.503 24.392 124.437 24.612H127.737Z" fill="#65666A"/>
<path d="M133.483 27.12H135.298C135.856 27.12 136.34 27.01 136.75 26.79C137.168 26.5627 137.513 26.2693 137.784 25.91C138.063 25.5433 138.268 25.129 138.4 24.667C138.54 24.205 138.609 23.7357 138.609 23.259C138.609 22.973 138.576 22.6943 138.51 22.423C138.452 22.1517 138.342 21.9133 138.18 21.708C138.019 21.5027 137.795 21.3377 137.509 21.213C137.231 21.0883 136.875 21.026 136.442 21.026H134.77L133.483 27.12ZM133.934 20.146H136.684C137.66 20.146 138.397 20.4137 138.895 20.949C139.401 21.4843 139.654 22.2177 139.654 23.149C139.654 23.8897 139.548 24.5607 139.335 25.162C139.123 25.756 138.826 26.2657 138.444 26.691C138.063 27.109 137.605 27.4317 137.069 27.659C136.534 27.8863 135.94 28 135.287 28H132.273L133.934 20.146Z" fill="#65666A"/>
<path d="M142.229 21.29H141.283L141.525 20.146H142.471L142.229 21.29ZM141.074 22.313H142.009L140.821 28H139.897L141.074 22.313Z" fill="#65666A"/>
<path d="M143.513 22.313H144.393L144.118 23.534H144.14C144.36 23.1453 144.639 22.8227 144.976 22.566C145.321 22.3093 145.731 22.181 146.208 22.181C146.267 22.181 146.322 22.1773 146.373 22.17C146.424 22.1627 146.479 22.1663 146.538 22.181L146.318 23.182C146.289 23.1747 146.241 23.171 146.175 23.171H146.043C145.926 23.171 145.83 23.1747 145.757 23.182C145.684 23.182 145.592 23.1967 145.482 23.226C145.225 23.292 144.994 23.4057 144.789 23.567C144.591 23.7283 144.419 23.9227 144.272 24.15C144.147 24.3333 144.048 24.5497 143.975 24.799C143.902 25.041 143.843 25.2683 143.799 25.481L143.26 28H142.336L143.513 22.313Z" fill="#65666A"/>
<path d="M146.928 25.437C146.906 25.5983 146.895 25.7633 146.895 25.932C146.895 26.152 146.935 26.35 147.016 26.526C147.096 26.6947 147.206 26.8377 147.346 26.955C147.485 27.065 147.643 27.153 147.819 27.219C147.995 27.2777 148.178 27.307 148.369 27.307C148.787 27.307 149.131 27.2153 149.403 27.032C149.674 26.8413 149.876 26.57 150.008 26.218H150.943C150.869 26.5333 150.752 26.812 150.591 27.054C150.429 27.2887 150.235 27.4867 150.008 27.648C149.78 27.802 149.527 27.9193 149.249 28C148.97 28.0807 148.677 28.121 148.369 28.121C147.899 28.121 147.507 28.0513 147.192 27.912C146.884 27.7653 146.638 27.582 146.455 27.362C146.271 27.1347 146.143 26.889 146.07 26.625C145.996 26.3537 145.96 26.0933 145.96 25.844C145.96 25.3013 146.037 24.8063 146.191 24.359C146.352 23.9043 146.565 23.5157 146.829 23.193C147.1 22.8703 147.412 22.621 147.764 22.445C148.123 22.269 148.497 22.181 148.886 22.181C149.722 22.181 150.33 22.401 150.712 22.841C151.1 23.281 151.295 23.9007 151.295 24.7C151.295 24.8467 151.284 24.986 151.262 25.118C151.24 25.25 151.221 25.3563 151.207 25.437H146.928ZM150.36 24.612C150.374 24.414 150.36 24.2197 150.316 24.029C150.279 23.831 150.206 23.6587 150.096 23.512C149.993 23.358 149.854 23.237 149.678 23.149C149.502 23.0537 149.285 23.006 149.029 23.006C148.757 23.006 148.512 23.05 148.292 23.138C148.079 23.2187 147.892 23.3323 147.731 23.479C147.569 23.6257 147.434 23.798 147.324 23.996C147.214 24.1867 147.126 24.392 147.06 24.612H150.36Z" fill="#65666A"/>
<path d="M156.334 24.117C156.334 23.765 156.227 23.4937 156.015 23.303C155.802 23.105 155.509 23.006 155.135 23.006C154.775 23.006 154.456 23.0867 154.178 23.248C153.906 23.4093 153.675 23.6183 153.485 23.875C153.301 24.1317 153.162 24.4213 153.067 24.744C152.971 25.0593 152.924 25.371 152.924 25.679C152.924 25.899 152.946 26.108 152.99 26.306C153.041 26.504 153.122 26.6763 153.232 26.823C153.342 26.9697 153.485 27.087 153.661 27.175C153.844 27.263 154.068 27.307 154.332 27.307C154.735 27.307 155.08 27.2007 155.366 26.988C155.652 26.7753 155.861 26.493 155.993 26.141H156.928C156.759 26.7863 156.451 27.2777 156.004 27.615C155.556 27.9523 154.999 28.121 154.332 28.121C153.554 28.121 152.968 27.9083 152.572 27.483C152.183 27.0577 151.989 26.4563 151.989 25.679C151.989 25.2243 152.055 24.788 152.187 24.37C152.326 23.952 152.528 23.5817 152.792 23.259C153.063 22.929 153.393 22.6687 153.782 22.478C154.178 22.28 154.629 22.181 155.135 22.181C155.78 22.181 156.29 22.3387 156.664 22.654C157.045 22.962 157.247 23.4497 157.269 24.117H156.334Z" fill="#65666A"/>
<path d="M160.097 22.313H161.23L161.054 23.138H159.921L159.217 26.482C159.21 26.548 159.202 26.6103 159.195 26.669C159.188 26.7277 159.184 26.79 159.184 26.856C159.184 27.0027 159.239 27.1053 159.349 27.164C159.466 27.2153 159.598 27.241 159.745 27.241C159.84 27.241 159.932 27.2337 160.02 27.219C160.108 27.197 160.196 27.1713 160.284 27.142L160.119 28C160.009 28.0147 159.899 28.0257 159.789 28.033C159.679 28.0477 159.569 28.055 159.459 28.055C159.283 28.055 159.118 28.0403 158.964 28.011C158.81 27.989 158.674 27.945 158.557 27.879C158.447 27.8057 158.355 27.7103 158.282 27.593C158.216 27.4757 158.183 27.3253 158.183 27.142C158.183 27.0613 158.187 26.9843 158.194 26.911C158.209 26.8377 158.223 26.757 158.238 26.669L158.986 23.138H158.029L158.205 22.313H159.162L159.514 20.63H160.449L160.097 22.313Z" fill="#65666A"/>
<path d="M161.323 25.756C161.323 25.294 161.392 24.8467 161.532 24.414C161.678 23.9813 161.887 23.6 162.159 23.27C162.437 22.94 162.771 22.676 163.16 22.478C163.556 22.28 164.003 22.181 164.502 22.181C165.272 22.181 165.858 22.3827 166.262 22.786C166.665 23.182 166.867 23.765 166.867 24.535C166.867 24.997 166.797 25.4443 166.658 25.877C166.518 26.3097 166.313 26.6947 166.042 27.032C165.77 27.362 165.44 27.626 165.052 27.824C164.663 28.022 164.219 28.121 163.721 28.121C163.347 28.121 163.009 28.0623 162.709 27.945C162.415 27.8277 162.166 27.6663 161.961 27.461C161.755 27.2483 161.598 26.999 161.488 26.713C161.378 26.4197 161.323 26.1007 161.323 25.756ZM162.258 25.745C162.258 26.2143 162.39 26.592 162.654 26.878C162.918 27.164 163.306 27.307 163.82 27.307C164.164 27.307 164.465 27.219 164.722 27.043C164.986 26.867 165.206 26.647 165.382 26.383C165.565 26.1117 165.701 25.8183 165.789 25.503C165.884 25.1877 165.932 24.8907 165.932 24.612C165.932 24.392 165.902 24.183 165.844 23.985C165.785 23.787 165.693 23.6183 165.569 23.479C165.444 23.3323 165.286 23.2187 165.096 23.138C164.912 23.05 164.692 23.006 164.436 23.006C164.076 23.006 163.761 23.094 163.49 23.27C163.218 23.446 162.991 23.6697 162.808 23.941C162.624 24.205 162.485 24.4983 162.39 24.821C162.302 25.1437 162.258 25.4517 162.258 25.745Z" fill="#65666A"/>
<path d="M168.585 22.313H169.465L169.19 23.534H169.212C169.432 23.1453 169.711 22.8227 170.048 22.566C170.393 22.3093 170.803 22.181 171.28 22.181C171.339 22.181 171.394 22.1773 171.445 22.17C171.496 22.1627 171.551 22.1663 171.61 22.181L171.39 23.182C171.361 23.1747 171.313 23.171 171.247 23.171H171.115C170.998 23.171 170.902 23.1747 170.829 23.182C170.756 23.182 170.664 23.1967 170.554 23.226C170.297 23.292 170.066 23.4057 169.861 23.567C169.663 23.7283 169.491 23.9227 169.344 24.15C169.219 24.3333 169.12 24.5497 169.047 24.799C168.974 25.041 168.915 25.2683 168.871 25.481L168.332 28H167.408L168.585 22.313Z" fill="#65666A"/>
<path d="M76.26 38.349C76.062 39.229 75.6733 39.922 75.094 40.428C74.522 40.9267 73.752 41.176 72.784 41.176C71.706 41.176 70.8736 40.879 70.287 40.285C69.7076 39.6837 69.418 38.8367 69.418 37.744C69.418 37.106 69.517 36.501 69.715 35.929C69.913 35.3497 70.1953 34.84 70.562 34.4C70.936 33.96 71.3906 33.6117 71.926 33.355C72.4613 33.091 73.0626 32.959 73.73 32.959C74.1553 32.959 74.5476 33.0177 74.907 33.135C75.2736 33.245 75.589 33.4137 75.853 33.641C76.1243 33.861 76.337 34.1433 76.491 34.488C76.645 34.8253 76.722 35.2213 76.722 35.676H75.677C75.677 35.06 75.4936 34.6017 75.127 34.301C74.7676 33.993 74.302 33.839 73.73 33.839C73.18 33.839 72.6996 33.9563 72.289 34.191C71.8856 34.4183 71.5483 34.7153 71.277 35.082C71.0056 35.4487 70.8003 35.8667 70.661 36.336C70.529 36.798 70.463 37.2673 70.463 37.744C70.463 38.1253 70.5106 38.4737 70.606 38.789C70.7013 39.1043 70.8443 39.3757 71.035 39.603C71.2256 39.823 71.464 39.9953 71.75 40.12C72.0433 40.2447 72.388 40.307 72.784 40.307C73.4293 40.307 73.9536 40.1383 74.357 39.801C74.7603 39.4563 75.0463 38.9723 75.215 38.349H76.26Z" fill="#65666A"/>
<path d="M78.5444 33.146H79.4794L78.8084 36.149L78.8304 36.171C79.0651 35.841 79.3621 35.5953 79.7214 35.434C80.0808 35.2653 80.4584 35.181 80.8544 35.181C81.3898 35.181 81.7858 35.2983 82.0424 35.533C82.3064 35.7677 82.4384 36.138 82.4384 36.644C82.4384 36.7687 82.4238 36.93 82.3944 37.128C82.3651 37.326 82.3248 37.535 82.2734 37.755L81.5804 41H80.6454L81.3714 37.678C81.3788 37.6193 81.3898 37.5533 81.4044 37.48C81.4191 37.3993 81.4338 37.3187 81.4484 37.238C81.4631 37.15 81.4741 37.0693 81.4814 36.996C81.4961 36.9153 81.5034 36.8493 81.5034 36.798C81.5034 36.5267 81.4081 36.3287 81.2174 36.204C81.0268 36.072 80.7921 36.006 80.5134 36.006C80.2568 36.006 80.0001 36.0683 79.7434 36.193C79.4941 36.3177 79.2814 36.4753 79.1054 36.666C78.9368 36.8127 78.8048 36.9923 78.7094 37.205C78.6141 37.4103 78.5371 37.6267 78.4784 37.854L77.8184 41H76.8944L78.5444 33.146Z" fill="#65666A"/>
<path d="M85.3387 34.29H84.3927L84.6347 33.146H85.5808L85.3387 34.29ZM84.1838 35.313H85.1188L83.9307 41H83.0068L84.1838 35.313Z" fill="#65666A"/>
<path d="M86.5672 38.437C86.5452 38.5983 86.5342 38.7633 86.5342 38.932C86.5342 39.152 86.5746 39.35 86.6552 39.526C86.7359 39.6947 86.8459 39.8377 86.9852 39.955C87.1246 40.065 87.2822 40.153 87.4582 40.219C87.6342 40.2777 87.8176 40.307 88.0082 40.307C88.4262 40.307 88.7709 40.2153 89.0422 40.032C89.3136 39.8413 89.5152 39.57 89.6472 39.218H90.5822C90.5089 39.5333 90.3916 39.812 90.2302 40.054C90.0689 40.2887 89.8746 40.4867 89.6472 40.648C89.4199 40.802 89.1669 40.9193 88.8882 41C88.6096 41.0807 88.3162 41.121 88.0082 41.121C87.5389 41.121 87.1466 41.0513 86.8312 40.912C86.5232 40.7653 86.2776 40.582 86.0942 40.362C85.9109 40.1347 85.7826 39.889 85.7092 39.625C85.6359 39.3537 85.5992 39.0933 85.5992 38.844C85.5992 38.3013 85.6762 37.8063 85.8302 37.359C85.9916 36.9043 86.2042 36.5157 86.4682 36.193C86.7396 35.8703 87.0512 35.621 87.4032 35.445C87.7626 35.269 88.1366 35.181 88.5252 35.181C89.3612 35.181 89.9699 35.401 90.3512 35.841C90.7399 36.281 90.9342 36.9007 90.9342 37.7C90.9342 37.8467 90.9232 37.986 90.9012 38.118C90.8792 38.25 90.8609 38.3563 90.8462 38.437H86.5672ZM89.9992 37.612C90.0139 37.414 89.9992 37.2197 89.9552 37.029C89.9186 36.831 89.8452 36.6587 89.7352 36.512C89.6326 36.358 89.4932 36.237 89.3172 36.149C89.1412 36.0537 88.9249 36.006 88.6682 36.006C88.3969 36.006 88.1512 36.05 87.9312 36.138C87.7186 36.2187 87.5316 36.3323 87.3702 36.479C87.2089 36.6257 87.0732 36.798 86.9632 36.996C86.8532 37.1867 86.7652 37.392 86.6992 37.612H89.9992Z" fill="#65666A"/>
<path d="M92.7064 36.138H91.7384L91.9034 35.313H92.8714C92.9448 35.027 93.0108 34.7483 93.0694 34.477C93.1354 34.2057 93.2271 33.9673 93.3444 33.762C93.4618 33.5493 93.6231 33.3807 93.8284 33.256C94.0411 33.124 94.3344 33.058 94.7084 33.058C94.8404 33.058 94.9724 33.0653 95.1044 33.08C95.2364 33.0873 95.3648 33.1093 95.4894 33.146L95.3354 33.938C95.2548 33.9233 95.1778 33.9123 95.1044 33.905C95.0311 33.8903 94.9614 33.883 94.8954 33.883C94.6681 33.883 94.4921 33.927 94.3674 34.015C94.2428 34.0957 94.1438 34.2057 94.0704 34.345C94.0044 34.477 93.9531 34.6273 93.9164 34.796C93.8871 34.9647 93.8468 35.137 93.7954 35.313H94.8844L94.7304 36.138H93.6304L92.5854 41H91.6504L92.7064 36.138Z" fill="#65666A"/>
<path d="M99.1768 37.744C99.1768 38.1253 99.2245 38.4737 99.3198 38.789C99.4152 39.1043 99.5582 39.3757 99.7488 39.603C99.9395 39.823 100.178 39.9953 100.464 40.12C100.757 40.2447 101.102 40.307 101.498 40.307C102.019 40.307 102.477 40.1933 102.873 39.966C103.269 39.7387 103.599 39.4417 103.863 39.075C104.134 38.7083 104.336 38.294 104.468 37.832C104.607 37.37 104.677 36.9043 104.677 36.435C104.677 36.0683 104.629 35.7273 104.534 35.412C104.439 35.0967 104.296 34.8253 104.105 34.598C103.914 34.3633 103.68 34.18 103.401 34.048C103.13 33.9087 102.811 33.839 102.444 33.839C101.894 33.839 101.414 33.9563 101.003 34.191C100.6 34.4183 100.262 34.7153 99.9908 35.082C99.7195 35.4487 99.5142 35.8667 99.3748 36.336C99.2428 36.798 99.1768 37.2673 99.1768 37.744ZM98.1318 37.744C98.1318 37.106 98.2308 36.501 98.4288 35.929C98.6268 35.3497 98.9092 34.84 99.2758 34.4C99.6498 33.96 100.105 33.6117 100.64 33.355C101.175 33.091 101.777 32.959 102.444 32.959C102.95 32.959 103.405 33.0507 103.808 33.234C104.219 33.41 104.563 33.6557 104.842 33.971C105.128 34.279 105.344 34.6457 105.491 35.071C105.645 35.4963 105.722 35.951 105.722 36.435C105.722 37.051 105.623 37.645 105.425 38.217C105.234 38.789 104.956 39.295 104.589 39.735C104.23 40.175 103.786 40.527 103.258 40.791C102.737 41.0477 102.151 41.176 101.498 41.176C100.42 41.176 99.5875 40.879 99.0008 40.285C98.4215 39.6837 98.1318 38.8367 98.1318 37.744Z" fill="#65666A"/>
<path d="M110.604 36.138H108.448L107.425 41H106.49L107.513 36.138H106.556L106.732 35.313H107.689L107.876 34.466C107.978 34.004 108.187 33.6557 108.503 33.421C108.818 33.179 109.232 33.058 109.746 33.058C109.834 33.058 109.933 33.0653 110.043 33.08C110.153 33.0947 110.248 33.1167 110.329 33.146L110.164 33.96C110.083 33.9307 109.995 33.9123 109.9 33.905C109.812 33.8903 109.727 33.883 109.647 33.883C109.419 33.883 109.232 33.927 109.086 34.015C108.946 34.103 108.851 34.2717 108.8 34.521L108.624 35.313H110.78L110.967 34.466C111.069 34.004 111.278 33.6557 111.594 33.421C111.909 33.179 112.323 33.058 112.837 33.058C112.925 33.058 113.024 33.0653 113.134 33.08C113.244 33.0947 113.339 33.1167 113.42 33.146L113.255 33.96C113.174 33.9307 113.086 33.9123 112.991 33.905C112.903 33.8903 112.818 33.883 112.738 33.883C112.51 33.883 112.323 33.927 112.177 34.015C112.037 34.103 111.942 34.2717 111.891 34.521L111.715 35.313H112.815L112.639 36.138H111.539L110.516 41H109.581L110.604 36.138ZM114.861 34.29H113.926L114.168 33.146H115.103L114.861 34.29ZM113.706 35.313H114.641L113.442 41H112.507L113.706 35.313Z" fill="#65666A"/>
<path d="M119.424 37.117C119.424 36.765 119.317 36.4937 119.105 36.303C118.892 36.105 118.599 36.006 118.225 36.006C117.865 36.006 117.546 36.0867 117.268 36.248C116.996 36.4093 116.765 36.6183 116.575 36.875C116.391 37.1317 116.252 37.4213 116.157 37.744C116.061 38.0593 116.014 38.371 116.014 38.679C116.014 38.899 116.036 39.108 116.08 39.306C116.131 39.504 116.212 39.6763 116.322 39.823C116.432 39.9697 116.575 40.087 116.751 40.175C116.934 40.263 117.158 40.307 117.422 40.307C117.825 40.307 118.17 40.2007 118.456 39.988C118.742 39.7753 118.951 39.493 119.083 39.141H120.018C119.849 39.7863 119.541 40.2777 119.094 40.615C118.646 40.9523 118.089 41.121 117.422 41.121C116.644 41.121 116.058 40.9083 115.662 40.483C115.273 40.0577 115.079 39.4563 115.079 38.679C115.079 38.2243 115.145 37.788 115.277 37.37C115.416 36.952 115.618 36.5817 115.882 36.259C116.153 35.929 116.483 35.6687 116.872 35.478C117.268 35.28 117.719 35.181 118.225 35.181C118.87 35.181 119.38 35.3387 119.754 35.654C120.135 35.962 120.337 36.4497 120.359 37.117H119.424Z" fill="#65666A"/>
<path d="M121.834 38.437C121.812 38.5983 121.801 38.7633 121.801 38.932C121.801 39.152 121.841 39.35 121.922 39.526C122.002 39.6947 122.112 39.8377 122.252 39.955C122.391 40.065 122.549 40.153 122.725 40.219C122.901 40.2777 123.084 40.307 123.275 40.307C123.693 40.307 124.037 40.2153 124.309 40.032C124.58 39.8413 124.782 39.57 124.914 39.218H125.849C125.775 39.5333 125.658 39.812 125.497 40.054C125.335 40.2887 125.141 40.4867 124.914 40.648C124.686 40.802 124.433 40.9193 124.155 41C123.876 41.0807 123.583 41.121 123.275 41.121C122.805 41.121 122.413 41.0513 122.098 40.912C121.79 40.7653 121.544 40.582 121.361 40.362C121.177 40.1347 121.049 39.889 120.976 39.625C120.902 39.3537 120.866 39.0933 120.866 38.844C120.866 38.3013 120.943 37.8063 121.097 37.359C121.258 36.9043 121.471 36.5157 121.735 36.193C122.006 35.8703 122.318 35.621 122.67 35.445C123.029 35.269 123.403 35.181 123.792 35.181C124.628 35.181 125.236 35.401 125.618 35.841C126.006 36.281 126.201 36.9007 126.201 37.7C126.201 37.8467 126.19 37.986 126.168 38.118C126.146 38.25 126.127 38.3563 126.113 38.437H121.834ZM125.266 37.612C125.28 37.414 125.266 37.2197 125.222 37.029C125.185 36.831 125.112 36.6587 125.002 36.512C124.899 36.358 124.76 36.237 124.584 36.149C124.408 36.0537 124.191 36.006 123.935 36.006C123.663 36.006 123.418 36.05 123.198 36.138C122.985 36.2187 122.798 36.3323 122.637 36.479C122.475 36.6257 122.34 36.798 122.23 36.996C122.12 37.1867 122.032 37.392 121.966 37.612H125.266Z" fill="#65666A"/>
<path d="M127.797 35.313H128.677L128.402 36.534H128.424C128.644 36.1453 128.923 35.8227 129.26 35.566C129.605 35.3093 130.015 35.181 130.492 35.181C130.551 35.181 130.606 35.1773 130.657 35.17C130.708 35.1627 130.763 35.1663 130.822 35.181L130.602 36.182C130.573 36.1747 130.525 36.171 130.459 36.171H130.327C130.21 36.171 130.114 36.1747 130.041 36.182C129.968 36.182 129.876 36.1967 129.766 36.226C129.509 36.292 129.278 36.4057 129.073 36.567C128.875 36.7283 128.703 36.9227 128.556 37.15C128.431 37.3333 128.332 37.5497 128.259 37.799C128.186 38.041 128.127 38.2683 128.083 38.481L127.544 41H126.62L127.797 35.313Z" fill="#65666A"/>
<path d="M134.698 36.138H133.73L133.895 35.313H134.863C134.936 35.027 135.002 34.7483 135.061 34.477C135.127 34.2057 135.218 33.9673 135.336 33.762C135.453 33.5493 135.614 33.3807 135.82 33.256C136.032 33.124 136.326 33.058 136.7 33.058C136.832 33.058 136.964 33.0653 137.096 33.08C137.228 33.0873 137.356 33.1093 137.481 33.146L137.327 33.938C137.246 33.9233 137.169 33.9123 137.096 33.905C137.022 33.8903 136.953 33.883 136.887 33.883C136.659 33.883 136.483 33.927 136.359 34.015C136.234 34.0957 136.135 34.2057 136.062 34.345C135.996 34.477 135.944 34.6273 135.908 34.796C135.878 34.9647 135.838 35.137 135.787 35.313H136.876L136.722 36.138H135.622L134.577 41H133.642L134.698 36.138Z" fill="#65666A"/>
<path d="M136.831 38.756C136.831 38.294 136.9 37.8467 137.04 37.414C137.186 36.9813 137.395 36.6 137.667 36.27C137.945 35.94 138.279 35.676 138.668 35.478C139.064 35.28 139.511 35.181 140.01 35.181C140.78 35.181 141.366 35.3827 141.77 35.786C142.173 36.182 142.375 36.765 142.375 37.535C142.375 37.997 142.305 38.4443 142.166 38.877C142.026 39.3097 141.821 39.6947 141.55 40.032C141.278 40.362 140.948 40.626 140.56 40.824C140.171 41.022 139.727 41.121 139.229 41.121C138.855 41.121 138.517 41.0623 138.217 40.945C137.923 40.8277 137.674 40.6663 137.469 40.461C137.263 40.2483 137.106 39.999 136.996 39.713C136.886 39.4197 136.831 39.1007 136.831 38.756ZM137.766 38.745C137.766 39.2143 137.898 39.592 138.162 39.878C138.426 40.164 138.814 40.307 139.328 40.307C139.672 40.307 139.973 40.219 140.23 40.043C140.494 39.867 140.714 39.647 140.89 39.383C141.073 39.1117 141.209 38.8183 141.297 38.503C141.392 38.1877 141.44 37.8907 141.44 37.612C141.44 37.392 141.41 37.183 141.352 36.985C141.293 36.787 141.201 36.6183 141.077 36.479C140.952 36.3323 140.794 36.2187 140.604 36.138C140.42 36.05 140.2 36.006 139.944 36.006C139.584 36.006 139.269 36.094 138.998 36.27C138.726 36.446 138.499 36.6697 138.316 36.941C138.132 37.205 137.993 37.4983 137.898 37.821C137.81 38.1437 137.766 38.4517 137.766 38.745Z" fill="#65666A"/>
<path d="M144.093 35.313H144.973L144.698 36.534H144.72C144.94 36.1453 145.219 35.8227 145.556 35.566C145.901 35.3093 146.311 35.181 146.788 35.181C146.847 35.181 146.902 35.1773 146.953 35.17C147.004 35.1627 147.059 35.1663 147.118 35.181L146.898 36.182C146.869 36.1747 146.821 36.171 146.755 36.171H146.623C146.506 36.171 146.41 36.1747 146.337 36.182C146.264 36.182 146.172 36.1967 146.062 36.226C145.805 36.292 145.574 36.4057 145.369 36.567C145.171 36.7283 144.999 36.9227 144.852 37.15C144.727 37.3333 144.628 37.5497 144.555 37.799C144.482 38.041 144.423 38.2683 144.379 38.481L143.84 41H142.916L144.093 35.313Z" fill="#65666A"/>
<path d="M155.394 35.467C155.401 35.159 155.361 34.9023 155.273 34.697C155.192 34.4843 155.071 34.3157 154.91 34.191C154.756 34.059 154.565 33.9673 154.338 33.916C154.11 33.8647 153.861 33.839 153.59 33.839C153.399 33.839 153.197 33.8647 152.985 33.916C152.772 33.96 152.574 34.0333 152.391 34.136C152.215 34.2387 152.068 34.3707 151.951 34.532C151.833 34.6933 151.775 34.8913 151.775 35.126C151.775 35.3167 151.808 35.4817 151.874 35.621C151.94 35.753 152.028 35.8703 152.138 35.973C152.255 36.0683 152.391 36.149 152.545 36.215C152.706 36.281 152.875 36.3397 153.051 36.391L154.107 36.677C154.349 36.743 154.583 36.8273 154.811 36.93C155.038 37.0253 155.24 37.1537 155.416 37.315C155.592 37.469 155.731 37.667 155.834 37.909C155.944 38.151 155.999 38.448 155.999 38.8C155.999 39.2107 155.903 39.5663 155.713 39.867C155.529 40.1603 155.291 40.406 154.998 40.604C154.704 40.7947 154.374 40.9377 154.008 41.033C153.648 41.1283 153.293 41.176 152.941 41.176C152.471 41.176 152.039 41.121 151.643 41.011C151.247 40.9083 150.909 40.747 150.631 40.527C150.359 40.307 150.15 40.0247 150.004 39.68C149.864 39.328 149.813 38.91 149.85 38.426H150.895C150.88 38.778 150.92 39.075 151.016 39.317C151.111 39.559 151.25 39.7533 151.434 39.9C151.624 40.0467 151.852 40.153 152.116 40.219C152.38 40.2777 152.669 40.307 152.985 40.307C153.227 40.307 153.465 40.2777 153.7 40.219C153.942 40.1603 154.154 40.0723 154.338 39.955C154.521 39.8303 154.668 39.6727 154.778 39.482C154.895 39.2913 154.954 39.064 154.954 38.8C154.954 38.602 154.917 38.4333 154.844 38.294C154.77 38.1473 154.668 38.0263 154.536 37.931C154.411 37.8283 154.264 37.744 154.096 37.678C153.927 37.612 153.747 37.5533 153.557 37.502L152.49 37.216C152.255 37.15 152.031 37.0657 151.819 36.963C151.606 36.853 151.419 36.721 151.258 36.567C151.096 36.4057 150.968 36.2187 150.873 36.006C150.777 35.786 150.73 35.5293 150.73 35.236C150.73 34.8547 150.814 34.5247 150.983 34.246C151.151 33.96 151.368 33.7217 151.632 33.531C151.903 33.3403 152.207 33.1973 152.545 33.102C152.889 33.0067 153.238 32.959 153.59 32.959C153.978 32.959 154.345 33.0103 154.69 33.113C155.042 33.2083 155.35 33.3587 155.614 33.564C155.878 33.762 156.083 34.0187 156.23 34.334C156.384 34.6493 156.453 35.027 156.439 35.467H155.394Z" fill="#65666A"/>
<path d="M161.393 37.117C161.393 36.765 161.287 36.4937 161.074 36.303C160.862 36.105 160.568 36.006 160.194 36.006C159.835 36.006 159.516 36.0867 159.237 36.248C158.966 36.4093 158.735 36.6183 158.544 36.875C158.361 37.1317 158.222 37.4213 158.126 37.744C158.031 38.0593 157.983 38.371 157.983 38.679C157.983 38.899 158.005 39.108 158.049 39.306C158.101 39.504 158.181 39.6763 158.291 39.823C158.401 39.9697 158.544 40.087 158.72 40.175C158.904 40.263 159.127 40.307 159.391 40.307C159.795 40.307 160.139 40.2007 160.425 39.988C160.711 39.7753 160.92 39.493 161.052 39.141H161.987C161.819 39.7863 161.511 40.2777 161.063 40.615C160.616 40.9523 160.059 41.121 159.391 41.121C158.614 41.121 158.027 40.9083 157.631 40.483C157.243 40.0577 157.048 39.4563 157.048 38.679C157.048 38.2243 157.114 37.788 157.246 37.37C157.386 36.952 157.587 36.5817 157.851 36.259C158.123 35.929 158.453 35.6687 158.841 35.478C159.237 35.28 159.688 35.181 160.194 35.181C160.84 35.181 161.349 35.3387 161.723 35.654C162.105 35.962 162.306 36.4497 162.328 37.117H161.393Z" fill="#65666A"/>
<path d="M165.014 34.29H164.068L164.31 33.146H165.256L165.014 34.29ZM163.859 35.313H164.794L163.606 41H162.682L163.859 35.313Z" fill="#65666A"/>
<path d="M166.242 38.437C166.22 38.5983 166.209 38.7633 166.209 38.932C166.209 39.152 166.249 39.35 166.33 39.526C166.411 39.6947 166.521 39.8377 166.66 39.955C166.799 40.065 166.957 40.153 167.133 40.219C167.309 40.2777 167.492 40.307 167.683 40.307C168.101 40.307 168.446 40.2153 168.717 40.032C168.988 39.8413 169.19 39.57 169.322 39.218H170.257C170.184 39.5333 170.066 39.812 169.905 40.054C169.744 40.2887 169.549 40.4867 169.322 40.648C169.095 40.802 168.842 40.9193 168.563 41C168.284 41.0807 167.991 41.121 167.683 41.121C167.214 41.121 166.821 41.0513 166.506 40.912C166.198 40.7653 165.952 40.582 165.769 40.362C165.586 40.1347 165.457 39.889 165.384 39.625C165.311 39.3537 165.274 39.0933 165.274 38.844C165.274 38.3013 165.351 37.8063 165.505 37.359C165.666 36.9043 165.879 36.5157 166.143 36.193C166.414 35.8703 166.726 35.621 167.078 35.445C167.437 35.269 167.811 35.181 168.2 35.181C169.036 35.181 169.645 35.401 170.026 35.841C170.415 36.281 170.609 36.9007 170.609 37.7C170.609 37.8467 170.598 37.986 170.576 38.118C170.554 38.25 170.536 38.3563 170.521 38.437H166.242ZM169.674 37.612C169.689 37.414 169.674 37.2197 169.63 37.029C169.593 36.831 169.52 36.6587 169.41 36.512C169.307 36.358 169.168 36.237 168.992 36.149C168.816 36.0537 168.6 36.006 168.343 36.006C168.072 36.006 167.826 36.05 167.606 36.138C167.393 36.2187 167.206 36.3323 167.045 36.479C166.884 36.6257 166.748 36.798 166.638 36.996C166.528 37.1867 166.44 37.392 166.374 37.612H169.674Z" fill="#65666A"/>
<path d="M172.216 35.313H173.118L172.942 36.171H172.964C173.199 35.841 173.496 35.5953 173.855 35.434C174.215 35.2653 174.592 35.181 174.988 35.181C175.524 35.181 175.92 35.2983 176.176 35.533C176.44 35.7677 176.572 36.138 176.572 36.644C176.572 36.7687 176.558 36.93 176.528 37.128C176.499 37.326 176.459 37.535 176.407 37.755L175.714 41H174.779L175.505 37.678C175.513 37.6193 175.524 37.5533 175.538 37.48C175.553 37.3993 175.568 37.3187 175.582 37.238C175.597 37.15 175.608 37.0693 175.615 36.996C175.63 36.9153 175.637 36.8493 175.637 36.798C175.637 36.5267 175.542 36.3287 175.351 36.204C175.161 36.072 174.926 36.006 174.647 36.006C174.391 36.006 174.134 36.0683 173.877 36.193C173.628 36.3177 173.415 36.4753 173.239 36.666C173.071 36.8127 172.939 36.9923 172.843 37.205C172.748 37.4103 172.671 37.6267 172.612 37.854L171.952 41H171.028L172.216 35.313Z" fill="#65666A"/>
<path d="M179.616 35.313H180.749L180.573 36.138H179.44L178.736 39.482C178.728 39.548 178.721 39.6103 178.714 39.669C178.706 39.7277 178.703 39.79 178.703 39.856C178.703 40.0027 178.758 40.1053 178.868 40.164C178.985 40.2153 179.117 40.241 179.264 40.241C179.359 40.241 179.451 40.2337 179.539 40.219C179.627 40.197 179.715 40.1713 179.803 40.142L179.638 41C179.528 41.0147 179.418 41.0257 179.308 41.033C179.198 41.0477 179.088 41.055 178.978 41.055C178.802 41.055 178.637 41.0403 178.483 41.011C178.329 40.989 178.193 40.945 178.076 40.879C177.966 40.8057 177.874 40.7103 177.801 40.593C177.735 40.4757 177.702 40.3253 177.702 40.142C177.702 40.0613 177.705 39.9843 177.713 39.911C177.727 39.8377 177.742 39.757 177.757 39.669L178.505 36.138H177.548L177.724 35.313H178.681L179.033 33.63H179.968L179.616 35.313Z" fill="#65666A"/>
<path d="M182.942 34.29H181.996L182.238 33.146H183.184L182.942 34.29ZM181.787 35.313H182.722L181.534 41H180.61L181.787 35.313Z" fill="#65666A"/>
<path d="M184.402 36.138H183.434L183.599 35.313H184.567C184.64 35.027 184.706 34.7483 184.765 34.477C184.831 34.2057 184.922 33.9673 185.04 33.762C185.157 33.5493 185.318 33.3807 185.524 33.256C185.736 33.124 186.03 33.058 186.404 33.058C186.536 33.058 186.668 33.0653 186.8 33.08C186.932 33.0873 187.06 33.1093 187.185 33.146L187.031 33.938C186.95 33.9233 186.873 33.9123 186.8 33.905C186.726 33.8903 186.657 33.883 186.591 33.883C186.363 33.883 186.187 33.927 186.063 34.015C185.938 34.0957 185.839 34.2057 185.766 34.345C185.7 34.477 185.648 34.6273 185.612 34.796C185.582 34.9647 185.542 35.137 185.491 35.313H186.58L186.426 36.138H185.326L184.281 41H183.346L184.402 36.138ZM188.648 34.29H187.702L187.944 33.146H188.89L188.648 34.29ZM187.493 35.313H188.428L187.24 41H186.305L187.493 35.313Z" fill="#65666A"/>
<path d="M193.373 37.117C193.373 36.765 193.267 36.4937 193.054 36.303C192.841 36.105 192.548 36.006 192.174 36.006C191.815 36.006 191.496 36.0867 191.217 36.248C190.946 36.4093 190.715 36.6183 190.524 36.875C190.341 37.1317 190.201 37.4213 190.106 37.744C190.011 38.0593 189.963 38.371 189.963 38.679C189.963 38.899 189.985 39.108 190.029 39.306C190.08 39.504 190.161 39.6763 190.271 39.823C190.381 39.9697 190.524 40.087 190.7 40.175C190.883 40.263 191.107 40.307 191.371 40.307C191.774 40.307 192.119 40.2007 192.405 39.988C192.691 39.7753 192.9 39.493 193.032 39.141H193.967C193.798 39.7863 193.49 40.2777 193.043 40.615C192.596 40.9523 192.038 41.121 191.371 41.121C190.594 41.121 190.007 40.9083 189.611 40.483C189.222 40.0577 189.028 39.4563 189.028 38.679C189.028 38.2243 189.094 37.788 189.226 37.37C189.365 36.952 189.567 36.5817 189.831 36.259C190.102 35.929 190.432 35.6687 190.821 35.478C191.217 35.28 191.668 35.181 192.174 35.181C192.819 35.181 193.329 35.3387 193.703 35.654C194.084 35.962 194.286 36.4497 194.308 37.117H193.373Z" fill="#65666A"/>
<path d="M204.972 41H203.883L203.388 34.224H203.366L200.264 41H199.142L198.647 33.146H199.681L199.956 39.757H199.978L202.992 33.146H204.18L204.62 39.779H204.642L207.502 33.146H208.58L204.972 41Z" fill="#65666A"/>
<path d="M207.514 38.756C207.514 38.294 207.584 37.8467 207.723 37.414C207.87 36.9813 208.079 36.6 208.35 36.27C208.629 35.94 208.962 35.676 209.351 35.478C209.747 35.28 210.194 35.181 210.693 35.181C211.463 35.181 212.05 35.3827 212.453 35.786C212.856 36.182 213.058 36.765 213.058 37.535C213.058 37.997 212.988 38.4443 212.849 38.877C212.71 39.3097 212.504 39.6947 212.233 40.032C211.962 40.362 211.632 40.626 211.243 40.824C210.854 41.022 210.411 41.121 209.912 41.121C209.538 41.121 209.201 41.0623 208.9 40.945C208.607 40.8277 208.357 40.6663 208.152 40.461C207.947 40.2483 207.789 39.999 207.679 39.713C207.569 39.4197 207.514 39.1007 207.514 38.756ZM208.449 38.745C208.449 39.2143 208.581 39.592 208.845 39.878C209.109 40.164 209.498 40.307 210.011 40.307C210.356 40.307 210.656 40.219 210.913 40.043C211.177 39.867 211.397 39.647 211.573 39.383C211.756 39.1117 211.892 38.8183 211.98 38.503C212.075 38.1877 212.123 37.8907 212.123 37.612C212.123 37.392 212.094 37.183 212.035 36.985C211.976 36.787 211.885 36.6183 211.76 36.479C211.635 36.3323 211.478 36.2187 211.287 36.138C211.104 36.05 210.884 36.006 210.627 36.006C210.268 36.006 209.952 36.094 209.681 36.27C209.41 36.446 209.182 36.6697 208.999 36.941C208.816 37.205 208.676 37.4983 208.581 37.821C208.493 38.1437 208.449 38.4517 208.449 38.745Z" fill="#65666A"/>
<path d="M214.777 35.313H215.657L215.382 36.534H215.404C215.624 36.1453 215.902 35.8227 216.24 35.566C216.584 35.3093 216.995 35.181 217.472 35.181C217.53 35.181 217.585 35.1773 217.637 35.17C217.688 35.1627 217.743 35.1663 217.802 35.181L217.582 36.182C217.552 36.1747 217.505 36.171 217.439 36.171H217.307C217.189 36.171 217.094 36.1747 217.021 36.182C216.947 36.182 216.856 36.1967 216.746 36.226C216.489 36.292 216.258 36.4057 216.053 36.567C215.855 36.7283 215.682 36.9227 215.536 37.15C215.411 37.3333 215.312 37.5497 215.239 37.799C215.165 38.041 215.107 38.2683 215.063 38.481L214.524 41H213.6L214.777 35.313Z" fill="#65666A"/>
<path d="M218.913 33.146H219.837L218.858 37.766L218.88 37.788L221.74 35.313H222.961L220.486 37.414L221.894 41H220.849L219.738 37.975L218.616 38.976L218.187 41H217.263L218.913 33.146Z" fill="#65666A"/>
<path d="M223.912 36.138H222.944L223.109 35.313H224.077C224.15 35.027 224.216 34.7483 224.275 34.477C224.341 34.2057 224.432 33.9673 224.55 33.762C224.667 33.5493 224.828 33.3807 225.034 33.256C225.246 33.124 225.54 33.058 225.914 33.058C226.046 33.058 226.178 33.0653 226.31 33.08C226.442 33.0873 226.57 33.1093 226.695 33.146L226.541 33.938C226.46 33.9233 226.383 33.9123 226.31 33.905C226.236 33.8903 226.167 33.883 226.101 33.883C225.873 33.883 225.697 33.927 225.573 34.015C225.448 34.0957 225.349 34.2057 225.276 34.345C225.21 34.477 225.158 34.6273 225.122 34.796C225.092 34.9647 225.052 35.137 225.001 35.313H226.09L225.936 36.138H224.836L223.791 41H222.856L223.912 36.138Z" fill="#65666A"/>
<path d="M226.044 38.756C226.044 38.294 226.114 37.8467 226.253 37.414C226.4 36.9813 226.609 36.6 226.88 36.27C227.159 35.94 227.493 35.676 227.881 35.478C228.277 35.28 228.725 35.181 229.223 35.181C229.993 35.181 230.58 35.3827 230.983 35.786C231.387 36.182 231.588 36.765 231.588 37.535C231.588 37.997 231.519 38.4443 231.379 38.877C231.24 39.3097 231.035 39.6947 230.763 40.032C230.492 40.362 230.162 40.626 229.773 40.824C229.385 41.022 228.941 41.121 228.442 41.121C228.068 41.121 227.731 41.0623 227.43 40.945C227.137 40.8277 226.888 40.6663 226.682 40.461C226.477 40.2483 226.319 39.999 226.209 39.713C226.099 39.4197 226.044 39.1007 226.044 38.756ZM226.979 38.745C226.979 39.2143 227.111 39.592 227.375 39.878C227.639 40.164 228.028 40.307 228.541 40.307C228.886 40.307 229.187 40.219 229.443 40.043C229.707 39.867 229.927 39.647 230.103 39.383C230.287 39.1117 230.422 38.8183 230.51 38.503C230.606 38.1877 230.653 37.8907 230.653 37.612C230.653 37.392 230.624 37.183 230.565 36.985C230.507 36.787 230.415 36.6183 230.29 36.479C230.166 36.3323 230.008 36.2187 229.817 36.138C229.634 36.05 229.414 36.006 229.157 36.006C228.798 36.006 228.483 36.094 228.211 36.27C227.94 36.446 227.713 36.6697 227.529 36.941C227.346 37.205 227.207 37.4983 227.111 37.821C227.023 38.1437 226.979 38.4517 226.979 38.745Z" fill="#65666A"/>
<path d="M233.307 35.313H234.187L233.912 36.534H233.934C234.154 36.1453 234.432 35.8227 234.77 35.566C235.114 35.3093 235.525 35.181 236.002 35.181C236.06 35.181 236.115 35.1773 236.167 35.17C236.218 35.1627 236.273 35.1663 236.332 35.181L236.112 36.182C236.082 36.1747 236.035 36.171 235.969 36.171H235.837C235.719 36.171 235.624 36.1747 235.551 36.182C235.477 36.182 235.386 36.1967 235.276 36.226C235.019 36.292 234.788 36.4057 234.583 36.567C234.385 36.7283 234.212 36.9227 234.066 37.15C233.941 37.3333 233.842 37.5497 233.769 37.799C233.695 38.041 233.637 38.2683 233.593 38.481L233.054 41H232.13L233.307 35.313Z" fill="#65666A"/>
<path d="M240.22 37.117C240.22 36.765 240.113 36.4937 239.901 36.303C239.688 36.105 239.395 36.006 239.021 36.006C238.661 36.006 238.342 36.0867 238.064 36.248C237.792 36.4093 237.561 36.6183 237.371 36.875C237.187 37.1317 237.048 37.4213 236.953 37.744C236.857 38.0593 236.81 38.371 236.81 38.679C236.81 38.899 236.832 39.108 236.876 39.306C236.927 39.504 237.008 39.6763 237.118 39.823C237.228 39.9697 237.371 40.087 237.547 40.175C237.73 40.263 237.954 40.307 238.218 40.307C238.621 40.307 238.966 40.2007 239.252 39.988C239.538 39.7753 239.747 39.493 239.879 39.141H240.814C240.645 39.7863 240.337 40.2777 239.89 40.615C239.442 40.9523 238.885 41.121 238.218 41.121C237.44 41.121 236.854 40.9083 236.458 40.483C236.069 40.0577 235.875 39.4563 235.875 38.679C235.875 38.2243 235.941 37.788 236.073 37.37C236.212 36.952 236.414 36.5817 236.678 36.259C236.949 35.929 237.279 35.6687 237.668 35.478C238.064 35.28 238.515 35.181 239.021 35.181C239.666 35.181 240.176 35.3387 240.55 35.654C240.931 35.962 241.133 36.4497 241.155 37.117H240.22Z" fill="#65666A"/>
<path d="M242.63 38.437C242.608 38.5983 242.597 38.7633 242.597 38.932C242.597 39.152 242.637 39.35 242.718 39.526C242.798 39.6947 242.908 39.8377 243.048 39.955C243.187 40.065 243.345 40.153 243.521 40.219C243.697 40.2777 243.88 40.307 244.071 40.307C244.489 40.307 244.833 40.2153 245.105 40.032C245.376 39.8413 245.578 39.57 245.71 39.218H246.645C246.571 39.5333 246.454 39.812 246.293 40.054C246.131 40.2887 245.937 40.4867 245.71 40.648C245.482 40.802 245.229 40.9193 244.951 41C244.672 41.0807 244.379 41.121 244.071 41.121C243.601 41.121 243.209 41.0513 242.894 40.912C242.586 40.7653 242.34 40.582 242.157 40.362C241.973 40.1347 241.845 39.889 241.772 39.625C241.698 39.3537 241.662 39.0933 241.662 38.844C241.662 38.3013 241.739 37.8063 241.893 37.359C242.054 36.9043 242.267 36.5157 242.531 36.193C242.802 35.8703 243.114 35.621 243.466 35.445C243.825 35.269 244.199 35.181 244.588 35.181C245.424 35.181 246.032 35.401 246.414 35.841C246.802 36.281 246.997 36.9007 246.997 37.7C246.997 37.8467 246.986 37.986 246.964 38.118C246.942 38.25 246.923 38.3563 246.909 38.437H242.63ZM246.062 37.612C246.076 37.414 246.062 37.2197 246.018 37.029C245.981 36.831 245.908 36.6587 245.798 36.512C245.695 36.358 245.556 36.237 245.38 36.149C245.204 36.0537 244.987 36.006 244.731 36.006C244.459 36.006 244.214 36.05 243.994 36.138C243.781 36.2187 243.594 36.3323 243.433 36.479C243.271 36.6257 243.136 36.798 243.026 36.996C242.916 37.1867 242.828 37.392 242.762 37.612H246.062Z" fill="#65666A"/>
<path d="M251.808 40.12H253.623C254.181 40.12 254.665 40.01 255.075 39.79C255.493 39.5627 255.838 39.2693 256.109 38.91C256.388 38.5433 256.593 38.129 256.725 37.667C256.865 37.205 256.934 36.7357 256.934 36.259C256.934 35.973 256.901 35.6943 256.835 35.423C256.777 35.1517 256.667 34.9133 256.505 34.708C256.344 34.5027 256.12 34.3377 255.834 34.213C255.556 34.0883 255.2 34.026 254.767 34.026H253.095L251.808 40.12ZM252.259 33.146H255.009C255.985 33.146 256.722 33.4137 257.22 33.949C257.726 34.4843 257.979 35.2177 257.979 36.149C257.979 36.8897 257.873 37.5607 257.66 38.162C257.448 38.756 257.151 39.2657 256.769 39.691C256.388 40.109 255.93 40.4317 255.394 40.659C254.859 40.8863 254.265 41 253.612 41H250.598L252.259 33.146Z" fill="#65666A"/>
<path d="M260.555 34.29H259.609L259.851 33.146H260.797L260.555 34.29ZM259.4 35.313H260.335L259.147 41H258.223L259.4 35.313Z" fill="#65666A"/>
<path d="M262.982 41H261.981L261.167 35.313H262.157L262.641 40.043H262.663L265.127 35.313H266.139L262.982 41Z" fill="#65666A"/>
<path d="M267.079 38.437C267.057 38.5983 267.046 38.7633 267.046 38.932C267.046 39.152 267.086 39.35 267.167 39.526C267.248 39.6947 267.358 39.8377 267.497 39.955C267.636 40.065 267.794 40.153 267.97 40.219C268.146 40.2777 268.329 40.307 268.52 40.307C268.938 40.307 269.283 40.2153 269.554 40.032C269.825 39.8413 270.027 39.57 270.159 39.218H271.094C271.021 39.5333 270.903 39.812 270.742 40.054C270.581 40.2887 270.386 40.4867 270.159 40.648C269.932 40.802 269.679 40.9193 269.4 41C269.121 41.0807 268.828 41.121 268.52 41.121C268.051 41.121 267.658 41.0513 267.343 40.912C267.035 40.7653 266.789 40.582 266.606 40.362C266.423 40.1347 266.294 39.889 266.221 39.625C266.148 39.3537 266.111 39.0933 266.111 38.844C266.111 38.3013 266.188 37.8063 266.342 37.359C266.503 36.9043 266.716 36.5157 266.98 36.193C267.251 35.8703 267.563 35.621 267.915 35.445C268.274 35.269 268.648 35.181 269.037 35.181C269.873 35.181 270.482 35.401 270.863 35.841C271.252 36.281 271.446 36.9007 271.446 37.7C271.446 37.8467 271.435 37.986 271.413 38.118C271.391 38.25 271.373 38.3563 271.358 38.437H267.079ZM270.511 37.612C270.526 37.414 270.511 37.2197 270.467 37.029C270.43 36.831 270.357 36.6587 270.247 36.512C270.144 36.358 270.005 36.237 269.829 36.149C269.653 36.0537 269.437 36.006 269.18 36.006C268.909 36.006 268.663 36.05 268.443 36.138C268.23 36.2187 268.043 36.3323 267.882 36.479C267.721 36.6257 267.585 36.798 267.475 36.996C267.365 37.1867 267.277 37.392 267.211 37.612H270.511Z" fill="#65666A"/>
<path d="M273.042 35.313H273.922L273.647 36.534H273.669C273.889 36.1453 274.168 35.8227 274.505 35.566C274.85 35.3093 275.26 35.181 275.737 35.181C275.796 35.181 275.851 35.1773 275.902 35.17C275.953 35.1627 276.008 35.1663 276.067 35.181L275.847 36.182C275.818 36.1747 275.77 36.171 275.704 36.171H275.572C275.455 36.171 275.359 36.1747 275.286 36.182C275.213 36.182 275.121 36.1967 275.011 36.226C274.754 36.292 274.523 36.4057 274.318 36.567C274.12 36.7283 273.948 36.9227 273.801 37.15C273.676 37.3333 273.577 37.5497 273.504 37.799C273.431 38.041 273.372 38.2683 273.328 38.481L272.789 41H271.865L273.042 35.313Z" fill="#65666A"/>
<path d="M279.477 36.985C279.492 36.6623 279.382 36.4203 279.147 36.259C278.913 36.0903 278.63 36.006 278.3 36.006C278.161 36.006 278.018 36.017 277.871 36.039C277.725 36.061 277.593 36.1013 277.475 36.16C277.365 36.2113 277.274 36.2847 277.2 36.38C277.127 36.468 277.09 36.5853 277.09 36.732C277.09 36.864 277.131 36.9777 277.211 37.073C277.299 37.1683 277.413 37.2563 277.552 37.337C277.699 37.4177 277.86 37.4947 278.036 37.568C278.22 37.634 278.403 37.7037 278.586 37.777C278.777 37.8577 278.96 37.9457 279.136 38.041C279.32 38.1363 279.481 38.2463 279.62 38.371C279.76 38.4883 279.873 38.6313 279.961 38.8C280.049 38.9613 280.093 39.152 280.093 39.372C280.093 39.6873 280.024 39.9587 279.884 40.186C279.745 40.406 279.565 40.5857 279.345 40.725C279.125 40.8643 278.876 40.9633 278.597 41.022C278.326 41.088 278.051 41.121 277.772 41.121C277.442 41.121 277.138 41.088 276.859 41.022C276.581 40.9633 276.339 40.8607 276.133 40.714C275.935 40.5673 275.778 40.373 275.66 40.131C275.543 39.8817 275.484 39.5737 275.484 39.207H276.408C276.394 39.4123 276.423 39.5883 276.496 39.735C276.577 39.8743 276.683 39.988 276.815 40.076C276.955 40.1567 277.112 40.2153 277.288 40.252C277.472 40.2887 277.662 40.307 277.86 40.307C278.014 40.307 278.168 40.2923 278.322 40.263C278.476 40.2337 278.616 40.186 278.74 40.12C278.865 40.0467 278.964 39.955 279.037 39.845C279.118 39.735 279.158 39.5993 279.158 39.438C279.158 39.2987 279.114 39.1813 279.026 39.086C278.938 38.9833 278.825 38.8917 278.685 38.811C278.546 38.7303 278.385 38.657 278.201 38.591C278.025 38.5177 277.846 38.4407 277.662 38.36C277.472 38.2867 277.285 38.206 277.101 38.118C276.925 38.03 276.764 37.9273 276.617 37.81C276.478 37.6853 276.364 37.5423 276.276 37.381C276.196 37.2197 276.155 37.0327 276.155 36.82C276.155 36.556 276.214 36.3213 276.331 36.116C276.456 35.9107 276.617 35.742 276.815 35.61C277.013 35.4707 277.237 35.3643 277.486 35.291C277.743 35.2177 278.003 35.181 278.267 35.181C278.531 35.181 278.792 35.214 279.048 35.28C279.305 35.3387 279.532 35.4413 279.73 35.588C279.936 35.7273 280.101 35.9143 280.225 36.149C280.35 36.3763 280.412 36.655 280.412 36.985H279.477Z" fill="#65666A"/>
<path d="M283.156 34.29H282.21L282.452 33.146H283.398L283.156 34.29ZM282.001 35.313H282.936L281.748 41H280.824L282.001 35.313Z" fill="#65666A"/>
<path d="M285.738 35.313H286.871L286.695 36.138H285.562L284.858 39.482C284.85 39.548 284.843 39.6103 284.836 39.669C284.828 39.7277 284.825 39.79 284.825 39.856C284.825 40.0027 284.88 40.1053 284.99 40.164C285.107 40.2153 285.239 40.241 285.386 40.241C285.481 40.241 285.573 40.2337 285.661 40.219C285.749 40.197 285.837 40.1713 285.925 40.142L285.76 41C285.65 41.0147 285.54 41.0257 285.43 41.033C285.32 41.0477 285.21 41.055 285.1 41.055C284.924 41.055 284.759 41.0403 284.605 41.011C284.451 40.989 284.315 40.945 284.198 40.879C284.088 40.8057 283.996 40.7103 283.923 40.593C283.857 40.4757 283.824 40.3253 283.824 40.142C283.824 40.0613 283.827 39.9843 283.835 39.911C283.849 39.8377 283.864 39.757 283.879 39.669L284.627 36.138H283.67L283.846 35.313H284.803L285.155 33.63H286.09L285.738 35.313Z" fill="#65666A"/>
<path d="M288.569 41.957C288.452 42.1403 288.335 42.3127 288.217 42.474C288.1 42.6427 287.972 42.7857 287.832 42.903C287.693 43.0277 287.535 43.123 287.359 43.189C287.183 43.2623 286.978 43.299 286.743 43.299C286.633 43.299 286.52 43.2843 286.402 43.255C286.285 43.233 286.182 43.2 286.094 43.156L286.259 42.397C286.333 42.441 286.421 42.4777 286.523 42.507C286.626 42.5363 286.714 42.551 286.787 42.551C287 42.551 287.172 42.4923 287.304 42.375C287.436 42.265 287.557 42.1183 287.667 41.935L288.239 41L287.238 35.313H288.239L288.899 39.834H288.921L291.308 35.313H292.331L288.569 41.957Z" fill="#65666A"/>
<defs>
<clipPath id="clip0_128_1015">
<rect width="63" height="40" fill="white"/>
</clipPath>
</defs>
</svg>
