<svg width="191" height="71" viewBox="0 0 191 71" fill="none" xmlns="http://www.w3.org/2000/svg">
<path fill-rule="evenodd" clip-rule="evenodd" d="M2.88099 1L0 3.83609V41.9309L2.9063 45H13.8229L16.4711 41.9309V30.7904L30.9869 45H41.482L44.1417 41.9309V19.9075L58.2775 33.8769V41.9309L60.9848 45H71.8304L74.6991 41.9309V33.4476L88.346 19.961V36.7377L96.7638 45H124.588L133 36.63V28.2589L129.981 25.2762H116.207V28.3859H105.195V17.3765H116.079V20.0345H130.037L132.661 17.4394V9.02474L124.434 1H96.9993L88.66 9.13577V3.83609L85.659 1H74.5898L71.937 3.83609V8.9929L66.3353 14.5472L60.6968 8.9929V3.83609L57.7836 1H46.9307L44.386 3.83609L41.5529 1H30.7963L27.9157 3.83609V14.7197L13.7975 1C13.7975 1 3.07311 1.18986 2.88099 1Z" fill="white"/>
<path fill-rule="evenodd" clip-rule="evenodd" d="M43.755 71C38.5111 70.933 37.0577 69.4687 37 64.1932L37.0008 62.7879C37.0675 57.5189 38.5239 56.0583 43.775 56L46.9844 56.0027C48.855 56.0042 49.7748 56.4831 50.7007 57.4276C51.4706 58.2128 51.9065 59.8248 52 61.2369L48.1567 61.2331C47.9303 60.4983 47.9491 59.3474 46.1904 59.3462L44.0942 59.3451C41.3102 59.3451 40.5512 60.1095 40.5486 62.9011L40.5482 64.0929C40.5456 66.8856 41.3068 67.6519 44.0874 67.6549L46.1837 67.6556C47.9419 67.6556 47.9239 66.5055 48.1515 65.773L51.9943 65.7768C51.7875 68.9106 50.4343 71 46.9818 71H43.755Z" fill="white"/>
<path fill-rule="evenodd" clip-rule="evenodd" d="M6.09573 64.2365L10.8683 64.2398L8.48781 58.302L6.09573 64.2365ZM13.1636 69.9967L12.1508 67.4817L4.80814 67.4757L3.79038 69.9888L0 69.9859L5.90256 56L11.1214 56.0045L17 70L13.1636 69.9967Z" fill="white"/>
<path fill-rule="evenodd" clip-rule="evenodd" d="M25.755 71C20.5111 70.933 19.0577 69.4687 19 64.1932L19.0008 62.7879C19.0675 57.5189 20.5239 56.0583 25.7754 56L28.9844 56.0027C30.855 56.0042 31.7748 56.4831 32.6999 57.4276C33.4706 58.2128 33.9065 59.8248 34 61.2369L30.1567 61.2331C29.9303 60.4983 29.9491 59.3474 28.1904 59.3462L26.0942 59.3451C23.3102 59.3451 22.5512 60.1095 22.549 62.9011L22.5482 64.0929C22.5456 66.8856 23.3068 67.6519 26.0881 67.6549L28.1837 67.6556C29.9419 67.6556 29.9239 66.5055 30.1515 65.773L33.9943 65.7768C33.7875 68.9106 32.4343 71 28.9818 71H25.755Z" fill="white"/>
<path fill-rule="evenodd" clip-rule="evenodd" d="M56 69.9888L56.0122 56L68.9652 56.0108L68.9617 59.251L59.6128 59.2429L59.6109 61.4858L65.9479 61.4914L65.9448 64.4714L59.6086 64.4659L59.6063 66.7523L69 66.7597L68.9969 70L56 69.9888Z" fill="white"/>
<path fill-rule="evenodd" clip-rule="evenodd" d="M72 69.9888L72.0118 56L75.4874 56.003L75.4786 66.7523L84 66.7597L83.9982 70L72 69.9888Z" fill="white"/>
<path fill-rule="evenodd" clip-rule="evenodd" d="M87 69.9888L87.0122 56L99.9648 56.0112L99.9617 59.2506L90.6131 59.2431L90.6112 61.486L96.948 61.4916L96.9449 64.4712L90.6085 64.4664L90.6066 66.7524L100 66.7598L99.9969 70L87 69.9888Z" fill="white"/>
<path fill-rule="evenodd" clip-rule="evenodd" d="M107.571 61.8099L113.798 61.8151C115.276 61.8151 115.436 60.9185 115.436 60.5331C115.437 60.1116 115.251 59.754 114.913 59.5273C114.633 59.3392 114.269 59.2478 113.8 59.2474L107.572 59.2419L107.571 61.8099ZM114.896 69.9967L112.143 65.0532L107.568 65.0499L107.564 69.99L104 69.987L104.013 56L113.693 56.0074C115.471 56.0089 116.819 56.4051 117.702 57.1846C118.565 57.9458 119.001 59.1021 119 60.6223C118.998 62.5878 118.157 63.927 116.498 64.6046L115.868 64.8618L118.864 70L114.896 69.9967Z" fill="white"/>
<path fill-rule="evenodd" clip-rule="evenodd" d="M128.096 64.2363L132.868 64.2404L130.488 58.3013L128.096 64.2363ZM135.165 69.997L134.151 67.4816L126.809 67.476L125.791 69.9888L122 69.9866L127.902 56L133.122 56.0041L139 70L135.165 69.997Z" fill="white"/>
<path fill-rule="evenodd" clip-rule="evenodd" d="M144.675 69.9967L144.684 59.2451L139 59.2407L139.003 56L154 56.0123L153.997 59.2533L148.313 59.2485L148.303 70L144.675 69.9967Z" fill="white"/>
<path fill-rule="evenodd" clip-rule="evenodd" d="M164.285 59.3443C161.436 59.3443 160.656 60.1087 160.654 62.9003L160.653 64.0925C160.651 65.3912 160.775 66.3177 161.396 66.9246C162.016 67.5315 162.966 67.6534 164.296 67.6546L165.698 67.6557C168.564 67.6557 169.344 66.8913 169.347 64.0997L169.348 62.9075C169.349 61.6251 169.226 60.7073 168.607 60.0947C167.981 59.4746 166.994 59.347 165.705 59.3454L164.285 59.3443ZM163.953 70.9989C158.556 70.9315 157.06 69.4681 157 64.1929L157.001 62.7867C157.071 57.5175 158.569 56.0568 163.974 56L166.047 56.0011C171.445 56.0685 172.941 57.5311 173 62.8075L172.998 64.2133C172.93 69.4799 171.432 70.9409 166.03 71L163.953 70.9989Z" fill="white"/>
<path fill-rule="evenodd" clip-rule="evenodd" d="M179.571 61.8105L185.798 61.815C187.276 61.815 187.436 60.9182 187.436 60.5331C187.437 60.2324 187.32 59.2494 185.8 59.2479L179.573 59.2427L179.571 61.8105ZM186.896 69.9967L184.143 65.0536L179.568 65.0503L179.564 69.99L176 69.987L176.013 56L185.693 56.0085C187.471 56.01 188.819 56.4062 189.702 57.1856C190.565 57.9467 191.001 59.103 191 60.6231C190.998 62.588 190.157 63.9275 188.498 64.6043L187.869 64.8622L190.864 70L186.896 69.9967Z" fill="white"/>
<path fill-rule="evenodd" clip-rule="evenodd" d="M182.546 0L182.532 2.15792L187.496 2.177L180.977 8.71793L182.47 10.2401L188.791 3.88197V8.37678H191V0H182.546ZM182.568 17.3382L182.606 19.5293L187.496 19.5159L180.963 26.0569L182.55 27.5428L188.791 21.2205V25.7523H191V17.3382H182.568ZM182.568 34.6775L182.606 36.8503L187.496 36.8545L180.963 43.4252L182.394 45L188.791 38.5594V43.0539H191V34.6775H182.568ZM142.605 0L142.643 2.15754L147.533 2.177L141 8.71793L142.478 10.2386L148.828 3.88197V8.37678H151.036V0H142.605ZM142.605 17.3382L142.643 19.5293L147.533 19.5159L141 26.0569L142.513 27.5428L148.828 21.2205V25.7523H151.036V17.3382H142.605ZM142.605 34.6775L142.643 36.9018L147.533 36.8545L141 43.395L142.513 44.9176L148.828 38.5594V43.0539H151.036V34.6775H142.605ZM162.569 0L162.607 2.15754L167.496 2.177L160.98 8.71754L162.474 10.2386L168.792 3.88197V8.37678H171V0H162.569ZM162.569 17.3382L162.607 19.5293L167.496 19.5159L160.963 26.0569L162.476 27.5428L168.792 21.2205V25.7523H171V17.3382H162.569ZM171 34.6775V43.0539H168.792V38.5594L162.476 44.9176L160.986 43.395L167.496 36.8545L162.607 36.9022L162.569 34.6775H171Z" fill="white"/>
</svg>
